<svg height="24.00001093647097" overflow="visible" viewBox="0 0 122.00001134987812 24.00001093647097" width="122.00001134987812" xmlns="http://www.w3.org/2000/svg"><g><defs><path id="path-17453992527431338" d="M24.81458,16.61048c-0.88135,-5.40126 -1.76862,-10.80251 -2.63519,-16.20672c-0.05619,-0.3536 -0.1952,-0.40369 -0.49687,-0.40075c-1.4285,0.01179 -2.857,0.00589 -4.28255,0.00589c-1.41371,0 -2.82743,0.01179 -4.24114,-0.00884c-0.33125,-0.00295 -0.51166,0.08545 -0.67137,0.38896c-0.8015,1.5087 -1.63257,2.99972 -2.45182,4.49957c-3.29472,6.01417 -6.58944,12.02833 -9.88416,18.04544c-0.23365,0.42432 -0.22773,0.43021 0.2366,0.43021c2.74166,0 5.48036,-0.00589 8.22201,0.00884c0.29871,0 0.42885,-0.09724 0.53532,-0.35949c0.30759,-0.7573 0.65954,-1.49691 0.96416,-2.25421c0.10351,-0.25636 0.2366,-0.33592 0.5087,-0.33592c1.87509,0.01179 3.75019,0.01473 5.62528,0c0.32533,0 0.42589,0.10903 0.43772,0.40959c0.02958,0.71604 0.08873,1.43208 0.1183,2.14813c0.01183,0.27699 0.0976,0.39485 0.40814,0.39191c2.76828,-0.01179 5.53951,-0.01179 8.30778,0c0.31942,0 0.38744,-0.08545 0.33716,-0.39191c-0.35491,-2.11866 -0.69503,-4.24321 -1.04106,-6.36187zM16.00105,14.85132c-1.06472,-0.00295 -2.12649,0 -3.25627,0c1.12387,-2.59013 2.46365,-5.03587 3.14684,-7.82342c0.15084,0.20332 0.11239,0.33003 0.0976,0.44789c-0.2366,1.99195 -0.02366,3.97507 0.13309,5.95818c0.02958,0.38601 0.05619,0.77203 0.0976,1.1551c0.0207,0.18269 -0.02662,0.2652 -0.22477,0.2652z" vector-effect="non-scaling-stroke"/></defs><path style="stroke-width: 0; stroke-linecap: butt; stroke-linejoin: miter; fill: rgb(242, 242, 243);" d="M24.81458,16.61048c-0.88135,-5.40126 -1.76862,-10.80251 -2.63519,-16.20672c-0.05619,-0.3536 -0.1952,-0.40369 -0.49687,-0.40075c-1.4285,0.01179 -2.857,0.00589 -4.28255,0.00589c-1.41371,0 -2.82743,0.01179 -4.24114,-0.00884c-0.33125,-0.00295 -0.51166,0.08545 -0.67137,0.38896c-0.8015,1.5087 -1.63257,2.99972 -2.45182,4.49957c-3.29472,6.01417 -6.58944,12.02833 -9.88416,18.04544c-0.23365,0.42432 -0.22773,0.43021 0.2366,0.43021c2.74166,0 5.48036,-0.00589 8.22201,0.00884c0.29871,0 0.42885,-0.09724 0.53532,-0.35949c0.30759,-0.7573 0.65954,-1.49691 0.96416,-2.25421c0.10351,-0.25636 0.2366,-0.33592 0.5087,-0.33592c1.87509,0.01179 3.75019,0.01473 5.62528,0c0.32533,0 0.42589,0.10903 0.43772,0.40959c0.02958,0.71604 0.08873,1.43208 0.1183,2.14813c0.01183,0.27699 0.0976,0.39485 0.40814,0.39191c2.76828,-0.01179 5.53951,-0.01179 8.30778,0c0.31942,0 0.38744,-0.08545 0.33716,-0.39191c-0.35491,-2.11866 -0.69503,-4.24321 -1.04106,-6.36187zM16.00105,14.85132c-1.06472,-0.00295 -2.12649,0 -3.25627,0c1.12387,-2.59013 2.46365,-5.03587 3.14684,-7.82342c0.15084,0.20332 0.11239,0.33003 0.0976,0.44789c-0.2366,1.99195 -0.02366,3.97507 0.13309,5.95818c0.02958,0.38601 0.05619,0.77203 0.0976,1.1551c0.0207,0.18269 -0.02662,0.2652 -0.22477,0.2652z" transform="translate(0.000012070691695953428, 0.000010936470971500967) rotate(0)" vector-effect="non-scaling-stroke"/></g><g><defs><path id="path-17453992527431336" d="M21.12046,1.78963c-0.00887,-0.17091 -0.01775,-0.34181 0.01183,-0.50388c0.00592,-0.02652 0.01183,-0.05304 0.01775,-0.08251c-0.00592,0.02652 -0.01183,0.05304 -0.01775,0.08251c-0.02958,0.16501 -0.0207,0.33297 -0.01183,0.50388c0.13901,-0.27404 0.16562,-0.56871 0.16562,-0.86927v0c0.18041,-0.32119 0.07098,-0.42432 -0.28097,-0.42137c-2.17676,0.00884 -4.35353,-0.00295 -6.53029,0.00884c-0.95529,0.00589 -0.76897,-0.18269 -0.98782,0.81034c-0.09168,0.42137 -0.03253,0.8899 -0.33716,1.25528c-1.08542,-1.83283 -2.72095,-2.67558 -4.83265,-2.56361c-1.89875,0.10019 -3.484,0.92526 -4.80899,2.2601c-1.70947,1.71791 -2.63814,3.83952 -3.16163,6.15855c-0.40223,1.78569 -0.52053,3.57432 0.00592,5.36c0.7453,2.54003 2.70321,3.97507 5.29699,3.84541c1.58229,-0.07956 2.94573,-0.73078 4.15833,-1.71497c0.48504,-0.39485 0.9405,-0.82507 1.47878,-1.30243c-0.13309,0.70426 -0.23365,1.326 -0.36969,1.93891c-0.07985,0.3536 -0.05028,0.48915 0.38448,0.4862c2.16198,-0.02652 4.32691,-0.02357 6.49184,0c0.39336,0.00295 0.49983,-0.1326 0.56489,-0.4862c0.5856,-3.17357 1.19485,-6.34125 1.79228,-9.51187c0.32829,-1.74738 0.64771,-3.49476 0.97008,-5.24508zM10.38452,10.9479c-1.36935,0.46557 -2.45182,-0.28877 -2.43111,-1.68845c0.0207,-1.41735 0.86361,-2.57539 2.09099,-2.87006c1.20964,-0.29172 2.14127,0.42432 2.15606,1.65603c0.01775,1.35547 -0.71869,2.52825 -1.81594,2.89953z" vector-effect="non-scaling-stroke"/></defs><path style="stroke-width: 0; stroke-linecap: butt; stroke-linejoin: miter; fill: rgb(242, 242, 243);" d="M21.12046,1.78963c-0.00887,-0.17091 -0.01775,-0.34181 0.01183,-0.50388c0.00592,-0.02652 0.01183,-0.05304 0.01775,-0.08251c-0.00592,0.02652 -0.01183,0.05304 -0.01775,0.08251c-0.02958,0.16501 -0.0207,0.33297 -0.01183,0.50388c0.13901,-0.27404 0.16562,-0.56871 0.16562,-0.86927v0c0.18041,-0.32119 0.07098,-0.42432 -0.28097,-0.42137c-2.17676,0.00884 -4.35353,-0.00295 -6.53029,0.00884c-0.95529,0.00589 -0.76897,-0.18269 -0.98782,0.81034c-0.09168,0.42137 -0.03253,0.8899 -0.33716,1.25528c-1.08542,-1.83283 -2.72095,-2.67558 -4.83265,-2.56361c-1.89875,0.10019 -3.484,0.92526 -4.80899,2.2601c-1.70947,1.71791 -2.63814,3.83952 -3.16163,6.15855c-0.40223,1.78569 -0.52053,3.57432 0.00592,5.36c0.7453,2.54003 2.70321,3.97507 5.29699,3.84541c1.58229,-0.07956 2.94573,-0.73078 4.15833,-1.71497c0.48504,-0.39485 0.9405,-0.82507 1.47878,-1.30243c-0.13309,0.70426 -0.23365,1.326 -0.36969,1.93891c-0.07985,0.3536 -0.05028,0.48915 0.38448,0.4862c2.16198,-0.02652 4.32691,-0.02357 6.49184,0c0.39336,0.00295 0.49983,-0.1326 0.56489,-0.4862c0.5856,-3.17357 1.19485,-6.34125 1.79228,-9.51187c0.32829,-1.74738 0.64771,-3.49476 0.97008,-5.24508zM10.38452,10.9479c-1.36935,0.46557 -2.45182,-0.28877 -2.43111,-1.68845c0.0207,-1.41735 0.86361,-2.57539 2.09099,-2.87006c1.20964,-0.29172 2.14127,0.42432 2.15606,1.65603c0.01775,1.35547 -0.71869,2.52825 -1.81594,2.89953z" transform="translate(25.878777141558544, 6.337358597131242) rotate(0)" vector-effect="non-scaling-stroke"/></g><g><defs><path id="path-17453992527431334" d="M123.50471676191665 40.10131227417043 C123.41894754363805 38.97568208174386 123.04629507801386 37.976758952862696 122.17381509897301 37.207676543901094 C121.23626881641052 36.38260729290781 120.091693386279 36.12035313812779 118.88796677112778 36.09972640685296 C116.61951882562165 36.0614196201997 114.8183652417713 37.06918277677008 113.30113734601558 38.67217446441419 C113.10889599470151 38.75468138951352 113.1118535539525 38.63976102955373 113.14438670571334 38.51010729011193 C113.218325686988 38.188919617403826 113.31296758301953 37.87362529648854 113.29226466826262 37.53770424429841 C113.29226466826262 37.53770424429841 113.29226466826262 37.53770424429841 113.29226466826262 37.53770424429841 C113.41648215680405 37.36679704230694 113.39873680129813 37.157583053662215 113.44901530856488 36.966049120395915 C113.5229542898395 36.683168234341075 113.41056703830205 36.59476795744893 113.12072623170545 36.59476795744893 C110.74876371241481 36.60360798513815 108.37680119312418 36.59771463334533 106.0018811145826 36.60360798513815 C105.87766362604118 36.60360798513815 105.69429495248008 36.52699441183162 105.6676769192212 36.75683513175119 C105.6676769192212 36.75683513175119 105.6676769192212 36.75683513175119 105.6676769192212 36.75683513175119 C105.51092627891897 36.99846255525636 105.51979895667192 37.26955673772559 105.51092627891897 37.540650920194814 C105.51092627891897 37.540650920194814 105.51092627891897 37.540650920194814 105.51092627891897 37.540650920194814 C105.20038255756543 39.16132266321735 104.88688127696095 40.779047730343486 104.57929511485844 42.39971947336603 C103.92567452039056 45.850276948055836 103.27796904442467 49.30378109864204 102.61547577220384 52.75433857333184 C102.56519726493707 53.02248607990466 102.57406994269004 53.13445976396804 102.89940146029848 53.13151308807163 C105.36600587562064 53.119726384486015 107.83261029094282 53.12267306038242 110.29921470626498 53.13151308807163 C110.53877700559484 53.13151308807163 110.6511642571323 53.07847292193635 110.69848520514809 52.81621876715634 C111.0918405855292 50.65925201098816 111.49111108441228 48.50228525481998 111.91404205730323 46.34826517454822 C112.08262293460945 45.493729164590874 112.16247703438604 44.6156197474623 112.5055539075004 43.796443848261816 C112.75103132533224 43.207108668980894 113.14438670571337 42.77689398810582 113.80392241868319 42.65018692456042 C114.48120348715895 42.51758650922222 114.91300713780286 42.844667533723126 114.92779493405779 43.5253496657926 C114.93371005255976 43.796443848261816 114.92779493405779 44.07343138252386 114.87455886754006 44.33863221320026 C114.36290111711949 47.09966752813139 113.839413129695 49.86070284306252 113.31888270152152 52.62173815799364 C113.25578810416717 52.95765921018376 113.39282168279615 53.12561973627883 113.72998343740853 53.12561973627883 C116.0960308381972 53.12561973627883 118.46207823898584 53.119726384486015 120.8281256397745 53.13151308807164 C121.15049959813193 53.13151308807164 121.30133511993223 53.07847292193635 121.36640142345391 52.716031786678585 C121.92242256263923 49.67211558569262 122.51097685358542 46.63114606060306 123.0817857890257 43.5901765355135 C123.29768761434765 42.43507958412289 123.59344353944624 41.29176933631789 123.50175920266568 40.09836559827403 C123.50175920266568 40.09836559827403 123.50471676191665 40.10131227417043 123.50471676191665 40.10131227417043 Z" vector-effect="non-scaling-stroke"/></defs> <path style="stroke-width: 0; stroke-linecap: butt; stroke-linejoin: miter; fill: rgb(242, 242, 243);" d="M100.66710430643366 10.3340647979212 C100.58133508815507 9.208434605494404 100.20868262253086 8.209511476613443 99.33620264349003 7.440429067652076 C98.39865636092753 6.615359816658383 97.25408093079602 6.353105661878544 96.05035431564477 6.332478930603429 C93.78190637013864 6.2941721439501634 91.98075278628829 7.301935300521109 90.4635248905326 8.904926988165244 C90.27128353921853 8.987433913263885 90.2742410984695 8.872513553304088 90.30677425023035 8.742859813862196 C90.38071323150501 8.421672141153977 90.47535512753655 8.106377820238777 90.45465221277962 7.770456768049371 C90.45465221277962 7.770456768049371 90.45465221277962 7.770456768049371 90.45465221277962 7.770456768049371 C90.57886970132105 7.599549566057249 90.56112434581513 7.39033557741277 90.61140285308187 7.198801644146442 C90.6853418343565 6.915920758091488 90.57295458281905 6.8275204811998265 90.28311377622245 6.8275204811998265 C87.91115125693182 6.836360508888902 85.53918873764118 6.830467157095882 83.1642686590996 6.836360508888902 C83.04005117055819 6.836360508888902 82.85668249699708 6.7597469355823705 82.8300644637382 6.989587655501964 C82.8300644637382 6.989587655501964 82.8300644637382 6.989587655501964 82.8300644637382 6.989587655501964 C82.67331382343598 7.231215079006688 82.68218650118892 7.502309261476512 82.67331382343598 7.773403443945426 C82.67331382343598 7.773403443945426 82.67331382343598 7.773403443945426 82.67331382343598 7.773403443945426 C82.36277010208244 9.394075186967711 82.04926882147795 11.011800254093941 81.74168265937544 12.632471997116227 C81.08806206490756 16.083029471806185 80.44035658894167 19.5365336223922 79.77786331672084 22.987091097082157 C79.72758480945407 23.255238603655016 79.73645748720705 23.367212287718758 80.06178900481548 23.364265611821793 C82.52839342013765 23.352478908236662 84.99499783545983 23.355425584132718 87.461602250782 23.364265611821793 C87.70116455011186 23.364265611821793 87.81355180164928 23.31122544568734 87.86087274966508 23.048971290906593 C88.25422813004622 20.89200453473859 88.6534986289293 18.735037778570586 89.07642960182022 16.581017698298638 C89.24501047912645 15.726481688341664 89.32486457890303 14.848372271212611 89.6679414520174 14.029196372012848 C89.91341886984924 13.439861192731769 90.30677425023038 13.009646511856772 90.96630996320019 12.882939448310935 C91.64359103167595 12.750339032972988 92.07539468231988 13.077420057473319 92.09018247857477 13.758102189543024 C92.09609759707678 14.029196372012848 92.09018247857477 14.306183906274782 92.03694641205706 14.571384736950677 C91.5252886616365 17.332420051881854 91.001800674212 20.093455366813032 90.48127024603852 22.85449068174421 C90.41817564868416 23.190411733934525 90.55520922731316 23.358372260029682 90.89237098192552 23.358372260029682 C93.25841838271418 23.358372260029682 95.62446578350284 23.352478908236662 97.9905131842915 23.364265611822702 C98.31288714264895 23.364265611822702 98.46372266444922 23.31122544568734 98.52878896797091 22.94878431042889 C99.08481010715622 19.90486810944367 99.67336439810242 16.863898584353592 100.2441733335427 13.822929059264425 C100.46007515886464 12.667832107873437 100.75583108396324 11.52452186006849 100.66414674718268 10.331118122024236 C100.66414674718268 10.331118122024236 100.66710430643366 10.3340647979212 100.66710430643366 10.3340647979212 Z" vector-effect="non-scaling-stroke"/></g><g><defs><path id="path-17453992527431332" d="M14.99406,0.61377c-2.06142,-0.7573 -4.19382,-0.78971 -6.29369,-0.22984c-4.10805,1.09911 -7.01829,3.56548 -8.32257,7.67314c-1.06472,3.35626 0.16858,6.6919 3.09952,8.45107c1.99044,1.1934 4.19382,1.35547 6.44156,1.04607c2.8363,-0.38896 5.2053,-1.69434 7.11885,-3.80416c1.64736,-1.8181 2.61744,-3.92792 2.66476,-6.04953c-0.02366,-3.55369 -1.7006,-5.9847 -4.70548,-7.08676zM9.7858,11.08036c-1.08838,0.21216 -1.92537,-0.45084 -1.94607,-1.55584c-0.01775,-0.9341 0.27801,-1.74738 0.99374,-2.38386c0.42885,-0.38012 0.94938,-0.55103 1.51131,-0.53924c0.97895,0.02357 1.54976,0.66595 1.54385,1.69434c-0.00592,1.40851 -0.86361,2.54298 -2.10578,2.78461z" vector-effect="non-scaling-stroke"/></defs><path style="stroke-width: 0; stroke-linecap: butt; stroke-linejoin: miter; fill: rgb(242, 242, 243);" d="M14.99406,0.61377c-2.06142,-0.7573 -4.19382,-0.78971 -6.29369,-0.22984c-4.10805,1.09911 -7.01829,3.56548 -8.32257,7.67314c-1.06472,3.35626 0.16858,6.6919 3.09952,8.45107c1.99044,1.1934 4.19382,1.35547 6.44156,1.04607c2.8363,-0.38896 5.2053,-1.69434 7.11885,-3.80416c1.64736,-1.8181 2.61744,-3.92792 2.66476,-6.04953c-0.02366,-3.55369 -1.7006,-5.9847 -4.70548,-7.08676zM9.7858,11.08036c-1.08838,0.21216 -1.92537,-0.45084 -1.94607,-1.55584c-0.01775,-0.9341 0.27801,-1.74738 0.99374,-2.38386c0.42885,-0.38012 0.94938,-0.55103 1.51131,-0.53924c0.97895,0.02357 1.54976,0.66595 1.54385,1.69434c-0.00592,1.40851 -0.86361,2.54298 -2.10578,2.78461z" transform="translate(61.06319057273265, 6.296257328449428) rotate(0)" vector-effect="non-scaling-stroke"/></g><g><defs><path id="path-17453992527421330" d="M140.77686278767388 37.254823358243804 C137.45256618956583 35.87872571462284 134.07503352494 35.63709829111766 130.67384038630632 36.89827557477884 C128.72776639915767 37.620211169397976 127.16913267388816 38.866655073577135 126.38833703162791 40.84387460006465 C125.35023373453186 43.46936282376118 125.95061826248197 45.48783581279836 128.869729243205 46.43371877554425 C129.61207661520243 46.67534619904942 130.38399957970972 46.77553317952718 131.1204318332052 47.02305395482517 C131.64983493913167 47.19985450860945 131.77405242767307 47.54756226438519 131.51082965433534 48.03081711139555 C131.37478192879 48.281284562589946 131.161837662719 48.449245088685004 130.89861488938126 48.546485393266366 C130.42244784997254 48.72033927115424 129.9344505735599 48.705605891672214 129.44941085639823 48.59952555940165 C128.31370810401967 48.34905810820725 127.35545890670028 47.7390961976515 126.4267853018907 47.073147445064045 C126.28778001709438 46.97590714048269 126.16652008780395 46.78142653131998 125.99202409199577 47.073147445064045 C125.06039292793525 48.62309896657288 124.11693152687079 50.167157136288914 123.1734701258063 51.711215306004945 C123.06995555202178 51.87917583210001 123.06699799277081 51.97936281257776 123.26515446258686 52.07954979305553 C125.00419930216653 52.96355256197692 126.83492847852675 53.52047430639738 128.7869175841774 53.656021397632 C129.79544528876357 53.80335519245223 130.8039729933497 53.80630186834864 131.8125006979359 53.6530747217356 C132.21768631532095 53.64423469404639 132.61399925495303 53.56467444484346 133.00735463533417 53.476274167951324 C135.4148078656366 52.94587250659849 137.4614388673188 51.855602424928776 138.82783124127425 49.72810242772463 C139.33948899169482 48.93249993569538 139.6677780685542 48.060283870359605 139.77129264233872 47.12324093530293 C139.97240667140576 45.290408527739245 139.088096455361 44.020391216388845 137.22187656798897 43.32202902894095 C136.21926398190476 42.94780119009756 135.1634153293028 42.785734015795306 134.14897250621468 42.470439694880014 C133.83547122561018 42.37319939029865 133.51605482650373 42.25238567854607 133.50422458949978 41.86931781201347 C133.49239435249584 41.489196621377275 133.72012641482175 41.22988914249367 134.05433061018314 41.061928616398596 C134.5186674125879 40.83208789647904 135.0066646890006 40.84682127596106 135.48874684691128 40.955848284128024 C136.39080241846196 41.16211559687635 137.15681026446728 41.651263795679526 137.89620007721373 42.178718781135956 C138.09435654702978 42.32015922416337 138.20082868006526 42.358466010816635 138.34870664261456 42.105051883725835 C139.19161102914552 40.63760728731633 140.05226077118238 39.17900271859603 140.91586807247023 37.72039814987574 C141.05191579801559 37.490557429956176 141.06078847576856 37.375637069996394 140.7739052284229 37.257770034140215 C140.7739052284229 37.257770034140215 140.77686278767388 37.254823358243804 140.77686278767388 37.254823358243804 Z" vector-effect="non-scaling-stroke"/></defs> <path style="stroke-width: 0; stroke-linecap: butt; stroke-linejoin: miter; fill: rgb(242, 242, 243);" d="M117.9392503321908 7.487575881993507 C114.61495373408275 6.111478238372911 111.2374210694569 5.869850814867277 107.83622793082321 7.1310280985289864 C105.89015394367459 7.852963693148013 104.33152021840505 9.099407597326717 103.55072457614483 11.076627123814433 C102.51262127904874 13.702115347510698 103.11300580699887 15.720588336547735 106.03211678772192 16.666471299294244 C106.77446415971934 16.908098722798968 107.54638712422661 17.00828570327667 108.28281937772209 17.255806478575323 C108.81222248364855 17.432607032359556 108.93643997218999 17.780314788135 108.67321719885223 18.26356963514536 C108.5371694733069 18.514037086340068 108.32422520723588 18.681997612434316 108.06100243389818 18.779237917015962 C107.58483539448946 18.95309179490414 107.09683811807679 18.938358415422044 106.61179840091512 18.832278083151323 C105.47609564853656 18.581810631956614 104.51784645121717 17.97184872140133 103.58917284640762 17.30589996881372 C103.4501675616113 17.208659664232073 103.32890763232086 17.01417905506969 103.15441163651269 17.30589996881372 C102.22278047245214 18.855851490322493 101.2793190713877 20.399909660038247 100.33585767032321 21.94396782975491 C100.23234309653867 22.11192835585007 100.22938553728773 22.21211533632777 100.42754200710377 22.31230231680547 C102.16658684668343 23.196305085726635 103.99731602304365 23.75322683014747 105.94930512869428 23.88877392138147 C106.95783283328046 24.036107716201514 107.96636053786659 24.03905439209848 108.97488824245278 23.885827245485416 C109.38007385983786 23.87698721779634 109.77638679946995 23.797426968592845 110.16974217985108 23.709026691701183 C112.57719541015348 23.178625030348485 114.6238264118357 22.088354948678898 115.99021878579117 19.960854951474175 C116.50187653621174 19.165252459444673 116.83016561307113 18.29303639410955 116.93368018685561 17.355993459053025 C117.13479421592268 15.523161051489296 116.25048399987793 14.253143740138512 114.38426411250589 13.554781552690656 C113.38165152642165 13.180553713847075 112.32580287381973 13.018486539544938 111.3113600507316 12.703192218629738 C110.9978587701271 12.605951914048092 110.67844237102065 12.485138202296184 110.6666121340167 12.102070335763528 C110.65478189701275 11.721949145126928 110.88251395933867 11.462641666243144 111.21671815470006 11.294681140147986 C111.68105495710478 11.064840420228393 112.1690522335175 11.079573799710488 112.65113439142817 11.188600807878174 C113.55318996297888 11.394868120625688 114.3191978089842 11.884016319429065 115.05858762173062 12.411471304885708 C115.2567440915467 12.55291174791273 115.36321622458217 12.591218534565996 115.51109418713145 12.337804407475232 C116.35399857366241 10.87035981106601 117.21464831569926 9.411755242345862 118.07825561698712 7.953150673625714 C118.2143033425325 7.723309953706121 118.22317602028545 7.608389593746324 117.9362927729398 7.4905225578895624 C117.9362927729398 7.4905225578895624 117.9392503321908 7.487575881993507 117.9392503321908 7.487575881993507 Z" vector-effect="non-scaling-stroke"/></g><g><defs><path id="path-17453992527421328" d="M84.38803810837821 36.10267308274942 C82.20831694040166 36.155713248884695 80.47814477857494 37.139902998283844 79.01711050858796 38.67512114031065 C78.74501505749727 38.69280119568908 78.84852963128178 38.507160614215586 78.87219010528965 38.386346902463 C78.93134129030936 38.05042585027288 79.0318983048429 37.720398149875564 79.02006806783895 37.37269039409981 C79.02006806783895 37.37269039409981 79.02006806783895 37.37269039409981 79.02006806783895 37.37269039409981 C79.32173911143948 36.69495493792675 79.26850304492174 36.603607985138204 78.5734766209401 36.603607985138204 C76.44107640097933 36.603607985138204 74.30867618101855 36.603607985138204 72.17627596105778 36.603607985138204 C71.56307534302006 36.603607985138204 71.24267309082992 36.9159556301571 71.21506920448739 37.54065092019488 C71.21506920448739 37.54065092019488 71.21506920448739 37.54065092019488 71.21506920448739 37.54065092019488 C70.96663422740458 38.418760337323455 70.80101090934937 39.30865645803765 70.70636901331784 40.21623263413027 C70.70636901331784 40.21623263413027 70.70636901331784 40.222125985923086 70.70636901331784 40.222125985923086 C70.61172711728629 40.31052626281523 70.62059979503924 40.43133997456781 70.59989688028234 40.543313658631185 C70.29231071817982 42.146305346275305 69.97585187832433 43.74929703391941 69.6889686309787 45.35818207335634 C69.50559995741759 46.40130534068357 69.2335045063269 47.42969522852879 69.14477772879731 48.48755187533805 C69.14477772879731 48.48755187533805 69.14477772879731 48.48755187533805 69.14477772879731 48.48755187533805 C69.02056024025592 48.76159273370368 68.96436661448718 49.04742029565493 68.97915441074211 49.34798123708819 C68.97915441074211 49.34798123708819 68.97915441074211 49.35682126477741 68.97915441074211 49.35682126477741 C68.73367699291028 50.28797084804127 68.55918099710213 51.23090713489076 68.44679374556466 52.185630125325844 C68.09188663544637 53.11972638448611 68.13329246496016 53.17865990241421 69.10041434003253 53.12561973627892 C69.11520213628746 53.12561973627892 69.1270323732914 53.11972638448611 69.14182016954632 53.116779708589696 C69.20097135456604 53.116779708589696 69.25716498033476 53.116779708589696 69.3163161653545 53.116779708589696 C71.504910011084 53.12267306038251 73.69646141606447 53.116779708589696 75.88505526179398 53.146246467553745 C76.30798623468495 53.15213981934656 76.4647368749872 53.01953940400834 76.40854324921847 52.61584480620091 C76.44403396023029 52.46261765958788 76.4824822304931 52.309390512974836 76.51205782300296 52.15321669046539 C76.8610498146193 50.3085975793161 77.20708424698465 48.4610317922704 77.55903379785195 46.61641268112111 C77.72761467515814 45.738303263992535 78.07660666677448 44.9515407996525 78.7598028537522 44.33568553730393 C79.72100961032258 43.46641614786457 81.54286610892986 43.00968138392185 83.11037251195232 43.92020423591088 C83.4475342665647 44.11468484507358 83.54513372184724 44.05280465124908 83.6131575846199 43.67268346061289 C84.03313099825989 41.34480950245324 84.48268000440973 39.022828896086395 84.91744121430466 36.69790161382315 C85.02982846584212 36.09383305506021 85.01799822883817 36.08499302737099 84.3909956676292 36.10267308274942 C84.3909956676292 36.10267308274942 84.38803810837821 36.10267308274942 84.38803810837821 36.10267308274942 Z" vector-effect="non-scaling-stroke"/></defs> <path style="stroke-width: 0; stroke-linecap: butt; stroke-linejoin: miter; fill: rgb(242, 242, 243);" d="M61.55042565289516 6.335425606500394 C59.370704484918605 6.3884657726357545 57.64053232309189 7.37265552203462 56.17949805310491 8.907873664061299 C55.907402602014216 8.92555371943945 56.010917175798724 8.739913137966141 56.03457764980659 8.619099426213324 C56.09372883482631 8.283178374023919 56.194285849359844 7.953150673625714 56.182455612355895 7.605442917850269 C56.182455612355895 7.605442917850269 56.182455612355895 7.605442917850269 56.182455612355895 7.605442917850269 C56.48412665595643 6.927707461677528 56.43089058943869 6.836360508888902 55.735864165457045 6.836360508888902 C53.60346394549627 6.836360508888902 51.4710637255355 6.836360508888902 49.33866350557473 6.836360508888902 C48.725462887537006 6.836360508888902 48.40506063534687 7.148708153908046 48.37745674900434 7.773403443945426 C48.37745674900434 7.773403443945426 48.37745674900434 7.773403443945426 48.37745674900434 7.773403443945426 C48.12902177192153 8.65151286107448 47.96339845386632 9.541408981788663 47.868756557834786 10.448985157880998 C47.868756557834786 10.448985157880998 47.868756557834786 10.454878509674018 47.868756557834786 10.454878509674018 C47.77411466180324 10.54327878656568 47.782987339556186 10.664092498318496 47.76228442479929 10.776066182382237 C47.454698262696766 12.379057870025463 47.13823942284128 13.982049557669598 46.85135617549565 15.590934597106752 C46.66798750193453 16.634057864434 46.39589205084384 17.66244775227915 46.307165273314254 18.72030439908849 C46.307165273314254 18.72030439908849 46.307165273314254 18.72030439908849 46.307165273314254 18.72030439908849 C46.182947784772864 18.99434525745437 46.12675415900412 19.28017281940538 46.14154195525906 19.580733760838484 C46.14154195525906 19.580733760838484 46.14154195525906 19.58957378852756 46.14154195525906 19.58957378852756 C45.89606453742722 20.520723371791973 45.72156854161908 21.463659658641518 45.60918129008161 22.418382649076193 C45.25427417996332 23.352478908236662 45.29568000947711 23.411412426165043 46.262801884549475 23.358372260029682 C46.27758968080441 23.358372260029682 46.289419917808345 23.352478908236662 46.30420771406327 23.349532232340607 C46.36335889908298 23.349532232340607 46.41955252485171 23.349532232340607 46.47870370987144 23.349532232340607 C48.66729755560094 23.355425584132718 50.85884896058141 23.349532232340607 53.047442806310926 23.378998991304798 C53.47037377920189 23.384892343096908 53.62712441950414 23.25229192775896 53.570930793735414 22.84859732995119 C53.60642150474723 22.695370183338127 53.64486977501005 22.542143036725065 53.67444536751991 22.385969214215947 C54.02343735913625 20.54135010306709 54.369471791501596 18.693784316021265 54.7214213423689 16.849165204871497 C54.89000221967508 15.971055787743353 55.23899421129143 15.184293323402926 55.92219039826915 14.568438061054621 C56.88339715483953 13.699168671615553 58.7052536534468 13.242433907672421 60.27276005646927 14.15295675966172 C60.60992181108165 14.347437368824103 60.70752126636418 14.285557174999667 60.775545129136844 13.905435984363066 C61.19551854277684 11.57756202620385 61.645067548926676 9.255581419836744 62.079828758821606 6.930654137573583 C62.19221601035906 6.326585578810409 62.18038577335511 6.317745551121334 61.553383212146144 6.335425606500394 C61.553383212146144 6.335425606500394 61.55042565289516 6.335425606500394 61.55042565289516 6.335425606500394 Z" vector-effect="non-scaling-stroke"/></g><g><defs><path id="path-17453992527421326" d="M124.48366887399241 39.15248263552823 C124.97462370965604 39.14364260783901 125.46557854531969 39.125962552460585 125.95357582173237 39.155429311424626 C126.30552537259965 39.17900271859587 126.49185160541175 39.05524233094687 126.651559804965 38.739948010031576 C127.64529971329623 36.783355214818904 128.65974253638439 34.83854912319186 129.66827024097051 32.887849679771996 C129.71854874823728 32.79060937519065 129.7984028480139 32.6963157465057 129.76882725550402 32.540141923996245 C128.49411921832916 32.540141923996245 127.2134960626523 32.543088599892656 125.93287290697545 32.53719524809984 C125.71401352240248 32.53719524809984 125.68148037064164 32.65800895985243 125.64303210037883 32.825969485947496 C125.18165285722505 34.83560244729545 124.71731605482026 36.845235408643404 124.24410657466252 38.85192169409495 C124.18495538964282 39.09649579349654 124.25593681166649 39.155429311424626 124.48662643324336 39.15248263552823 C124.48662643324336 39.15248263552823 124.48366887399241 39.15248263552823 124.48366887399241 39.15248263552823 Z" vector-effect="non-scaling-stroke"/></defs> <path style="stroke-width: 0; stroke-linecap: butt; stroke-linejoin: miter; fill: rgb(242, 242, 243);" d="M101.64605641851 9.385235159277727 C102.13701125417361 9.376395131588652 102.62796608983729 9.358715076210501 103.11596336624996 9.388181835174692 C103.46791291711725 9.411755242345862 103.65423914992934 9.28799485469699 103.81394734948259 8.97270053378088 C104.80768725781382 7.01610773856828 105.82213008090196 5.07130164694172 106.83065778548809 3.1206022035221395 C106.88093629275488 3.023361898940493 106.96079039253146 2.9290682702558115 106.93121480002162 2.7728944477457844 C105.65650676284673 2.7728944477457844 104.3758836071699 2.775841123642749 103.09526045149303 2.769947771849729 C102.87640106692007 2.769947771849729 102.84386791515922 2.890761483602546 102.8054196448964 3.058722009696794 C102.34404040174263 5.068354971044755 101.87970359933786 7.077987932392716 101.40649411918011 9.084674217844622 C101.3473429341604 9.32924831724631 101.41832435618409 9.388181835174692 101.64901397776094 9.385235159277727 C101.64901397776094 9.385235159277727 101.64605641851 9.385235159277727 101.64605641851 9.385235159277727 Z" vector-effect="non-scaling-stroke"/></g><g><defs><path id="path-17453992527411324" d="M1.92549,0.00013c-1.05585,-0.01179 -1.91058,0.81034 -1.92537,1.85051c-0.01183,1.02839 0.84882,1.89471 1.88692,1.89766c1.02923,0 1.8603,-0.82507 1.86918,-1.85935c0.00592,-1.04312 -0.8015,-1.87703 -1.83073,-1.88882zM1.89592,3.35934c-0.80446,0 -1.46695,-0.68658 -1.45216,-1.5028c0.01479,-0.80444 0.67728,-1.49691 1.43442,-1.49691c0.79854,0 1.43737,0.67774 1.43146,1.52343c-0.00296,0.8398 -0.60926,1.47334 -1.41371,1.47628z" vector-effect="non-scaling-stroke"/></defs><path style="stroke-width: 0; stroke-linecap: butt; stroke-linejoin: miter; fill: rgb(242, 242, 243);" d="M1.92549,0.00013c-1.05585,-0.01179 -1.91058,0.81034 -1.92537,1.85051c-0.01183,1.02839 0.84882,1.89471 1.88692,1.89766c1.02923,0 1.8603,-0.82507 1.86918,-1.85935c0.00592,-1.04312 -0.8015,-1.87703 -1.83073,-1.88882zM1.89592,3.35934c-0.80446,0 -1.46695,-0.68658 -1.45216,-1.5028c0.01479,-0.80444 0.67728,-1.49691 1.43442,-1.49691c0.79854,0 1.43737,0.67774 1.43146,1.52343c-0.00296,0.8398 -0.60926,1.47334 -1.41371,1.47628z" transform="translate(118.2437590041967, 3.208878800621278) rotate(0)" vector-effect="non-scaling-stroke"/></g><g><defs><path id="path-17453992527411322" d="M1.08542,0.58639c0.03253,-0.06483 0.05028,-0.12671 0.05028,-0.19448c0,-0.05304 -0.00887,-0.10313 -0.02662,-0.14439c-0.01775,-0.04125 -0.04141,-0.08251 -0.07098,-0.11492c-0.03549,-0.04125 -0.07985,-0.07367 -0.13309,-0.09724c-0.05324,-0.02063 -0.12718,-0.03241 -0.22477,-0.03536h-0.68024v1.38199h0.28393v-0.54219h0.29871c0.08577,0 0.14492,0.01473 0.1745,0.0442c0.02958,0.02947 0.04732,0.0884 0.04732,0.1768v0.12965v0.11787v0.07367h0.29871v-0.11197c0,0 -0.00887,-0.06483 -0.00887,-0.12965v-0.09135c0,-0.09724 -0.01479,-0.16796 -0.04141,-0.21511c-0.02662,-0.04715 -0.07098,-0.08251 -0.13605,-0.10903c0.0769,-0.02652 0.13013,-0.07072 0.16562,-0.13555zM0.76009,0.58639c-0.03253,0.01473 -0.08281,0.02357 -0.14788,0.02357h-0.32829v-0.37128h0.33716c0.06211,0 0.10943,0.00884 0.14196,0.02357c0.05619,0.02947 0.08281,0.08545 0.08281,0.16796c0,0.07661 -0.02958,0.12965 -0.08577,0.15617z" vector-effect="non-scaling-stroke"/></defs><path style="stroke-width: 0; stroke-linecap: butt; stroke-linejoin: miter; fill: rgb(242, 242, 243);" d="M1.08542,0.58639c0.03253,-0.06483 0.05028,-0.12671 0.05028,-0.19448c0,-0.05304 -0.00887,-0.10313 -0.02662,-0.14439c-0.01775,-0.04125 -0.04141,-0.08251 -0.07098,-0.11492c-0.03549,-0.04125 -0.07985,-0.07367 -0.13309,-0.09724c-0.05324,-0.02063 -0.12718,-0.03241 -0.22477,-0.03536h-0.68024v1.38199h0.28393v-0.54219h0.29871c0.08577,0 0.14492,0.01473 0.1745,0.0442c0.02958,0.02947 0.04732,0.0884 0.04732,0.1768v0.12965v0.11787v0.07367h0.29871v-0.11197c0,0 -0.00887,-0.06483 -0.00887,-0.12965v-0.09135c0,-0.09724 -0.01479,-0.16796 -0.04141,-0.21511c-0.02662,-0.04715 -0.07098,-0.08251 -0.13605,-0.10903c0.0769,-0.02652 0.13013,-0.07072 0.16562,-0.13555zM0.76009,0.58639c-0.03253,0.01473 -0.08281,0.02357 -0.14788,0.02357h-0.32829v-0.37128h0.33716c0.06211,0 0.10943,0.00884 0.14196,0.02357c0.05619,0.02947 0.08281,0.08545 0.08281,0.16796c0,0.07661 -0.02958,0.12965 -0.08577,0.15617z" transform="translate(119.5599847754155, 4.367054107705371) rotate(0)" vector-effect="non-scaling-stroke"/></g></svg>