<svg version="1.2" xmlns="http://www.w3.org/2000/svg" xmlns:xlink="http://www.w3.org/1999/xlink" overflow="visible" preserveAspectRatio="none" viewBox="0 0 60.000009999999996 42" width="60.000009999999996" height="42"><g transform="translate(0, 0)"><g transform="translate(0.000009999999999177334, 0.000009999999999621423) rotate(0)"><path style="stroke-width: 0; stroke-linecap: butt; stroke-linejoin: miter; fill: url(&quot;#gradient-17453174993024733&quot;);" d="M39.69017,25.23298v-14.11453h-2.08092v14.11453c0,0.46728 -0.37457,0.83835 -0.84624,0.83835h-16.96647l-10.70983,7.17408l2.15029,-7.17408h-8.30983c0,0 -0.36069,0 -0.59653,-0.24738c-0.16647,-0.16492 -0.24971,-0.37107 -0.24971,-0.59097v-22.33312c0,-0.46728 0.37457,-0.83835 0.84624,-0.83835h33.83584c0.47168,0 0.84624,0.37107 0.84624,0.83835v2.83115h2.08092v-2.83115c0,-1.59424 -1.31792,-2.89987 -2.92717,-2.89987h-33.83584c-1.60925,0 -2.92717,1.30563 -2.92717,2.89987v22.33312c0,0.76963 0.3052,1.49804 0.86012,2.04777c0.77688,0.76963 1.70636,0.85209 2.06705,0.85209h5.52139l-3.0104,10.04647l14.99653,-10.04647h16.32832c1.60925,0 2.92717,-1.30563 2.92717,-2.89987zM60,20.69764c0,-7.36649 -6.04855,-13.37238 -13.49827,-13.37238h-13.45665c-7.43584,0 -13.49827,5.99215 -13.49827,13.37238c0,1.23691 0.18035,2.43259 0.49942,3.58704h2.17803c-0.38844,-1.14071 -0.59653,-2.35013 -0.59653,-3.58704c0,-6.23953 5.11908,-11.31086 11.41734,-11.31086h13.45665c6.29827,0 11.41734,5.07134 11.41734,11.31086c0,6.23953 -5.11908,11.31086 -11.41734,11.31086h-1.74798l2.08092,5.5661l-10.37688,-5.5661h-3.41272c-1.01272,0 -4.27283,-0.2199 -7.18613,-2.54254h-2.99653c0.20809,0.23364 0.41618,0.46728 0.63815,0.70092c3.66243,3.62827 8.22659,3.91688 9.54451,3.91688h2.88555l14.77457,7.91623l-2.98266,-7.9712c6.86705,-0.61846 12.27746,-6.34948 12.27746,-13.31741z" vector-effect="non-scaling-stroke"/></g><defs><path id="path-17453174984162886" d="M39.69017,25.23298v-14.11453h-2.08092v14.11453c0,0.46728 -0.37457,0.83835 -0.84624,0.83835h-16.96647l-10.70983,7.17408l2.15029,-7.17408h-8.30983c0,0 -0.36069,0 -0.59653,-0.24738c-0.16647,-0.16492 -0.24971,-0.37107 -0.24971,-0.59097v-22.33312c0,-0.46728 0.37457,-0.83835 0.84624,-0.83835h33.83584c0.47168,0 0.84624,0.37107 0.84624,0.83835v2.83115h2.08092v-2.83115c0,-1.59424 -1.31792,-2.89987 -2.92717,-2.89987h-33.83584c-1.60925,0 -2.92717,1.30563 -2.92717,2.89987v22.33312c0,0.76963 0.3052,1.49804 0.86012,2.04777c0.77688,0.76963 1.70636,0.85209 2.06705,0.85209h5.52139l-3.0104,10.04647l14.99653,-10.04647h16.32832c1.60925,0 2.92717,-1.30563 2.92717,-2.89987zM60,20.69764c0,-7.36649 -6.04855,-13.37238 -13.49827,-13.37238h-13.45665c-7.43584,0 -13.49827,5.99215 -13.49827,13.37238c0,1.23691 0.18035,2.43259 0.49942,3.58704h2.17803c-0.38844,-1.14071 -0.59653,-2.35013 -0.59653,-3.58704c0,-6.23953 5.11908,-11.31086 11.41734,-11.31086h13.45665c6.29827,0 11.41734,5.07134 11.41734,11.31086c0,6.23953 -5.11908,11.31086 -11.41734,11.31086h-1.74798l2.08092,5.5661l-10.37688,-5.5661h-3.41272c-1.01272,0 -4.27283,-0.2199 -7.18613,-2.54254h-2.99653c0.20809,0.23364 0.41618,0.46728 0.63815,0.70092c3.66243,3.62827 8.22659,3.91688 9.54451,3.91688h2.88555l14.77457,7.91623l-2.98266,-7.9712c6.86705,-0.61846 12.27746,-6.34948 12.27746,-13.31741z" vector-effect="non-scaling-stroke"/><linearGradient id="gradient-17453174993024733" x1="15%" y1="15%" x2="85%" y2="85%" vector-effect="non-scaling-stroke"><stop offset="0%" stop-color="rgb(0,89,178)" stop-opacity="1" vector-effect="non-scaling-stroke"/><stop offset="100%" stop-color="rgb(181,245,140)" stop-opacity="1" vector-effect="non-scaling-stroke"/></linearGradient></defs></g></svg>