<svg height="24.000004783652003" overflow="visible" viewBox="0 0 155.00000219259726 24.000004783652003" width="155.00000219259726" xmlns="http://www.w3.org/2000/svg"><g><defs><path id="path-17453992527411320" d="M37.215017548371705 37.764603607205665 C32.35768500085845 43.249220567152705 27.503857022282805 49.18270643430768 22.797220939086348 54.786554197731824 C22.527369130891167 55.11619230146266 22.380177235511976 55.53350011363254 22.16990309925599 55.891192524063875 C21.423429915547246 57.77083107299713 21.991170083438405 60.00465524402415 23.4525753304175 61.256578680533806 C26.165111688119705 61.316194082272354 28.78652925344431 61.375809484010915 31.61471638608731 61.256578680533806 C31.58317526564891 61.01811707357958 31.376405698330522 60.867325175064416 31.257250354452136 60.66042466314826 C30.272466482986605 59.19809392638489 30.272466482986605 57.05193946379692 31.19767268251294 55.59311551537111 C35.9638864376486 49.6911907432542 40.88079665710104 43.93655108131487 45.885321099993476 38.034626309197954 C45.944898771932664 37.9750109074594 46.036017564310264 37.82421900894423 45.885321099993476 37.76460360720568 C44.63418998927037 37.796164702243736 43.38305887854725 37.76460360720568 42.131927767824145 37.73304251216762 C41.17868501679701 37.73304251216762 40.253478817270675 37.70148141712956 39.359813738182744 37.70148141712956 C38.6448816749124 37.70148141712956 37.92994961164205 37.70148141712956 37.215017548371705 37.76109681886811" vector-effect="non-scaling-stroke"/></defs> <path style="stroke-width: 0; stroke-linecap: butt; stroke-linejoin: miter; fill: rgb(242, 242, 243);" d="M15.373468675547201 0.06312219007577369 C10.516136128033963 5.547739150022608 5.662308149458312 11.481225017178076 0.9556720662618545 17.085072780601877 C0.6858202580666841 17.414710884332635 0.5386283626874899 17.832018696502928 0.32835422643148604 18.189711106933828 C-0.4181189572772439 20.069349655866972 0.14962121061392963 22.303173826894636 1.611026457592999 23.555097263403695 C4.323562815295219 23.61471266514218 6.944980380619825 23.67432806688157 9.77316751326282 23.555097263403695 C9.7416263928244 23.316635656449762 9.53485682550604 23.165843757934454 9.41570148162765 22.958943246018862 C8.430917610162112 21.4966125092551 8.430917610162112 19.350458046666972 9.356123809688427 17.89163409824141 C14.122337564824079 11.989709326124284 19.03924778427654 6.2350696641851755 24.043772227168972 0.33314489206804865 C24.103349899108196 0.2735294903295653 24.19446869148578 0.12273759181425703 24.043772227168972 0.06312219007577369 C22.792641116445907 0.09468328511411528 21.541510005722785 0.06312219007577369 20.290378894999662 0.031561095037432096 C19.337136143972543 0.031561095037432096 18.41192994444617 0 17.518264865358276 0 C16.80333280208788 0 16.08840073881754 0 15.373468675547201 0.05961540173848334" vector-effect="non-scaling-stroke"/></g><g><defs><path id="path-17453992527401318" d="M42.489393799459286 42.98270465349773 C42.489393799459286 42.98270465349773 42.45785267902089 43.2807816621905 42.45785267902089 43.2807816621905 C42.45785267902089 43.2807816621905 48.86420469695322 51.090399289941125 48.86420469695322 51.090399289941125 C50.115335807676324 52.7000151368821 51.545199934217024 54.16234587364546 52.649139149560945 55.85963142902548 C53.45519000520889 57.56042377274306 53.1573016455129 59.825809038808124 51.962243637791396 61.28463298723393 C51.962243637791396 61.28463298723393 51.99378475822979 61.403863790711036 51.99378475822979 61.403863790711036 C51.99378475822979 61.403863790711036 59.949156246581204 61.403863790711036 59.949156246581204 61.403863790711036 C60.45731874253316 61.31268729393443 60.72366598179075 60.77614867828744 61.081132013425915 60.39040196115562 C61.946760541013056 58.84040151595321 62.006338212952244 56.694247053365245 61.04959089298752 55.203862009901385 C56.40253248173026 49.48078344300016 51.66435527809541 43.66652837932233 46.95771919489895 38.00306521415966 C46.95771919489895 38.00306521415966 46.74744505864297 37.971504119121605 46.74744505864297 37.971504119121605 C46.74744505864297 37.971504119121605 42.485889230521686 42.979197865160174 42.485889230521686 42.979197865160174" vector-effect="non-scaling-stroke"/></defs> <path style="stroke-width: 0; stroke-linecap: butt; stroke-linejoin: miter; fill: rgb(242, 242, 243);" d="M20.647844926635173 5.2812232363685325 C20.647844926635173 5.2812232363685325 20.61630380619681 5.579300245061859 20.61630380619681 5.579300245061859 C20.61630380619681 5.579300245061859 27.022655824129117 13.388917872812272 27.022655824129117 13.388917872812272 C28.27378693485224 14.99853371975314 29.703651061392918 16.4608644565169 30.807590276736846 18.158150011896396 C31.613641132384828 19.85894235561409 31.315752772688825 22.124327621679186 30.12069476496731 23.583151570104746 C30.12069476496731 23.583151570104746 30.15223588540573 23.702382373581713 30.15223588540573 23.702382373581713 C30.15223588540573 23.702382373581713 38.107607373757105 23.702382373581713 38.107607373757105 23.702382373581713 C38.615769869709084 23.611205876805798 38.88211710896667 23.074667261158538 39.23958314060184 22.688920544026587 C40.105211668188986 21.1389200988242 40.16478934012815 18.992765636236072 39.20804202016342 17.50238059277217 C34.560983608906156 11.779302025871402 29.822806405271308 5.96504696219381 25.11617032207488 0.30158379703061655 C25.11617032207488 0.30158379703061655 24.905896185818847 0.27002270199227496 24.905896185818847 0.27002270199227496 C24.905896185818847 0.27002270199227496 20.644340357697615 5.277716448031242 20.644340357697615 5.277716448031242" vector-effect="non-scaling-stroke"/></g><g><defs><path id="path-17453992527401316" d="M39.50700563356175 48.88462942561189 C38.28391107433944 51.746168709062346 40.69855907234566 53.864268864949686 41.802498287689566 56.18926953275319 C42.489393799459116 54.69888448928941 43.91925792599981 53.41539995774178 44.33630162957417 51.74616870906235 C45.20193015716131 49.21076074100515 43.14474819079026 47.18383708189442 41.89361708006716 45.21652882452223 C41.05952967291843 46.40883685929325 40.106286921891304 47.60114489406428 39.51051020249935 48.884629425611905" vector-effect="non-scaling-stroke"/></defs> <path style="stroke-width: 0; stroke-linecap: butt; stroke-linejoin: miter; fill: rgb(242, 242, 243);" d="M17.66545676073781 11.18314800848475 C16.442362201515493 14.044687291935588 18.85701019952171 16.162787447822666 19.960949414865638 18.487788115626245 C20.647844926635173 16.997403072162342 22.07770905317591 15.71391854061494 22.494752756750245 14.044687291935588 C23.360381284337393 11.509279323878218 21.303199317966346 9.482355664767056 20.052068207243224 7.515047407395286 C19.217980800094494 8.707355442165863 18.264738049067375 9.899663476937349 17.668961329675426 11.18314800848475" vector-effect="non-scaling-stroke"/></g><g><defs><path id="path-17453992527401314" d="M124.11080435615764 45.812682841910984 C123.06644281275292 46.408836859296535 122.085163510225 47.453859783890046 121.07234308725864 48.169244604752706 C119.61093784027955 49.7508061449932 116.96148372345414 48.169244604752706 115.55965614841423 49.87003694847031 C115.28980434021906 50.02082884698548 115.05149365246228 50.73621366784814 114.6659910693263 50.46619096585586 C114.6659910693263 49.83847585343225 114.81668753364309 49.035421324130525 114.09825090143514 48.76539862213826 C113.08543047846882 48.61460672362308 111.95345471162408 48.73383752710019 110.96867084015855 48.85657511891486 C110.52008601614578 48.916190520653416 110.07500576107061 49.007367017430035 109.77711740137464 49.33349833282331 C109.30049602586107 50.16811395716309 110.49204946464499 50.37852125741681 110.58316825702259 51.12196038497997 C110.82147894477937 53.864268864953516 110.82147894477937 56.518907636488 110.4955540335826 59.11042421794639 C110.3448575692658 59.67852392863144 109.57034783405626 60.03621633906277 109.80865852181304 60.72004006488738 C109.86823619375225 61.049678168618215 110.22570222538742 61.109293570356776 110.4955540335826 61.22852437383388 C111.62752980042731 61.260085468871935 112.75950556727204 61.37931627234905 113.95105900605597 61.31970087061049 C114.54683572544792 61.288139775572425 115.26176778871827 61.31970087061049 115.59119726885265 60.75160115992543 C115.98020442092623 60.06427064576326 115.20219011677908 59.64696283359337 114.99542054946069 59.05080881620783 C114.69753218976471 57.262346764051166 114.99542054946069 55.084631206425115 114.96387942902231 53.14888404409084 C114.96387942902231 53.14888404409084 115.1426124448399 52.731576231920954 115.1426124448399 52.731576231920954 C115.82950795660943 51.44809170037323 117.40656397852932 51.626937905588896 118.65769508925243 51.598883598888406 C119.10627991326518 51.71811440236552 119.76163430459634 51.53926819714986 120.05952266429233 52.04775250609635 C120.29783335204911 53.271621635905525 120.14713688773232 54.702391277630845 120.09106378473071 55.8350839106634 C120.15064145666992 57.476260852642454 119.52332361683955 59.264722904799115 120.53964860874348 60.63587714478589 C121.96951273528418 61.68090006937938 123.90753935777686 61.32320765894806 125.57571417207433 61.14436145373239 C127.0966970909926 60.01166882069984 124.68204909298639 59.50318451175333 124.5033160771688 58.52128377723595 C124.32458306135122 56.196283109432294 124.38416073329041 54.197413757021906 124.5348571976072 51.8127976874797 C125.07105624505995 51.097412866617034 126.05584011652547 51.63395148226404 126.65161683591745 51.03779746487848 C126.94950519561343 50.56087425097003 126.86189097217344 49.96472023358448 126.86189097217344 49.36856621619893 C126.71119450785665 48.860081907252436 126.26611425278149 48.860081907252436 125.78949287726792 48.860081907252436 C125.43202684563275 48.860081907252436 125.07456081399756 48.860081907252436 124.83625012624077 48.64967460699871 C124.59793943848399 47.81505898265894 125.01498314205836 46.980443358319164 124.74863590280079 46.173882040679885 C124.68905823086158 45.903859338687596 124.4192064226664 45.75657422851 124.12131806297042 45.75657422851 C124.1493546144712 45.816189630248545 124.12131806297042 45.816189630248545 124.12131806297042 45.816189630248545" vector-effect="non-scaling-stroke"/></defs> <path style="stroke-width: 0; stroke-linecap: butt; stroke-linejoin: miter; fill: rgb(242, 242, 243);" d="M102.2692554833331 8.11120142478103 C101.22489393992839 8.707355442166772 100.24361463740047 9.75237836676024 99.23079421443413 10.46776318762295 C97.76938896745503 12.049324727863677 95.11993485062959 10.46776318762295 93.71810727558966 12.168555531340644 C93.44825546739452 12.319347429855952 93.20994477963774 13.034732250718662 92.82444219650176 12.764709548726387 C92.82444219650176 12.136994436302302 92.97513866081852 11.333939907000968 92.25670202861056 11.063917205008693 C91.24388160564428 10.913125306493384 90.11190583879954 11.032356109970351 89.127121967334 11.155093701785518 C88.67853714332125 11.214709103524001 88.23345688824605 11.305885600299916 87.9355685285501 11.632016915693384 C87.45894715303655 12.46663254003306 88.65050059182045 12.677039840286852 88.74161938419803 13.420478967850613 C88.97993007195481 16.162787447823575 88.97993007195481 18.817426219357912 88.65400516075806 21.408942800816476 C88.50330869644125 21.977042511502077 87.72879896123175 22.334734921932977 87.96710964898853 23.018558647757345 C88.02668732092769 23.348196751488103 88.38415335256286 23.407812153226587 88.65400516075806 23.527042956704463 C89.78598092760274 23.558604051741895 90.91795669444753 23.67783485521886 92.10951013323142 23.61821945348038 C92.70528685262337 23.586658358442946 93.42021891589371 23.61821945348038 93.74964839602808 23.050119742795687 C94.13865554810167 22.36278922863312 93.36064124395455 21.945481416463736 93.15387167663613 21.349327399077993 C92.85598331694018 19.560865346921673 93.15387167663613 17.383149789295203 93.12233055619777 15.447402626960866 C93.12233055619777 15.447402626960866 93.30106357201532 15.030094814791482 93.30106357201532 15.030094814791482 C93.98795908378486 13.746610283243172 95.56501510570479 13.925456488459531 96.81614621642791 13.89740218175848 C97.26473104044067 14.016632985235447 97.92008543177178 13.837786780019997 98.21797379146778 14.346271088966205 C98.45628447922456 15.570140218776032 98.30558801490776 17.00090986050145 98.24951491190615 18.133602493533544 C98.30909258384537 19.774779435512755 97.681774744015 21.563241487669075 98.69809973591896 22.93439572765601 C100.12796386245964 23.97941865224948 102.0659904849523 23.62172624181858 103.73416529924975 23.44288003660222 C105.25514821816807 22.310187403570126 102.84050022016186 21.801703094623917 102.66176720434424 20.819802360106223 C102.48303418852669 18.494801692302644 102.54261186046585 16.495932339892533 102.69330832478266 14.111316270349562 C103.22950737223539 13.395931449486852 104.21429124370093 13.932470065134112 104.81006796309293 13.336316047748369 C105.10795632278888 12.859392833840502 105.02034209934891 12.26323881645476 105.02034209934891 11.667084799069016 C104.8696456350321 11.158600490122808 104.42456537995696 11.158600490122808 103.94794400444334 11.158600490122808 C103.59047797280823 11.158600490122808 103.233011941173 11.158600490122808 102.99470125341622 10.948193189869016 C102.75639056565944 10.11357756552934 103.17343426923378 9.278961941189664 102.90708702997625 8.47240062355013 C102.84750935803703 8.202377921557854 102.57765754984189 8.055092811379836 102.27976919014588 8.055092811379836 C102.30780574164669 8.11470821311832 102.27976919014588 8.11470821311832 102.27976919014588 8.11470821311832" vector-effect="non-scaling-stroke"/></g><g><defs><path id="path-17453992527391312" d="M5.49166,8.91075c0.05958,-1.46233 0.65535,-2.77387 1.13198,-4.08541c0.09112,-0.27002 0.38901,-0.53654 0.71493,-0.59615c0.98478,0.09118 0.89367,1.22387 1.10394,1.93925c0.09112,0.89423 0.5362,1.76041 0.47662,2.65464c-0.29789,0.38925 -0.92521,0.29808 -1.34225,0.35769c-0.77451,-0.02805 -1.42986,-0.02805 -2.08522,-0.27002zM16.15606,1.51844c-1.72775,0.775 0.50816,1.70079 0.26985,2.80192c0.26985,3.01233 0.23831,6.52964 0.11916,9.41923c-0.09112,0.62772 -0.03154,1.3431 -0.44858,1.84808c-0.17873,0.11923 -0.38901,0.23846 -0.62732,0.15079c-0.41704,-0.17885 -0.56774,-0.68733 -0.74647,-1.07308c-1.25113,-4.4431 -2.26395,-8.97387 -3.54662,-13.38541c-0.1507,-0.32964 -0.41704,-0.68733 -0.74647,-0.83462l-1.48944,-0.21041c-0.35747,0 -0.74647,-0.03156 -1.16352,-0.05962c-0.98478,-0.05962 -1.9976,-0.11923 -2.83169,0.27002c-0.26985,0.21041 -0.26985,0.53654 -0.23831,0.89423c0.6869,0.74695 0.05958,1.76041 -0.11916,2.56346c-1.13198,2.83348 -2.05718,5.69502 -3.21719,8.49695c-0.41704,1.40272 -1.13198,2.65464 -1.37029,4.08541c0.23831,1.10464 1.58056,0.83462 2.50226,0.95385c0.5362,-0.05962 1.19155,0.03156 1.48944,-0.50848c0.35747,-0.86618 -1.01282,-1.25192 -0.47662,-2.23733c0.41704,-1.46233 0.80605,-2.8931 1.34225,-4.32387l0.23831,-0.03156l1.13198,1.04502c0.56774,0.29808 1.25113,0.27002 1.93803,0.27002c0.50816,0 1.01282,0 1.46141,0.09118c0.41704,0.65577 0.41704,1.58156 0.65535,2.35656c0.71493,1.10464 -0.71493,1.78846 -0.32943,2.83348c0.29789,0.44887 0.92521,0.44887 1.46141,0.53654l6.88297,-0.05962c1.10394,-0.03156 2.32353,0.05962 3.24874,-0.35769c0.80605,-1.01346 -0.83409,-1.49039 -0.6869,-2.47579c-0.21027,-4.29231 0.03154,-9.06154 0.17873,-13.65193l-0.09112,-0.47692c-0.1507,-0.41731 -0.59578,-0.41731 -0.92521,-0.44887c-1.42986,0.38925 -2.65296,1.04502 -3.87255,1.52195z" vector-effect="non-scaling-stroke"/></defs><path style="stroke-width: 0; stroke-linecap: butt; stroke-linejoin: miter; fill: rgb(242, 242, 243);" d="M5.49166,8.91075c0.05958,-1.46233 0.65535,-2.77387 1.13198,-4.08541c0.09112,-0.27002 0.38901,-0.53654 0.71493,-0.59615c0.98478,0.09118 0.89367,1.22387 1.10394,1.93925c0.09112,0.89423 0.5362,1.76041 0.47662,2.65464c-0.29789,0.38925 -0.92521,0.29808 -1.34225,0.35769c-0.77451,-0.02805 -1.42986,-0.02805 -2.08522,-0.27002zM16.15606,1.51844c-1.72775,0.775 0.50816,1.70079 0.26985,2.80192c0.26985,3.01233 0.23831,6.52964 0.11916,9.41923c-0.09112,0.62772 -0.03154,1.3431 -0.44858,1.84808c-0.17873,0.11923 -0.38901,0.23846 -0.62732,0.15079c-0.41704,-0.17885 -0.56774,-0.68733 -0.74647,-1.07308c-1.25113,-4.4431 -2.26395,-8.97387 -3.54662,-13.38541c-0.1507,-0.32964 -0.41704,-0.68733 -0.74647,-0.83462l-1.48944,-0.21041c-0.35747,0 -0.74647,-0.03156 -1.16352,-0.05962c-0.98478,-0.05962 -1.9976,-0.11923 -2.83169,0.27002c-0.26985,0.21041 -0.26985,0.53654 -0.23831,0.89423c0.6869,0.74695 0.05958,1.76041 -0.11916,2.56346c-1.13198,2.83348 -2.05718,5.69502 -3.21719,8.49695c-0.41704,1.40272 -1.13198,2.65464 -1.37029,4.08541c0.23831,1.10464 1.58056,0.83462 2.50226,0.95385c0.5362,-0.05962 1.19155,0.03156 1.48944,-0.50848c0.35747,-0.86618 -1.01282,-1.25192 -0.47662,-2.23733c0.41704,-1.46233 0.80605,-2.8931 1.34225,-4.32387l0.23831,-0.03156l1.13198,1.04502c0.56774,0.29808 1.25113,0.27002 1.93803,0.27002c0.50816,0 1.01282,0 1.46141,0.09118c0.41704,0.65577 0.41704,1.58156 0.65535,2.35656c0.71493,1.10464 -0.71493,1.78846 -0.32943,2.83348c0.29789,0.44887 0.92521,0.44887 1.46141,0.53654l6.88297,-0.05962c1.10394,-0.03156 2.32353,0.05962 3.24874,-0.35769c0.80605,-1.01346 -0.83409,-1.49039 -0.6869,-2.47579c-0.21027,-4.29231 0.03154,-9.06154 0.17873,-13.65193l-0.09112,-0.47692c-0.1507,-0.41731 -0.59578,-0.41731 -0.92521,-0.44887c-1.42986,0.38925 -2.65296,1.04502 -3.87255,1.52195z" transform="translate(42.26402613375126, 6.326246160961091) rotate(0)" vector-effect="non-scaling-stroke"/></g><g><defs><path id="path-17453992527391310" d="M128.2532048404008 49.15114533926991 C126.64460769804249 49.98576096360968 126.82334071386008 51.86539951254295 126.88291838579926 53.41539995774538 C127.03361485011605 55.05657689972443 128.58263432053516 55.91924683076469 129.98095732663745 56.36811573797264 C131.05335542154296 56.904654353619634 132.63391601240048 57.05544625213481 133.05095971597484 58.33542399534496 C133.05095971597484 58.693116405776294 132.99138204403565 59.05080881620762 132.69349368433967 59.28927042316184 C131.5615179174949 59.73813933036978 130.19123146289343 59.4681166283775 129.2379887118663 58.8404015159539 C128.25320484040077 58.4511480104845 128.40390130471755 56.87309325858158 127.12122907355604 57.02037836875918 C126.22756399446808 57.52886267770568 126.64460769804245 58.987686626131506 126.73222192148245 59.913478747247886 C126.79179959342164 61.49504028748838 128.57912975159752 61.16540218375754 129.62349129500225 61.523094594188876 C131.6491321409349 61.64232539766599 134.06378013894115 61.85273269791971 135.58125848892183 60.45001736289488 C136.47492356800979 59.5242252417785 136.68519770426576 58.005785891614124 136.59407891188818 56.753862455104475 C136.26464943175378 53.56268506792299 132.74956678734122 54.09922368356999 130.93420007766457 52.4615535299285 C130.63631171796857 52.0723000244591 130.3664599097734 51.59537681055067 130.60477059753018 51.118453596642226 C130.99377774960377 50.431123082480056 131.8278651567525 50.49073848421862 132.54279722002286 50.46268417751811 C132.75307135627884 50.7327068795104 133.1385739394148 50.61347607603329 133.34884807567082 50.91155308472606 C133.88504712312354 51.59888359888823 133.01941859553642 52.135422214535225 132.99138204403565 52.850807035397885 C133.07899626747562 53.180445139128715 133.4399668680484 53.29967594260583 133.76589177924518 53.35929134434438 C134.63152030683233 53.53813754956004 135.1361782338467 52.763137326958834 135.58476305785945 52.19503761627378 C136.0333478818722 51.42003739367256 136.53800580888657 50.28734476064001 135.94222908949462 49.45272913630024 C135.94222908949462 49.45272913630024 135.6443407297986 49.24232183604652 135.6443407297986 49.24232183604652 C134.48082384251552 48.705783220399525 133.1420785083524 48.43576051840724 131.83136972569008 48.43576051840724 C130.63981628690618 48.40770621170674 129.38868517618306 48.64616781866096 128.25670940933836 49.1511453392699" vector-effect="non-scaling-stroke"/></defs> <path style="stroke-width: 0; stroke-linecap: butt; stroke-linejoin: miter; fill: rgb(242, 242, 243);" d="M106.41165596757605 11.449663922139734 C104.8030588252177 12.28427954648032 104.98179184103532 14.163918095413464 105.04136951297448 15.71391854061585 C105.19206597729129 17.35509548259506 106.74108544771036 18.21776541363488 108.13940845381268 18.666634320842604 C109.21180654871819 19.203172936489864 110.79236713957573 19.353964835005172 111.20941084315007 20.633942578215283 C111.20941084315007 20.991634988646183 111.14983317121084 21.349327399077993 110.8519448115149 21.587789006031926 C109.71996904467017 22.03665791323965 108.34968259006865 21.766635211247376 107.39643983904153 21.1389200988242 C106.411655967576 20.74966659335496 106.5623524318928 19.171611841451522 105.27968020073126 19.31889695162954 C104.38601512164331 19.82738126057575 104.8030588252177 21.28620520900131 104.89067304865767 22.21199733011781 C104.95025072059684 23.793558870358538 106.73758087877275 23.46392076662778 107.78194242217751 23.82161317705868 C109.80758326811014 23.940843980536556 112.22223126611641 24.151251280790348 113.73970961609706 22.74853594576507 C114.63337469518501 21.82274382464857 114.84364883144099 20.304304474484525 114.7525300390634 19.052381037974556 C114.42310055892904 15.861203650792959 110.90801791451645 16.39774226644022 109.0926512048398 14.760072112798298 C108.7947628451438 14.370818607329056 108.52491103694865 13.89389539342119 108.76322172470543 13.416972179512413 C109.15222887677896 12.729641665349845 109.98631628392775 12.789257067089238 110.70124834719809 12.761202760388187 C110.91152248345406 13.031225462380462 111.29702506659004 12.911994658903495 111.50729920284607 13.210071667595912 C112.04349825029874 13.89740218175848 111.17786972271165 14.43394079740574 111.14983317121084 15.149325618268449 C111.23744739465087 15.478963721999207 111.5984179952236 15.598194525476174 111.9243429064204 15.657809927214657 C112.78997143400755 15.836656132430107 113.29462936102192 15.061655909828914 113.74321418503467 14.493556199144223 C114.19179900904743 13.71855597654303 114.6964569360618 12.585863343510027 114.10068021666984 11.751247719170351 C114.10068021666984 11.751247719170351 113.80279185697384 11.54084041891656 113.80279185697384 11.54084041891656 C112.63927496969075 11.0043018032693 111.3005296355276 10.734279101277025 109.98982085286531 10.734279101277025 C108.79826741408141 10.706224794576883 107.54713630335829 10.944686401530817 106.41516053651355 11.449663922139734" vector-effect="non-scaling-stroke"/></g><g><defs><path id="path-17453992527391308" d="M164.68670351568724 49.480783442998785 C163.46360895646492 50.76426797454645 163.9121937804777 52.91042243713435 164.21008214017368 54.42886178729866 C165.1352883397 55.91924683076248 166.8314997054983 56.2488849344933 168.3209415039782 56.753862455102215 C169.06741468768695 57.08350055883304 170.16784933409326 57.20273136231014 170.34658234991085 58.15657779012699 C170.28700467797162 58.51427020055831 170.22742700603246 58.90352370602768 169.83841985395887 59.08236991124333 C168.97279132637172 59.4996777234132 167.84081555952702 59.29277721149705 166.9191139289383 59.05080881620527 C165.96587117791114 58.75273180751251 165.48924980239758 57.767324284657604 164.83389541106644 57.143115960571585 C164.59558472330966 57.11155486553353 164.44488825899285 57.11155486553353 164.20657757123607 57.143115960571585 C163.37249016408734 57.65160026951806 163.9086892115401 58.75273180751251 163.7579927472233 59.587347431852244 C163.7579927472233 59.587347431852244 163.6703785237833 59.678523928628856 163.6703785237833 59.678523928628856 C163.34094904364895 59.52773203011369 163.10263835589217 59.34888582489803 162.8643276681354 59.08236991124333 C161.87954379666985 56.45929223474701 161.3748858696555 53.597752951296485 160.54079846250676 50.85544447132305 C160.36206544668917 50.140059650460415 160.092213638494 49.452729136298274 159.6155922629804 48.828520812212254 C158.96023787164927 48.11313599134962 157.73714331242695 48.351597598303826 156.93459702571664 48.6496746069966 C156.10050961856788 48.97931271072742 155.35403643485915 49.57546672811294 154.4919124762096 49.84198264176766 C154.16248299607523 49.663136436552 154.3412160118928 49.245828624382135 154.19402411651362 48.94775161568936 C153.59824739712167 48.26042110152722 152.52584930221613 48.6496746069966 151.66022077462898 48.67772891369709 C150.91374759092025 48.828520812212254 150.1112013042099 48.828520812212254 149.54346113631874 49.42467482959778 C149.06683976080518 50.19967505219896 150.1707789761491 50.67659826610738 150.23035664808828 51.42354418200807 C150.44063078434428 53.72049054311114 150.52824500778428 56.462799023084564 150.34951199196666 58.90703049436522 C150.19881552764988 59.475130205050256 149.60303880825793 59.860876922182065 149.66261648019713 60.48859203460565 C149.78177182407552 61.203976855468284 150.55628155928505 61.203976855468284 151.12402172717623 61.323207658945385 C151.4534512073106 61.29164656390733 151.81091723894576 61.323207658945385 152.19641982208174 61.323207658945385 C153.30035903742566 61.35476875398344 154.4919124762096 61.38282306068393 155.23488109098074 60.66743823982131 C155.5047328991759 59.98010772565917 154.81783738740637 59.622415315227855 154.57952669964956 59.08587669958088 C154.2500972195152 57.20623815064768 154.3096748914544 55.09164478309784 154.34121601189278 53.24356732920271 C154.2816383399536 52.79469842199478 154.37275713233117 52.43700601156346 154.61106782008795 52.138929002870704 C154.82134195634396 51.900467395916486 155.1472668675407 51.900467395916486 155.4451552272367 51.900467395916486 C155.4451552272367 51.900467395916486 155.53276945067668 51.900467395916486 155.53276945067668 51.900467395916486 C155.94981315425105 52.07931360113214 156.24770151394705 52.408951704862965 156.39839797826383 52.79469842199478 C157.17290771347336 55.23892989327545 157.68107020942534 57.921622971510324 158.3644611522573 60.457030939567595 C158.5151576165741 60.90589984677552 158.99177899208766 61.17241576043022 159.43685924716283 61.323207658945385 C160.8386868222027 61.414384155722 162.20897327680422 61.47399955746055 163.5196820594665 61.05318495695312 C163.75799274722328 60.962008460176506 163.8175704191625 60.635877144783244 164.05588110691926 60.635877144783244 C165.21939799420238 61.56166926589959 166.79645401612225 61.53010817086154 168.28589581460216 61.50205386416104 C168.73448063861494 61.50205386416104 169.2111020141285 61.470492769122984 169.62814571770286 61.50205386416104 C170.64096614066918 61.38282306068393 171.7449053560131 61.38282306068393 172.54745164272344 60.75510794826035 C173.97731576926412 59.86087692218206 174.21562645702093 58.21969998020308 174.09647111314254 56.610084133262156 C173.79858275344654 54.04662185850439 170.90731337992676 53.92739105502728 169.1515243421893 53.12082973738804 C168.55574762279736 52.79119163365723 167.80927443908857 52.28621411304831 167.90039323146618 51.51121389044712 C167.98800745490615 51.21313688175436 167.98800745490615 50.915059873061594 168.25785926310135 50.70465257280787 C168.73448063861494 50.3153990673385 169.48095382232367 50.346960162376554 170.07673054171562 50.49424527255416 C170.37461890141162 50.673091477769816 170.49377424528998 50.97116848646259 170.55335191722918 51.3008065901934 C170.67250726110757 51.896960607578926 170.01715286977645 52.25465301801025 170.13630821365481 52.94198353217239 C170.13630821365481 53.12082973738804 170.34658234991082 53.24006054086515 170.4657376937892 53.33123703764177 C171.24024742899874 53.60125973963404 171.8956018203299 53.21200623416466 172.46334198822106 52.76313732695674 C173.1502374999906 51.988137104355545 173.41658473924818 50.82388337628499 173.2098151719298 49.75080614499104 C172.49488310865945 48.55849811021998 171.03347786168035 48.58655241692048 169.81388787139565 48.43926730674288 C169.51599951169965 48.43926730674288 169.18657003156528 48.40770621170481 168.8606451203685 48.40770621170481 C167.39923987338938 48.31652971492821 165.8221838514695 48.498882708481425 164.6902080846248 49.480783442998764" vector-effect="non-scaling-stroke"/></defs> <path style="stroke-width: 0; stroke-linecap: butt; stroke-linejoin: miter; fill: rgb(242, 242, 243);" d="M142.84515464286272 11.779302025870493 C141.6220600836404 13.062786557418804 142.07064490765322 15.208941020006023 142.36853326734916 16.727380370170977 C143.29373946687548 18.21776541363488 144.9899508326738 18.547403517365638 146.4793926311537 19.052381037974556 C147.22586581486246 19.382019141705314 148.32630046126872 19.50124994518228 148.50503347708633 20.455096372998923 C148.4454558051471 20.812788783430733 148.38587813320794 21.202042288899975 147.99687098113435 21.380888494115425 C147.1312424535472 21.798196306284808 145.99926668670253 21.591295794369216 145.07756505611377 21.349327399077083 C144.1243223050866 21.051250390384666 143.64770092957303 20.065842867529682 142.99234653824192 19.441634543443797 C142.75403585048514 19.410073448405456 142.60333938616833 19.410073448405456 142.36502869841155 19.441634543443797 C141.53094129126282 19.950118852390005 142.0671403387156 21.051250390384666 141.9164438743988 21.885866014724343 C141.9164438743988 21.885866014724343 141.82882965095882 21.977042511501168 141.82882965095882 21.977042511501168 C141.4994001708244 21.82625061298586 141.26108948306762 21.64740440777041 141.02277879531084 21.380888494115425 C140.0379949238453 18.75781081761943 139.53333699683094 15.89627153416859 138.69924958968227 13.153963054194719 C138.52051657386465 12.43857823333201 138.2506647656695 11.751247719170351 137.7740433901559 11.127039395084466 C137.11868899882472 10.411654574221757 135.8955944396024 10.65011618117569 135.09304815289215 10.948193189869016 C134.25896074574337 11.277831293599775 133.5124875620346 11.873985310984608 132.65036360338507 12.140501224639593 C132.3209341232507 11.961655019424143 132.49966713906826 11.54434720725385 132.35247524368913 11.246270198561433 C131.75669852429712 10.558939684398865 130.6843004293916 10.948193189869016 129.81867190180446 10.976247496569158 C129.0721987180957 11.127039395084466 128.2696524313854 11.127039395084466 127.70191226349425 11.72319341247021 C127.22529088798069 12.498193635071402 128.32923010332456 12.975116848979269 128.38880777526379 13.72206276488032 C128.59908191151976 16.019009125982848 128.6866961349598 18.76131760595672 128.50796311914212 21.205549077237265 C128.35726665482537 21.773648787921957 127.76148993543342 22.159395505053908 127.82106760737258 22.787110617477992 C127.94022295125103 23.502495438340702 128.71473268646054 23.502495438340702 129.28247285435168 23.62172624181767 C129.6119023344861 23.590165146779327 129.96936836612122 23.62172624181767 130.35487094925725 23.62172624181767 C131.45881016460112 23.6532873368551 132.65036360338507 23.681341643556152 133.39333221815622 22.965956822693443 C133.66318402635136 22.278626308530875 132.97628851458182 21.920933898099975 132.73797782682504 21.384395282452715 C132.40854834669068 19.50475673351957 132.46812601862985 17.390163365969784 132.49966713906826 15.542085912074981 C132.44008946712904 15.093217004867256 132.53120825950668 14.735524594435446 132.76951894726346 14.43744758574303 C132.97979308351944 14.198985978788187 133.3057179947162 14.198985978788187 133.6036063544122 14.198985978788187 C133.6036063544122 14.198985978788187 133.69122057785216 14.198985978788187 133.69122057785216 14.198985978788187 C134.1082642814265 14.377832184004546 134.4061526411225 14.707470287735305 134.5568491054393 15.093217004867256 C135.33135884064882 17.5374484761478 135.8395213366008 20.22014155438228 136.52291227943277 22.75554952243965 C136.67360874374958 23.204418429647376 137.15023011926314 23.47093434330236 137.59531037433828 23.62172624181767 C138.99713794937816 23.712902738593584 140.36742440397973 23.772518140332977 141.67813318664196 23.351703539825394 C141.91644387439874 23.26052704304857 141.97602154633796 22.9343957276551 142.21433223409474 22.9343957276551 C143.37784912137784 23.860187848771602 144.95490514329776 23.82862675373326 146.44434694177767 23.80057244703312 C146.89293176579042 23.80057244703312 147.36955314130398 23.769011351994777 147.78659684487832 23.80057244703312 C148.79941726784466 23.681341643556152 149.9033564831886 23.681341643556152 150.7059027698989 23.053626531132068 C152.13576689643958 22.159395505053908 152.3740775841964 20.518218563074697 152.25492224031802 18.908602716133828 C151.95703388062202 16.345140441376316 149.06576450710224 16.22590963789935 147.30997546936476 15.419348320259814 C146.71419874997287 15.089710216529056 145.96772556626405 14.584732695920138 146.05884435864164 13.809732473318945 C146.14645858208166 13.511655464626529 146.14645858208166 13.213578455933202 146.41631039027686 13.00317115568032 C146.89293176579042 12.613917650210169 147.63940494949918 12.64547874524851 148.23518166889107 12.792763855426529 C148.53307002858708 12.971610060641979 148.65222537246547 13.269687069334395 148.71180304440463 13.599325173065154 C148.83095838828308 14.195479190450897 148.17560399695196 14.553171600882706 148.2947593408303 15.240502115044364 C148.2947593408303 15.419348320259814 148.50503347708627 15.538579123736781 148.62418882096472 15.629755620513606 C149.39869855617422 15.899778322505881 150.0540529475054 15.51052481703664 150.62179311539654 15.061655909828914 C151.30868862716608 14.286655687227722 151.57503586642366 13.122401959157287 151.36826629910524 12.049324727862768 C150.6533342358349 10.857016693092191 149.1919289888558 10.885070999792333 147.9723389985711 10.737785889615225 C147.6744506388751 10.737785889615225 147.3450211587408 10.706224794576883 147.01909624754398 10.706224794576883 C145.5576910005649 10.615048297800058 143.98063497864496 10.797401291353708 142.84865921180028 11.779302025870493" vector-effect="non-scaling-stroke"/></g><g><defs><path id="path-17453992527391306" d="M5.18707,10.73779c-0.71493,-0.80656 -0.86563,-1.84808 -0.95324,-2.95272c0,-1.66923 -0.47662,-3.84695 0.35747,-5.425c0.5362,-0.41731 1.54902,-0.47692 2.20437,-0.15079c0.95324,1.13269 0.83409,2.80192 1.04436,4.20464c-0.03154,1.31154 0.41704,2.86154 -0.21027,4.08541c-0.11916,0.15079 -0.32943,0.21041 -0.38901,0.41731v-0.05962c-0.32943,0.05962 -0.71493,0.15079 -1.10394,0.15079c-0.35747,0.03156 -0.6869,-0.03156 -0.95324,-0.27002zM2.05749,0.60317c-1.75929,1.07308 -1.90649,3.15962 -2.05718,5.09887c0,2.62308 -0.08761,6.02116 2.681,7.15385c2.11676,0.65577 4.70664,0.53654 6.85143,-0.03156c1.25113,-0.32964 2.11676,-1.64118 2.29549,-2.8931c0.1507,-2.59502 -0.11916,-5.18654 -0.83409,-7.60272c-0.29789,-0.89423 -1.0724,-1.66923 -1.9976,-1.93925c-1.10394,-0.21041 -2.38311,-0.38925 -3.63424,-0.38925c-1.16352,0 -2.32353,0.15079 -3.30831,0.59615z" vector-effect="non-scaling-stroke"/></defs><path style="stroke-width: 0; stroke-linecap: butt; stroke-linejoin: miter; fill: rgb(242, 242, 243);" d="M5.18707,10.73779c-0.71493,-0.80656 -0.86563,-1.84808 -0.95324,-2.95272c0,-1.66923 -0.47662,-3.84695 0.35747,-5.425c0.5362,-0.41731 1.54902,-0.47692 2.20437,-0.15079c0.95324,1.13269 0.83409,2.80192 1.04436,4.20464c-0.03154,1.31154 0.41704,2.86154 -0.21027,4.08541c-0.11916,0.15079 -0.32943,0.21041 -0.38901,0.41731v-0.05962c-0.32943,0.05962 -0.71493,0.15079 -1.10394,0.15079c-0.35747,0.03156 -0.6869,-0.03156 -0.95324,-0.27002zM2.05749,0.60317c-1.75929,1.07308 -1.90649,3.15962 -2.05718,5.09887c0,2.62308 -0.08761,6.02116 2.681,7.15385c2.11676,0.65577 4.70664,0.53654 6.85143,-0.03156c1.25113,-0.32964 2.11676,-1.64118 2.29549,-2.8931c0.1507,-2.59502 -0.11916,-5.18654 -0.83409,-7.60272c-0.29789,-0.89423 -1.0724,-1.66923 -1.9976,-1.93925c-1.10394,-0.21041 -2.38311,-0.38925 -3.63424,-0.38925c-1.16352,0 -2.32353,0.15079 -3.30831,0.59615z" transform="translate(115.34449324706407, 10.699211217901393) rotate(0)" vector-effect="non-scaling-stroke"/></g><g><defs><path id="path-17453992527381304" d="M5.14625,14.81267c-0.62732,-0.92579 -0.38901,-2.23733 -0.44858,-3.37002c0.09112,-1.16425 -0.11916,-2.41618 0.26985,-3.63654c0.21027,-0.32964 0.56774,-0.41731 0.92521,-0.47692c1.10394,0.35769 1.13198,1.64118 1.46141,2.56346c0.21027,1.40272 0.71493,2.92115 0.26985,4.32387c-0.23831,0.41731 -0.62732,0.68733 -1.10394,0.83462c-0.11916,0.03156 -0.26985,0.05962 -0.38901,0.05962c-0.32943,0 -0.6869,-0.11923 -0.98478,-0.29808zM4.19301,0.02805c-1.34225,0.5681 -2.62142,1.19231 -3.87255,2.05848c-1.01282,0.89423 0.71493,1.19231 0.5362,2.08654c0.21027,3.60849 0.21027,7.06618 -0.09112,10.70272c-0.21027,0.41731 -0.47662,0.83462 -0.47662,1.37115c0.11916,0.38925 0.47662,0.5681 0.83409,0.65577c2.05718,0.15079 4.26156,0.17885 6.37481,0.03156c0.95324,-0.21041 1.96606,-0.15079 2.77211,-0.775c1.87845,-1.66923 1.48944,-4.35192 1.16352,-6.55769c-0.5362,-1.72885 -0.80605,-3.6681 -2.23591,-5.03925c-1.46141,-0.98541 -2.83169,0.29808 -4.11086,0.74695l-0.17873,-0.17885c0.03154,-1.58156 0.26985,-3.33846 0.03154,-4.92002c-0.17873,-0.15079 -0.35747,-0.21041 -0.59578,-0.21041c-0.05958,0.03156 -0.08761,0.03156 -0.1507,0.03156z" vector-effect="non-scaling-stroke"/></defs><path style="stroke-width: 0; stroke-linecap: butt; stroke-linejoin: miter; fill: rgb(242, 242, 243);" d="M5.14625,14.81267c-0.62732,-0.92579 -0.38901,-2.23733 -0.44858,-3.37002c0.09112,-1.16425 -0.11916,-2.41618 0.26985,-3.63654c0.21027,-0.32964 0.56774,-0.41731 0.92521,-0.47692c1.10394,0.35769 1.13198,1.64118 1.46141,2.56346c0.21027,1.40272 0.71493,2.92115 0.26985,4.32387c-0.23831,0.41731 -0.62732,0.68733 -1.10394,0.83462c-0.11916,0.03156 -0.26985,0.05962 -0.38901,0.05962c-0.32943,0 -0.6869,-0.11923 -0.98478,-0.29808zM4.19301,0.02805c-1.34225,0.5681 -2.62142,1.19231 -3.87255,2.05848c-1.01282,0.89423 0.71493,1.19231 0.5362,2.08654c0.21027,3.60849 0.21027,7.06618 -0.09112,10.70272c-0.21027,0.41731 -0.47662,0.83462 -0.47662,1.37115c0.11916,0.38925 0.47662,0.5681 0.83409,0.65577c2.05718,0.15079 4.26156,0.17885 6.37481,0.03156c0.95324,-0.21041 1.96606,-0.15079 2.77211,-0.775c1.87845,-1.66923 1.48944,-4.35192 1.16352,-6.55769c-0.5362,-1.72885 -0.80605,-3.6681 -2.23591,-5.03925c-1.46141,-0.98541 -2.83169,0.29808 -4.11086,0.74695l-0.17873,-0.17885c0.03154,-1.58156 0.26985,-3.33846 0.03154,-4.92002c-0.17873,-0.15079 -0.35747,-0.21041 -0.59578,-0.21041c-0.05958,0.03156 -0.08761,0.03156 -0.1507,0.03156z" transform="translate(64.29570860783724, 6.743553973131384) rotate(0)" vector-effect="non-scaling-stroke"/></g><g><defs><path id="path-17453992527381302" d="M34.56205886260844 53.20499265748964 C34.56205886260844 53.20499265748964 33.577274991142914 53.20499265748964 33.577274991142914 53.20499265748964 C33.577274991142914 53.20499265748964 33.48615619876532 53.26460805922819 33.48615619876532 53.26460805922819 C33.36700085488693 54.250015582083094 33.454615078326924 55.29153171833899 33.903199902339686 56.18576274441728 C34.91602032530601 58.18463209682758 37.00123884317784 59.07886312290587 39.20561270492806 58.84040151595166 C40.397166143711964 59.01924772116732 41.44152768711668 59.885424440545115 41.70787492637426 61.04617138027811 C42.06534095800943 60.41845626785453 42.482384661583794 59.496170935075746 43.28843551723173 59.16653283134492 C44.80941843615002 58.51076341222083 46.835059282082646 59.13497173630685 48.11422694430655 58.03384019831241 C49.72282408666482 57.02037836875702 50.52887494231275 55.08112441808527 50.11183123873838 53.26460805922819 C49.69478753516402 53.26460805922819 49.246202711151255 53.26460805922819 48.82915900757689 53.23304696419013 C47.280139537157815 53.20148586915207 45.671542394799545 53.14187046741352 44.47998895601564 54.008047186791316 C43.137739052914945 54.78304740939251 42.27561509426541 56.09458624764066 41.79899371875185 57.497301582665436 C41.35040889473908 56.27343245285632 40.607440279967946 54.99345470964622 39.50350106462403 54.24650879374552 C38.37152529777932 53.352277767667225 36.91012005080024 53.23304696419013 35.42067825232036 53.23304696419013 C35.15082644412518 53.20148586915207 34.852938084429205 53.20148586915207 34.55504972473323 53.20148586915207" vector-effect="non-scaling-stroke"/></defs> <path style="stroke-width: 0; stroke-linecap: butt; stroke-linejoin: miter; fill: rgb(242, 242, 243);" d="M12.72050998978466 15.503511240362059 C12.72050998978466 15.503511240362059 11.735726118319178 15.503511240362059 11.735726118319178 15.503511240362059 C11.735726118319178 15.503511240362059 11.644607325941593 15.563126642100542 11.644607325941593 15.563126642100542 C11.525451982063203 16.548534164955527 11.613066205503173 17.590050301210795 12.061651029515929 18.484281327288954 C13.074471452482271 20.483150679699975 15.159689970354066 21.377381705778134 17.364063832104307 21.13892009882329 C18.555617270888206 21.31776630403965 19.59997881429291 22.18394302341676 19.866326053550495 23.344689963149904 C20.223792085185664 22.71697485072673 20.640835788760057 21.794689517947518 21.446886644407982 21.46505141421676 C22.967869563326246 20.809281995092533 24.993510409258874 21.433490319179327 26.2726780714828 20.332358781184666 C27.881275213841093 19.31889695162863 28.687326069489018 17.379643000957003 28.270282365914625 15.563126642100542 C27.85323866234029 15.563126642100542 27.404653838327476 15.563126642100542 26.98761013475314 15.5315655470622 C25.438590664334072 15.500004452023859 23.82999352197578 15.440389050285376 22.63844008319188 16.306565769663393 C21.296190180091173 17.081565992264586 20.43406622144164 18.39310483051304 19.95744484592808 19.795820165537407 C19.508860021915325 18.57195103572849 18.76589140714418 17.291973292518378 17.66195219180031 16.545027376617327 C16.529976424955578 15.650796350539167 15.06857117797648 15.5315655470622 13.579129379496635 15.5315655470622 C13.309277571301436 15.500004452023859 13.011389211605433 15.500004452023859 12.713500851909487 15.500004452023859" vector-effect="non-scaling-stroke"/></g><g><defs><path id="path-17453992527381300" d="M4.98245,10.94469c-0.62732,-0.53654 -0.98478,-1.3431 -0.89367,-2.20577c0.89367,-0.5681 1.9976,-0.65577 3.01042,-0.95385c0.38901,-0.05962 0.92521,0.03156 1.01282,0.50848c0.11916,1.07308 -0.26985,2.17772 -1.19155,2.74231c-0.32943,0.09118 -0.6869,0.17885 -1.01282,0.17885c-0.32943,-0.03156 -0.62732,-0.09118 -0.92521,-0.27002zM3.96963,4.59389c0.11916,-0.92579 0.03154,-2.1181 0.98478,-2.56346c0.44858,-0.11923 1.01282,-0.11923 1.37029,0.21041c0.56774,0.92579 0.74647,2.20577 0.44858,3.37002c-0.47662,0.74695 -1.52098,0.775 -2.35507,0.83462c-0.6869,-0.38925 -0.38901,-1.22387 -0.44858,-1.84808zM0.87159,1.88315c-1.10394,2.80192 -1.13198,6.52964 -0.23831,9.35962c0.32943,0.80656 1.19155,1.16425 1.90649,1.46233c1.93803,0.41731 4.02325,0.59615 5.81058,-0.23846c1.28267,-0.68733 2.11676,-2.05848 2.02564,-3.48925c-0.03154,-0.92579 -0.95324,-1.13269 -1.54902,-1.58156v-0.11923c0.5362,-0.29808 1.25113,-0.35769 1.52098,-1.01346c0.38901,-1.60962 -0.03154,-3.21923 -0.77451,-4.59039c-0.44858,-0.62772 -0.95324,-1.13269 -1.66817,-1.3431c-0.92521,-0.15079 -1.9976,-0.32964 -3.07,-0.32964c-1.58056,0.02805 -3.12958,0.41731 -3.96367,1.87964z" vector-effect="non-scaling-stroke"/></defs><path style="stroke-width: 0; stroke-linecap: butt; stroke-linejoin: miter; fill: rgb(242, 242, 243);" d="M4.98245,10.94469c-0.62732,-0.53654 -0.98478,-1.3431 -0.89367,-2.20577c0.89367,-0.5681 1.9976,-0.65577 3.01042,-0.95385c0.38901,-0.05962 0.92521,0.03156 1.01282,0.50848c0.11916,1.07308 -0.26985,2.17772 -1.19155,2.74231c-0.32943,0.09118 -0.6869,0.17885 -1.01282,0.17885c-0.32943,-0.03156 -0.62732,-0.09118 -0.92521,-0.27002zM3.96963,4.59389c0.11916,-0.92579 0.03154,-2.1181 0.98478,-2.56346c0.44858,-0.11923 1.01282,-0.11923 1.37029,0.21041c0.56774,0.92579 0.74647,2.20577 0.44858,3.37002c-0.47662,0.74695 -1.52098,0.775 -2.35507,0.83462c-0.6869,-0.38925 -0.38901,-1.22387 -0.44858,-1.84808zM0.87159,1.88315c-1.10394,2.80192 -1.13198,6.52964 -0.23831,9.35962c0.32943,0.80656 1.19155,1.16425 1.90649,1.46233c1.93803,0.41731 4.02325,0.59615 5.81058,-0.23846c1.28267,-0.68733 2.11676,-2.05848 2.02564,-3.48925c-0.03154,-0.92579 -0.95324,-1.13269 -1.54902,-1.58156v-0.11923c0.5362,-0.29808 1.25113,-0.35769 1.52098,-1.01346c0.38901,-1.60962 -0.03154,-3.21923 -0.77451,-4.59039c-0.44858,-0.62772 -0.95324,-1.13269 -1.66817,-1.3431c-0.92521,-0.15079 -1.9976,-0.32964 -3.07,-0.32964c-1.58056,0.02805 -3.12958,0.41731 -3.96367,1.87964z" transform="translate(76.8832050125668, 10.790387714678218) rotate(0)" vector-effect="non-scaling-stroke"/></g><g><defs><path id="path-17453992527381298" d="M1.22309,0.89423h0.50816c0.21027,0 0.47662,0.03156 0.47662,0.29808c0,0.32964 -0.32943,0.32964 -0.56774,0.32964h-0.38901l-0.02804,-0.62772zM1.78733,0.71538h-0.77451v1.78846h0.21027v-0.83462h0.38901l0.50816,0.83462h0.26985l-0.5362,-0.83462c0.32943,0 0.56774,-0.15079 0.56774,-0.50848c0,-0.15079 -0.05958,-0.29808 -0.21027,-0.38925c-0.11916,-0.05962 -0.26985,-0.09118 -0.38901,-0.09118c0,0.02104 -0.01051,0.03156 -0.03154,0.03156zM0.21027,1.63767c0,-0.775 0.62732,-1.40272 1.40183,-1.43077c0.77451,0 1.42986,0.62772 1.42986,1.40272c0,0.775 -0.62732,1.43077 -1.40183,1.43077v0c-0.80605,0 -1.42986,-0.62772 -1.42986,-1.40272zM1.6086,0c-0.89367,0 -1.6086,0.74695 -1.6086,1.60962c0,0.86267 0.74647,1.60962 1.6086,1.60962c0.86212,0 1.6086,-0.74695 1.58056,-1.60962c0.03154,-0.89423 -0.6869,-1.60962 -1.58056,-1.60962z" vector-effect="non-scaling-stroke"/></defs><path style="stroke-width: 0; stroke-linecap: butt; stroke-linejoin: miter; fill: rgb(242, 242, 243);" d="M1.22309,0.89423h0.50816c0.21027,0 0.47662,0.03156 0.47662,0.29808c0,0.32964 -0.32943,0.32964 -0.56774,0.32964h-0.38901l-0.02804,-0.62772zM1.78733,0.71538h-0.77451v1.78846h0.21027v-0.83462h0.38901l0.50816,0.83462h0.26985l-0.5362,-0.83462c0.32943,0 0.56774,-0.15079 0.56774,-0.50848c0,-0.15079 -0.05958,-0.29808 -0.21027,-0.38925c-0.11916,-0.05962 -0.26985,-0.09118 -0.38901,-0.09118c0,0.02104 -0.01051,0.03156 -0.03154,0.03156zM0.21027,1.63767c0,-0.775 0.62732,-1.40272 1.40183,-1.43077c0.77451,0 1.42986,0.62772 1.42986,1.40272c0,0.775 -0.62732,1.43077 -1.40183,1.43077v0c-0.80605,0 -1.42986,-0.62772 -1.42986,-1.40272zM1.6086,0c-0.89367,0 -1.6086,0.74695 -1.6086,1.60962c0,0.86267 0.74647,1.60962 1.6086,1.60962c0.86212,0 1.6086,-0.74695 1.58056,-1.60962c0.03154,-0.89423 -0.6869,-1.60962 -1.58056,-1.60962z" transform="translate(151.80984198524334, 8.977378144158138) rotate(0)" vector-effect="non-scaling-stroke"/></g></svg>