<svg height="30.00000016231752" overflow="visible" viewBox="0 0 123.00000308938638 30.00000016231752" width="123.00000308938638" xmlns="http://www.w3.org/2000/svg"><g><defs><path id="path-17453992527301246" d="M89.42853630465784 55.30398023100845 C87.54408110380456 57.737947979407224 84.63077700342352 59.17010871252302 81.55837255775468 59.191273649465614 C76.31159672648592 59.191273649465614 72.1290254270311 55.44860730011621 72.1290254270311 50.49953954503873 C72.1502388064028 48.10790167052516 73.15433876333024 45.83619843868631 74.8973714350388 44.1994433151254 C76.64040410674737 42.5626881915645 78.97741140086372 41.705508245389275 81.37452326986656 41.80780544061184 C84.450463278764 41.828970377554434 87.36023181591645 43.26113111067023 89.24468701676972 45.69509885906899 C89.24468701676972 45.69509885906899 85.7586216733526 48.16786899186251 85.7586216733526 48.16786899186251 C84.83583967068334 46.633411063524164 83.17766051646161 45.67393392212639 81.39220108600965 45.65276898518379 C78.70870859548877 45.65276898518379 76.51312383051712 47.822175021800085 76.49191045114543 50.49953954503873 C76.57322840540363 53.240398879105165 78.85013112463348 55.38863997877886 81.59726375326949 55.34631010489366 C83.37918762049284 55.325145167951064 85.01968895857149 54.446800284833245 86.04500229487066 52.99347461477486 C86.04500229487066 52.99347461477486 89.42853630465784 55.30398023100845 89.42853630465784 55.30398023100845 Z" vector-effect="non-scaling-stroke"/></defs> <path style="stroke-width: 0; stroke-linecap: butt; stroke-linejoin: miter; fill: rgb(242, 242, 243);" d="M50.70833548951737 20.30775699642254 C48.823880288663986 22.741724744821113 45.91057618828302 24.173885477936892 42.83817174261412 24.195050414879915 C37.591395911345444 24.195050414879915 33.40882461189062 20.45238406553017 33.40882461189062 15.503316310452647 C33.430037991262225 13.111678435939211 34.43413794818969 10.839975204100483 36.177170619898334 9.203220080539722 C37.92020329160687 7.566464956978052 40.257210585723215 6.709285010802887 42.65432245472607 6.811582206025378 C45.73026246362349 6.832747142968401 48.640031000775934 8.26490787608418 50.5244862016292 10.698875624482753 C50.5244862016292 10.698875624482753 47.03842085821202 13.171645757276565 47.03842085821202 13.171645757276565 C46.115638855542784 11.637187828938295 44.45745970132111 10.677710687540639 42.67200027086915 10.656545750597616 C39.9885077803483 10.656545750597616 37.79292301537657 12.825951787213853 37.77170963600497 15.503316310452647 C37.85302759026308 18.24417564451869 40.12993030949292 20.392416744192815 42.87706293812903 20.350086870307678 C44.658986805352356 20.328921933364654 46.29948814343095 19.450577050247375 47.32480147973013 17.997251380188573 C47.32480147973013 17.997251380188573 50.70833548951737 20.30775699642254 50.70833548951737 20.30775699642254 Z" vector-effect="non-scaling-stroke"/></g><g><defs><path id="path-17453992527301244" d="M91.3730960804007 58.82088725296977 C91.3730960804007 58.82088725296977 91.3730960804007 34.996223234585486 91.3730960804007 34.996223234585486 C91.3730960804007 34.996223234585486 95.7395166677438 34.996223234585486 95.7395166677438 34.996223234585486 C95.7395166677438 34.996223234585486 95.7395166677438 58.82088725296977 95.7395166677438 58.82088725296977 C95.7395166677438 58.82088725296977 91.3730960804007 58.82088725296977 91.3730960804007 58.82088725296977 Z" vector-effect="non-scaling-stroke"/></defs> <path style="stroke-width: 0; stroke-linecap: butt; stroke-linejoin: miter; fill: rgb(242, 242, 243);" d="M52.65289526525635 23.824664018384283 C52.65289526525635 23.824664018384283 52.65289526525635 0 52.65289526525635 0 C52.65289526525635 0 57.01931585259945 0 57.01931585259945 0 C57.01931585259945 0 57.01931585259945 23.824664018384283 57.01931585259945 23.824664018384283 C57.01931585259945 23.824664018384283 52.65289526525635 23.824664018384283 52.65289526525635 23.824664018384283 Z" vector-effect="non-scaling-stroke"/></g><g><defs><path id="path-17453992527291242" d="M9.4471,13.71244c2.82845,0.02116 5.14424,-2.18704 5.24678,-5.00904c-0.14496,-2.77966 -2.46075,-4.97023 -5.24678,-4.97023c-2.78602,0 -5.10535,2.18704 -5.24678,4.97023c0.10253,2.82199 2.43954,5.05136 5.24678,5.00904zM9.46832,0.01167c2.41833,-0.12346 4.77655,0.73725 6.53726,2.37047c1.78192,1.63676 2.80724,3.90493 2.88856,6.31773c-0.08132,2.4128 -1.12784,4.68451 -2.88856,6.31773c-1.78192,1.63676 -4.14014,2.49394 -6.53726,2.37047c-5.24678,0 -9.46824,-3.785 -9.46824,-8.69173c-0.02121,-4.8891 4.18257,-8.69173 9.46824,-8.69173z" vector-effect="non-scaling-stroke"/></defs><path style="stroke-width: 0; stroke-linecap: butt; stroke-linejoin: miter; fill: rgb(242, 242, 243);" d="M9.4471,13.71244c2.82845,0.02116 5.14424,-2.18704 5.24678,-5.00904c-0.14496,-2.77966 -2.46075,-4.97023 -5.24678,-4.97023c-2.78602,0 -5.10535,2.18704 -5.24678,4.97023c0.10253,2.82199 2.43954,5.05136 5.24678,5.00904zM9.46832,0.01167c2.41833,-0.12346 4.77655,0.73725 6.53726,2.37047c1.78192,1.63676 2.80724,3.90493 2.88856,6.31773c-0.08132,2.4128 -1.12784,4.68451 -2.88856,6.31773c-1.78192,1.63676 -4.14014,2.49394 -6.53726,2.37047c-5.24678,0 -9.46824,-3.785 -9.46824,-8.69173c-0.02121,-4.8891 4.18257,-8.69173 9.46824,-8.69173z" transform="translate(59.13350411563101, 6.778748551760145) rotate(0)" vector-effect="non-scaling-stroke"/></g><g><defs><path id="path-17453992527291240" d="M116.03364960000555 42.13586196322353 C116.03364960000555 42.13586196322353 121.15668071827267 42.13586196322353 121.15668071827267 42.13586196322353 C121.15668071827267 42.13586196322353 125.31803863835574 51.04982790554801 125.31803863835574 51.04982790554801 C125.31803863835574 51.04982790554801 129.80820393870027 42.13586196322353 129.80820393870027 42.13586196322353 C129.80820393870027 42.13586196322353 134.56353648119114 42.13586196322353 134.56353648119114 42.13586196322353 C134.56353648119114 42.13586196322353 125.31803863835574 59.84385920519776 125.31803863835574 59.84385920519776 C125.31803863835574 59.84385920519776 116.03364960000555 42.13586196322353 116.03364960000555 42.13586196322353 Z" vector-effect="non-scaling-stroke"/></defs> <path style="stroke-width: 0; stroke-linecap: butt; stroke-linejoin: miter; fill: rgb(242, 242, 243);" d="M77.31344878486539 7.139638728635873 C77.31344878486539 7.139638728635873 82.43647990313252 7.139638728635873 82.43647990313252 7.139638728635873 C82.43647990313252 7.139638728635873 86.59783782321551 16.05360467096034 86.59783782321551 16.05360467096034 C86.59783782321551 16.05360467096034 91.08800312356016 7.139638728635873 91.08800312356016 7.139638728635873 C91.08800312356016 7.139638728635873 95.84333566605096 7.139638728635873 95.84333566605096 7.139638728635873 C95.84333566605096 7.139638728635873 86.59783782321551 24.8476359706101 86.59783782321551 24.8476359706101 C86.59783782321551 24.8476359706101 77.31344878486539 7.139638728635873 77.31344878486539 7.139638728635873 Z" vector-effect="non-scaling-stroke"/></g><g><defs><path id="path-17453992527291238" d="M13.09573,6.3681c-0.67529,-1.63676 -2.29458,-2.71969 -4.05883,-2.69853c-1.84556,-0.02116 -3.54617,1.02297 -4.32399,2.69853zM15.90296,15.14097c-1.82435,1.47096 -4.09772,2.2717 -6.43473,2.25054c-5.24678,0 -9.46824,-3.785 -9.46824,-8.69173c0,-2.37047 0.96167,-4.64218 2.68349,-6.27893c1.72182,-1.63676 4.03761,-2.5151 6.39583,-2.4128c2.33701,-0.08113 4.5927,0.81838 6.22966,2.45513c1.63697,1.63676 2.52086,3.90493 2.43954,6.21544v1.24873h-13.42453c0.67529,2.25054 2.74713,3.76383 5.10535,3.74267c1.45665,0.04233 2.84966,-0.55382 3.83255,-1.63676l2.6446,3.10772zM19.85926,7.65563c0,-3.98606 3.05473,-7.31954 7.9727,-7.31954v3.90493c-1.04653,-0.05997 -2.05063,0.34922 -2.74713,1.12527c-0.69651,0.75841 -1.02531,1.79902 -0.90157,2.82199v8.83283h-4.32399z" vector-effect="non-scaling-stroke"/></defs><path style="stroke-width: 0; stroke-linecap: butt; stroke-linejoin: miter; fill: rgb(242, 242, 243);" d="M13.09573,6.3681c-0.67529,-1.63676 -2.29458,-2.71969 -4.05883,-2.69853c-1.84556,-0.02116 -3.54617,1.02297 -4.32399,2.69853zM15.90296,15.14097c-1.82435,1.47096 -4.09772,2.2717 -6.43473,2.25054c-5.24678,0 -9.46824,-3.785 -9.46824,-8.69173c0,-2.37047 0.96167,-4.64218 2.68349,-6.27893c1.72182,-1.63676 4.03761,-2.5151 6.39583,-2.4128c2.33701,-0.08113 4.5927,0.81838 6.22966,2.45513c1.63697,1.63676 2.52086,3.90493 2.43954,6.21544v1.24873h-13.42453c0.67529,2.25054 2.74713,3.76383 5.10535,3.74267c1.45665,0.04233 2.84966,-0.55382 3.83255,-1.63676l2.6446,3.10772zM19.85926,7.65563c0,-3.98606 3.05473,-7.31954 7.9727,-7.31954v3.90493c-1.04653,-0.05997 -2.05063,0.34922 -2.74713,1.12527c-0.69651,0.75841 -1.02531,1.79902 -0.90157,2.82199v8.83283h-4.32399z" transform="translate(95.1680430893864, 6.803547258524304) rotate(0)" vector-effect="non-scaling-stroke"/></g><g><defs><path id="path-17453992527281236" d="M13.56725,6.80676c0.02121,-2.74086 -1.61929,-5.21363 -4.16136,-6.27893c-2.52086,-1.06177 -5.45184,-0.49032 -7.39993,1.43216c-1.9481,1.92248 -2.54207,4.84677 -1.49554,7.38304c1.04653,2.53626 3.52496,4.19066 6.27209,4.19066h6.78475zM15.53302,6.80676c-0.02121,-2.74086 1.61929,-5.21363 4.16136,-6.27893c2.52086,-1.06177 5.45184,-0.49032 7.39993,1.43216c1.9481,1.92248 2.54207,4.84677 1.49554,7.38304c-1.04653,2.53626 -3.52496,4.19066 -6.27209,4.19066h-6.78475zM15.53302,22.20778c-0.02121,2.74086 1.61929,5.21363 4.16136,6.27893c2.54207,1.06177 5.45184,0.49032 7.39993,-1.43216c1.9481,-1.92248 2.54207,-4.84677 1.49554,-7.38304c-1.04653,-2.53626 -3.52496,-4.19066 -6.27209,-4.19066h-6.78475zM6.80372,27.03338c2.68349,0 4.85786,-2.14824 4.87908,-4.82561v-4.82561h-4.87908c-2.66581,0 -4.83665,2.16941 -4.83665,4.82561c0,2.65973 2.15316,4.82561 4.83665,4.82561zM13.56725,22.20778c0.02121,2.74086 -1.61929,5.21363 -4.16136,6.27893c-2.54207,1.06177 -5.45184,0.49032 -7.39993,-1.43216c-1.9481,-1.92248 -2.54207,-4.84677 -1.49554,-7.38304c1.04653,-2.53626 3.52496,-4.19066 6.27209,-4.19066h6.78475z" vector-effect="non-scaling-stroke"/></defs><path style="stroke-width: 0; stroke-linecap: butt; stroke-linejoin: miter; fill: rgb(242, 242, 243);" d="M13.56725,6.80676c0.02121,-2.74086 -1.61929,-5.21363 -4.16136,-6.27893c-2.52086,-1.06177 -5.45184,-0.49032 -7.39993,1.43216c-1.9481,1.92248 -2.54207,4.84677 -1.49554,7.38304c1.04653,2.53626 3.52496,4.19066 6.27209,4.19066h6.78475zM15.53302,6.80676c-0.02121,-2.74086 1.61929,-5.21363 4.16136,-6.27893c2.52086,-1.06177 5.45184,-0.49032 7.39993,1.43216c1.9481,1.92248 2.54207,4.84677 1.49554,7.38304c-1.04653,2.53626 -3.52496,4.19066 -6.27209,4.19066h-6.78475zM15.53302,22.20778c-0.02121,2.74086 1.61929,5.21363 4.16136,6.27893c2.54207,1.06177 5.45184,0.49032 7.39993,-1.43216c1.9481,-1.92248 2.54207,-4.84677 1.49554,-7.38304c-1.04653,-2.53626 -3.52496,-4.19066 -6.27209,-4.19066h-6.78475zM6.80372,27.03338c2.68349,0 4.85786,-2.14824 4.87908,-4.82561v-4.82561h-4.87908c-2.66581,0 -4.83665,2.16941 -4.83665,4.82561c0,2.65973 2.15316,4.82561 4.83665,4.82561zM13.56725,22.20778c0.02121,2.74086 -1.61929,5.21363 -4.16136,6.27893c-2.54207,1.06177 -5.45184,0.49032 -7.39993,-1.43216c-1.9481,-1.92248 -2.54207,-4.84677 -1.49554,-7.38304c1.04653,-2.53626 3.52496,-4.19066 6.27209,-4.19066h6.78475z" transform="translate(-0.0000031749361824040534, 0.985466290300792) rotate(0)" vector-effect="non-scaling-stroke"/></g></svg>