<svg height="48.24999999999999" overflow="visible" viewBox="0 0 54.800000000000004 48.24999999999999" width="54.800000000000004" xmlns="http://www.w3.org/2000/svg"><g><defs><path id="path-17455845325182927" d="M11.87,10.69l-1.08,-1.04c-0.27,0.27 -0.52,0.56 -0.78,0.84l1.13,0.99c0.24,-0.27 0.48,-0.53 0.72,-0.79zM6.71,19.84l-1.45,-0.38c-0.17,0.66 -0.32,1.34 -0.43,2l1.48,0.25c0.1,-0.62 0.24,-1.25 0.4,-1.87zM9.96,12.97l-1.22,-0.88c-0.4,0.55 -0.78,1.13 -1.12,1.71l1.29,0.76c0.32,-0.54 0.67,-1.08 1.05,-1.6zM8.02,16.25l-1.36,-0.64c-0.29,0.62 -0.56,1.25 -0.79,1.89l1.41,0.51c0.22,-0.59 0.46,-1.19 0.74,-1.76zM13.55,9.14l-0.96,-1.16c-0.32,0.26 -0.63,0.53 -0.93,0.81l1.02,1.1c0.28,-0.26 0.57,-0.51 0.87,-0.76zM6.08,28.9h-1.44v0.77h0.63v1.98h-0.63v0.78h2.05v-0.81h-0.61zM5.53,28.32c0.38,0 0.69,-0.31 0.69,-0.69c0,-0.38 -0.31,-0.69 -0.69,-0.69c-0.38,0 -0.69,0.31 -0.69,0.69c0,0.38 0.31,0.69 0.69,0.69zM11.08,29.67c0,-2.88 -2.21,-5.25 -5.02,-5.51c0,-0.06 0,-0.12 0,-0.19l-1.5,-0.08c0,0.11 0,0.22 0,0.33c-2.59,0.46 -4.56,2.73 -4.56,5.45c0,3.06 2.49,5.54 5.54,5.54c3.05,0 5.54,-2.49 5.54,-5.54zM5.53,33.71c-2.23,0 -4.04,-1.81 -4.04,-4.04c0,-2.23 1.81,-4.04 4.04,-4.04c2.23,0 4.04,1.81 4.04,4.04c0,2.23 -1.81,4.04 -4.04,4.04zM38.21,42.9h-6c-0.41,0 -0.75,0.34 -0.75,0.75c0,0.41 0.34,0.75 0.75,0.75h6c0.41,0 0.75,-0.34 0.75,-0.75c0,-0.41 -0.34,-0.75 -0.75,-0.75zM25.85,44.21c0,-0.47496 0.38504,-0.86 0.86,-0.86c0.47496,0 0.86,0.38504 0.86,0.86c0,0.47496 -0.38504,0.86 -0.86,0.86c-0.47496,0 -0.86,-0.38504 -0.86,-0.86zM25.85,47.04c0,-0.47496 0.38504,-0.86 0.86,-0.86c0.47496,0 0.86,0.38504 0.86,0.86c0,0.47496 -0.38504,0.86 -0.86,0.86c-0.47496,0 -0.86,-0.38504 -0.86,-0.86zM46.44,31.78l1.42,0.48c0.22,-0.64 0.41,-1.3 0.56,-1.95l-1.46,-0.35c-0.15,0.61 -0.32,1.22 -0.52,1.82zM47.32,28.1l1.48,0.21c0.1,-0.66 0.16,-1.34 0.2,-2.02l-1.5,-0.08c-0.03,0.63 -0.09,1.27 -0.18,1.88zM44.9,35.23l1.31,0.73c0.33,-0.59 0.63,-1.2 0.91,-1.81l-1.37,-0.61c-0.25,0.57 -0.54,1.14 -0.85,1.69zM43.29,37.7l1.19,0.91c0.23,-0.3 0.45,-0.61 0.67,-0.92l-1.24,-0.85c-0.2,0.29 -0.41,0.58 -0.62,0.86zM43.72,39.55l-1.14,-0.97c-0.1,0.12 -0.21,0.23 -0.31,0.35v0c-1.96,-2.94 -6.27,-4.11 -8.59,-4.73c-0.32,-0.09 -0.59,-0.16 -0.8,-0.23c-0.98,-0.3 -0.95,-1.39 -0.94,-1.56v-2c0.1,-0.16 0.19,-0.31 0.28,-0.48l2,-0.08c0.99,-0.04 1.84,-0.7 2.13,-1.65l0.08,-0.25c0.11,0.1 0.22,0.2 0.34,0.28c0.55,0.37 1.21,0.56 2.02,0.56c-0.53,0.75 -1.35,1.68 -2.45,2.28c-1.04,0.56 -2.33,0.06 -2.34,0.06c-0.38,-0.16 -0.82,0.02 -0.98,0.41c-0.16,0.39 0.02,0.82 0.41,0.98c0.08,0.03 1.95,0.79 3.62,-0.13c2.56,-1.4 3.78,-4.1 3.83,-4.21c0.11,-0.26 0.07,-0.56 -0.11,-0.78c-0.18,-0.22 -0.46,-0.32 -0.74,-0.26c-1.1,0.24 -1.92,0.19 -2.42,-0.15c-0.71,-0.48 -0.89,-1.6 -1.07,-2.69c-0.04,-0.22 -0.07,-0.44 -0.11,-0.65c-0.11,-0.58 -0.11,-1.53 -0.11,-2.54c0,-2.55 0,-5.72 -1.58,-7.4c-2.18,-2.32 -5.88,-2.35 -6.03,-2.35c-0.41,0 -0.75,0.34 -0.75,0.75v0.76c-0.77,-0.33 -1.83,-0.75 -2.74,-1.02c-2.12,-0.62 -5.28,0.34 -6.94,3.34c-1.02,1.83 -0.9,3.43 -0.75,5.27c0.1,1.27 0.21,2.71 -0.06,4.48c-0.16,1.02 -0.55,1.73 -1.17,2.1c-1.15,0.69 -2.78,0.12 -2.8,0.12c-0.28,-0.1 -0.6,-0.02 -0.8,0.2c-0.21,0.22 -0.26,0.54 -0.13,0.82c0.02,0.05 0.61,1.33 2.22,2.98c1.4,1.44 2.8,1.78 3.79,1.78c0.85,0 1.41,-0.24 1.46,-0.27c0.38,-0.17 0.54,-0.6 0.38,-0.98c-0.16,-0.38 -0.6,-0.55 -0.98,-0.39c-0.07,0.03 -1.74,0.7 -3.58,-1.19c-0.44,-0.45 -0.79,-0.87 -1.07,-1.23c0.72,0.02 1.53,-0.1 2.27,-0.54c1.03,-0.61 1.66,-1.68 1.89,-3.17c0.29,-1.94 0.18,-3.47 0.07,-4.82c-0.13,-1.73 -0.23,-2.99 0.57,-4.43c1.37,-2.46 3.88,-3.02 5.21,-2.63c1.51,0.44 3.57,1.4 3.59,1.41c0.23,0.11 0.5,0.09 0.72,-0.05c0.22,-0.14 0.35,-0.38 0.35,-0.63v-1.11c1.05,0.12 2.98,0.53 4.19,1.82c1.17,1.25 1.17,4.09 1.18,6.38c0,1.13 0,2.1 0.14,2.82c0.04,0.2 0.07,0.41 0.11,0.62c0.08,0.51 0.18,1.07 0.34,1.62l-0.49,1.61c-0.1,0.34 -0.41,0.57 -0.75,0.58l-1.27,0.05c0.12,-0.33 0.25,-0.65 0.36,-1.01c0.48,-1.59 0.38,-5.96 0.36,-6.45c0,-0.21 -0.1,-0.42 -0.27,-0.55l-1.65,-1.39c-0.13,-0.11 -0.28,-0.17 -0.45,-0.17l-4.32,-0.19l-3.88,-2.1c-0.23,-0.13 -0.51,-0.12 -0.74,0.02c-0.23,0.14 -0.37,0.38 -0.37,0.64v1.37c-1.09,0.26 -1.75,1.14 -1.99,1.7c-0.04,0.1 -0.06,0.21 -0.06,0.32l0.12,4.17c0,1.87 0.7,3.53 0.85,3.87c0.11,0.37 0.27,0.81 0.5,1.26v2.58c0,0.12 0.04,1.21 -0.94,1.51c-0.21,0.06 -0.48,0.14 -0.8,0.23c-2.27,0.62 -6.45,1.76 -8.46,4.58c-0.13,-0.15 -0.27,-0.3 -0.4,-0.45l-1.16,0.95c0.24,0.29 0.5,0.58 0.75,0.86c-1.24,2.64 -1.12,5.5 -1.06,6.82c0,0.21 0.02,0.38 0.02,0.52c0,0.41 0.34,0.75 0.75,0.75c0.41,0 0.75,-0.34 0.75,-0.75c0,-0.15 0,-0.34 -0.02,-0.58c-0.07,-1.5 -0.2,-4.61 1.48,-7.13c1.65,-2.47 5.76,-3.58 7.73,-4.12c0.18,-0.05 0.35,-0.1 0.5,-0.14c0.19,1.55 1.18,4.77 5.93,6.67c0.09,0.04 0.18,0.05 0.28,0.05c0.08,0 0.16,-0.01 0.23,-0.04c0.21,-0.07 4.99,-1.67 6.26,-6.57c0.03,0 0.05,0.01 0.07,0.02c1.98,0.54 6.08,1.65 7.73,4.12c1.68,2.52 1.54,5.63 1.48,7.13c-0.01,0.24 -0.02,0.43 -0.02,0.58c0,0.41 0.34,0.75 0.75,0.75c0.41,0 0.75,-0.34 0.75,-0.75c0,-0.13 0,-0.31 0.02,-0.52c0.06,-1.29 0.16,-4.03 -0.98,-6.62c0.24,-0.26 0.48,-0.51 0.7,-0.78zM26.73,40.66c-4.89,-2.07 -4.78,-5.67 -4.77,-5.92c0.76,-0.74 0.94,-1.79 0.9,-2.35v-0.43c0.94,0.92 2.2,1.63 3.82,1.63c0.03,0 0.06,0 0.1,0c1.41,-0.02 2.63,-0.5 3.66,-1.39v0.14c-0.05,0.71 0.2,2.06 1.36,2.76c-0.89,3.66 -4.12,5.19 -5.06,5.56zM31.25,28.45l-2.89,0.11c-0.19,0 -0.35,-0.06 -0.48,-0.18l-1.17,-1.14c-0.3,-0.29 -0.77,-0.28 -1.06,0.02c-0.29,0.3 -0.28,0.77 0.02,1.06l1.18,1.14c0.4,0.39 0.94,0.6 1.5,0.6c0.03,0 0.05,0 0.08,0l2.01,-0.08c-0.96,1.38 -2.17,2.08 -3.68,2.11c-0.02,0 -0.05,0 -0.07,0c-2.07,0 -3.27,-1.54 -3.87,-2.7c0,-0.02 -0.02,-0.03 -0.02,-0.05c-0.33,-0.63 -0.48,-1.14 -0.49,-1.2c-0.01,-0.04 -0.03,-0.08 -0.04,-0.12c0,-0.02 -0.73,-1.59 -0.73,-3.3v-0.02l-0.12,-3.98c0.15,-0.25 0.54,-0.77 1.26,-0.75c0.2,0 0.4,-0.07 0.55,-0.21c0.15,-0.14 0.23,-0.34 0.23,-0.54v-0.79l2.92,1.58c0.1,0.05 0.21,0.08 0.32,0.09l4.24,0.19l1.2,1.01c0.03,1.47 0.02,4.58 -0.31,5.64c-0.17,0.56 -0.36,1.05 -0.56,1.51zM7.03,35.37c0.19,0.37 0.39,0.73 0.6,1.08l1.29,-0.77c-0.2,-0.33 -0.38,-0.67 -0.56,-1.01l-1.33,0.69zM42.88,17.87c0,-0.52467 0.42533,-0.95 0.95,-0.95c0.52467,0 0.95,0.42533 0.95,0.95c0,0.52467 -0.42533,0.95 -0.95,0.95c-0.52467,0 -0.95,-0.42533 -0.95,-0.95zM46.25,17.87c0,-0.52467 0.42533,-0.95 0.95,-0.95c0.52467,0 0.95,0.42533 0.95,0.95c0,0.52467 -0.42533,0.95 -0.95,0.95c-0.52467,0 -0.95,-0.42533 -0.95,-0.95zM49.6,17.87c0,-0.52467 0.42533,-0.95 0.95,-0.95c0.52467,0 0.95,0.42533 0.95,0.95c0,0.52467 -0.42533,0.95 -0.95,0.95c-0.52467,0 -0.95,-0.42533 -0.95,-0.95zM25.76,4.4l-0.07,-1.5c-0.41,0.02 -0.82,0.05 -1.23,0.09l0.16,1.49c0.38,-0.04 0.76,-0.07 1.15,-0.09zM30.04,3.11c-0.66,-0.1 -1.33,-0.16 -1.98,-0.2l-0.08,1.5c0.61,0.03 1.24,0.1 1.85,0.19l0.22,-1.48zM43.63,10.59c-0.4,-0.47 -0.84,-0.93 -1.29,-1.38l-1.05,1.07c0.42,0.41 0.83,0.84 1.2,1.28l1.14,-0.98zM33.91,4.04c-0.63,-0.21 -1.27,-0.4 -1.92,-0.55l-0.35,1.46c0.6,0.14 1.2,0.32 1.79,0.52l0.48,-1.42zM40.85,7.88c-0.51,-0.42 -1.05,-0.82 -1.6,-1.19l-0.84,1.24c0.51,0.35 1.01,0.72 1.49,1.11zM37.55,5.65c-0.58,-0.32 -1.18,-0.62 -1.79,-0.89l-0.61,1.37c0.56,0.25 1.12,0.53 1.66,0.83l0.73,-1.31zM52.72,12.57h-7.71l0.09,-0.06c-0.23,-0.34 -0.48,-0.67 -0.73,-1l-1.18,0.92c0,0 0.07,0.09 0.1,0.14h-1.77c-1.14,0 -2.08,0.93 -2.08,2.08v6.49c0,1.14 0.93,2.08 2.08,2.08h0.97l-0.07,1.57c-0.01,0.32 0.17,0.61 0.47,0.73c0.09,0.04 0.19,0.06 0.28,0.06c0.21,0 0.41,-0.09 0.56,-0.25l1.88,-2.1h1.83c0.02,0.25 0.05,0.5 0.06,0.75l1.5,-0.08c-0.01,-0.22 -0.04,-0.44 -0.06,-0.66h3.78c1.14,0 2.08,-0.93 2.08,-2.08v-6.49c0,-1.14 -0.93,-2.08 -2.08,-2.08zM53.3,21.13c0,0.32 -0.26,0.58 -0.58,0.58h-7.45c-0.21,0 -0.42,0.09 -0.56,0.25l-0.71,0.79v-0.25c0.02,-0.2 -0.05,-0.4 -0.2,-0.55c-0.15,-0.15 -0.34,-0.23 -0.54,-0.23h-1.75c-0.32,0 -0.58,-0.26 -0.58,-0.58v-6.49c0,-0.32 0.26,-0.58 0.58,-0.58h11.2c0.32,0 0.58,0.26 0.58,0.58v6.49zM18.87,8.49c1.4,0 2.54,-1.14 2.54,-2.54c0,-1.4 -1.14,-2.54 -2.54,-2.54c-1.4,0 -2.54,1.14 -2.54,2.54c0,1.4 1.14,2.54 2.54,2.54zM18.87,4.42c0.85,0 1.54,0.69 1.54,1.54c0,0.85 -0.69,1.54 -1.54,1.54c-0.85,0 -1.54,-0.69 -1.54,-1.54c0,-0.85 0.69,-1.54 1.54,-1.54zM13.29,7.15l0.83,0.1l0.02,0.06c0.11,0.34 0.26,0.67 0.43,0.97l0.04,0.06l-0.54,0.7c-0.14,0.18 -0.13,0.43 0.04,0.59l1.06,1.06c0.09,0.08 0.2,0.13 0.32,0.13c0.1,0 0.2,-0.03 0.28,-0.09l0.75,-0.58l0.06,0.03c0.29,0.15 0.59,0.28 0.9,0.37l0.07,0.02l0.12,0.95c0.03,0.23 0.22,0.4 0.44,0.4h1.5c0.23,0 0.42,-0.17 0.44,-0.4l0.12,-0.95l0.07,-0.02c0.31,-0.09 0.61,-0.21 0.9,-0.37l0.06,-0.03l0.75,0.58c0.08,0.06 0.18,0.09 0.28,0.09c0.12,0 0.23,-0.05 0.32,-0.13l1.06,-1.06c0.16,-0.16 0.18,-0.41 0.04,-0.59l-0.54,-0.7l0.04,-0.06c0.18,-0.3 0.32,-0.63 0.43,-0.97l0.02,-0.06l0.83,-0.1c0.22,-0.03 0.4,-0.22 0.4,-0.44v-1.5c0,-0.23 -0.17,-0.42 -0.4,-0.44l-0.83,-0.1l-0.02,-0.06c-0.11,-0.34 -0.26,-0.67 -0.43,-0.97l-0.04,-0.06l0.54,-0.7c0.14,-0.18 0.13,-0.43 -0.04,-0.59l-1.06,-1.06c-0.09,-0.08 -0.2,-0.13 -0.32,-0.13c-0.1,0 -0.2,0.03 -0.28,0.09l-0.75,0.58l-0.06,-0.03c-0.29,-0.15 -0.59,-0.28 -0.9,-0.37l-0.07,-0.02l-0.12,-0.95c-0.03,-0.23 -0.22,-0.4 -0.44,-0.4h-1.5c-0.23,0 -0.42,0.17 -0.44,0.4l-0.12,0.95l-0.07,0.02c-0.31,0.09 -0.61,0.21 -0.9,0.37l-0.06,0.03l-0.75,-0.58c-0.08,-0.06 -0.18,-0.09 -0.28,-0.09c-0.12,0 -0.23,0.05 -0.32,0.13l-1.06,1.06c-0.16,0.16 -0.18,0.41 -0.04,0.59l0.54,0.7l-0.04,0.06c-0.18,0.3 -0.32,0.63 -0.43,0.97l-0.02,0.06l-0.83,0.1c-0.22,0.03 -0.4,0.22 -0.4,0.44v1.5c0,0.23 0.17,0.42 0.4,0.44zM14.24,5.96v-0.35l0.67,-0.09c0.17,-0.02 0.3,-0.14 0.35,-0.31c0.11,-0.46 0.3,-0.88 0.57,-1.25c0.1,-0.15 0.1,-0.34 0,-0.48l-0.45,-0.58l0.46,-0.46l0.62,0.48c0.07,0.06 0.16,0.09 0.25,0.09c0.08,0 0.15,-0.02 0.22,-0.06c0.38,-0.24 0.78,-0.4 1.2,-0.48c0.17,-0.03 0.3,-0.18 0.32,-0.35l0.1,-0.79h0.65l0.1,0.79c0.02,0.18 0.15,0.32 0.32,0.35c0.42,0.09 0.82,0.25 1.2,0.48c0.07,0.04 0.14,0.06 0.22,0.06c0.09,0 0.18,-0.03 0.25,-0.09l0.62,-0.48l0.46,0.46l-0.45,0.58c-0.11,0.14 -0.11,0.34 0,0.48c0.27,0.38 0.46,0.81 0.57,1.25c0.04,0.17 0.18,0.29 0.35,0.31l0.67,0.09v0.69l-0.67,0.09c-0.17,0.02 -0.3,0.14 -0.35,0.31c-0.11,0.46 -0.3,0.88 -0.57,1.25c-0.1,0.15 -0.1,0.34 0,0.48l0.45,0.58l-0.46,0.46l-0.62,-0.48c-0.07,-0.06 -0.16,-0.09 -0.25,-0.09c-0.08,0 -0.15,0.02 -0.22,0.06c-0.38,0.24 -0.78,0.4 -1.2,0.48c-0.17,0.03 -0.3,0.18 -0.32,0.35l-0.1,0.79h-0.65l-0.1,-0.79c-0.02,-0.18 -0.15,-0.32 -0.32,-0.35c-0.42,-0.09 -0.82,-0.25 -1.2,-0.48c-0.07,-0.04 -0.14,-0.06 -0.22,-0.06c-0.09,0 -0.18,0.03 -0.25,0.09l-0.62,0.48l-0.46,-0.46l0.45,-0.58c0.11,-0.14 0.11,-0.34 0,-0.48c-0.27,-0.38 -0.46,-0.81 -0.57,-1.25c-0.04,-0.17 -0.18,-0.29 -0.35,-0.31l-0.67,-0.09z" vector-effect="non-scaling-stroke"/><linearGradient id="gradient-174558453397319160" x1="15%" y1="15%" x2="85%" y2="85%" vector-effect="non-scaling-stroke"><stop offset="0%" stop-color="rgb(0,89,178)" stop-opacity="1" vector-effect="non-scaling-stroke"/><stop offset="100%" stop-color="rgb(181,245,140)" stop-opacity="1" vector-effect="non-scaling-stroke"/></linearGradient></defs><path style="stroke-width: 0; stroke-linecap: butt; stroke-linejoin: miter; fill: url(&quot;#gradient-174558453397319160&quot;);" d="M11.87,10.69l-1.08,-1.04c-0.27,0.27 -0.52,0.56 -0.78,0.84l1.13,0.99c0.24,-0.27 0.48,-0.53 0.72,-0.79zM6.71,19.84l-1.45,-0.38c-0.17,0.66 -0.32,1.34 -0.43,2l1.48,0.25c0.1,-0.62 0.24,-1.25 0.4,-1.87zM9.96,12.97l-1.22,-0.88c-0.4,0.55 -0.78,1.13 -1.12,1.71l1.29,0.76c0.32,-0.54 0.67,-1.08 1.05,-1.6zM8.02,16.25l-1.36,-0.64c-0.29,0.62 -0.56,1.25 -0.79,1.89l1.41,0.51c0.22,-0.59 0.46,-1.19 0.74,-1.76zM13.55,9.14l-0.96,-1.16c-0.32,0.26 -0.63,0.53 -0.93,0.81l1.02,1.1c0.28,-0.26 0.57,-0.51 0.87,-0.76zM6.08,28.9h-1.44v0.77h0.63v1.98h-0.63v0.78h2.05v-0.81h-0.61zM5.53,28.32c0.38,0 0.69,-0.31 0.69,-0.69c0,-0.38 -0.31,-0.69 -0.69,-0.69c-0.38,0 -0.69,0.31 -0.69,0.69c0,0.38 0.31,0.69 0.69,0.69zM11.08,29.67c0,-2.88 -2.21,-5.25 -5.02,-5.51c0,-0.06 0,-0.12 0,-0.19l-1.5,-0.08c0,0.11 0,0.22 0,0.33c-2.59,0.46 -4.56,2.73 -4.56,5.45c0,3.06 2.49,5.54 5.54,5.54c3.05,0 5.54,-2.49 5.54,-5.54zM5.53,33.71c-2.23,0 -4.04,-1.81 -4.04,-4.04c0,-2.23 1.81,-4.04 4.04,-4.04c2.23,0 4.04,1.81 4.04,4.04c0,2.23 -1.81,4.04 -4.04,4.04zM38.21,42.9h-6c-0.41,0 -0.75,0.34 -0.75,0.75c0,0.41 0.34,0.75 0.75,0.75h6c0.41,0 0.75,-0.34 0.75,-0.75c0,-0.41 -0.34,-0.75 -0.75,-0.75zM25.85,44.21c0,-0.47496 0.38504,-0.86 0.86,-0.86c0.47496,0 0.86,0.38504 0.86,0.86c0,0.47496 -0.38504,0.86 -0.86,0.86c-0.47496,0 -0.86,-0.38504 -0.86,-0.86zM25.85,47.04c0,-0.47496 0.38504,-0.86 0.86,-0.86c0.47496,0 0.86,0.38504 0.86,0.86c0,0.47496 -0.38504,0.86 -0.86,0.86c-0.47496,0 -0.86,-0.38504 -0.86,-0.86zM46.44,31.78l1.42,0.48c0.22,-0.64 0.41,-1.3 0.56,-1.95l-1.46,-0.35c-0.15,0.61 -0.32,1.22 -0.52,1.82zM47.32,28.1l1.48,0.21c0.1,-0.66 0.16,-1.34 0.2,-2.02l-1.5,-0.08c-0.03,0.63 -0.09,1.27 -0.18,1.88zM44.9,35.23l1.31,0.73c0.33,-0.59 0.63,-1.2 0.91,-1.81l-1.37,-0.61c-0.25,0.57 -0.54,1.14 -0.85,1.69zM43.29,37.7l1.19,0.91c0.23,-0.3 0.45,-0.61 0.67,-0.92l-1.24,-0.85c-0.2,0.29 -0.41,0.58 -0.62,0.86zM43.72,39.55l-1.14,-0.97c-0.1,0.12 -0.21,0.23 -0.31,0.35v0c-1.96,-2.94 -6.27,-4.11 -8.59,-4.73c-0.32,-0.09 -0.59,-0.16 -0.8,-0.23c-0.98,-0.3 -0.95,-1.39 -0.94,-1.56v-2c0.1,-0.16 0.19,-0.31 0.28,-0.48l2,-0.08c0.99,-0.04 1.84,-0.7 2.13,-1.65l0.08,-0.25c0.11,0.1 0.22,0.2 0.34,0.28c0.55,0.37 1.21,0.56 2.02,0.56c-0.53,0.75 -1.35,1.68 -2.45,2.28c-1.04,0.56 -2.33,0.06 -2.34,0.06c-0.38,-0.16 -0.82,0.02 -0.98,0.41c-0.16,0.39 0.02,0.82 0.41,0.98c0.08,0.03 1.95,0.79 3.62,-0.13c2.56,-1.4 3.78,-4.1 3.83,-4.21c0.11,-0.26 0.07,-0.56 -0.11,-0.78c-0.18,-0.22 -0.46,-0.32 -0.74,-0.26c-1.1,0.24 -1.92,0.19 -2.42,-0.15c-0.71,-0.48 -0.89,-1.6 -1.07,-2.69c-0.04,-0.22 -0.07,-0.44 -0.11,-0.65c-0.11,-0.58 -0.11,-1.53 -0.11,-2.54c0,-2.55 0,-5.72 -1.58,-7.4c-2.18,-2.32 -5.88,-2.35 -6.03,-2.35c-0.41,0 -0.75,0.34 -0.75,0.75v0.76c-0.77,-0.33 -1.83,-0.75 -2.74,-1.02c-2.12,-0.62 -5.28,0.34 -6.94,3.34c-1.02,1.83 -0.9,3.43 -0.75,5.27c0.1,1.27 0.21,2.71 -0.06,4.48c-0.16,1.02 -0.55,1.73 -1.17,2.1c-1.15,0.69 -2.78,0.12 -2.8,0.12c-0.28,-0.1 -0.6,-0.02 -0.8,0.2c-0.21,0.22 -0.26,0.54 -0.13,0.82c0.02,0.05 0.61,1.33 2.22,2.98c1.4,1.44 2.8,1.78 3.79,1.78c0.85,0 1.41,-0.24 1.46,-0.27c0.38,-0.17 0.54,-0.6 0.38,-0.98c-0.16,-0.38 -0.6,-0.55 -0.98,-0.39c-0.07,0.03 -1.74,0.7 -3.58,-1.19c-0.44,-0.45 -0.79,-0.87 -1.07,-1.23c0.72,0.02 1.53,-0.1 2.27,-0.54c1.03,-0.61 1.66,-1.68 1.89,-3.17c0.29,-1.94 0.18,-3.47 0.07,-4.82c-0.13,-1.73 -0.23,-2.99 0.57,-4.43c1.37,-2.46 3.88,-3.02 5.21,-2.63c1.51,0.44 3.57,1.4 3.59,1.41c0.23,0.11 0.5,0.09 0.72,-0.05c0.22,-0.14 0.35,-0.38 0.35,-0.63v-1.11c1.05,0.12 2.98,0.53 4.19,1.82c1.17,1.25 1.17,4.09 1.18,6.38c0,1.13 0,2.1 0.14,2.82c0.04,0.2 0.07,0.41 0.11,0.62c0.08,0.51 0.18,1.07 0.34,1.62l-0.49,1.61c-0.1,0.34 -0.41,0.57 -0.75,0.58l-1.27,0.05c0.12,-0.33 0.25,-0.65 0.36,-1.01c0.48,-1.59 0.38,-5.96 0.36,-6.45c0,-0.21 -0.1,-0.42 -0.27,-0.55l-1.65,-1.39c-0.13,-0.11 -0.28,-0.17 -0.45,-0.17l-4.32,-0.19l-3.88,-2.1c-0.23,-0.13 -0.51,-0.12 -0.74,0.02c-0.23,0.14 -0.37,0.38 -0.37,0.64v1.37c-1.09,0.26 -1.75,1.14 -1.99,1.7c-0.04,0.1 -0.06,0.21 -0.06,0.32l0.12,4.17c0,1.87 0.7,3.53 0.85,3.87c0.11,0.37 0.27,0.81 0.5,1.26v2.58c0,0.12 0.04,1.21 -0.94,1.51c-0.21,0.06 -0.48,0.14 -0.8,0.23c-2.27,0.62 -6.45,1.76 -8.46,4.58c-0.13,-0.15 -0.27,-0.3 -0.4,-0.45l-1.16,0.95c0.24,0.29 0.5,0.58 0.75,0.86c-1.24,2.64 -1.12,5.5 -1.06,6.82c0,0.21 0.02,0.38 0.02,0.52c0,0.41 0.34,0.75 0.75,0.75c0.41,0 0.75,-0.34 0.75,-0.75c0,-0.15 0,-0.34 -0.02,-0.58c-0.07,-1.5 -0.2,-4.61 1.48,-7.13c1.65,-2.47 5.76,-3.58 7.73,-4.12c0.18,-0.05 0.35,-0.1 0.5,-0.14c0.19,1.55 1.18,4.77 5.93,6.67c0.09,0.04 0.18,0.05 0.28,0.05c0.08,0 0.16,-0.01 0.23,-0.04c0.21,-0.07 4.99,-1.67 6.26,-6.57c0.03,0 0.05,0.01 0.07,0.02c1.98,0.54 6.08,1.65 7.73,4.12c1.68,2.52 1.54,5.63 1.48,7.13c-0.01,0.24 -0.02,0.43 -0.02,0.58c0,0.41 0.34,0.75 0.75,0.75c0.41,0 0.75,-0.34 0.75,-0.75c0,-0.13 0,-0.31 0.02,-0.52c0.06,-1.29 0.16,-4.03 -0.98,-6.62c0.24,-0.26 0.48,-0.51 0.7,-0.78zM26.73,40.66c-4.89,-2.07 -4.78,-5.67 -4.77,-5.92c0.76,-0.74 0.94,-1.79 0.9,-2.35v-0.43c0.94,0.92 2.2,1.63 3.82,1.63c0.03,0 0.06,0 0.1,0c1.41,-0.02 2.63,-0.5 3.66,-1.39v0.14c-0.05,0.71 0.2,2.06 1.36,2.76c-0.89,3.66 -4.12,5.19 -5.06,5.56zM31.25,28.45l-2.89,0.11c-0.19,0 -0.35,-0.06 -0.48,-0.18l-1.17,-1.14c-0.3,-0.29 -0.77,-0.28 -1.06,0.02c-0.29,0.3 -0.28,0.77 0.02,1.06l1.18,1.14c0.4,0.39 0.94,0.6 1.5,0.6c0.03,0 0.05,0 0.08,0l2.01,-0.08c-0.96,1.38 -2.17,2.08 -3.68,2.11c-0.02,0 -0.05,0 -0.07,0c-2.07,0 -3.27,-1.54 -3.87,-2.7c0,-0.02 -0.02,-0.03 -0.02,-0.05c-0.33,-0.63 -0.48,-1.14 -0.49,-1.2c-0.01,-0.04 -0.03,-0.08 -0.04,-0.12c0,-0.02 -0.73,-1.59 -0.73,-3.3v-0.02l-0.12,-3.98c0.15,-0.25 0.54,-0.77 1.26,-0.75c0.2,0 0.4,-0.07 0.55,-0.21c0.15,-0.14 0.23,-0.34 0.23,-0.54v-0.79l2.92,1.58c0.1,0.05 0.21,0.08 0.32,0.09l4.24,0.19l1.2,1.01c0.03,1.47 0.02,4.58 -0.31,5.64c-0.17,0.56 -0.36,1.05 -0.56,1.51zM7.03,35.37c0.19,0.37 0.39,0.73 0.6,1.08l1.29,-0.77c-0.2,-0.33 -0.38,-0.67 -0.56,-1.01l-1.33,0.69zM42.88,17.87c0,-0.52467 0.42533,-0.95 0.95,-0.95c0.52467,0 0.95,0.42533 0.95,0.95c0,0.52467 -0.42533,0.95 -0.95,0.95c-0.52467,0 -0.95,-0.42533 -0.95,-0.95zM46.25,17.87c0,-0.52467 0.42533,-0.95 0.95,-0.95c0.52467,0 0.95,0.42533 0.95,0.95c0,0.52467 -0.42533,0.95 -0.95,0.95c-0.52467,0 -0.95,-0.42533 -0.95,-0.95zM49.6,17.87c0,-0.52467 0.42533,-0.95 0.95,-0.95c0.52467,0 0.95,0.42533 0.95,0.95c0,0.52467 -0.42533,0.95 -0.95,0.95c-0.52467,0 -0.95,-0.42533 -0.95,-0.95zM25.76,4.4l-0.07,-1.5c-0.41,0.02 -0.82,0.05 -1.23,0.09l0.16,1.49c0.38,-0.04 0.76,-0.07 1.15,-0.09zM30.04,3.11c-0.66,-0.1 -1.33,-0.16 -1.98,-0.2l-0.08,1.5c0.61,0.03 1.24,0.1 1.85,0.19l0.22,-1.48zM43.63,10.59c-0.4,-0.47 -0.84,-0.93 -1.29,-1.38l-1.05,1.07c0.42,0.41 0.83,0.84 1.2,1.28l1.14,-0.98zM33.91,4.04c-0.63,-0.21 -1.27,-0.4 -1.92,-0.55l-0.35,1.46c0.6,0.14 1.2,0.32 1.79,0.52l0.48,-1.42zM40.85,7.88c-0.51,-0.42 -1.05,-0.82 -1.6,-1.19l-0.84,1.24c0.51,0.35 1.01,0.72 1.49,1.11zM37.55,5.65c-0.58,-0.32 -1.18,-0.62 -1.79,-0.89l-0.61,1.37c0.56,0.25 1.12,0.53 1.66,0.83l0.73,-1.31zM52.72,12.57h-7.71l0.09,-0.06c-0.23,-0.34 -0.48,-0.67 -0.73,-1l-1.18,0.92c0,0 0.07,0.09 0.1,0.14h-1.77c-1.14,0 -2.08,0.93 -2.08,2.08v6.49c0,1.14 0.93,2.08 2.08,2.08h0.97l-0.07,1.57c-0.01,0.32 0.17,0.61 0.47,0.73c0.09,0.04 0.19,0.06 0.28,0.06c0.21,0 0.41,-0.09 0.56,-0.25l1.88,-2.1h1.83c0.02,0.25 0.05,0.5 0.06,0.75l1.5,-0.08c-0.01,-0.22 -0.04,-0.44 -0.06,-0.66h3.78c1.14,0 2.08,-0.93 2.08,-2.08v-6.49c0,-1.14 -0.93,-2.08 -2.08,-2.08zM53.3,21.13c0,0.32 -0.26,0.58 -0.58,0.58h-7.45c-0.21,0 -0.42,0.09 -0.56,0.25l-0.71,0.79v-0.25c0.02,-0.2 -0.05,-0.4 -0.2,-0.55c-0.15,-0.15 -0.34,-0.23 -0.54,-0.23h-1.75c-0.32,0 -0.58,-0.26 -0.58,-0.58v-6.49c0,-0.32 0.26,-0.58 0.58,-0.58h11.2c0.32,0 0.58,0.26 0.58,0.58v6.49zM18.87,8.49c1.4,0 2.54,-1.14 2.54,-2.54c0,-1.4 -1.14,-2.54 -2.54,-2.54c-1.4,0 -2.54,1.14 -2.54,2.54c0,1.4 1.14,2.54 2.54,2.54zM18.87,4.42c0.85,0 1.54,0.69 1.54,1.54c0,0.85 -0.69,1.54 -1.54,1.54c-0.85,0 -1.54,-0.69 -1.54,-1.54c0,-0.85 0.69,-1.54 1.54,-1.54zM13.29,7.15l0.83,0.1l0.02,0.06c0.11,0.34 0.26,0.67 0.43,0.97l0.04,0.06l-0.54,0.7c-0.14,0.18 -0.13,0.43 0.04,0.59l1.06,1.06c0.09,0.08 0.2,0.13 0.32,0.13c0.1,0 0.2,-0.03 0.28,-0.09l0.75,-0.58l0.06,0.03c0.29,0.15 0.59,0.28 0.9,0.37l0.07,0.02l0.12,0.95c0.03,0.23 0.22,0.4 0.44,0.4h1.5c0.23,0 0.42,-0.17 0.44,-0.4l0.12,-0.95l0.07,-0.02c0.31,-0.09 0.61,-0.21 0.9,-0.37l0.06,-0.03l0.75,0.58c0.08,0.06 0.18,0.09 0.28,0.09c0.12,0 0.23,-0.05 0.32,-0.13l1.06,-1.06c0.16,-0.16 0.18,-0.41 0.04,-0.59l-0.54,-0.7l0.04,-0.06c0.18,-0.3 0.32,-0.63 0.43,-0.97l0.02,-0.06l0.83,-0.1c0.22,-0.03 0.4,-0.22 0.4,-0.44v-1.5c0,-0.23 -0.17,-0.42 -0.4,-0.44l-0.83,-0.1l-0.02,-0.06c-0.11,-0.34 -0.26,-0.67 -0.43,-0.97l-0.04,-0.06l0.54,-0.7c0.14,-0.18 0.13,-0.43 -0.04,-0.59l-1.06,-1.06c-0.09,-0.08 -0.2,-0.13 -0.32,-0.13c-0.1,0 -0.2,0.03 -0.28,0.09l-0.75,0.58l-0.06,-0.03c-0.29,-0.15 -0.59,-0.28 -0.9,-0.37l-0.07,-0.02l-0.12,-0.95c-0.03,-0.23 -0.22,-0.4 -0.44,-0.4h-1.5c-0.23,0 -0.42,0.17 -0.44,0.4l-0.12,0.95l-0.07,0.02c-0.31,0.09 -0.61,0.21 -0.9,0.37l-0.06,0.03l-0.75,-0.58c-0.08,-0.06 -0.18,-0.09 -0.28,-0.09c-0.12,0 -0.23,0.05 -0.32,0.13l-1.06,1.06c-0.16,0.16 -0.18,0.41 -0.04,0.59l0.54,0.7l-0.04,0.06c-0.18,0.3 -0.32,0.63 -0.43,0.97l-0.02,0.06l-0.83,0.1c-0.22,0.03 -0.4,0.22 -0.4,0.44v1.5c0,0.23 0.17,0.42 0.4,0.44zM14.24,5.96v-0.35l0.67,-0.09c0.17,-0.02 0.3,-0.14 0.35,-0.31c0.11,-0.46 0.3,-0.88 0.57,-1.25c0.1,-0.15 0.1,-0.34 0,-0.48l-0.45,-0.58l0.46,-0.46l0.62,0.48c0.07,0.06 0.16,0.09 0.25,0.09c0.08,0 0.15,-0.02 0.22,-0.06c0.38,-0.24 0.78,-0.4 1.2,-0.48c0.17,-0.03 0.3,-0.18 0.32,-0.35l0.1,-0.79h0.65l0.1,0.79c0.02,0.18 0.15,0.32 0.32,0.35c0.42,0.09 0.82,0.25 1.2,0.48c0.07,0.04 0.14,0.06 0.22,0.06c0.09,0 0.18,-0.03 0.25,-0.09l0.62,-0.48l0.46,0.46l-0.45,0.58c-0.11,0.14 -0.11,0.34 0,0.48c0.27,0.38 0.46,0.81 0.57,1.25c0.04,0.17 0.18,0.29 0.35,0.31l0.67,0.09v0.69l-0.67,0.09c-0.17,0.02 -0.3,0.14 -0.35,0.31c-0.11,0.46 -0.3,0.88 -0.57,1.25c-0.1,0.15 -0.1,0.34 0,0.48l0.45,0.58l-0.46,0.46l-0.62,-0.48c-0.07,-0.06 -0.16,-0.09 -0.25,-0.09c-0.08,0 -0.15,0.02 -0.22,0.06c-0.38,0.24 -0.78,0.4 -1.2,0.48c-0.17,0.03 -0.3,0.18 -0.32,0.35l-0.1,0.79h-0.65l-0.1,-0.79c-0.02,-0.18 -0.15,-0.32 -0.32,-0.35c-0.42,-0.09 -0.82,-0.25 -1.2,-0.48c-0.07,-0.04 -0.14,-0.06 -0.22,-0.06c-0.09,0 -0.18,0.03 -0.25,0.09l-0.62,0.48l-0.46,-0.46l0.45,-0.58c0.11,-0.14 0.11,-0.34 0,-0.48c-0.27,-0.38 -0.46,-0.81 -0.57,-1.25c-0.04,-0.17 -0.18,-0.29 -0.35,-0.31l-0.67,-0.09z" transform="translate(0, 0) rotate(0)" vector-effect="non-scaling-stroke"/></g></svg>