<svg version="1.2" xmlns="http://www.w3.org/2000/svg" xmlns:xlink="http://www.w3.org/1999/xlink" overflow="visible" preserveAspectRatio="none" viewBox="0 0 45.99999000000001 46.99995" width="45.99999000000001" height="46.99995"><g transform="translate(0, 0)"><g transform="translate(8.881784197001252e-16, -0.00006000000000172534) rotate(0)"><path style="stroke-width: 0; stroke-linecap: butt; stroke-linejoin: miter; fill: url(&quot;#gradient-17458335624507501&quot;);" d="M21.21781,47.00001c-1.73683,0 -3.14962,-1.42069 -3.14962,-3.16722v-2.97171c0,-0.57349 -0.31107,-1.02967 -0.84249,-1.23821c-0.28515,-0.1173 -0.5703,-0.23461 -0.84249,-0.35191c-0.18146,-0.0782 -0.36292,-0.1173 -0.55734,-0.1173c-0.337,0 -0.66103,0.14337 -0.9073,0.39102l-2.08679,2.09845c-0.59622,0.59956 -1.38687,0.9254 -2.22936,0.9254c-0.84249,0 -1.63314,-0.32585 -2.22936,-0.9254l-3.04593,-3.06295c-0.59622,-0.59956 -0.92026,-1.39462 -0.92026,-2.24182c0,-0.8472 0.32403,-1.64226 0.92026,-2.24182l2.08679,-2.09845c0.38884,-0.39102 0.49253,-0.95147 0.27219,-1.47282c-0.12961,-0.27371 -0.24627,-0.57349 -0.34996,-0.8472c-0.19442,-0.52135 -0.67399,-0.8472 -1.23133,-0.8472h-2.9552c-1.73683,0 -3.14962,-1.42069 -3.14962,-3.16722v-4.32723c0,-1.74653 1.41279,-3.16722 3.14962,-3.16722h2.9552c0.55734,0 1.02395,-0.32585 1.23133,-0.8472c0.11665,-0.28674 0.23331,-0.57349 0.34996,-0.8472c0.23331,-0.52135 0.12961,-1.06877 -0.27219,-1.47282l-2.08679,-2.09845c-0.59622,-0.59956 -0.92026,-1.39462 -0.92026,-2.24182c0,-0.8472 0.32403,-1.64226 0.92026,-2.24182l3.04593,-3.06295c0.59622,-0.59956 1.38687,-0.9254 2.22936,-0.9254c0.84249,0 1.63314,0.32585 2.22936,0.9254l2.08679,2.09845c0.24627,0.24764 0.5703,0.39102 0.9073,0.39102c0.18146,0 0.37588,-0.0391 0.54438,-0.1173c0.28515,-0.13034 0.5703,-0.24764 0.84249,-0.35191c0.51846,-0.19551 0.84249,-0.67776 0.84249,-1.23821v-2.97171c0,-1.74653 1.41279,-3.16722 3.14962,-3.16722h2.15159c0.50549,0 0.92026,0.41708 0.92026,0.9254v5.65668h8.17864l2.63116,-2.81531c-0.12961,-0.29978 -0.18146,-0.61259 -0.18146,-0.9254c0,-1.36855 1.10172,-2.47643 2.46267,-2.47643c1.36095,0 2.46267,1.10788 2.46267,2.47643c0,1.36855 -1.10172,2.47643 -2.46267,2.47643c-0.34996,0 -0.67399,-0.0782 -0.99803,-0.22158l-2.85151,3.03688c-0.1685,0.18247 -0.41476,0.28674 -0.66103,0.28674h-8.58045v5.25264h5.56044l4.16061,-4.18386c0.18146,-0.16944 0.41476,-0.27371 0.64807,-0.27371h5.65117c0.37588,-0.9254 1.27022,-1.55103 2.26824,-1.55103c1.36095,0 2.46267,1.10788 2.46267,2.47643c0,1.36855 -1.10172,2.47643 -2.46267,2.47643c-0.99803,0 -1.90533,-0.62562 -2.26824,-1.55103h-5.26233l-4.16061,4.18386c-0.18146,0.16944 -0.41476,0.27371 -0.64807,0.27371h-5.93632v1.87687h7.6213c0.37588,-0.9254 1.27022,-1.55103 2.26824,-1.55103c1.36095,0 2.46267,1.10788 2.46267,2.47643c0,1.36855 -1.10172,2.47643 -2.46267,2.47643c-0.99803,0 -1.89236,-0.62562 -2.26824,-1.55103h-7.6213v3.28453h16.97943c0.37588,-0.9254 1.27022,-1.55103 2.26824,-1.55103c1.36095,0 2.46267,1.10788 2.46267,2.47643c0,1.36855 -1.10172,2.47643 -2.46267,2.47643c-0.99803,0 -1.89236,-0.62562 -2.26824,-1.55103h-16.97943v3.27149h7.6213c0.37588,-0.9254 1.27022,-1.55103 2.26824,-1.55103c1.36095,0 2.46267,1.10788 2.46267,2.47643c0,1.36855 -1.10172,2.47643 -2.46267,2.47643c-0.99803,0 -1.89236,-0.62562 -2.26824,-1.55103h-7.6213v1.87687h5.93632c0.24627,0 0.47957,0.09124 0.64807,0.27371l4.16061,4.18386h5.26233c0.37588,-0.9254 1.27022,-1.55103 2.26824,-1.55103c1.36095,0 2.46267,1.10788 2.46267,2.47643c0,1.36855 -1.10172,2.47643 -2.46267,2.47643c-0.99803,0 -1.90533,-0.62562 -2.26824,-1.55103h-5.65117c-0.24627,0 -0.47957,-0.09124 -0.64807,-0.27371l-4.16061,-4.18386h-5.56044v5.29174h8.58045c0.24627,0 0.49253,0.10427 0.66103,0.28674l2.85151,3.04992c0.31107,-0.14337 0.64807,-0.22158 0.99803,-0.22158c1.36095,0 2.46267,1.10788 2.46267,2.47643c0,1.36855 -1.10172,2.47643 -2.46267,2.47643c-1.36095,0 -2.46267,-1.10788 -2.46267,-2.47643c0,-0.31281 0.06481,-0.62562 0.18146,-0.9254l-2.63116,-2.81531h-8.17864v5.65668c0,0.50832 -0.41476,0.9254 -0.92026,0.9254h-2.15159zM15.83883,37.2898c0.44069,0 0.88138,0.09124 1.28318,0.27371c0.24627,0.1173 0.50549,0.22158 0.75176,0.31281c1.23133,0.48225 2.02198,1.64226 2.02198,2.95868v2.97171c0,0.72989 0.58326,1.31642 1.3091,1.31642h1.24429v-11.39157c-5.26233,-0.46922 -9.33221,-4.90072 -9.33221,-10.24459c0,-5.34387 4.06988,-9.78841 9.33221,-10.24459v-11.39157h-1.24429c-0.72584,0 -1.3091,0.58652 -1.3091,1.31642v2.97171c0,1.32945 -0.79065,2.48946 -2.02198,2.95868c-0.25923,0.10427 -0.50549,0.19551 -0.75176,0.31281c-0.41476,0.18247 -0.85545,0.27371 -1.29614,0.27371c-0.82953,0 -1.62017,-0.32585 -2.2164,-0.93844l-2.08679,-2.09845c-0.24627,-0.24764 -0.58326,-0.37798 -0.92026,-0.37798c-0.337,0 -0.68695,0.13034 -0.93322,0.37798l-3.04593,3.06295c-0.24627,0.24764 -0.37588,0.57349 -0.37588,0.9254c0,0.35191 0.14258,0.67776 0.37588,0.9254l2.08679,2.09845c0.93322,0.93844 1.19245,2.32002 0.64807,3.53217c-0.11665,0.24764 -0.22034,0.50832 -0.31107,0.75596c-0.47957,1.23821 -1.63314,2.03328 -2.94224,2.03328h-2.9552c-0.72584,0 -1.3091,0.58652 -1.3091,1.31642v4.32723c0,0.72989 0.58326,1.31642 1.3091,1.31642h2.9552c1.32206,0 2.47563,0.79506 2.94224,2.03328c0.10369,0.24764 0.19442,0.50832 0.31107,0.75596c0.54438,1.21215 0.28515,2.59373 -0.64807,3.53217l-2.08679,2.09845c-0.50549,0.50832 -0.50549,1.35552 0,1.86384l3.04593,3.06295c0.24627,0.24764 0.58326,0.37798 0.93322,0.37798c0.34996,0 0.67399,-0.13034 0.92026,-0.37798l2.08679,-2.09845c0.59622,-0.59956 1.37391,-0.9254 2.2164,-0.9254zM37.38067,43.50694c-0.337,0 -0.62215,0.28674 -0.62215,0.62562c0,0.33888 0.28515,0.62562 0.62215,0.62562c0.337,0 0.62215,-0.27371 0.62215,-0.62562c0,-0.35191 -0.28515,-0.62562 -0.62215,-0.62562zM42.57819,36.18193c-0.337,0 -0.62215,0.28674 -0.62215,0.62562c0,0.33888 0.28515,0.62562 0.62215,0.62562c0.337,0 0.62215,-0.27371 0.62215,-0.62562c0,-0.35191 -0.28515,-0.62562 -0.62215,-0.62562zM22.44914,15.09318c-4.23838,0.46922 -7.49169,4.07959 -7.49169,8.39379c0,4.3142 3.26627,7.93761 7.49169,8.39379v-16.80061zM34.17921,27.99668c-0.337,0 -0.62215,0.27371 -0.62215,0.62562c0,0.35191 0.28515,0.62562 0.62215,0.62562c0.337,0 0.62215,-0.28674 0.62215,-0.62562c0,-0.33888 -0.28515,-0.62562 -0.62215,-0.62562zM42.97999,23.77372c0.10369,0.20854 0.32403,0.33888 0.55734,0.33888c0.337,0 0.62215,-0.28674 0.62215,-0.62562c0,-0.33888 -0.28515,-0.62562 -0.62215,-0.62562c-0.23331,0 -0.44069,0.13034 -0.55734,0.33888zM34.17921,17.73905c-0.337,0 -0.62215,0.27371 -0.62215,0.62562c0,0.35191 0.28515,0.62562 0.62215,0.62562c0.337,0 0.62215,-0.28674 0.62215,-0.62562c0,-0.33888 -0.28515,-0.62562 -0.62215,-0.62562zM42.57819,9.5538c-0.337,0 -0.62215,0.28674 -0.62215,0.62562c0,0.33888 0.28515,0.62562 0.62215,0.62562c0.337,0 0.62215,-0.28674 0.62215,-0.62562c0,-0.33888 -0.28515,-0.62562 -0.62215,-0.62562zM37.38067,2.21575c-0.337,0 -0.62215,0.28674 -0.62215,0.62562c0,0.33888 0.28515,0.62562 0.62215,0.62562c0.337,0 0.62215,-0.28674 0.62215,-0.62562c0,-0.33888 -0.28515,-0.62562 -0.62215,-0.62562z" vector-effect="non-scaling-stroke"/></g><defs><path id="path-17458335605254410" d="M21.21781,47.00001c-1.73683,0 -3.14962,-1.42069 -3.14962,-3.16722v-2.97171c0,-0.57349 -0.31107,-1.02967 -0.84249,-1.23821c-0.28515,-0.1173 -0.5703,-0.23461 -0.84249,-0.35191c-0.18146,-0.0782 -0.36292,-0.1173 -0.55734,-0.1173c-0.337,0 -0.66103,0.14337 -0.9073,0.39102l-2.08679,2.09845c-0.59622,0.59956 -1.38687,0.9254 -2.22936,0.9254c-0.84249,0 -1.63314,-0.32585 -2.22936,-0.9254l-3.04593,-3.06295c-0.59622,-0.59956 -0.92026,-1.39462 -0.92026,-2.24182c0,-0.8472 0.32403,-1.64226 0.92026,-2.24182l2.08679,-2.09845c0.38884,-0.39102 0.49253,-0.95147 0.27219,-1.47282c-0.12961,-0.27371 -0.24627,-0.57349 -0.34996,-0.8472c-0.19442,-0.52135 -0.67399,-0.8472 -1.23133,-0.8472h-2.9552c-1.73683,0 -3.14962,-1.42069 -3.14962,-3.16722v-4.32723c0,-1.74653 1.41279,-3.16722 3.14962,-3.16722h2.9552c0.55734,0 1.02395,-0.32585 1.23133,-0.8472c0.11665,-0.28674 0.23331,-0.57349 0.34996,-0.8472c0.23331,-0.52135 0.12961,-1.06877 -0.27219,-1.47282l-2.08679,-2.09845c-0.59622,-0.59956 -0.92026,-1.39462 -0.92026,-2.24182c0,-0.8472 0.32403,-1.64226 0.92026,-2.24182l3.04593,-3.06295c0.59622,-0.59956 1.38687,-0.9254 2.22936,-0.9254c0.84249,0 1.63314,0.32585 2.22936,0.9254l2.08679,2.09845c0.24627,0.24764 0.5703,0.39102 0.9073,0.39102c0.18146,0 0.37588,-0.0391 0.54438,-0.1173c0.28515,-0.13034 0.5703,-0.24764 0.84249,-0.35191c0.51846,-0.19551 0.84249,-0.67776 0.84249,-1.23821v-2.97171c0,-1.74653 1.41279,-3.16722 3.14962,-3.16722h2.15159c0.50549,0 0.92026,0.41708 0.92026,0.9254v5.65668h8.17864l2.63116,-2.81531c-0.12961,-0.29978 -0.18146,-0.61259 -0.18146,-0.9254c0,-1.36855 1.10172,-2.47643 2.46267,-2.47643c1.36095,0 2.46267,1.10788 2.46267,2.47643c0,1.36855 -1.10172,2.47643 -2.46267,2.47643c-0.34996,0 -0.67399,-0.0782 -0.99803,-0.22158l-2.85151,3.03688c-0.1685,0.18247 -0.41476,0.28674 -0.66103,0.28674h-8.58045v5.25264h5.56044l4.16061,-4.18386c0.18146,-0.16944 0.41476,-0.27371 0.64807,-0.27371h5.65117c0.37588,-0.9254 1.27022,-1.55103 2.26824,-1.55103c1.36095,0 2.46267,1.10788 2.46267,2.47643c0,1.36855 -1.10172,2.47643 -2.46267,2.47643c-0.99803,0 -1.90533,-0.62562 -2.26824,-1.55103h-5.26233l-4.16061,4.18386c-0.18146,0.16944 -0.41476,0.27371 -0.64807,0.27371h-5.93632v1.87687h7.6213c0.37588,-0.9254 1.27022,-1.55103 2.26824,-1.55103c1.36095,0 2.46267,1.10788 2.46267,2.47643c0,1.36855 -1.10172,2.47643 -2.46267,2.47643c-0.99803,0 -1.89236,-0.62562 -2.26824,-1.55103h-7.6213v3.28453h16.97943c0.37588,-0.9254 1.27022,-1.55103 2.26824,-1.55103c1.36095,0 2.46267,1.10788 2.46267,2.47643c0,1.36855 -1.10172,2.47643 -2.46267,2.47643c-0.99803,0 -1.89236,-0.62562 -2.26824,-1.55103h-16.97943v3.27149h7.6213c0.37588,-0.9254 1.27022,-1.55103 2.26824,-1.55103c1.36095,0 2.46267,1.10788 2.46267,2.47643c0,1.36855 -1.10172,2.47643 -2.46267,2.47643c-0.99803,0 -1.89236,-0.62562 -2.26824,-1.55103h-7.6213v1.87687h5.93632c0.24627,0 0.47957,0.09124 0.64807,0.27371l4.16061,4.18386h5.26233c0.37588,-0.9254 1.27022,-1.55103 2.26824,-1.55103c1.36095,0 2.46267,1.10788 2.46267,2.47643c0,1.36855 -1.10172,2.47643 -2.46267,2.47643c-0.99803,0 -1.90533,-0.62562 -2.26824,-1.55103h-5.65117c-0.24627,0 -0.47957,-0.09124 -0.64807,-0.27371l-4.16061,-4.18386h-5.56044v5.29174h8.58045c0.24627,0 0.49253,0.10427 0.66103,0.28674l2.85151,3.04992c0.31107,-0.14337 0.64807,-0.22158 0.99803,-0.22158c1.36095,0 2.46267,1.10788 2.46267,2.47643c0,1.36855 -1.10172,2.47643 -2.46267,2.47643c-1.36095,0 -2.46267,-1.10788 -2.46267,-2.47643c0,-0.31281 0.06481,-0.62562 0.18146,-0.9254l-2.63116,-2.81531h-8.17864v5.65668c0,0.50832 -0.41476,0.9254 -0.92026,0.9254h-2.15159zM15.83883,37.2898c0.44069,0 0.88138,0.09124 1.28318,0.27371c0.24627,0.1173 0.50549,0.22158 0.75176,0.31281c1.23133,0.48225 2.02198,1.64226 2.02198,2.95868v2.97171c0,0.72989 0.58326,1.31642 1.3091,1.31642h1.24429v-11.39157c-5.26233,-0.46922 -9.33221,-4.90072 -9.33221,-10.24459c0,-5.34387 4.06988,-9.78841 9.33221,-10.24459v-11.39157h-1.24429c-0.72584,0 -1.3091,0.58652 -1.3091,1.31642v2.97171c0,1.32945 -0.79065,2.48946 -2.02198,2.95868c-0.25923,0.10427 -0.50549,0.19551 -0.75176,0.31281c-0.41476,0.18247 -0.85545,0.27371 -1.29614,0.27371c-0.82953,0 -1.62017,-0.32585 -2.2164,-0.93844l-2.08679,-2.09845c-0.24627,-0.24764 -0.58326,-0.37798 -0.92026,-0.37798c-0.337,0 -0.68695,0.13034 -0.93322,0.37798l-3.04593,3.06295c-0.24627,0.24764 -0.37588,0.57349 -0.37588,0.9254c0,0.35191 0.14258,0.67776 0.37588,0.9254l2.08679,2.09845c0.93322,0.93844 1.19245,2.32002 0.64807,3.53217c-0.11665,0.24764 -0.22034,0.50832 -0.31107,0.75596c-0.47957,1.23821 -1.63314,2.03328 -2.94224,2.03328h-2.9552c-0.72584,0 -1.3091,0.58652 -1.3091,1.31642v4.32723c0,0.72989 0.58326,1.31642 1.3091,1.31642h2.9552c1.32206,0 2.47563,0.79506 2.94224,2.03328c0.10369,0.24764 0.19442,0.50832 0.31107,0.75596c0.54438,1.21215 0.28515,2.59373 -0.64807,3.53217l-2.08679,2.09845c-0.50549,0.50832 -0.50549,1.35552 0,1.86384l3.04593,3.06295c0.24627,0.24764 0.58326,0.37798 0.93322,0.37798c0.34996,0 0.67399,-0.13034 0.92026,-0.37798l2.08679,-2.09845c0.59622,-0.59956 1.37391,-0.9254 2.2164,-0.9254zM37.38067,43.50694c-0.337,0 -0.62215,0.28674 -0.62215,0.62562c0,0.33888 0.28515,0.62562 0.62215,0.62562c0.337,0 0.62215,-0.27371 0.62215,-0.62562c0,-0.35191 -0.28515,-0.62562 -0.62215,-0.62562zM42.57819,36.18193c-0.337,0 -0.62215,0.28674 -0.62215,0.62562c0,0.33888 0.28515,0.62562 0.62215,0.62562c0.337,0 0.62215,-0.27371 0.62215,-0.62562c0,-0.35191 -0.28515,-0.62562 -0.62215,-0.62562zM22.44914,15.09318c-4.23838,0.46922 -7.49169,4.07959 -7.49169,8.39379c0,4.3142 3.26627,7.93761 7.49169,8.39379v-16.80061zM34.17921,27.99668c-0.337,0 -0.62215,0.27371 -0.62215,0.62562c0,0.35191 0.28515,0.62562 0.62215,0.62562c0.337,0 0.62215,-0.28674 0.62215,-0.62562c0,-0.33888 -0.28515,-0.62562 -0.62215,-0.62562zM42.97999,23.77372c0.10369,0.20854 0.32403,0.33888 0.55734,0.33888c0.337,0 0.62215,-0.28674 0.62215,-0.62562c0,-0.33888 -0.28515,-0.62562 -0.62215,-0.62562c-0.23331,0 -0.44069,0.13034 -0.55734,0.33888zM34.17921,17.73905c-0.337,0 -0.62215,0.27371 -0.62215,0.62562c0,0.35191 0.28515,0.62562 0.62215,0.62562c0.337,0 0.62215,-0.28674 0.62215,-0.62562c0,-0.33888 -0.28515,-0.62562 -0.62215,-0.62562zM42.57819,9.5538c-0.337,0 -0.62215,0.28674 -0.62215,0.62562c0,0.33888 0.28515,0.62562 0.62215,0.62562c0.337,0 0.62215,-0.28674 0.62215,-0.62562c0,-0.33888 -0.28515,-0.62562 -0.62215,-0.62562zM37.38067,2.21575c-0.337,0 -0.62215,0.28674 -0.62215,0.62562c0,0.33888 0.28515,0.62562 0.62215,0.62562c0.337,0 0.62215,-0.28674 0.62215,-0.62562c0,-0.33888 -0.28515,-0.62562 -0.62215,-0.62562z" vector-effect="non-scaling-stroke"/><linearGradient id="gradient-17458335624507501" x1="84%" y1="87%" x2="16%" y2="13%" vector-effect="non-scaling-stroke"><stop offset="0%" stop-color="rgb(181,245,140)" stop-opacity="1" vector-effect="non-scaling-stroke"/><stop offset="100%" stop-color="rgb(0,89,178)" stop-opacity="1" vector-effect="non-scaling-stroke"/></linearGradient></defs></g></svg>