<svg height="36" overflow="visible" viewBox="0 0 71.99999999999977 36" width="71.99999999999977" xmlns="http://www.w3.org/2000/svg"><g><defs><path id="path-17453992527461349" d="M1.0036,0.5418c0,0.2582 -0.19987,0.45714 -0.45928,0.45714c-0.25941,0 -0.45928,-0.19894 -0.45928,-0.45714c0,-0.2582 0.19987,-0.45714 0.45928,-0.45714c0.25941,0 0.45928,0.19471 0.45928,0.45714zM1.09291,0.5418c0,-0.30899 -0.23814,-0.5418 -0.54433,-0.5418c-0.30618,0 -0.54858,0.2328 -0.54858,0.5418c0,0.30899 0.23389,0.5418 0.54858,0.5418c0.31469,0 0.54433,-0.2328 0.54433,-0.5418zM0.79523,0.41481c0,-0.12275 -0.0893,-0.17778 -0.19562,-0.17778h-0.25941v0.59259h0.10206v-0.22857h0.11482l0.11482,0.22857h0.11907l-0.11907,-0.24127c0.07655,-0.0254 0.12332,-0.08042 0.12332,-0.17354zM0.69317,0.41481c0,0.05926 -0.04253,0.08466 -0.09781,0.08466h-0.15734v-0.16931h0.15734c0.05528,0 0.09781,0.02963 0.09781,0.08466z" vector-effect="non-scaling-stroke"/></defs><path style="stroke-width: 0; stroke-linecap: butt; stroke-linejoin: miter; fill: rgb(242, 242, 243);" d="M1.0036,0.5418c0,0.2582 -0.19987,0.45714 -0.45928,0.45714c-0.25941,0 -0.45928,-0.19894 -0.45928,-0.45714c0,-0.2582 0.19987,-0.45714 0.45928,-0.45714c0.25941,0 0.45928,0.19471 0.45928,0.45714zM1.09291,0.5418c0,-0.30899 -0.23814,-0.5418 -0.54433,-0.5418c-0.30618,0 -0.54858,0.2328 -0.54858,0.5418c0,0.30899 0.23389,0.5418 0.54858,0.5418c0.31469,0 0.54433,-0.2328 0.54433,-0.5418zM0.79523,0.41481c0,-0.12275 -0.0893,-0.17778 -0.19562,-0.17778h-0.25941v0.59259h0.10206v-0.22857h0.11482l0.11482,0.22857h0.11907l-0.11907,-0.24127c0.07655,-0.0254 0.12332,-0.08042 0.12332,-0.17354zM0.69317,0.41481c0,0.05926 -0.04253,0.08466 -0.09781,0.08466h-0.15734v-0.16931h0.15734c0.05528,0 0.09781,0.02963 0.09781,0.08466z" transform="translate(68.33004547870678, 9.798941798941087) rotate(0)" vector-effect="non-scaling-stroke"/></g><g><defs><path id="path-17453992527451347" d="M156.545035733251 73.09629629630774 C156.545035733251 73.09629629630774 151.94802433404303 73.09629629630774 151.94802433404303 73.09629629630774 C151.94802433404303 73.09629629630774 151.94802433404303 77.67195767196984 151.94802433404303 77.67195767196984 C151.94802433404303 77.67195767196984 156.545035733251 77.67195767196984 156.545035733251 77.67195767196984 C156.545035733251 77.67195767196984 156.545035733251 73.09629629630774 156.545035733251 73.09629629630774 Z" vector-effect="non-scaling-stroke"/></defs> <path style="stroke-width: 0; stroke-linecap: butt; stroke-linejoin: miter; fill: rgb(242, 242, 243);" d="M72 31.098412698412176 C72 31.098412698412176 67.40298860079201 31.098412698412176 67.40298860079201 31.098412698412176 C67.40298860079201 31.098412698412176 67.40298860079201 35.67407407407427 67.40298860079201 35.67407407407427 C67.40298860079201 35.67407407407427 72 35.67407407407427 72 35.67407407407427 C72 35.67407407407427 72 31.098412698412176 72 31.098412698412176 Z" vector-effect="non-scaling-stroke"/></g><g><defs><path id="path-17453992527451345" d="M142.626424901071 52.723809523808114 C142.626424901071 52.723809523808114 145.3650699899612 73.17671957671762 145.3650699899612 73.17671957671762 C145.3650699899612 73.17671957671762 148.09946252436563 52.723809523808114 148.09946252436563 52.723809523808114 C148.09946252436563 52.723809523808114 152.36477467367754 52.723809523808114 152.36477467367754 52.723809523808114 C152.36477467367754 52.723809523808114 148.37587856594612 77.67619047618838 148.37587856594612 77.67619047618838 C148.37587856594612 77.67619047618838 142.31173586911777 77.67619047618838 142.31173586911777 77.67619047618838 C142.31173586911777 77.67619047618838 138.36536530624485 52.7238095238081 138.36536530624485 52.7238095238081 C138.36536530624485 52.7238095238081 142.63067745555682 52.7238095238081 142.63067745555682 52.7238095238081 C142.63067745555682 52.7238095238081 142.626424901071 52.723809523808114 142.626424901071 52.723809523808114 Z" vector-effect="non-scaling-stroke"/></defs> <path style="stroke-width: 0; stroke-linecap: butt; stroke-linejoin: miter; fill: rgb(242, 242, 243);" d="M58.081389167798875 10.725925925926276 C58.081389167798875 10.725925925926276 60.82003425668904 31.178835978836105 60.82003425668904 31.178835978836105 C60.82003425668904 31.178835978836105 63.55442679109353 10.725925925926276 63.55442679109353 10.725925925926276 C63.55442679109353 10.725925925926276 67.81973894040539 10.725925925926276 67.81973894040539 10.725925925926276 C67.81973894040539 10.725925925926276 63.830842832673966 35.67830687830701 63.830842832673966 35.67830687830701 C63.830842832673966 35.67830687830701 57.76670013584567 35.67830687830701 57.76670013584567 35.67830687830701 C57.76670013584567 35.67830687830701 53.820329572972696 10.725925925926276 53.820329572972696 10.725925925926276 C53.820329572972696 10.725925925926276 58.08564172228466 10.725925925926276 58.08564172228466 10.725925925926276 C58.08564172228466 10.725925925926276 58.081389167798875 10.725925925926276 58.081389167798875 10.725925925926276 Z" vector-effect="non-scaling-stroke"/></g><g><defs><path id="path-17453992527451343" d="M86.90945602740811 52.723809523809805 C86.90945602740811 52.723809523809805 84.545035733273 52.723809523809805 84.545035733273 52.723809523809805 C84.545035733273 52.723809523809805 84.545035733273 56.03809523809554 84.545035733273 56.03809523809554 C84.545035733273 56.03809523809554 86.90945602740811 56.03809523809554 86.90945602740811 56.03809523809554 C86.90945602740811 56.03809523809554 86.90945602740811 77.67195767195808 86.90945602740811 77.67195767195808 C86.90945602740811 77.67195767195808 91.06845431457378 77.67195767195808 91.06845431457378 77.67195767195808 C91.06845431457378 77.67195767195808 91.06845431457378 56.03809523809552 91.06845431457378 56.03809523809552 C91.06845431457378 56.03809523809552 93.98995924635581 56.03809523809552 93.98995924635581 56.03809523809552 C93.98995924635581 56.03809523809552 93.98995924635581 52.7238095238098 93.98995924635581 52.7238095238098 C93.98995924635581 52.7238095238098 91.06845431457378 52.7238095238098 91.06845431457378 52.7238095238098 C91.06845431457378 52.7238095238098 91.06845431457378 47.6529100529103 91.06845431457378 47.6529100529103 C91.06845431457378 46.91216931216956 91.22154627606456 46.34497354497378 91.58301340736219 45.9597883597886 C91.94448053865982 45.5746031746034 92.49306006733504 45.39259259259283 93.24150965684544 45.39259259259283 C93.24150965684544 45.39259259259283 93.98995924635581 45.39259259259283 93.98995924635581 45.39259259259283 C93.98995924635581 45.39259259259283 93.98995924635581 41.99788359788382 93.98995924635581 41.99788359788382 C93.98995924635581 41.99788359788382 92.48455495836333 41.99788359788382 92.48455495836333 41.99788359788382 C90.63894631150248 41.99788359788382 88.85712598192946 42.387301587301806 88.01086763924442 43.18730158730181 C87.16460929655938 43.987301587301815 86.91370858189396 45.23174603174626 86.91370858189396 47.00105820105845 C86.91370858189396 47.00105820105845 86.91370858189396 52.7238095238098 86.91370858189396 52.7238095238098 C86.91370858189396 52.7238095238098 86.90945602740811 52.723809523809805 86.90945602740811 52.723809523809805 Z" vector-effect="non-scaling-stroke"/></defs> <path style="stroke-width: 0; stroke-linecap: butt; stroke-linejoin: miter; fill: rgb(242, 242, 243);" d="M2.364420294135016 10.725925925926276 C2.364420294135016 10.725925925926276 0 10.725925925926276 0 10.725925925926276 C0 10.725925925926276 0 14.040211640211965 0 14.040211640211965 C0 14.040211640211965 2.364420294135016 14.040211640211965 2.364420294135016 14.040211640211965 C2.364420294135016 14.040211640211965 2.364420294135016 35.67407407407427 2.364420294135016 35.67407407407427 C2.364420294135016 35.67407407407427 6.5234185813008025 35.67407407407427 6.5234185813008025 35.67407407407427 C6.5234185813008025 35.67407407407427 6.5234185813008025 14.040211640211965 6.5234185813008025 14.040211640211965 C6.5234185813008025 14.040211640211965 9.444923513082813 14.040211640211965 9.444923513082813 14.040211640211965 C9.444923513082813 14.040211640211965 9.444923513082813 10.725925925926276 9.444923513082813 10.725925925926276 C9.444923513082813 10.725925925926276 6.5234185813008025 10.725925925926276 6.5234185813008025 10.725925925926276 C6.5234185813008025 10.725925925926276 6.5234185813008025 5.655026455026928 6.5234185813008025 5.655026455026928 C6.5234185813008025 4.914285714286052 6.676510542791561 4.347089947090353 7.03797767408912 3.9619047619053163 C7.399444805386793 3.57671957671937 7.948024334061984 3.3947089947096174 8.696473923572398 3.3947089947096174 C8.696473923572398 3.3947089947096174 9.444923513082813 3.3947089947096174 9.444923513082813 3.3947089947096174 C9.444923513082813 3.3947089947096174 9.444923513082813 0 9.444923513082813 0 C9.444923513082813 0 7.939519225090294 0 7.939519225090294 0 C6.093910578229497 0 4.312090248656432 0.3894179894177796 3.465831905971413 1.1894179894179615 C2.6195735632863943 1.9894179894181434 2.3686728486209176 3.2338624338626687 2.3686728486209176 5.003174603174557 C2.3686728486209176 5.003174603174557 2.3686728486209176 10.725925925926276 2.3686728486209176 10.725925925926276 C2.3686728486209176 10.725925925926276 2.364420294135016 10.725925925926276 2.364420294135016 10.725925925926276 Z" vector-effect="non-scaling-stroke"/></g><g><defs><path id="path-17453992527441341" d="M95.28698836454059 77.67195767195983 C95.28698836454059 77.67195767195983 99.45449176067795 77.67195767195983 99.45449176067795 77.67195767195983 C99.45449176067795 77.67195767195983 99.45449176067795 52.71957671957818 99.45449176067795 52.71957671957818 C99.45449176067795 52.71957671957818 95.28698836454059 52.71957671957818 95.28698836454059 52.71957671957818 C95.28698836454059 52.71957671957818 95.28698836454059 77.67195767195983 95.28698836454059 77.67195767195983 Z" vector-effect="non-scaling-stroke"/></defs> <path style="stroke-width: 0; stroke-linecap: butt; stroke-linejoin: miter; fill: rgb(242, 242, 243);" d="M10.741952631267623 35.67407407407427 C10.741952631267623 35.67407407407427 14.909456027404985 35.67407407407427 14.909456027404985 35.67407407407427 C14.909456027404985 35.67407407407427 14.909456027404985 10.721693121692624 14.909456027404985 10.721693121692624 C14.909456027404985 10.721693121692624 10.741952631267623 10.721693121692624 10.741952631267623 10.721693121692624 C10.741952631267623 10.721693121692624 10.741952631267623 35.67407407407427 10.741952631267623 35.67407407407427 Z" vector-effect="non-scaling-stroke"/></g><g><defs><path id="path-1745399252586443" d="M4.15823,13.86175h8.63341v-7.5207c-0.00845,-4.49917 -2.21857,-6.34106 -6.40216,-6.34106c-4.18359,0 -6.38948,1.83775 -6.38948,6.37417v12.35513c0.01268,4.12252 2.56086,6.25414 6.38948,6.25414c3.82862,0 6.39371,-1.75497 6.40216,-6.25414v-1.95364h-4.00188v2.31374c0.00423,1.65149 -0.62543,2.79387 -2.31999,2.79387c-1.69457,0 -2.31576,-1.15066 -2.31576,-2.79387v-5.22765zM4.15823,5.53394c0,-1.37831 0.36342,-2.80215 2.30309,-2.80215c1.93966,0 2.32844,1.40315 2.32844,2.80215v5.04139h-4.6273v-5.04139z" vector-effect="non-scaling-stroke"/></defs><path style="stroke-width: 0; stroke-linecap: butt; stroke-linejoin: miter; fill: rgb(242, 242, 243);" d="M4.15823,13.86175h8.63341v-7.5207c-0.00845,-4.49917 -2.21857,-6.34106 -6.40216,-6.34106c-4.18359,0 -6.38948,1.83775 -6.38948,6.37417v12.35513c0.01268,4.12252 2.56086,6.25414 6.38948,6.25414c3.82862,0 6.39371,-1.75497 6.40216,-6.25414v-1.95364h-4.00188v2.31374c0.00423,1.65149 -0.62543,2.79387 -2.31999,2.79387c-1.69457,0 -2.31576,-1.15066 -2.31576,-2.79387v-5.22765zM4.15823,5.53394c0,-1.37831 0.36342,-2.80215 2.30309,-2.80215c1.93966,0 2.32844,1.40315 2.32844,2.80215v5.04139h-4.6273v-5.04139z" transform="translate(30.429757275267548, 11) rotate(0)" vector-effect="non-scaling-stroke"/></g><g><defs><path id="path-1745399252585441" d="M108.13945298744054 62.081953642385784 C104.99964784599199 59.40811258278306 104.75454865594622 59.02317880794862 104.75454865594622 57.03228476821347 C104.75454865594622 55.33526490066375 104.90245333959452 54.30463576159088 106.4617912900582 54.30463576159088 C108.02112924052189 54.30463576159088 108.21974410142106 55.32284768212071 108.21974410142106 57.05298013245187 C108.21974410142106 57.05298013245187 108.21974410142106 59.30463576159101 108.21974410142106 59.30463576159101 C108.21974410142106 59.30463576159101 112.21317055992562 59.30463576159101 112.21317055992562 59.30463576159101 C112.21317055992562 59.30463576159101 112.21317055992562 55.629139072849185 112.21317055992562 55.629139072849185 C112.20049301561292 52.74420529801467 109.9312125836373 51.27483443708748 106.37304847986923 51.27483443708748 C102.81488437610115 51.27483443708748 100.58786242516793 52.417218543047774 100.56673318464674 57.03228476821347 C100.56673318464674 57.818708609273095 100.56673318464674 57.818708609273095 100.56673318464674 57.512417218544606 C100.5751848808552 58.96109271523338 100.57941072895945 61.262417218544705 104.23899518722924 64.33774834437261 C104.23899518722924 64.33774834437261 105.28700551708016 65.21937086092892 105.28700551708016 65.21937086092892 C107.98309660758373 67.44619205298196 108.27890597488039 67.71523178808131 108.26622843056766 70.36837748344563 C108.26622843056766 72.00331125828009 108.16058222796173 73.24089403973709 106.41108111280735 73.24089403973709 C104.66157999765298 73.24089403973709 104.5517079469428 71.99503311258475 104.5517079469428 71.22516556291583 C104.5517079469428 71.22516556291583 104.5517079469428 68.10430463576344 104.5517079469428 68.10430463576344 C104.5517079469428 68.10430463576344 100.35966662753908 68.10430463576344 100.35966662753908 68.10430463576344 C100.35966662753908 68.10430463576344 100.35966662753908 71.32450331126022 100.35966662753908 71.32450331126022 C100.35966662753908 75.2897350993398 102.99236999647911 76.27069536424047 106.4026294165989 76.27069536424047 C109.81288883671864 76.27069536424047 112.45404390186717 75.28145695364442 112.45404390186717 70.1821192052999 C112.45404390186717 70.1821192052999 112.45404390186717 69.75993377483631 112.45404390186717 69.75993377483631 C112.44559220565868 66.19619205298191 111.78635990139762 65.24006622516733 108.1352271393363 62.09437086092883" vector-effect="non-scaling-stroke"/></defs> <path style="stroke-width: 0; stroke-linecap: butt; stroke-linejoin: miter; fill: rgb(242, 242, 243);" d="M24.77978635990121 21.811258278145942 C21.63998121845259 19.137417218543305 21.39488202840687 18.752483443708115 21.39488202840687 16.76158940397363 C21.39488202840687 15.064569536423733 21.542786712055204 14.033940397351216 23.102124662518804 14.033940397351216 C24.66146261298252 14.033940397351216 24.860077473881688 15.052152317880427 24.860077473881688 16.782284768211866 C24.860077473881688 16.782284768211866 24.860077473881688 19.033940397351216 24.860077473881688 19.033940397351216 C24.860077473881688 19.033940397351216 28.853503932386275 19.033940397351216 28.853503932386275 19.033940397351216 C28.853503932386275 19.033940397351216 28.853503932386275 15.35844370860923 28.853503932386275 15.35844370860923 C28.840826388073538 12.473509933774949 26.571545956097907 11.004139072847465 23.01338185232987 11.004139072847465 C19.455217748561836 11.004139072847465 17.228195797628587 12.14652317880791 17.207066557107396 16.76158940397363 C17.207066557107396 17.548013245032962 17.207066557107396 17.548013245032962 17.207066557107396 17.24172185430416 C17.21551825331585 18.690397350993408 17.219744101420133 20.99172185430507 20.87932855968984 24.067052980132758 C20.87932855968984 24.067052980132758 21.927338889540806 24.948675496689248 21.927338889540806 24.948675496689248 C24.62342998004442 27.175496688741987 24.91923934734109 27.444536423840873 24.906561803028353 30.097682119205274 C24.906561803028353 31.732615894040464 24.8009156004224 32.97019867549716 23.05141448526797 32.97019867549716 C21.301913370113652 32.97019867549716 21.192041319403415 31.724337748344624 21.192041319403415 30.954470198676063 C21.192041319403415 30.954470198676063 21.192041319403415 27.833609271523528 21.192041319403415 27.833609271523528 C21.192041319403415 27.833609271523528 16.999999999999773 27.833609271523528 16.999999999999773 27.833609271523528 C16.999999999999773 27.833609271523528 16.999999999999773 31.053807947019777 16.999999999999773 31.053807947019777 C16.999999999999773 35.019039735099796 19.6327033689397 36 23.042962789059516 36 C26.45322220917933 36 29.094377274327826 35.010761589403955 29.094377274327826 29.91142384106024 C29.094377274327826 29.91142384106024 29.094377274327826 29.489238410596045 29.094377274327826 29.489238410596045 C29.085925578119372 25.925496688741987 28.42669327385829 24.969370860927484 24.775560511796925 21.823675496688338" vector-effect="non-scaling-stroke"/></g><g><defs><path id="path-1745399252585439" d="M132.12536682708912 54.06456953642403 C132.12536682708912 54.06456953642403 132.12536682708912 51.552152317880974 132.12536682708912 51.552152317880974 C132.12536682708912 51.552152317880974 128.35168447000504 51.552152317880974 128.35168447000504 51.552152317880974 C128.35168447000504 51.552152317880974 128.35168447000504 75.94784768211946 128.35168447000504 75.94784768211946 C128.35168447000504 75.94784768211946 132.42540204248996 75.94784768211946 132.42540204248996 75.94784768211946 C132.42540204248996 75.94784768211946 132.42540204248996 58.944536423841264 132.42540204248996 58.944536423841264 C132.42540204248996 57.63245033112604 132.86066439722643 56.767384105960474 133.62131705598915 56.254139072847885 C134.33971123370952 55.76986754966908 135.22713933559942 55.60430463576179 136.35966662753506 55.58774834437106 C136.35966662753506 55.58774834437106 136.35966662753506 51.270695364238584 136.35966662753506 51.270695364238584 C134.20025824626973 51.3162251655631 133.26634581523325 51.73427152317899 132.17185115623573 53.97350993377502 C132.17185115623573 53.97350993377502 132.12959267519332 54.06456953642403 132.12959267519332 54.06456953642403 C132.12959267519332 54.06456953642403 132.12536682708912 54.06456953642403 132.12536682708912 54.06456953642403 Z" vector-effect="non-scaling-stroke"/></defs> <path style="stroke-width: 0; stroke-linecap: butt; stroke-linejoin: miter; fill: rgb(242, 242, 243);" d="M48.76570019955409 13.793874172185497 C48.76570019955409 13.793874172185497 48.76570019955409 11.2814569536431 48.76570019955409 11.2814569536431 C48.76570019955409 11.2814569536431 44.99201784246998 11.2814569536431 44.99201784246998 11.2814569536431 C44.99201784246998 11.2814569536431 44.99201784246998 35.67715231788134 44.99201784246998 35.67715231788134 C44.99201784246998 35.67715231788134 49.06573541495493 35.67715231788134 49.06573541495493 35.67715231788134 C49.06573541495493 35.67715231788134 49.06573541495493 18.673841059602637 49.06573541495493 18.673841059602637 C49.06573541495493 17.36175496688793 49.50099776969137 16.49668874172221 50.26165042845412 15.98344370860923 C50.98004460617449 15.499172185431235 51.86747270806438 15.333609271523528 53 15.317052980132758 C53 15.317052980132758 53 11 53 11 C50.84059161873472 11.045529801324847 49.90667918769827 11.463576158940668 48.812184528700755 13.702814569536713 C48.812184528700755 13.702814569536713 48.76992604765826 13.793874172185497 48.76992604765826 13.793874172185497 C48.76992604765826 13.793874172185497 48.76570019955409 13.793874172185497 48.76570019955409 13.793874172185497 Z" vector-effect="non-scaling-stroke"/></g></svg>