<svg version="1.2" xmlns="http://www.w3.org/2000/svg" xmlns:xlink="http://www.w3.org/1999/xlink" overflow="visible" preserveAspectRatio="none" viewBox="0 0 50 50" width="50" height="50"><g transform="translate(0, 0)"><g transform="translate(0, 0) rotate(0)"><path style="stroke-width: 0; stroke-linecap: butt; stroke-linejoin: miter; fill: rgb(242, 242, 243);" d="M30.60749,18.48938c0,-2.84343 1.9262,-5.59867 2.97396,-5.08008c1.19594,0.59973 -0.89607,3.27736 -2.97396,5.08008zM17.52275,19.52656c0,-2.28604 2.25429,-6.6288 3.63367,-6.17018c1.62986,0.54329 -1.34763,4.92486 -3.63367,6.17018zM15.23319,35.87102c-1.03718,0.04586 -1.73217,-0.61737 -1.73217,-1.72511c0,-2.97396 4.12757,-5.8174 7.24617,-7.34142c-0.55387,4.15226 -1.95442,8.90425 -5.51401,9.06653zM34.27644,26.18006c-2.35307,0 -4.15226,1.73217 -4.15226,3.80653c0,1.73217 1.04071,3.11508 2.42009,3.11508c0.49037,0 0.97368,-0.2787 0.97368,-0.89607c0,-0.90665 -1.19241,-1.12185 -1.10421,-2.46948c0.05997,-0.88901 0.89607,-1.48169 1.72864,-1.48169c1.66161,0 2.43773,1.60869 2.43773,3.2703c-0.06703,2.56474 -1.95442,4.34629 -4.16637,4.34629c-2.91046,0 -4.78022,-2.76582 -4.78022,-5.74684c0,-4.43449 2.91046,-6.16665 4.43449,-6.57941c0.01411,0 3.98293,0.70557 3.85945,-1.04424c-0.05645,-0.76907 -1.19946,-1.06541 -2.0285,-1.09716c-0.92076,-0.03528 -1.84859,0.29634 -1.84859,0.29634c-0.48331,-0.24342 -0.81493,-0.72321 -1.02307,-1.27355c2.83991,-2.14845 4.84724,-4.22282 4.84724,-6.57941c0,-1.24533 -0.83257,-2.35307 -2.42715,-2.35307c-2.83991,0 -4.98836,3.60192 -4.98836,6.85458c0,0.55034 0,1.10774 0.14111,1.59105c-1.80272,1.31588 -3.1433,2.13434 -5.5634,3.58781c0,-0.30339 0.0635,-1.08657 0.26812,-2.09906c0.82904,-0.8996 1.96853,-2.25076 1.96853,-3.29147c0,-0.48331 -0.27517,-0.8996 -0.83257,-0.8996c-1.38291,0 -2.42009,2.07789 -2.69527,3.53489c-0.62443,0.76554 -1.86975,1.73569 -2.91046,1.73569c-0.82904,0 -1.10774,-0.76201 -1.1783,-1.04071c2.63176,-0.8996 5.88796,-4.50152 5.88796,-7.75771c0,-0.69146 -0.2787,-2.21548 -2.35307,-2.21548c-3.11508,0 -5.74331,4.64263 -5.74331,8.23749c-1.11127,0 -1.52402,-1.17477 -1.52402,-2.07789c0,-0.90313 0.34573,-1.7992 0.34573,-2.07789c0,-0.2787 -0.13759,-0.6209 -0.5574,-0.6209c-1.03718,0 -1.66161,1.38644 -1.66161,2.97749c0.07056,2.21548 1.52402,3.60545 3.46081,3.7395c0.2787,1.31588 1.45347,2.56474 2.90694,2.56474c0.90313,0 2.01087,-0.2787 2.77288,-0.96663c-0.06703,0.48331 -0.13406,0.8996 -0.20461,1.31588c-3.04805,1.59458 -5.26706,2.70232 -7.27439,4.50152c-1.58753,1.457 -2.49065,3.39378 -2.49065,4.91427c0,2.08142 1.31588,4.0182 4.01468,4.0182c3.18211,0 5.60926,-2.56121 6.78755,-6.0961c0.55034,-1.66161 0.7726,-4.07818 0.91371,-6.29718c3.18211,-1.80272 4.69202,-2.84343 6.35363,-4.02173c0.20814,0.34573 0.41628,0.6209 0.69146,0.82904c-1.45347,0.76201 -4.91427,2.91046 -4.91427,7.96585c0,3.60192 2.42009,7.62012 7.20384,7.62012c3.94765,0 6.64644,-3.25619 6.64644,-6.3748c0,-2.83638 -1.59458,-5.46814 -4.64263,-5.46814zM46.18641,32.12799c-0.01058,0.02117 -0.04939,0.04939 -0.127,0.02469c-0.05997,-0.02117 -0.07408,-0.04939 -0.07408,-0.0882c0,-0.03881 0.8361,-2.50476 0.82904,-5.32703c-0.00706,-3.05158 -1.24533,-4.92486 -2.83638,-4.92486c-0.97368,0 -1.66514,0.69498 -1.66514,1.73569c0,1.86975 2.28251,2.01087 2.28251,6.09257c0,1.66161 -0.34573,3.25266 -0.89607,4.98483c-2.56474,8.65378 -10.7352,12.67198 -18.69752,12.67198c-3.67248,0 -6.27955,-0.75496 -7.05567,-1.10421c-0.03175,-0.01764 -0.05997,-0.07761 -0.03528,-0.14111c0.01764,-0.04586 0.07056,-0.08114 0.10231,-0.06703c0.31398,0.11995 2.55415,0.82551 5.32703,0.82551c3.04452,0 4.84724,-1.24533 4.84724,-2.77288c0,-0.96663 -0.76201,-1.73217 -1.73217,-1.73217c-1.86975,0 -2.01087,2.35307 -6.02907,2.35307c-1.73217,0 -3.25619,-0.34573 -5.05539,-0.90313c-8.59028,-2.63176 -12.67904,-10.73167 -12.67551,-18.76455c0,-3.9159 1.10068,-7.03097 1.11832,-7.0592c0.01411,-0.02117 0.0635,-0.04233 0.12347,-0.02117c0.05997,0.02117 0.07408,0.07056 0.07056,0.0882c-0.09878,0.32456 -0.82551,2.55768 -0.82551,5.33056c0,3.04805 1.24533,4.84724 2.83991,4.84724c0.8996,0 1.66161,-0.69146 1.66161,-1.66161c0,-1.87328 -2.28604,-2.07789 -2.28604,-6.0961c0,-1.73217 0.34926,-3.25619 0.8996,-5.05539c2.63176,-8.58675 10.7352,-12.61201 18.70105,-12.67551c3.7007,-0.02822 6.93925,1.07952 7.06272,1.1783c0.02117,0.01764 0.04233,0.06703 0.02117,0.11995c-0.02822,0.06703 -0.07408,0.07408 -0.09172,0.07056c-0.03881,0 -2.14492,-0.88196 -5.33409,-0.88196c-2.97749,0 -4.84724,1.24533 -4.84724,2.83991c0,0.8996 0.69498,1.66161 1.73217,1.66161c1.86975,0 2.01087,-2.28251 6.02907,-2.28251c1.72511,0 3.25266,0.3422 5.05186,0.8996c8.66083,2.63176 12.5979,10.80223 12.67198,18.70105c0.04233,4.0429 -1.10068,7.10153 -1.11127,7.12975zM25.00176,1.1783c-13.15882,0 -23.82347,10.66112 -23.82347,23.82347c0,13.16235 10.66464,23.81994 23.82347,23.81994c13.15882,0 23.81994,-10.66112 23.81994,-23.81994c0,-13.15882 -10.66464,-23.82347 -23.81994,-23.82347zM25.00176,50c-13.78325,0 -25.00176,-11.14796 -25.00176,-24.99824c0,-13.85028 11.22204,-25.00176 25.00176,-25.00176c13.77972,0 24.99824,11.21499 24.99824,25.00176c0,13.78678 -11.22204,24.99824 -24.99824,24.99824z" vector-effect="non-scaling-stroke"/></g><defs><path id="path-17453992529012235" d="M30.60749,18.48938c0,-2.84343 1.9262,-5.59867 2.97396,-5.08008c1.19594,0.59973 -0.89607,3.27736 -2.97396,5.08008zM17.52275,19.52656c0,-2.28604 2.25429,-6.6288 3.63367,-6.17018c1.62986,0.54329 -1.34763,4.92486 -3.63367,6.17018zM15.23319,35.87102c-1.03718,0.04586 -1.73217,-0.61737 -1.73217,-1.72511c0,-2.97396 4.12757,-5.8174 7.24617,-7.34142c-0.55387,4.15226 -1.95442,8.90425 -5.51401,9.06653zM34.27644,26.18006c-2.35307,0 -4.15226,1.73217 -4.15226,3.80653c0,1.73217 1.04071,3.11508 2.42009,3.11508c0.49037,0 0.97368,-0.2787 0.97368,-0.89607c0,-0.90665 -1.19241,-1.12185 -1.10421,-2.46948c0.05997,-0.88901 0.89607,-1.48169 1.72864,-1.48169c1.66161,0 2.43773,1.60869 2.43773,3.2703c-0.06703,2.56474 -1.95442,4.34629 -4.16637,4.34629c-2.91046,0 -4.78022,-2.76582 -4.78022,-5.74684c0,-4.43449 2.91046,-6.16665 4.43449,-6.57941c0.01411,0 3.98293,0.70557 3.85945,-1.04424c-0.05645,-0.76907 -1.19946,-1.06541 -2.0285,-1.09716c-0.92076,-0.03528 -1.84859,0.29634 -1.84859,0.29634c-0.48331,-0.24342 -0.81493,-0.72321 -1.02307,-1.27355c2.83991,-2.14845 4.84724,-4.22282 4.84724,-6.57941c0,-1.24533 -0.83257,-2.35307 -2.42715,-2.35307c-2.83991,0 -4.98836,3.60192 -4.98836,6.85458c0,0.55034 0,1.10774 0.14111,1.59105c-1.80272,1.31588 -3.1433,2.13434 -5.5634,3.58781c0,-0.30339 0.0635,-1.08657 0.26812,-2.09906c0.82904,-0.8996 1.96853,-2.25076 1.96853,-3.29147c0,-0.48331 -0.27517,-0.8996 -0.83257,-0.8996c-1.38291,0 -2.42009,2.07789 -2.69527,3.53489c-0.62443,0.76554 -1.86975,1.73569 -2.91046,1.73569c-0.82904,0 -1.10774,-0.76201 -1.1783,-1.04071c2.63176,-0.8996 5.88796,-4.50152 5.88796,-7.75771c0,-0.69146 -0.2787,-2.21548 -2.35307,-2.21548c-3.11508,0 -5.74331,4.64263 -5.74331,8.23749c-1.11127,0 -1.52402,-1.17477 -1.52402,-2.07789c0,-0.90313 0.34573,-1.7992 0.34573,-2.07789c0,-0.2787 -0.13759,-0.6209 -0.5574,-0.6209c-1.03718,0 -1.66161,1.38644 -1.66161,2.97749c0.07056,2.21548 1.52402,3.60545 3.46081,3.7395c0.2787,1.31588 1.45347,2.56474 2.90694,2.56474c0.90313,0 2.01087,-0.2787 2.77288,-0.96663c-0.06703,0.48331 -0.13406,0.8996 -0.20461,1.31588c-3.04805,1.59458 -5.26706,2.70232 -7.27439,4.50152c-1.58753,1.457 -2.49065,3.39378 -2.49065,4.91427c0,2.08142 1.31588,4.0182 4.01468,4.0182c3.18211,0 5.60926,-2.56121 6.78755,-6.0961c0.55034,-1.66161 0.7726,-4.07818 0.91371,-6.29718c3.18211,-1.80272 4.69202,-2.84343 6.35363,-4.02173c0.20814,0.34573 0.41628,0.6209 0.69146,0.82904c-1.45347,0.76201 -4.91427,2.91046 -4.91427,7.96585c0,3.60192 2.42009,7.62012 7.20384,7.62012c3.94765,0 6.64644,-3.25619 6.64644,-6.3748c0,-2.83638 -1.59458,-5.46814 -4.64263,-5.46814zM46.18641,32.12799c-0.01058,0.02117 -0.04939,0.04939 -0.127,0.02469c-0.05997,-0.02117 -0.07408,-0.04939 -0.07408,-0.0882c0,-0.03881 0.8361,-2.50476 0.82904,-5.32703c-0.00706,-3.05158 -1.24533,-4.92486 -2.83638,-4.92486c-0.97368,0 -1.66514,0.69498 -1.66514,1.73569c0,1.86975 2.28251,2.01087 2.28251,6.09257c0,1.66161 -0.34573,3.25266 -0.89607,4.98483c-2.56474,8.65378 -10.7352,12.67198 -18.69752,12.67198c-3.67248,0 -6.27955,-0.75496 -7.05567,-1.10421c-0.03175,-0.01764 -0.05997,-0.07761 -0.03528,-0.14111c0.01764,-0.04586 0.07056,-0.08114 0.10231,-0.06703c0.31398,0.11995 2.55415,0.82551 5.32703,0.82551c3.04452,0 4.84724,-1.24533 4.84724,-2.77288c0,-0.96663 -0.76201,-1.73217 -1.73217,-1.73217c-1.86975,0 -2.01087,2.35307 -6.02907,2.35307c-1.73217,0 -3.25619,-0.34573 -5.05539,-0.90313c-8.59028,-2.63176 -12.67904,-10.73167 -12.67551,-18.76455c0,-3.9159 1.10068,-7.03097 1.11832,-7.0592c0.01411,-0.02117 0.0635,-0.04233 0.12347,-0.02117c0.05997,0.02117 0.07408,0.07056 0.07056,0.0882c-0.09878,0.32456 -0.82551,2.55768 -0.82551,5.33056c0,3.04805 1.24533,4.84724 2.83991,4.84724c0.8996,0 1.66161,-0.69146 1.66161,-1.66161c0,-1.87328 -2.28604,-2.07789 -2.28604,-6.0961c0,-1.73217 0.34926,-3.25619 0.8996,-5.05539c2.63176,-8.58675 10.7352,-12.61201 18.70105,-12.67551c3.7007,-0.02822 6.93925,1.07952 7.06272,1.1783c0.02117,0.01764 0.04233,0.06703 0.02117,0.11995c-0.02822,0.06703 -0.07408,0.07408 -0.09172,0.07056c-0.03881,0 -2.14492,-0.88196 -5.33409,-0.88196c-2.97749,0 -4.84724,1.24533 -4.84724,2.83991c0,0.8996 0.69498,1.66161 1.73217,1.66161c1.86975,0 2.01087,-2.28251 6.02907,-2.28251c1.72511,0 3.25266,0.3422 5.05186,0.8996c8.66083,2.63176 12.5979,10.80223 12.67198,18.70105c0.04233,4.0429 -1.10068,7.10153 -1.11127,7.12975zM25.00176,1.1783c-13.15882,0 -23.82347,10.66112 -23.82347,23.82347c0,13.16235 10.66464,23.81994 23.82347,23.81994c13.15882,0 23.81994,-10.66112 23.81994,-23.81994c0,-13.15882 -10.66464,-23.82347 -23.81994,-23.82347zM25.00176,50c-13.78325,0 -25.00176,-11.14796 -25.00176,-24.99824c0,-13.85028 11.22204,-25.00176 25.00176,-25.00176c13.77972,0 24.99824,11.21499 24.99824,25.00176c0,13.78678 -11.22204,24.99824 -24.99824,24.99824z" vector-effect="non-scaling-stroke"/></defs></g></svg>