<svg height="46.92000000000007" overflow="visible" viewBox="0 0 43.67516605916296 46.92000000000007" width="43.67516605916296" xmlns="http://www.w3.org/2000/svg"><g><defs><path id="path-17458335601304141" d="M16.95,33.9c-9.35,0 -16.95,-7.61 -16.95,-16.95c0,-9.34 7.61,-16.95 16.95,-16.95c9.34,0.01 16.94,7.62 16.96,16.95c0,9.35 -7.61,16.95 -16.96,16.95zM17.64,32.47l0.16,-0.04c2.06,-0.51 3.95,-2.87 5.2,-6.49l0.06,-0.17h-5.42zM10.91,25.94c1.24,3.62 3.14,5.98 5.2,6.49l0.16,0.04v-6.7h-5.42zM24.48,25.86c-0.61,2.14 -1.65,4.08 -3.08,5.78l-0.29,0.34l0.43,-0.13c3.25,-1.01 6.13,-3.1 8.1,-5.88l0.15,-0.21h-5.28l-0.03,0.09zM4.27,25.97c1.97,2.78 4.86,4.87 8.11,5.88l0.43,0.13l-0.29,-0.34c-1.43,-1.7 -2.47,-3.64 -3.09,-5.78l-0.03,-0.09h-5.28l0.15,0.21zM25.75,17.76c-0.04,2.18 -0.32,4.36 -0.82,6.48l-0.04,0.16h5.75l0.04,-0.07c1.08,-2.01 1.71,-4.28 1.82,-6.57v-0.14h-6.75v0.13zM17.64,24.4h5.84l0.03,-0.1c0.54,-2.14 0.84,-4.34 0.89,-6.54v-0.13h-6.75v6.77zM9.52,17.76c0.05,2.2 0.35,4.4 0.89,6.54l0.03,0.1h5.84v-6.77h-6.75v0.13zM1.41,17.77c0.11,2.28 0.74,4.55 1.82,6.57l0.04,0.07h5.75l-0.04,-0.16c-0.5,-2.12 -0.78,-4.3 -0.82,-6.48v-0.13h-6.76v0.14zM24.93,9.66c0.5,2.12 0.78,4.3 0.82,6.48v0.13h6.76v-0.14c-0.12,-2.28 -0.75,-4.55 -1.83,-6.57l-0.04,-0.07h-5.75l0.04,0.16zM17.64,16.27h6.75v-0.13c-0.05,-2.2 -0.35,-4.4 -0.89,-6.54l-0.03,-0.1h-5.84v6.77zM10.41,9.59c-0.54,2.14 -0.84,4.34 -0.89,6.54v0.13h6.75v-6.77h-5.84l-0.03,0.1zM3.23,9.56c-1.08,2.01 -1.71,4.28 -1.82,6.57v0.14h6.75v-0.13c0.05,-2.18 0.32,-4.37 0.82,-6.48l0.04,-0.16h-5.75l-0.04,0.07zM21.39,2.26c1.43,1.7 2.47,3.64 3.09,5.78l0.03,0.09h5.29l-0.15,-0.21c-1.97,-2.78 -4.86,-4.87 -8.11,-5.88l-0.43,-0.13l0.29,0.34zM17.64,8.13h5.42l-0.06,-0.17c-1.24,-3.62 -3.14,-5.98 -5.2,-6.49l-0.16,-0.04zM16.11,1.47c-2.06,0.51 -3.95,2.87 -5.2,6.49l-0.06,0.17h5.42v-6.7zM12.37,2.05c-3.25,1.01 -6.13,3.1 -8.11,5.88l-0.15,0.21h5.28l0.03,-0.09c0.61,-2.14 1.65,-4.08 3.08,-5.78l0.29,-0.34l-0.43,0.13z" vector-effect="non-scaling-stroke"/><linearGradient id="gradient-17458335624117442" x1="86%" y1="85%" x2="14%" y2="15%" vector-effect="non-scaling-stroke"><stop offset="0%" stop-color="rgb(181,245,140)" stop-opacity="1" vector-effect="non-scaling-stroke"/><stop offset="100%" stop-color="rgb(0,89,178)" stop-opacity="1" vector-effect="non-scaling-stroke"/></linearGradient></defs><path style="stroke-width: 0; stroke-linecap: butt; stroke-linejoin: miter; fill: url(&quot;#gradient-17458335624117442&quot;);" d="M16.95,33.9c-9.35,0 -16.95,-7.61 -16.95,-16.95c0,-9.34 7.61,-16.95 16.95,-16.95c9.34,0.01 16.94,7.62 16.96,16.95c0,9.35 -7.61,16.95 -16.96,16.95zM17.64,32.47l0.16,-0.04c2.06,-0.51 3.95,-2.87 5.2,-6.49l0.06,-0.17h-5.42zM10.91,25.94c1.24,3.62 3.14,5.98 5.2,6.49l0.16,0.04v-6.7h-5.42zM24.48,25.86c-0.61,2.14 -1.65,4.08 -3.08,5.78l-0.29,0.34l0.43,-0.13c3.25,-1.01 6.13,-3.1 8.1,-5.88l0.15,-0.21h-5.28l-0.03,0.09zM4.27,25.97c1.97,2.78 4.86,4.87 8.11,5.88l0.43,0.13l-0.29,-0.34c-1.43,-1.7 -2.47,-3.64 -3.09,-5.78l-0.03,-0.09h-5.28l0.15,0.21zM25.75,17.76c-0.04,2.18 -0.32,4.36 -0.82,6.48l-0.04,0.16h5.75l0.04,-0.07c1.08,-2.01 1.71,-4.28 1.82,-6.57v-0.14h-6.75v0.13zM17.64,24.4h5.84l0.03,-0.1c0.54,-2.14 0.84,-4.34 0.89,-6.54v-0.13h-6.75v6.77zM9.52,17.76c0.05,2.2 0.35,4.4 0.89,6.54l0.03,0.1h5.84v-6.77h-6.75v0.13zM1.41,17.77c0.11,2.28 0.74,4.55 1.82,6.57l0.04,0.07h5.75l-0.04,-0.16c-0.5,-2.12 -0.78,-4.3 -0.82,-6.48v-0.13h-6.76v0.14zM24.93,9.66c0.5,2.12 0.78,4.3 0.82,6.48v0.13h6.76v-0.14c-0.12,-2.28 -0.75,-4.55 -1.83,-6.57l-0.04,-0.07h-5.75l0.04,0.16zM17.64,16.27h6.75v-0.13c-0.05,-2.2 -0.35,-4.4 -0.89,-6.54l-0.03,-0.1h-5.84v6.77zM10.41,9.59c-0.54,2.14 -0.84,4.34 -0.89,6.54v0.13h6.75v-6.77h-5.84l-0.03,0.1zM3.23,9.56c-1.08,2.01 -1.71,4.28 -1.82,6.57v0.14h6.75v-0.13c0.05,-2.18 0.32,-4.37 0.82,-6.48l0.04,-0.16h-5.75l-0.04,0.07zM21.39,2.26c1.43,1.7 2.47,3.64 3.09,5.78l0.03,0.09h5.29l-0.15,-0.21c-1.97,-2.78 -4.86,-4.87 -8.11,-5.88l-0.43,-0.13l0.29,0.34zM17.64,8.13h5.42l-0.06,-0.17c-1.24,-3.62 -3.14,-5.98 -5.2,-6.49l-0.16,-0.04zM16.11,1.47c-2.06,0.51 -3.95,2.87 -5.2,6.49l-0.06,0.17h5.42v-6.7zM12.37,2.05c-3.25,1.01 -6.13,3.1 -8.11,5.88l-0.15,0.21h5.28l0.03,-0.09c0.61,-2.14 1.65,-4.08 3.08,-5.78l0.29,-0.34l-0.43,0.13z" transform="translate(4.885072611649662, 6.510000000000218) rotate(0)" vector-effect="non-scaling-stroke"/></g><g><defs><path id="path-17458335601304139" d="M16.95508,44.73c-0.05,0 -0.11,0 -0.16,-0.02c-8.99,-2.13 -15.68,-9.74 -16.67,-18.92c-1.28,-11.97 7.41,-22.76 19.39,-24.04h0.09l0.02,-0.09c0.28,-0.98 1.19,-1.66 2.21,-1.66c0.93,0 1.77,0.56 2.13,1.41c0.49,1.17 -0.06,2.53 -1.23,3.02c-0.29,0.12 -0.59,0.18 -0.89,0.18v0c-0.93,0 -1.77,-0.56 -2.13,-1.42l-0.04,-0.09h-0.1c-8.56,0.97 -15.66,7.24 -17.65,15.62c-2.61,10.98 4.2,22.04 15.18,24.65c0.37,0.09 0.6,0.45 0.51,0.82c-0.07,0.31 -0.35,0.53 -0.66,0.53zM21.83508,1.36c-0.52,0 -0.94,0.42 -0.94,0.95c0,0.53 0.42,0.94 0.94,0.94c0.52,0 0.95,-0.42 0.95,-0.94c0,-0.52 -0.42,-0.95 -0.95,-0.95z" vector-effect="non-scaling-stroke"/><linearGradient id="gradient-17458335624157449" x1="86%" y1="85%" x2="14%" y2="15%" vector-effect="non-scaling-stroke"><stop offset="0%" stop-color="rgb(181,245,140)" stop-opacity="1" vector-effect="non-scaling-stroke"/><stop offset="100%" stop-color="rgb(0,89,178)" stop-opacity="1" vector-effect="non-scaling-stroke"/></linearGradient></defs><path style="stroke-width: 0; stroke-linecap: butt; stroke-linejoin: miter; fill: url(&quot;#gradient-17458335624157449&quot;);" d="M16.95508,44.73c-0.05,0 -0.11,0 -0.16,-0.02c-8.99,-2.13 -15.68,-9.74 -16.67,-18.92c-1.28,-11.97 7.41,-22.76 19.39,-24.04h0.09l0.02,-0.09c0.28,-0.98 1.19,-1.66 2.21,-1.66c0.93,0 1.77,0.56 2.13,1.41c0.49,1.17 -0.06,2.53 -1.23,3.02c-0.29,0.12 -0.59,0.18 -0.89,0.18v0c-0.93,0 -1.77,-0.56 -2.13,-1.42l-0.04,-0.09h-0.1c-8.56,0.97 -15.66,7.24 -17.65,15.62c-2.61,10.98 4.2,22.04 15.18,24.65c0.37,0.09 0.6,0.45 0.51,0.82c-0.07,0.31 -0.35,0.53 -0.66,0.53zM21.83508,1.36c-0.52,0 -0.94,0.42 -0.94,0.95c0,0.53 0.42,0.94 0.94,0.94c0.52,0 0.95,-0.42 0.95,-0.94c0,-0.52 -0.42,-0.95 -0.95,-0.95z" transform="translate(-0.0000036941752341590472, 0) rotate(0)" vector-effect="non-scaling-stroke"/></g><g><defs><path id="path-17458335601294137" d="M2.32024,44.73c-0.95,0 -1.79,-0.57 -2.15,-1.45c-0.48,-1.19 0.09,-2.55 1.27,-3.03c0.28,-0.11 0.58,-0.17 0.88,-0.17c0.95,0 1.79,0.57 2.15,1.45l0.04,0.09h0.1c8.56,-0.97 15.66,-7.24 17.65,-15.62c2.61,-10.98 -4.2,-22.04 -15.19,-24.65c-0.37,-0.09 -0.59,-0.45 -0.51,-0.82c0.07,-0.31 0.35,-0.53 0.66,-0.53c0.05,0 0.11,0 0.16,0.02c9.93,2.32 16.83,11.06 16.8,21.25c-0.02,11.18 -8.41,20.51 -19.52,21.71h-0.09l-0.02,0.09c-0.2,0.68 -0.69,1.22 -1.35,1.49c-0.28,0.11 -0.58,0.17 -0.88,0.17zM2.34024,41.48c-0.52,0 -0.94,0.42 -0.94,0.94c0,0.52 0.42,0.95 0.94,0.95c0.52,0 0.95,-0.42 0.95,-0.95c0,-0.53 -0.42,-0.94 -0.95,-0.94z" vector-effect="non-scaling-stroke"/><linearGradient id="gradient-17458335624187456" x1="86%" y1="85%" x2="14%" y2="15%" vector-effect="non-scaling-stroke"><stop offset="0%" stop-color="rgb(181,245,140)" stop-opacity="1" vector-effect="non-scaling-stroke"/><stop offset="100%" stop-color="rgb(0,89,178)" stop-opacity="1" vector-effect="non-scaling-stroke"/></linearGradient></defs><path style="stroke-width: 0; stroke-linecap: butt; stroke-linejoin: miter; fill: url(&quot;#gradient-17458335624187456&quot;);" d="M2.32024,44.73c-0.95,0 -1.79,-0.57 -2.15,-1.45c-0.48,-1.19 0.09,-2.55 1.27,-3.03c0.28,-0.11 0.58,-0.17 0.88,-0.17c0.95,0 1.79,0.57 2.15,1.45l0.04,0.09h0.1c8.56,-0.97 15.66,-7.24 17.65,-15.62c2.61,-10.98 -4.2,-22.04 -15.19,-24.65c-0.37,-0.09 -0.59,-0.45 -0.51,-0.82c0.07,-0.31 0.35,-0.53 0.66,-0.53c0.05,0 0.11,0 0.16,0.02c9.93,2.32 16.83,11.06 16.8,21.25c-0.02,11.18 -8.41,20.51 -19.52,21.71h-0.09l-0.02,0.09c-0.2,0.68 -0.69,1.22 -1.35,1.49c-0.28,0.11 -0.58,0.17 -0.88,0.17zM2.34024,41.48c-0.52,0 -0.94,0.42 -0.94,0.94c0,0.52 0.42,0.95 0.94,0.95c0.52,0 0.95,-0.42 0.95,-0.95c0,-0.53 -0.42,-0.94 -0.95,-0.94z" transform="translate(19.494828616980044, 2.1900000000000546) rotate(0)" vector-effect="non-scaling-stroke"/></g></svg>