<svg height="26" overflow="visible" viewBox="-1 -1 26 26" width="26" xmlns="http://www.w3.org/2000/svg"><g><defs><path id="path-17453834195111972" d="M0 2.0000000000000004 C0 0.8954305004000003 0.8954305004000003 0 2.0000000000000004 0 C2.0000000000000004 0 22 0 22 0 C23.1045694996 0 24 0.8954305004000003 24 2.0000000000000004 C24 2.0000000000000004 24 22 24 22 C24 23.1045694996 23.1045694996 24 22 24 C22 24 2.0000000000000004 24 2.0000000000000004 24 C0.8954305004000003 24 0 23.1045694996 0 22 C0 22 0 2.0000000000000004 0 2.0000000000000004 Z" vector-effect="non-scaling-stroke"/></defs> <path style="stroke: rgb(181, 245, 140); stroke-width: 1; stroke-linecap: butt; stroke-linejoin: miter; fill: rgba(181, 245, 140, 0);" d="M0 2.0000000000000004 C0 0.8954305004000003 0.8954305004000003 0 2.0000000000000004 0 C2.0000000000000004 0 22 0 22 0 C23.1045694996 0 24 0.8954305004000003 24 2.0000000000000004 C24 2.0000000000000004 24 22 24 22 C24 23.1045694996 23.1045694996 24 22 24 C22 24 2.0000000000000004 24 2.0000000000000004 24 C0.8954305004000003 24 0 23.1045694996 0 22 C0 22 0 2.0000000000000004 0 2.0000000000000004 Z" vector-effect="non-scaling-stroke"/></g></svg>