<svg height="30.00000430839009" overflow="visible" viewBox="0 0 114.00000452633708 30.00000430839009" width="114.00000452633708" xmlns="http://www.w3.org/2000/svg"><g><defs><path id="path-1745399252592470" d="M20.913,0.34769v4.49358h-7.94604v21.56463h-5.02093v-21.56463h-7.94604v-4.49358zM23.04652,26.4059h5.02093v-26.05442h-5.02093zM54.02778,26.4059h-5.16794l-2.67255,-6.40967h-8.80548l-2.6424,6.40967h-5.05109l11.07093,-26.4059h2.1976zM78.36723,26.4059h-5.16794l-2.67255,-6.40967h-8.80548l-2.6424,6.40967h-5.05109l11.07093,-26.4059h2.19383l11.07093,26.4059zM44.46841,15.73696l-2.6537,-6.48904l-2.67632,6.48904zM68.80409,15.73696l-2.6537,-6.48904l-2.67632,6.48904z" vector-effect="non-scaling-stroke"/></defs><path style="stroke-width: 0; stroke-linecap: butt; stroke-linejoin: miter; fill: rgb(242, 242, 243);" d="M20.913,0.34769v4.49358h-7.94604v21.56463h-5.02093v-21.56463h-7.94604v-4.49358zM23.04652,26.4059h5.02093v-26.05442h-5.02093zM54.02778,26.4059h-5.16794l-2.67255,-6.40967h-8.80548l-2.6424,6.40967h-5.05109l11.07093,-26.4059h2.1976zM78.36723,26.4059h-5.16794l-2.67255,-6.40967h-8.80548l-2.6424,6.40967h-5.05109l11.07093,-26.4059h2.19383l11.07093,26.4059zM44.46841,15.73696l-2.6537,-6.48904l-2.67632,6.48904zM68.80409,15.73696l-2.6537,-6.48904l-2.67632,6.48904z" transform="translate(35.632774526337016, 3.5941043083903423) rotate(0)" vector-effect="non-scaling-stroke"/></g><g><defs><path id="path-174539925250292" d="M64.7322665994705 38.57250850447185 C61.25110243164893 38.57250850447185 58.42761748771547 41.38843391709621 58.412498425097354 44.86581831926319 C58.412498425097354 44.86581831926319 58.412498425097354 47.005165679726794 58.412498425097354 47.005165679726794 C58.412498425097354 47.005165679726794 71.55852337155062 47.005165679726794 71.55852337155062 47.005165679726794 C71.55852337155062 47.005165679726794 71.55852337155062 60.14741086052529 71.55852337155062 60.14741086052529 C71.55852337155062 60.14741086052529 73.66763260677801 60.14741086052529 73.66763260677801 60.14741086052529 C77.16013607156319 60.14741086052529 79.98740078115118 57.31636638528281 79.98740078115118 53.827642686152245 C79.98740078115118 53.827642686152245 79.98740078115118 38.56872873881732 79.98740078115118 38.56872873881732 C79.98740078115118 38.56872873881732 64.7322665994705 38.56872873881732 64.7322665994705 38.56872873881732 C64.7322665994705 38.56872873881732 64.7322665994705 38.57250850447185 64.7322665994705 38.57250850447185 Z" vector-effect="non-scaling-stroke"/></defs> <path style="stroke-width: 0; stroke-linecap: butt; stroke-linejoin: miter; fill: rgb(242, 242, 243);" d="M14.74486581831934 0.0037797656541442848 C11.263701650497751 0.0037797656541442848 8.440216706564286 2.8197051782790368 8.425097643946174 6.297089580445572 C8.425097643946174 6.297089580445572 8.425097643946174 8.436436940909516 8.425097643946174 8.436436940909516 C8.425097643946174 8.436436940909516 21.571122590399455 8.436436940909516 21.571122590399455 8.436436940909516 C21.571122590399455 8.436436940909516 21.571122590399455 21.57868212170797 21.571122590399455 21.57868212170797 C21.571122590399455 21.57868212170797 23.680231825626834 21.57868212170797 23.680231825626834 21.57868212170797 C27.172735290411993 21.57868212170797 30 18.74763764646559 30 15.258913947334804 C30 15.258913947334804 30 0 30 0 C30 0 14.74486581831934 0 14.74486581831934 0 C14.74486581831934 0 14.74486581831934 0.0037797656541442848 14.74486581831934 0.0037797656541442848 Z" vector-effect="non-scaling-stroke"/></g><g><defs><path id="path-174539925250190" d="M77.50409474612496 60.858006803579755 C76.36638528411163 61.48166813657713 75.05480660198994 61.8369661081029 73.66763260677764 61.8369661081029 C73.66763260677764 61.8369661081029 56.719163411867896 61.8369661081029 56.719163411867896 61.8369661081029 C56.719163411867896 61.8369661081029 49.98740078115106 68.56872873881996 49.98740078115106 68.56872873881996 C49.98740078115106 68.56872873881996 67.48015623031304 68.56872873881996 67.48015623031304 68.56872873881996 C69.18105077485127 68.56872873881996 70.78367141237172 67.89215068665918 71.98563689051207 66.66750661459162 C71.98563689051207 66.66750661459162 77.6515056066516 61.001637898451875 77.6515056066516 61.001637898451875 C77.6515056066516 61.001637898451875 77.50409474612496 60.85422703792523 77.50409474612496 60.85422703792523 C77.50409474612496 60.85422703792523 77.50409474612496 60.858006803579755 77.50409474612496 60.858006803579755 Z" vector-effect="non-scaling-stroke"/></defs> <path style="stroke-width: 0; stroke-linecap: butt; stroke-linejoin: miter; fill: rgb(242, 242, 243);" d="M27.51669396497391 22.289278064759856 C26.378984502960577 22.912939397757327 25.06740582083887 23.26823736928327 23.680231825626606 23.26823736928327 C23.680231825626606 23.26823736928327 6.731762630716844 23.26823736928327 6.731762630716844 23.26823736928327 C6.731762630716844 23.26823736928327 0 30 0 30 C0 30 17.49275544916202 30 17.49275544916202 30 C19.193649993700205 30 20.796270631220636 29.32342194783905 21.998236109361017 28.098777875771702 C21.998236109361017 28.098777875771702 27.664104825500544 22.43290915963189 27.664104825500544 22.43290915963189 C27.664104825500544 22.43290915963189 27.51669396497391 22.285498299104802 27.51669396497391 22.285498299104802 C27.51669396497391 22.285498299104802 27.51669396497391 22.289278064759856 27.51669396497391 22.289278064759856 Z" vector-effect="non-scaling-stroke"/></g><g><defs><path id="path-174539925250188" d="M57.701902482044204 41.05203477384361 C57.078241149046875 42.193524001511484 56.722943177521124 43.501322917978655 56.722943177521124 44.88849691319094 C56.722943177521124 44.88849691319094 56.722943177521124 61.83696610810069 56.722943177521124 61.83696610810069 C56.722943177521124 61.83696610810069 49.991180546804436 68.56872873881751 49.991180546804436 68.56872873881751 C49.991180546804436 68.56872873881751 49.991180546804436 51.07597328965554 49.991180546804436 51.07597328965554 C49.991180546804436 49.37507874511732 50.667758598965186 47.77245810759686 51.89240267103268 46.57049262945652 C51.89240267103268 46.57049262945652 57.5582713871721 40.90462391331698 57.5582713871721 40.90462391331698 C57.5582713871721 40.90462391331698 57.705682247698725 41.05203477384362 57.705682247698725 41.05203477384362 C57.705682247698725 41.05203477384362 57.701902482044204 41.05203477384361 57.701902482044204 41.05203477384361 Z" vector-effect="non-scaling-stroke"/></defs> <path style="stroke-width: 0; stroke-linecap: butt; stroke-linejoin: miter; fill: rgb(242, 242, 243);" d="M7.7145017008943455 2.483306035026544 C7.090840367897044 3.6247952626945334 6.735542396371272 4.932594179161242 6.735542396371272 6.319768174374076 C6.735542396371272 6.319768174374076 6.735542396371272 23.26823736928327 6.735542396371272 23.26823736928327 C6.735542396371272 23.26823736928327 0.003779765654599032 30 0.003779765654599032 30 C0.003779765654599032 30 0.003779765654599032 12.50724455083855 0.003779765654599032 12.50724455083855 C0.003779765654599032 10.806350006299908 0.6803578178153202 9.203729368779932 1.9050018898828398 8.001763890639268 C1.9050018898828398 8.001763890639268 7.570870606022254 2.3358951744994556 7.570870606022254 2.3358951744994556 C7.570870606022254 2.3358951744994556 7.718281466548888 2.483306035026544 7.718281466548888 2.483306035026544 C7.718281466548888 2.483306035026544 7.7145017008943455 2.483306035026544 7.7145017008943455 2.483306035026544 Z" vector-effect="non-scaling-stroke"/></g></svg>