<svg version="1.2" xmlns="http://www.w3.org/2000/svg" xmlns:xlink="http://www.w3.org/1999/xlink" overflow="visible" preserveAspectRatio="none" viewBox="0 0 58.999990000000004 60.00000000000001" width="58.999990000000004" height="60.00000000000001"><g transform="translate(0, 0)"><g transform="translate(-0.000009999999999399378, 0) rotate(0)"><path style="stroke-width: 0; stroke-linecap: butt; stroke-linejoin: miter; fill: url(&quot;#gradient-17453174993234868&quot;);" d="M29.24576,7.79258c0.17434,0.10177 0.34868,0.14538 0.55208,0.14538c0.39227,0 0.75548,-0.20354 0.95888,-0.55246l1.72888,-3.00945c0.14528,-0.24715 0.18887,-0.55246 0.11623,-0.82869c-0.07264,-0.29077 -0.26151,-0.52338 -0.5085,-0.66877c-0.15981,-0.10177 -0.34868,-0.14538 -0.55208,-0.14538c-0.39227,0 -0.75548,0.20354 -0.95888,0.55246l-1.72888,3.00945c-0.14528,0.24715 -0.18887,0.55246 -0.11623,0.82869c0.07264,0.29077 0.26151,0.52338 0.5085,0.66877zM35.9579,14.10225c0.18887,0 0.37774,-0.04362 0.55208,-0.14538l3.00739,-1.73007c0.26151,-0.14538 0.43585,-0.378 0.5085,-0.66877c0.07264,-0.27623 0.04359,-0.58154 -0.11623,-0.82869c-0.18887,-0.33438 -0.56661,-0.55246 -0.95888,-0.55246c-0.18887,0 -0.37774,0.04362 -0.55208,0.14538l-3.00739,1.73007c-0.52302,0.30531 -0.69737,0.97407 -0.4068,1.49746c0.18887,0.33438 0.56661,0.55246 0.95888,0.55246zM21.4004,5.68452c0.61019,0 1.10416,-0.49431 1.10416,-1.10492v-3.47468c0,-0.61061 -0.49397,-1.10492 -1.10416,-1.10492c-0.61019,0 -1.10416,0.49431 -1.10416,1.10492v3.47468c0,0.61061 0.49397,1.10492 1.10416,1.10492zM34.99902,29.2658c-0.14528,0.24715 -0.18887,0.55246 -0.11623,0.82869c0.07264,0.29077 0.26151,0.52338 0.5085,0.66877l3.00739,1.74461c0.17434,0.10177 0.34868,0.14538 0.55208,0.14538c0.39227,0 0.75548,-0.20354 0.95888,-0.55246c0.3051,-0.52338 0.11623,-1.19215 -0.4068,-1.49746l-3.00739,-1.73007c-0.17434,-0.10177 -0.36321,-0.14538 -0.55208,-0.14538c-0.39227,0 -0.75548,0.20354 -0.95888,0.55246zM12.04408,7.38551c0.2034,0.33438 0.56661,0.55246 0.95888,0.55246c0.18887,0 0.37774,-0.04362 0.55208,-0.14538c0.24698,-0.14538 0.43585,-0.378 0.5085,-0.66877c0.07264,-0.29077 0.04359,-0.58154 -0.11623,-0.84323l-1.72888,-3.00945c-0.2034,-0.33438 -0.56661,-0.55246 -0.95888,-0.55246c-0.18887,0 -0.37774,0.05815 -0.55208,0.14538c-0.52302,0.30531 -0.69737,0.97407 -0.4068,1.49746l1.72888,3.00945zM3.28343,12.21226l3.00739,1.73007c0.17434,0.10177 0.34868,0.14538 0.55208,0.14538c0.39227,0 0.75548,-0.20354 0.95888,-0.55246c0.3051,-0.52338 0.11623,-1.20669 -0.4068,-1.49746l-3.00739,-1.73007c-0.17434,-0.10177 -0.36321,-0.14538 -0.55208,-0.14538c-0.39227,0 -0.75548,0.21808 -0.95888,0.55246c-0.14528,0.24715 -0.18887,0.55246 -0.11623,0.82869c0.07264,0.27623 0.26151,0.52338 0.5085,0.66877zM6.82837,28.72788c-0.18887,0 -0.37774,0.04362 -0.55208,0.14538l-3.00739,1.74461c-0.24698,0.14538 -0.43585,0.378 -0.5085,0.66877c-0.07264,0.29077 -0.04359,0.58154 0.11623,0.84323c0.18887,0.33438 0.56661,0.55246 0.95888,0.55246c0.18887,0 0.37774,-0.04362 0.55208,-0.14538l3.00739,-1.74461c0.52302,-0.30531 0.69737,-0.97407 0.4068,-1.49746c-0.2034,-0.33438 -0.56661,-0.55246 -0.95888,-0.55246zM5.361,22.1856c0.2034,-0.20354 0.31963,-0.47977 0.31963,-0.77054c0,-0.61061 -0.49397,-1.10492 -1.10416,-1.10492h-3.4723c-0.61019,0 -1.10416,0.49431 -1.10416,1.10492c0,0.61061 0.49397,1.10492 1.10416,1.10492h3.4723c0.29057,0 0.56661,-0.11631 0.77001,-0.31984zM48.8301,45.62151c-2.46984,0 -4.48929,2.02084 -4.48929,4.49237c0,2.47153 2.01945,4.49237 4.48929,4.49237c2.46984,0 4.48929,-2.02084 4.48929,-4.49237c0,-2.47153 -2.01945,-4.49237 -4.48929,-4.49237zM48.8301,52.93432c-1.55454,0 -2.81852,-1.26484 -2.81852,-2.82045c0,-1.55561 1.26397,-2.82045 2.81852,-2.82045c1.55454,0 2.81852,1.26484 2.81852,2.82045c0,1.55561 -1.26397,2.82045 -2.81852,2.82045zM58.09925,47.56965l-1.20586,-0.14538c-0.17434,-0.50884 -0.39227,-1.00315 -0.68284,-1.52653l0.78454,-1.00315c0.31963,-0.42161 0.29057,-0.98861 -0.08717,-1.36661l-1.77247,-1.77369c-0.2034,-0.189 -0.45038,-0.29077 -0.72642,-0.29077c-0.23246,0 -0.46491,0.07269 -0.63925,0.21808l-1.08963,0.85777c-0.45038,-0.23261 -0.90076,-0.40708 -1.40926,-0.567l-0.17434,-1.39569c-0.07264,-0.52338 -0.49397,-0.90138 -1.01699,-0.90138h-0.21793v-18.2457c0,-0.61061 -0.49397,-1.10492 -1.10416,-1.10492h-10.56218c-0.61019,0 -1.10416,0.49431 -1.10416,1.10492c0,0.61061 0.49397,1.10492 1.10416,1.10492h9.47255v17.14078h-0.08717c-0.53755,0 -0.97341,0.39254 -1.01699,0.90138l-0.17434,1.39569c-0.43585,0.13085 -0.88624,0.30531 -1.40926,0.567l-1.08963,-0.85777c-0.17434,-0.14538 -0.4068,-0.21808 -0.63925,-0.21808c-0.27604,0 -0.53755,0.11631 -0.72642,0.30531l-1.75794,1.75915c-0.37774,0.378 -0.4068,0.945 -0.08717,1.36661l0.77001,1.00315c-0.26151,0.45069 -0.47944,0.945 -0.68284,1.52653l-1.20586,0.14538c-0.5085,0.07269 -0.90076,0.50884 -0.90076,1.01769v2.48607c0,0.52338 0.39227,0.95953 0.90076,1.01769l1.20586,0.14538c0.13076,0.40708 0.31963,0.79961 0.52302,1.20669h-18.79981v-8.46135h0.11623c1.90323,-0.13085 3.44324,-1.67192 3.55947,-3.57645v-0.07269l0.07264,-0.02908c1.0751,-0.46523 1.77247,-1.52653 1.77247,-2.70414v-3.27114c0,-0.59607 0.27604,-1.09038 0.78454,-1.39569c2.12115,-1.26484 3.89362,-3.05306 5.12854,-5.19021c1.2785,-2.1953 1.94681,-4.71044 1.94681,-7.2692c0,-7.99612 -6.49421,-14.49479 -14.48486,-14.49479c-7.99064,0 -14.48486,6.49867 -14.48486,14.49479c0,2.55876 0.66831,5.0739 1.94681,7.2692c1.23492,2.13715 3.00739,3.92537 5.12854,5.19021c0.5085,0.30531 0.78454,0.79961 0.78454,1.39569v3.27114c0,1.17761 0.69737,2.22438 1.77247,2.70414l0.07264,0.02908v0.07269c0.11623,1.90453 1.65624,3.4456 3.55947,3.57645h0.11623v9.56627c0,0.61061 0.49397,1.10492 1.10416,1.10492h19.1049c0.04359,0.17446 0.11623,0.34892 0.26151,0.49431l1.77247,1.77369c0.2034,0.189 0.45038,0.29077 0.72642,0.29077c0.23246,0 0.46491,-0.07269 0.63925,-0.21808l1.08963,-0.85777c0.45038,0.23261 0.90076,0.42161 1.40926,0.567l0.17434,1.39569c0.07264,0.52338 0.49397,0.90138 1.01699,0.90138h2.48436c0.53755,0 0.97341,-0.39254 1.01699,-0.91592l0.17434,-1.39569c0.43585,-0.13085 0.88624,-0.30531 1.40926,-0.567l1.10416,0.85777c0.17434,0.14538 0.4068,0.21808 0.63925,0.21808c0.27604,0 0.53755,-0.11631 0.72642,-0.30531l1.75794,-1.75915c0.37774,-0.378 0.4068,-0.945 0.08717,-1.36661l-0.77001,-1.00315c0.26151,-0.45069 0.47944,-0.945 0.68284,-1.52653l1.20586,-0.14538c0.52302,-0.07269 0.90076,-0.50884 0.90076,-1.01769v-2.48607c0,-0.52338 -0.39227,-0.95953 -0.91529,-1.01769zM15.10958,32.08625c-3.70475,-2.20984 -6.01478,-6.25151 -6.01478,-10.56942c0,-6.7749 5.50628,-12.29949 12.29106,-12.29949c6.78478,0 12.29106,5.51005 12.29106,12.29949c0,4.31791 -2.29549,8.35958 -6.01478,10.56942c-1.1768,0.71238 -1.85964,1.90453 -1.85964,3.27114v0.81415h-1.77247v-9.47904h0.1017c2.92022,-0.72692 4.80892,-2.48607 4.80892,-4.52144c0,-2.03538 -1.59813,-3.56191 -3.55947,-3.56191c-1.96134,0 -3.54494,1.59922 -3.54494,3.56191v2.60237h-0.43585h-0.45038v-2.60237c0,-1.96268 -1.59813,-3.56191 -3.54494,-3.56191c-1.94681,0 -3.54494,1.59922 -3.54494,3.56191c0,1.96268 1.8887,3.79452 4.80892,4.49237h0.08717v9.50812h-1.77247v-0.81415c0,-1.38115 -0.68284,-2.5733 -1.85964,-3.28568zM24.03005,24.43906v-2.25345c0,-0.74146 0.61019,-1.35207 1.35115,-1.35207c0.74095,0 1.35115,0.61061 1.35115,1.35207c0,0.84323 -1.00246,1.70099 -2.55701,2.1953l-0.15981,0.05815zM21.83625,26.98328v9.20281h-0.88624v-9.20281h0.45038zM18.75622,22.1856v2.25345l-0.15981,-0.05815c-1.55454,-0.49431 -2.55701,-1.35207 -2.55701,-2.1953c0,-0.74146 0.61019,-1.35207 1.35115,-1.35207c0.74095,0 1.35115,0.61061 1.35115,1.35207zM17.7247,39.36999c-0.4068,0 -0.74095,-0.33438 -0.74095,-0.74146v-0.24715h8.6299l0.2034,0.04362v0.189c0,0.40708 -0.33415,0.74146 -0.74095,0.74146h-7.35139zM20.42699,42.8156c-0.68284,0 -1.29303,-0.43615 -1.52549,-1.07584l-0.05811,-0.15992h5.08496l-0.05811,0.15992c-0.23246,0.63969 -0.84265,1.07584 -1.52549,1.07584zM57.43094,50.25926l-1.03152,0.13085c-0.43585,0.04362 -0.79906,0.378 -0.91529,0.81415c-0.21793,0.84323 -0.56661,1.6283 -1.04605,2.31161c-0.27604,0.378 -0.26151,0.90138 0.02906,1.27938l0.71189,0.91592l-0.52302,0.52338l-0.98793,-0.77054c-0.18887,-0.14538 -0.42132,-0.23261 -0.66831,-0.23261c-0.2034,0 -0.4068,0.05815 -0.56661,0.15992c-0.69737,0.43615 -1.43832,0.72692 -2.20832,0.88684c-0.45038,0.08723 -0.78454,0.45069 -0.85718,0.91592l-0.15981,1.27938h-0.74095l-0.15981,-1.27938c-0.05811,-0.46523 -0.4068,-0.82869 -0.84265,-0.91592c-0.77001,-0.15992 -1.52549,-0.46523 -2.22285,-0.90138c-0.17434,-0.10177 -0.37774,-0.15992 -0.56661,-0.15992c-0.24698,0 -0.47944,0.08723 -0.66831,0.23261l-0.98793,0.77054l-0.52302,-0.52338l0.71189,-0.91592c0.29057,-0.378 0.3051,-0.88684 0.02906,-1.27938c-0.49397,-0.71238 -0.84265,-1.48292 -1.04605,-2.31161c-0.1017,-0.43615 -0.46491,-0.756 -0.91529,-0.82869l-1.04605,-0.13085v-0.81415l1.04605,-0.13085c0.43585,-0.05815 0.79906,-0.378 0.91529,-0.81415c0.21793,-0.84323 0.56661,-1.6283 1.04605,-2.31161c0.27604,-0.378 0.26151,-0.90138 -0.02906,-1.27938l-0.71189,-0.91592l0.52302,-0.52338l0.98793,0.77054c0.18887,0.14538 0.42132,0.23261 0.66831,0.23261c0.2034,0 0.4068,-0.05815 0.56661,-0.15992c0.69737,-0.43615 1.43832,-0.72692 2.20832,-0.88684c0.45038,-0.08723 0.78454,-0.45069 0.85718,-0.91592l0.15981,-1.27938h0.74095l0.15981,1.27938c0.05811,0.46523 0.4068,0.82869 0.84265,0.91592c0.78454,0.15992 1.52549,0.46523 2.22285,0.90138c0.17434,0.10177 0.37774,0.15992 0.56661,0.15992c0.24698,0 0.47944,-0.08723 0.66831,-0.23261l0.98793,-0.77054l0.52302,0.52338l-0.71189,0.91592c-0.29057,0.378 -0.3051,0.88684 -0.02906,1.27938c0.49397,0.71238 0.84265,1.48292 1.04605,2.31161c0.1017,0.43615 0.45038,0.756 0.91529,0.82869l1.04605,0.13085v0.81415z" vector-effect="non-scaling-stroke"/></g><defs><path id="path-17453174984142882" d="M29.24576,7.79258c0.17434,0.10177 0.34868,0.14538 0.55208,0.14538c0.39227,0 0.75548,-0.20354 0.95888,-0.55246l1.72888,-3.00945c0.14528,-0.24715 0.18887,-0.55246 0.11623,-0.82869c-0.07264,-0.29077 -0.26151,-0.52338 -0.5085,-0.66877c-0.15981,-0.10177 -0.34868,-0.14538 -0.55208,-0.14538c-0.39227,0 -0.75548,0.20354 -0.95888,0.55246l-1.72888,3.00945c-0.14528,0.24715 -0.18887,0.55246 -0.11623,0.82869c0.07264,0.29077 0.26151,0.52338 0.5085,0.66877zM35.9579,14.10225c0.18887,0 0.37774,-0.04362 0.55208,-0.14538l3.00739,-1.73007c0.26151,-0.14538 0.43585,-0.378 0.5085,-0.66877c0.07264,-0.27623 0.04359,-0.58154 -0.11623,-0.82869c-0.18887,-0.33438 -0.56661,-0.55246 -0.95888,-0.55246c-0.18887,0 -0.37774,0.04362 -0.55208,0.14538l-3.00739,1.73007c-0.52302,0.30531 -0.69737,0.97407 -0.4068,1.49746c0.18887,0.33438 0.56661,0.55246 0.95888,0.55246zM21.4004,5.68452c0.61019,0 1.10416,-0.49431 1.10416,-1.10492v-3.47468c0,-0.61061 -0.49397,-1.10492 -1.10416,-1.10492c-0.61019,0 -1.10416,0.49431 -1.10416,1.10492v3.47468c0,0.61061 0.49397,1.10492 1.10416,1.10492zM34.99902,29.2658c-0.14528,0.24715 -0.18887,0.55246 -0.11623,0.82869c0.07264,0.29077 0.26151,0.52338 0.5085,0.66877l3.00739,1.74461c0.17434,0.10177 0.34868,0.14538 0.55208,0.14538c0.39227,0 0.75548,-0.20354 0.95888,-0.55246c0.3051,-0.52338 0.11623,-1.19215 -0.4068,-1.49746l-3.00739,-1.73007c-0.17434,-0.10177 -0.36321,-0.14538 -0.55208,-0.14538c-0.39227,0 -0.75548,0.20354 -0.95888,0.55246zM12.04408,7.38551c0.2034,0.33438 0.56661,0.55246 0.95888,0.55246c0.18887,0 0.37774,-0.04362 0.55208,-0.14538c0.24698,-0.14538 0.43585,-0.378 0.5085,-0.66877c0.07264,-0.29077 0.04359,-0.58154 -0.11623,-0.84323l-1.72888,-3.00945c-0.2034,-0.33438 -0.56661,-0.55246 -0.95888,-0.55246c-0.18887,0 -0.37774,0.05815 -0.55208,0.14538c-0.52302,0.30531 -0.69737,0.97407 -0.4068,1.49746l1.72888,3.00945zM3.28343,12.21226l3.00739,1.73007c0.17434,0.10177 0.34868,0.14538 0.55208,0.14538c0.39227,0 0.75548,-0.20354 0.95888,-0.55246c0.3051,-0.52338 0.11623,-1.20669 -0.4068,-1.49746l-3.00739,-1.73007c-0.17434,-0.10177 -0.36321,-0.14538 -0.55208,-0.14538c-0.39227,0 -0.75548,0.21808 -0.95888,0.55246c-0.14528,0.24715 -0.18887,0.55246 -0.11623,0.82869c0.07264,0.27623 0.26151,0.52338 0.5085,0.66877zM6.82837,28.72788c-0.18887,0 -0.37774,0.04362 -0.55208,0.14538l-3.00739,1.74461c-0.24698,0.14538 -0.43585,0.378 -0.5085,0.66877c-0.07264,0.29077 -0.04359,0.58154 0.11623,0.84323c0.18887,0.33438 0.56661,0.55246 0.95888,0.55246c0.18887,0 0.37774,-0.04362 0.55208,-0.14538l3.00739,-1.74461c0.52302,-0.30531 0.69737,-0.97407 0.4068,-1.49746c-0.2034,-0.33438 -0.56661,-0.55246 -0.95888,-0.55246zM5.361,22.1856c0.2034,-0.20354 0.31963,-0.47977 0.31963,-0.77054c0,-0.61061 -0.49397,-1.10492 -1.10416,-1.10492h-3.4723c-0.61019,0 -1.10416,0.49431 -1.10416,1.10492c0,0.61061 0.49397,1.10492 1.10416,1.10492h3.4723c0.29057,0 0.56661,-0.11631 0.77001,-0.31984zM48.8301,45.62151c-2.46984,0 -4.48929,2.02084 -4.48929,4.49237c0,2.47153 2.01945,4.49237 4.48929,4.49237c2.46984,0 4.48929,-2.02084 4.48929,-4.49237c0,-2.47153 -2.01945,-4.49237 -4.48929,-4.49237zM48.8301,52.93432c-1.55454,0 -2.81852,-1.26484 -2.81852,-2.82045c0,-1.55561 1.26397,-2.82045 2.81852,-2.82045c1.55454,0 2.81852,1.26484 2.81852,2.82045c0,1.55561 -1.26397,2.82045 -2.81852,2.82045zM58.09925,47.56965l-1.20586,-0.14538c-0.17434,-0.50884 -0.39227,-1.00315 -0.68284,-1.52653l0.78454,-1.00315c0.31963,-0.42161 0.29057,-0.98861 -0.08717,-1.36661l-1.77247,-1.77369c-0.2034,-0.189 -0.45038,-0.29077 -0.72642,-0.29077c-0.23246,0 -0.46491,0.07269 -0.63925,0.21808l-1.08963,0.85777c-0.45038,-0.23261 -0.90076,-0.40708 -1.40926,-0.567l-0.17434,-1.39569c-0.07264,-0.52338 -0.49397,-0.90138 -1.01699,-0.90138h-0.21793v-18.2457c0,-0.61061 -0.49397,-1.10492 -1.10416,-1.10492h-10.56218c-0.61019,0 -1.10416,0.49431 -1.10416,1.10492c0,0.61061 0.49397,1.10492 1.10416,1.10492h9.47255v17.14078h-0.08717c-0.53755,0 -0.97341,0.39254 -1.01699,0.90138l-0.17434,1.39569c-0.43585,0.13085 -0.88624,0.30531 -1.40926,0.567l-1.08963,-0.85777c-0.17434,-0.14538 -0.4068,-0.21808 -0.63925,-0.21808c-0.27604,0 -0.53755,0.11631 -0.72642,0.30531l-1.75794,1.75915c-0.37774,0.378 -0.4068,0.945 -0.08717,1.36661l0.77001,1.00315c-0.26151,0.45069 -0.47944,0.945 -0.68284,1.52653l-1.20586,0.14538c-0.5085,0.07269 -0.90076,0.50884 -0.90076,1.01769v2.48607c0,0.52338 0.39227,0.95953 0.90076,1.01769l1.20586,0.14538c0.13076,0.40708 0.31963,0.79961 0.52302,1.20669h-18.79981v-8.46135h0.11623c1.90323,-0.13085 3.44324,-1.67192 3.55947,-3.57645v-0.07269l0.07264,-0.02908c1.0751,-0.46523 1.77247,-1.52653 1.77247,-2.70414v-3.27114c0,-0.59607 0.27604,-1.09038 0.78454,-1.39569c2.12115,-1.26484 3.89362,-3.05306 5.12854,-5.19021c1.2785,-2.1953 1.94681,-4.71044 1.94681,-7.2692c0,-7.99612 -6.49421,-14.49479 -14.48486,-14.49479c-7.99064,0 -14.48486,6.49867 -14.48486,14.49479c0,2.55876 0.66831,5.0739 1.94681,7.2692c1.23492,2.13715 3.00739,3.92537 5.12854,5.19021c0.5085,0.30531 0.78454,0.79961 0.78454,1.39569v3.27114c0,1.17761 0.69737,2.22438 1.77247,2.70414l0.07264,0.02908v0.07269c0.11623,1.90453 1.65624,3.4456 3.55947,3.57645h0.11623v9.56627c0,0.61061 0.49397,1.10492 1.10416,1.10492h19.1049c0.04359,0.17446 0.11623,0.34892 0.26151,0.49431l1.77247,1.77369c0.2034,0.189 0.45038,0.29077 0.72642,0.29077c0.23246,0 0.46491,-0.07269 0.63925,-0.21808l1.08963,-0.85777c0.45038,0.23261 0.90076,0.42161 1.40926,0.567l0.17434,1.39569c0.07264,0.52338 0.49397,0.90138 1.01699,0.90138h2.48436c0.53755,0 0.97341,-0.39254 1.01699,-0.91592l0.17434,-1.39569c0.43585,-0.13085 0.88624,-0.30531 1.40926,-0.567l1.10416,0.85777c0.17434,0.14538 0.4068,0.21808 0.63925,0.21808c0.27604,0 0.53755,-0.11631 0.72642,-0.30531l1.75794,-1.75915c0.37774,-0.378 0.4068,-0.945 0.08717,-1.36661l-0.77001,-1.00315c0.26151,-0.45069 0.47944,-0.945 0.68284,-1.52653l1.20586,-0.14538c0.52302,-0.07269 0.90076,-0.50884 0.90076,-1.01769v-2.48607c0,-0.52338 -0.39227,-0.95953 -0.91529,-1.01769zM15.10958,32.08625c-3.70475,-2.20984 -6.01478,-6.25151 -6.01478,-10.56942c0,-6.7749 5.50628,-12.29949 12.29106,-12.29949c6.78478,0 12.29106,5.51005 12.29106,12.29949c0,4.31791 -2.29549,8.35958 -6.01478,10.56942c-1.1768,0.71238 -1.85964,1.90453 -1.85964,3.27114v0.81415h-1.77247v-9.47904h0.1017c2.92022,-0.72692 4.80892,-2.48607 4.80892,-4.52144c0,-2.03538 -1.59813,-3.56191 -3.55947,-3.56191c-1.96134,0 -3.54494,1.59922 -3.54494,3.56191v2.60237h-0.43585h-0.45038v-2.60237c0,-1.96268 -1.59813,-3.56191 -3.54494,-3.56191c-1.94681,0 -3.54494,1.59922 -3.54494,3.56191c0,1.96268 1.8887,3.79452 4.80892,4.49237h0.08717v9.50812h-1.77247v-0.81415c0,-1.38115 -0.68284,-2.5733 -1.85964,-3.28568zM24.03005,24.43906v-2.25345c0,-0.74146 0.61019,-1.35207 1.35115,-1.35207c0.74095,0 1.35115,0.61061 1.35115,1.35207c0,0.84323 -1.00246,1.70099 -2.55701,2.1953l-0.15981,0.05815zM21.83625,26.98328v9.20281h-0.88624v-9.20281h0.45038zM18.75622,22.1856v2.25345l-0.15981,-0.05815c-1.55454,-0.49431 -2.55701,-1.35207 -2.55701,-2.1953c0,-0.74146 0.61019,-1.35207 1.35115,-1.35207c0.74095,0 1.35115,0.61061 1.35115,1.35207zM17.7247,39.36999c-0.4068,0 -0.74095,-0.33438 -0.74095,-0.74146v-0.24715h8.6299l0.2034,0.04362v0.189c0,0.40708 -0.33415,0.74146 -0.74095,0.74146h-7.35139zM20.42699,42.8156c-0.68284,0 -1.29303,-0.43615 -1.52549,-1.07584l-0.05811,-0.15992h5.08496l-0.05811,0.15992c-0.23246,0.63969 -0.84265,1.07584 -1.52549,1.07584zM57.43094,50.25926l-1.03152,0.13085c-0.43585,0.04362 -0.79906,0.378 -0.91529,0.81415c-0.21793,0.84323 -0.56661,1.6283 -1.04605,2.31161c-0.27604,0.378 -0.26151,0.90138 0.02906,1.27938l0.71189,0.91592l-0.52302,0.52338l-0.98793,-0.77054c-0.18887,-0.14538 -0.42132,-0.23261 -0.66831,-0.23261c-0.2034,0 -0.4068,0.05815 -0.56661,0.15992c-0.69737,0.43615 -1.43832,0.72692 -2.20832,0.88684c-0.45038,0.08723 -0.78454,0.45069 -0.85718,0.91592l-0.15981,1.27938h-0.74095l-0.15981,-1.27938c-0.05811,-0.46523 -0.4068,-0.82869 -0.84265,-0.91592c-0.77001,-0.15992 -1.52549,-0.46523 -2.22285,-0.90138c-0.17434,-0.10177 -0.37774,-0.15992 -0.56661,-0.15992c-0.24698,0 -0.47944,0.08723 -0.66831,0.23261l-0.98793,0.77054l-0.52302,-0.52338l0.71189,-0.91592c0.29057,-0.378 0.3051,-0.88684 0.02906,-1.27938c-0.49397,-0.71238 -0.84265,-1.48292 -1.04605,-2.31161c-0.1017,-0.43615 -0.46491,-0.756 -0.91529,-0.82869l-1.04605,-0.13085v-0.81415l1.04605,-0.13085c0.43585,-0.05815 0.79906,-0.378 0.91529,-0.81415c0.21793,-0.84323 0.56661,-1.6283 1.04605,-2.31161c0.27604,-0.378 0.26151,-0.90138 -0.02906,-1.27938l-0.71189,-0.91592l0.52302,-0.52338l0.98793,0.77054c0.18887,0.14538 0.42132,0.23261 0.66831,0.23261c0.2034,0 0.4068,-0.05815 0.56661,-0.15992c0.69737,-0.43615 1.43832,-0.72692 2.20832,-0.88684c0.45038,-0.08723 0.78454,-0.45069 0.85718,-0.91592l0.15981,-1.27938h0.74095l0.15981,1.27938c0.05811,0.46523 0.4068,0.82869 0.84265,0.91592c0.78454,0.15992 1.52549,0.46523 2.22285,0.90138c0.17434,0.10177 0.37774,0.15992 0.56661,0.15992c0.24698,0 0.47944,-0.08723 0.66831,-0.23261l0.98793,-0.77054l0.52302,0.52338l-0.71189,0.91592c-0.29057,0.378 -0.3051,0.88684 -0.02906,1.27938c0.49397,0.71238 0.84265,1.48292 1.04605,2.31161c0.1017,0.43615 0.45038,0.756 0.91529,0.82869l1.04605,0.13085v0.81415z" vector-effect="non-scaling-stroke"/><linearGradient id="gradient-17453174993234868" x1="82%" y1="88%" x2="18%" y2="12%" vector-effect="non-scaling-stroke"><stop offset="0%" stop-color="rgb(181,245,140)" stop-opacity="1" vector-effect="non-scaling-stroke"/><stop offset="100%" stop-color="rgb(0,89,178)" stop-opacity="1" vector-effect="non-scaling-stroke"/></linearGradient></defs></g></svg>