<svg height="52.999980000000015" overflow="visible" viewBox="0 0 60.00002000000001 52.999980000000015" width="60.00002000000001" xmlns="http://www.w3.org/2000/svg"><g><defs><path id="path-17455845325202936" d="M57.42489,39.68069h-2.90619v-9.98044c0,-2.39868 -1.98651,-4.35138 -4.42673,-4.35138h-11.36726c-0.42918,-4.06209 -3.72777,-7.30453 -7.86021,-7.7264v-4.30316h3.27406c1.42244,0 2.58737,-1.1451 2.58737,-2.54332v-8.23266c0,-1.39823 -1.16493,-2.54332 -2.58737,-2.54332h-8.37523c-1.42244,0 -2.58737,1.1451 -2.58737,2.54332v8.23266c0,1.39823 1.16493,2.54332 2.58737,2.54332h3.27406v4.30316c-4.13243,0.42188 -7.43102,3.66432 -7.86021,7.7264h-10.88903c-2.44022,0 -4.42673,1.9527 -4.42673,4.35138v9.98044h-3.27406c-1.42244,0 -2.58737,1.1451 -2.58737,2.54332v8.23266c0,1.39823 1.16493,2.54332 2.58737,2.54332h8.37523c1.42244,0 2.58737,-1.1451 2.58737,-2.54332v-8.23266c0,-1.39823 -1.16493,-2.54332 -2.58737,-2.54332h-3.27406v-9.98044c0,-1.39823 1.16493,-2.54332 2.58737,-2.54332h10.88903c0.42918,4.06209 3.72777,7.30453 7.86021,7.7264v4.79736h-3.27406c-1.42244,0 -2.58737,1.1451 -2.58737,2.54332v8.23266c0,1.39823 1.16493,2.54332 2.58737,2.54332h8.37523c1.42244,0 2.58737,-1.1451 2.58737,-2.54332v-8.23266c0,-1.39823 -1.16493,-2.54332 -2.58737,-2.54332h-3.27406v-4.79736c4.13243,-0.42188 7.43102,-3.66432 7.86021,-7.7264h11.36726c1.42244,0 2.58737,1.13305 2.58737,2.54332v9.98044h-3.62968c-1.42244,0 -2.58737,1.1451 -2.58737,2.54332v8.23266c0,1.39823 1.16493,2.54332 2.58737,2.54332h8.37523c1.42244,0 2.58737,-1.1451 2.58737,-2.54332v-8.23266c0,-1.39823 -1.16493,-2.54332 -2.58737,-2.54332zM25.01533,10.78804v-8.23266c0,-0.40982 0.33109,-0.73527 0.74801,-0.73527h8.37523c0.41692,0 0.74801,0.32545 0.74801,0.73527v8.23266c0,0.40982 -0.33109,0.73527 -0.74801,0.73527h-8.37523c-0.41692,0 -0.74801,-0.32545 -0.74801,-0.73527zM11.72287,42.22402v8.23266c0,0.40982 -0.33109,0.73527 -0.74801,0.73527h-8.37523c-0.41692,0 -0.74801,-0.32545 -0.74801,-0.73527v-8.23266c0,-0.40982 0.33109,-0.73527 0.74801,-0.73527h8.37523c0.41692,0 0.74801,0.32545 0.74801,0.73527zM34.88657,42.22402v8.23266c0,0.40982 -0.33109,0.73527 -0.74801,0.73527h-8.37523c-0.41692,0 -0.74801,-0.32545 -0.74801,-0.73527v-8.23266c0,-0.40982 0.33109,-0.73527 0.74801,-0.73527h8.37523c0.41692,0 0.74801,0.32545 0.74801,0.73527zM29.95708,33.12349c-3.8504,0 -6.98958,-3.08574 -6.98958,-6.87059c0,-3.78485 3.12692,-6.87059 6.98958,-6.87059c3.86266,0 6.98958,3.08574 6.98958,6.87059c0,3.78485 -3.13918,6.87059 -6.98958,6.87059zM58.1729,50.45668c0,0.40982 -0.33109,0.73527 -0.74801,0.73527h-8.37523c-0.41692,0 -0.74801,-0.32545 -0.74801,-0.73527v-8.23266c0,-0.40982 0.33109,-0.73527 0.74801,-0.73527h8.37523c0.41692,0 0.74801,0.32545 0.74801,0.73527zM34.18761,25.33682l-0.63765,-0.07232v-0.04821c-0.0981,-0.25313 -0.20846,-0.4942 -0.34335,-0.72322l-0.02452,-0.04821l0.41692,-0.51831c0.11036,-0.13259 0.0981,-0.32545 -0.02452,-0.44599l-0.80932,-0.79554c-0.06131,-0.06027 -0.14715,-0.09643 -0.24525,-0.09643c-0.07357,0 -0.14715,0.02411 -0.20846,0.07232l-0.56407,0.43393l-0.04905,-0.02411c-0.22072,-0.10848 -0.45371,-0.20491 -0.6867,-0.27723h-0.04905l-0.08584,-0.72322c-0.02452,-0.16875 -0.17167,-0.30134 -0.33109,-0.30134h-1.1404c-0.17167,0 -0.31882,0.13259 -0.33109,0.30134l-0.08584,0.71117h-0.04905c-0.23299,0.08438 -0.46597,0.18081 -0.6867,0.28929l-0.04905,0.02411l-0.56407,-0.43393c0,0 -0.13489,-0.07232 -0.20846,-0.07232c-0.08584,0 -0.18394,0.03616 -0.24525,0.09643l-0.80932,0.79554c-0.12262,0.12054 -0.13489,0.30134 -0.02452,0.44599l0.40466,0.51831l-0.02452,0.04821c-0.13489,0.22902 -0.24525,0.47009 -0.33109,0.72322v0.04821l-0.64991,0.07232c-0.17167,0.02411 -0.30656,0.16875 -0.30656,0.32545v1.12099c0,0.16875 0.13489,0.3134 0.30656,0.32545l0.63765,0.07232v0.04821c0.0981,0.25313 0.20846,0.4942 0.34335,0.72322l0.02452,0.04821l-0.41692,0.51831c-0.11036,0.13259 -0.0981,0.32545 0.02452,0.44599l0.80932,0.79554c0.06131,0.06027 0.14715,0.09643 0.24525,0.09643c0.07357,0 0.14715,-0.02411 0.20846,-0.07232l0.56407,-0.43393l0.04905,0.02411c0.22072,0.10848 0.45371,0.20491 0.6867,0.27723h0.04905l0.08584,0.72322c0.02452,0.16875 0.17167,0.30134 0.33109,0.30134h1.1404c0.17167,0 0.31882,-0.13259 0.33109,-0.30134l0.08584,-0.71117h0.04905c0.23299,-0.08438 0.46597,-0.18081 0.6867,-0.28929l0.04905,-0.02411l0.56407,0.43393c0,0 0.13489,0.07232 0.20846,0.07232c0.08584,0 0.18394,-0.03616 0.24525,-0.09643l0.80932,-0.79554c0.12262,-0.12054 0.13489,-0.30134 0.02452,-0.44599l-0.40466,-0.51831l0.02452,-0.04821c0.13489,-0.22902 0.24525,-0.47009 0.33109,-0.72322v-0.04821l0.64991,-0.07232c0.17167,-0.02411 0.30656,-0.16875 0.30656,-0.32545v-1.12099c0,-0.16875 -0.13489,-0.3134 -0.30656,-0.32545zM32.76517,26.22879v0.20491l-0.40466,0.04821c-0.0981,0 -0.18394,0.08438 -0.20846,0.18081c-0.07357,0.27723 -0.18394,0.51831 -0.34335,0.74733c-0.06131,0.08438 -0.06131,0.20491 0,0.28929l0.26977,0.34956l-0.28204,0.27723l-0.36787,-0.28929c0,0 -0.0981,-0.04821 -0.14715,-0.04821c-0.04905,0 -0.0981,0 -0.13489,0.03616c-0.23299,0.14464 -0.47823,0.24107 -0.72348,0.28929c-0.0981,0.02411 -0.18394,0.10848 -0.1962,0.20491l-0.06131,0.47009h-0.3924l-0.06131,-0.47009c-0.01226,-0.10848 -0.0981,-0.19286 -0.1962,-0.20491c-0.25751,-0.04821 -0.50276,-0.14464 -0.72348,-0.28929c-0.03679,-0.02411 -0.08584,-0.03616 -0.13489,-0.03616c-0.04905,0 -0.11036,0.01205 -0.14715,0.04821l-0.36787,0.28929l-0.28204,-0.27723l0.26977,-0.34956c0.06131,-0.08438 0.07357,-0.20491 0,-0.28929c-0.15941,-0.22902 -0.28204,-0.48215 -0.34335,-0.74733c-0.02452,-0.09643 -0.11036,-0.16875 -0.20846,-0.18081l-0.40466,-0.04821v-0.40982l0.40466,-0.04821c0.0981,0 0.18394,-0.08438 0.20846,-0.18081c0.07357,-0.26518 0.18394,-0.51831 0.34335,-0.74733c0.06131,-0.08438 0.06131,-0.20491 0,-0.28929l-0.26977,-0.34956l0.28204,-0.27723l0.36787,0.28929c0,0 0.0981,0.04821 0.14715,0.04821c0.04905,0 0.0981,0 0.13489,-0.03616c0.23299,-0.14464 0.47823,-0.24107 0.72348,-0.28929c0.0981,-0.02411 0.18394,-0.10848 0.1962,-0.20491l0.06131,-0.47009h0.3924l0.06131,0.47009c0.01226,0.10848 0.0981,0.19286 0.1962,0.20491c0.25751,0.04821 0.50276,0.14464 0.72348,0.28929c0.03679,0.02411 0.08584,0.03616 0.13489,0.03616c0.04905,0 0.11036,-0.01205 0.14715,-0.04821l0.36787,-0.28929l0.28204,0.27723l-0.26977,0.34956c-0.06131,0.08438 -0.07357,0.20491 0,0.28929c0.15941,0.22902 0.28204,0.48215 0.34335,0.74733c0.02452,0.09643 0.11036,0.16875 0.20846,0.18081l0.40466,0.04821zM29.1355,26.22879c0,-0.47265 0.3898,-0.85581 0.87063,-0.85581c0.48084,0 0.87063,0.38316 0.87063,0.85581c0,0.47265 -0.3898,0.85581 -0.87063,0.85581c-0.48084,0 -0.87063,-0.38316 -0.87063,-0.85581z" vector-effect="non-scaling-stroke"/><linearGradient id="gradient-174558453393418703" x1="15%" y1="15%" x2="85%" y2="85%" vector-effect="non-scaling-stroke"><stop offset="0%" stop-color="rgb(0,89,178)" stop-opacity="1" vector-effect="non-scaling-stroke"/><stop offset="100%" stop-color="rgb(181,245,140)" stop-opacity="1" vector-effect="non-scaling-stroke"/></linearGradient></defs><path style="stroke-width: 0; stroke-linecap: butt; stroke-linejoin: miter; fill: url(&quot;#gradient-174558453393418703&quot;);" d="M57.42489,39.68069h-2.90619v-9.98044c0,-2.39868 -1.98651,-4.35138 -4.42673,-4.35138h-11.36726c-0.42918,-4.06209 -3.72777,-7.30453 -7.86021,-7.7264v-4.30316h3.27406c1.42244,0 2.58737,-1.1451 2.58737,-2.54332v-8.23266c0,-1.39823 -1.16493,-2.54332 -2.58737,-2.54332h-8.37523c-1.42244,0 -2.58737,1.1451 -2.58737,2.54332v8.23266c0,1.39823 1.16493,2.54332 2.58737,2.54332h3.27406v4.30316c-4.13243,0.42188 -7.43102,3.66432 -7.86021,7.7264h-10.88903c-2.44022,0 -4.42673,1.9527 -4.42673,4.35138v9.98044h-3.27406c-1.42244,0 -2.58737,1.1451 -2.58737,2.54332v8.23266c0,1.39823 1.16493,2.54332 2.58737,2.54332h8.37523c1.42244,0 2.58737,-1.1451 2.58737,-2.54332v-8.23266c0,-1.39823 -1.16493,-2.54332 -2.58737,-2.54332h-3.27406v-9.98044c0,-1.39823 1.16493,-2.54332 2.58737,-2.54332h10.88903c0.42918,4.06209 3.72777,7.30453 7.86021,7.7264v4.79736h-3.27406c-1.42244,0 -2.58737,1.1451 -2.58737,2.54332v8.23266c0,1.39823 1.16493,2.54332 2.58737,2.54332h8.37523c1.42244,0 2.58737,-1.1451 2.58737,-2.54332v-8.23266c0,-1.39823 -1.16493,-2.54332 -2.58737,-2.54332h-3.27406v-4.79736c4.13243,-0.42188 7.43102,-3.66432 7.86021,-7.7264h11.36726c1.42244,0 2.58737,1.13305 2.58737,2.54332v9.98044h-3.62968c-1.42244,0 -2.58737,1.1451 -2.58737,2.54332v8.23266c0,1.39823 1.16493,2.54332 2.58737,2.54332h8.37523c1.42244,0 2.58737,-1.1451 2.58737,-2.54332v-8.23266c0,-1.39823 -1.16493,-2.54332 -2.58737,-2.54332zM25.01533,10.78804v-8.23266c0,-0.40982 0.33109,-0.73527 0.74801,-0.73527h8.37523c0.41692,0 0.74801,0.32545 0.74801,0.73527v8.23266c0,0.40982 -0.33109,0.73527 -0.74801,0.73527h-8.37523c-0.41692,0 -0.74801,-0.32545 -0.74801,-0.73527zM11.72287,42.22402v8.23266c0,0.40982 -0.33109,0.73527 -0.74801,0.73527h-8.37523c-0.41692,0 -0.74801,-0.32545 -0.74801,-0.73527v-8.23266c0,-0.40982 0.33109,-0.73527 0.74801,-0.73527h8.37523c0.41692,0 0.74801,0.32545 0.74801,0.73527zM34.88657,42.22402v8.23266c0,0.40982 -0.33109,0.73527 -0.74801,0.73527h-8.37523c-0.41692,0 -0.74801,-0.32545 -0.74801,-0.73527v-8.23266c0,-0.40982 0.33109,-0.73527 0.74801,-0.73527h8.37523c0.41692,0 0.74801,0.32545 0.74801,0.73527zM29.95708,33.12349c-3.8504,0 -6.98958,-3.08574 -6.98958,-6.87059c0,-3.78485 3.12692,-6.87059 6.98958,-6.87059c3.86266,0 6.98958,3.08574 6.98958,6.87059c0,3.78485 -3.13918,6.87059 -6.98958,6.87059zM58.1729,50.45668c0,0.40982 -0.33109,0.73527 -0.74801,0.73527h-8.37523c-0.41692,0 -0.74801,-0.32545 -0.74801,-0.73527v-8.23266c0,-0.40982 0.33109,-0.73527 0.74801,-0.73527h8.37523c0.41692,0 0.74801,0.32545 0.74801,0.73527zM34.18761,25.33682l-0.63765,-0.07232v-0.04821c-0.0981,-0.25313 -0.20846,-0.4942 -0.34335,-0.72322l-0.02452,-0.04821l0.41692,-0.51831c0.11036,-0.13259 0.0981,-0.32545 -0.02452,-0.44599l-0.80932,-0.79554c-0.06131,-0.06027 -0.14715,-0.09643 -0.24525,-0.09643c-0.07357,0 -0.14715,0.02411 -0.20846,0.07232l-0.56407,0.43393l-0.04905,-0.02411c-0.22072,-0.10848 -0.45371,-0.20491 -0.6867,-0.27723h-0.04905l-0.08584,-0.72322c-0.02452,-0.16875 -0.17167,-0.30134 -0.33109,-0.30134h-1.1404c-0.17167,0 -0.31882,0.13259 -0.33109,0.30134l-0.08584,0.71117h-0.04905c-0.23299,0.08438 -0.46597,0.18081 -0.6867,0.28929l-0.04905,0.02411l-0.56407,-0.43393c0,0 -0.13489,-0.07232 -0.20846,-0.07232c-0.08584,0 -0.18394,0.03616 -0.24525,0.09643l-0.80932,0.79554c-0.12262,0.12054 -0.13489,0.30134 -0.02452,0.44599l0.40466,0.51831l-0.02452,0.04821c-0.13489,0.22902 -0.24525,0.47009 -0.33109,0.72322v0.04821l-0.64991,0.07232c-0.17167,0.02411 -0.30656,0.16875 -0.30656,0.32545v1.12099c0,0.16875 0.13489,0.3134 0.30656,0.32545l0.63765,0.07232v0.04821c0.0981,0.25313 0.20846,0.4942 0.34335,0.72322l0.02452,0.04821l-0.41692,0.51831c-0.11036,0.13259 -0.0981,0.32545 0.02452,0.44599l0.80932,0.79554c0.06131,0.06027 0.14715,0.09643 0.24525,0.09643c0.07357,0 0.14715,-0.02411 0.20846,-0.07232l0.56407,-0.43393l0.04905,0.02411c0.22072,0.10848 0.45371,0.20491 0.6867,0.27723h0.04905l0.08584,0.72322c0.02452,0.16875 0.17167,0.30134 0.33109,0.30134h1.1404c0.17167,0 0.31882,-0.13259 0.33109,-0.30134l0.08584,-0.71117h0.04905c0.23299,-0.08438 0.46597,-0.18081 0.6867,-0.28929l0.04905,-0.02411l0.56407,0.43393c0,0 0.13489,0.07232 0.20846,0.07232c0.08584,0 0.18394,-0.03616 0.24525,-0.09643l0.80932,-0.79554c0.12262,-0.12054 0.13489,-0.30134 0.02452,-0.44599l-0.40466,-0.51831l0.02452,-0.04821c0.13489,-0.22902 0.24525,-0.47009 0.33109,-0.72322v-0.04821l0.64991,-0.07232c0.17167,-0.02411 0.30656,-0.16875 0.30656,-0.32545v-1.12099c0,-0.16875 -0.13489,-0.3134 -0.30656,-0.32545zM32.76517,26.22879v0.20491l-0.40466,0.04821c-0.0981,0 -0.18394,0.08438 -0.20846,0.18081c-0.07357,0.27723 -0.18394,0.51831 -0.34335,0.74733c-0.06131,0.08438 -0.06131,0.20491 0,0.28929l0.26977,0.34956l-0.28204,0.27723l-0.36787,-0.28929c0,0 -0.0981,-0.04821 -0.14715,-0.04821c-0.04905,0 -0.0981,0 -0.13489,0.03616c-0.23299,0.14464 -0.47823,0.24107 -0.72348,0.28929c-0.0981,0.02411 -0.18394,0.10848 -0.1962,0.20491l-0.06131,0.47009h-0.3924l-0.06131,-0.47009c-0.01226,-0.10848 -0.0981,-0.19286 -0.1962,-0.20491c-0.25751,-0.04821 -0.50276,-0.14464 -0.72348,-0.28929c-0.03679,-0.02411 -0.08584,-0.03616 -0.13489,-0.03616c-0.04905,0 -0.11036,0.01205 -0.14715,0.04821l-0.36787,0.28929l-0.28204,-0.27723l0.26977,-0.34956c0.06131,-0.08438 0.07357,-0.20491 0,-0.28929c-0.15941,-0.22902 -0.28204,-0.48215 -0.34335,-0.74733c-0.02452,-0.09643 -0.11036,-0.16875 -0.20846,-0.18081l-0.40466,-0.04821v-0.40982l0.40466,-0.04821c0.0981,0 0.18394,-0.08438 0.20846,-0.18081c0.07357,-0.26518 0.18394,-0.51831 0.34335,-0.74733c0.06131,-0.08438 0.06131,-0.20491 0,-0.28929l-0.26977,-0.34956l0.28204,-0.27723l0.36787,0.28929c0,0 0.0981,0.04821 0.14715,0.04821c0.04905,0 0.0981,0 0.13489,-0.03616c0.23299,-0.14464 0.47823,-0.24107 0.72348,-0.28929c0.0981,-0.02411 0.18394,-0.10848 0.1962,-0.20491l0.06131,-0.47009h0.3924l0.06131,0.47009c0.01226,0.10848 0.0981,0.19286 0.1962,0.20491c0.25751,0.04821 0.50276,0.14464 0.72348,0.28929c0.03679,0.02411 0.08584,0.03616 0.13489,0.03616c0.04905,0 0.11036,-0.01205 0.14715,-0.04821l0.36787,-0.28929l0.28204,0.27723l-0.26977,0.34956c-0.06131,0.08438 -0.07357,0.20491 0,0.28929c0.15941,0.22902 0.28204,0.48215 0.34335,0.74733c0.02452,0.09643 0.11036,0.16875 0.20846,0.18081l0.40466,0.04821zM29.1355,26.22879c0,-0.47265 0.3898,-0.85581 0.87063,-0.85581c0.48084,0 0.87063,0.38316 0.87063,0.85581c0,0.47265 -0.3898,0.85581 -0.87063,0.85581c-0.48084,0 -0.87063,-0.38316 -0.87063,-0.85581z" transform="translate(0.000010000000003174137, -0.000010000000202126103) rotate(0)" vector-effect="non-scaling-stroke"/></g></svg>