<svg height="56.00001999999999" overflow="visible" viewBox="0 0 56.00005 56.00001999999999" width="56.00005" xmlns="http://www.w3.org/2000/svg"><g><defs><path id="path-17455845325212938" d="M28.03752,30.86122c-0.52523,0 -0.96293,-0.4373 -0.96293,-0.96207c0,-0.52477 -0.4377,-0.96207 -0.96293,-0.96207c-0.52523,0 -0.96293,0.4373 -0.96293,0.96207c0,1.24944 0.81286,2.31147 1.92586,2.72378v1.13699c0,0.52477 0.4377,0.96207 0.96293,0.96207c0.52523,0 0.96293,-0.4373 0.96293,-0.96207v-1.13699c1.1255,-0.39982 1.92586,-1.46185 1.92586,-2.72378c0,-1.58679 -1.30058,-2.89871 -2.9013,-2.89871c-0.52523,0 -0.96293,-0.4373 -0.96293,-0.96207c0,-0.52477 0.4377,-0.96207 0.96293,-0.96207c0.52523,0 0.96293,0.4373 0.96293,0.96207c0,0.52477 0.4377,0.96207 0.96293,0.96207c0.52523,0 0.96293,-0.4373 0.96293,-0.96207c0,-1.24944 -0.81286,-2.31147 -1.92586,-2.72378v-1.13699c0,-0.52477 -0.4377,-0.96207 -0.96293,-0.96207c-0.52523,0 -0.96293,0.4373 -0.96293,0.96207v1.13699c-1.1255,0.39982 -1.92586,1.46185 -1.92586,2.72378c0,1.58679 1.30058,2.89871 2.9013,2.89871c0.52523,0 0.96293,0.4373 0.96293,0.96207c0,0.52477 -0.4377,0.96207 -0.96293,0.96207zM21.92229,35.47166c-0.30013,0.4498 -0.17508,1.03704 0.27512,1.3369c1.73828,1.16198 3.76418,1.76171 5.85261,1.76171c5.85261,0 10.61724,-4.74788 10.61724,-10.60776c0,-5.85988 -4.75212,-10.60776 -10.61724,-10.60776c-5.86512,0 -10.61724,4.74788 -10.61724,10.60776c0,2.08657 0.61277,4.11066 1.76329,5.84739c0.30013,0.4498 0.9004,0.57474 1.3381,0.27488c0.4502,-0.29987 0.56275,-0.8996 0.27512,-1.3369c-0.95042,-1.41187 -1.43814,-3.06113 -1.43814,-4.78536c0,-4.78536 3.90174,-8.68362 8.69138,-8.68362c4.78964,0 8.69138,3.89826 8.69138,8.68362c0,4.78536 -3.90174,8.68362 -8.69138,8.68362c-1.71326,0 -3.364,-0.49978 -4.78964,-1.43686c-0.4502,-0.29987 -1.03796,-0.17492 -1.3381,0.27488zM16.45735,38.00803c0.15007,-0.14993 0.25011,-0.39982 0.27512,-0.61223c0.02501,-0.2249 -0.05002,-0.48728 -0.18758,-0.6622c-1.38812,-1.81169 -2.30103,-3.84828 -2.71371,-6.05979c-0.03752,-0.21241 -0.18758,-0.42481 -0.35016,-0.56225c-0.16257,-0.13744 -0.40018,-0.23739 -0.61277,-0.23739h-5.86512c-0.17508,0 -0.36266,0.06247 -0.50022,0.14993c-0.30013,0.18742 -0.50022,0.58724 -0.4502,0.93708c0.31264,2.29897 0.98794,4.51049 1.98839,6.58456l-3.65163,4.86033h-3.37651c-0.52523,0 -0.96293,0.4373 -0.96293,0.96207c0,0.52477 0.4377,0.96207 0.96293,0.96207h3.86423c0.30013,0 0.58776,-0.14993 0.77535,-0.38733l3.40152,-4.52298c0.55025,0.91209 1.16302,1.7992 1.85083,2.62383c0.16257,0.18742 0.41268,0.31236 0.6628,0.34984c0.27512,0.02499 0.57526,-0.08746 0.76284,-0.27488l4.12684,-4.12316zM11.24252,34.90942c-0.42519,-0.31236 -1.03796,-0.23739 -1.3506,0.18742l-0.53774,0.71218c-0.53774,-1.28693 -0.95042,-2.62383 -1.20054,-3.99822h3.95176c0.46271,1.92414 1.28808,3.76082 2.41358,5.39759l-2.77624,2.77376c-0.52523,-0.71218 -1.00045,-1.46185 -1.42564,-2.22401l1.1255,-1.49933c0.31264,-0.42481 0.23761,-1.03704 -0.18758,-1.3494zM52.16079,0c-1.8008,0 -3.28897,1.23695 -3.72666,2.89871h-3.02635c-0.37517,0 -0.72532,0.2249 -0.87539,0.57474l-3.11389,6.83445c-2.96382,-2.249 -6.5029,-3.77332 -10.35462,-4.28559c-0.23761,-0.02499 -0.52523,0.04998 -0.71282,0.19991c-0.2251,0.17492 -0.38767,0.47479 -0.38767,0.74967v5.84739c0,0.18742 0.08754,0.39982 0.18758,0.54975c0.13756,0.18742 0.36266,0.36234 0.58776,0.39982c5.77758,1.09951 10.41715,5.72245 11.50514,11.49487c0.08754,0.4373 0.51273,0.78715 0.95042,0.78715h5.85261c0.27512,0 0.57526,-0.14993 0.73783,-0.37483c0.15007,-0.18742 0.25011,-0.47479 0.21259,-0.72468c-0.71282,-5.27265 -3.31398,-9.94556 -7.06565,-13.36903l3.06387,-6.74699h2.41358c0.4377,1.66176 1.92586,2.89871 3.72666,2.89871c2.13845,0 3.86423,-1.72423 3.86423,-3.86078c0,-2.13655 -1.72577,-3.86078 -3.86423,-3.86078v0zM47.92139,24.10174h-3.93926c-1.43814,-5.92236 -6.15275,-10.63275 -12.08039,-12.06961v-3.93574c3.23895,0.62472 6.20277,2.0116 8.70389,3.99822l-0.9004,1.96162c-0.2251,0.48728 0,1.06203 0.48772,1.27443c0.48772,0.2249 1.06297,0 1.27557,-0.48728l0.65029,-1.44935c2.92631,2.83623 5.00223,6.53458 5.80259,10.68273zM52.16079,5.78492c-1.06297,0 -1.92586,-0.86212 -1.92586,-1.92414c0,-1.06203 0.86289,-1.92414 1.92586,-1.92414c1.06297,0 1.92586,0.86212 1.92586,1.92414c0,1.06203 -0.86289,1.92414 -1.92586,1.92414zM3.90174,10.60776c1.8008,0 3.28897,-1.23695 3.72666,-2.89871h3.50156l2.45109,3.42347c-4.01429,3.44846 -6.79053,8.30879 -7.52836,13.79384v0.06247c0,0 0,0.03748 0,0.06247c0,0.04998 0.02501,0.08746 0.02501,0.12494c0,0.06247 0.02501,0.12494 0.03752,0.18742c0.02501,0.06247 0.05002,0.09996 0.07503,0.16243c0.02501,0.06247 0.06253,0.09996 0.10004,0.14993c0.03752,0.04998 0.08754,0.08746 0.13756,0.12494c0.05002,0.03748 0.10004,0.07497 0.15007,0.09996c0.05002,0.02499 0.11255,0.04998 0.18758,0.06247c0.03752,0 0.07503,0.03748 0.11255,0.03748h5.99017c0.12506,0 0.23761,-0.02499 0.35016,-0.06247c0.03752,-0.02499 0.06253,-0.03748 0.10004,-0.06247c0.06253,-0.03748 0.13756,-0.07497 0.18758,-0.12494c0.03752,-0.02499 0.06253,-0.06247 0.08754,-0.09996c0.05002,-0.06247 0.08754,-0.09996 0.11255,-0.17492c0.02501,-0.04998 0.03752,-0.09996 0.06253,-0.14993c0,-0.03748 0.02501,-0.06247 0.03752,-0.09996c0.23761,-1.24944 0.65029,-2.4739 1.20054,-3.61089c0.23761,-0.48728 0.03752,-1.06203 -0.4502,-1.28693c-0.48772,-0.2249 -1.06297,-0.03748 -1.28808,0.4498c-0.51273,1.04953 -0.91291,2.17403 -1.18803,3.31102h-3.93926c0.86289,-4.49799 3.22644,-8.48371 6.55293,-11.38242l0.95042,1.3369c0.30013,0.42481 0.92541,0.52477 1.3506,0.2249c0.4377,-0.31236 0.52523,-0.91209 0.2251,-1.3494l-1.02546,-1.42436c2.32604,-1.67425 5.02724,-2.84873 7.95355,-3.41098v3.93574c-3.07637,0.73717 -5.85261,2.33646 -8.0536,4.66042c-0.36266,0.38733 -0.35016,0.98706 0.03752,1.36189c0.38767,0.36234 1.00045,0.34984 1.36311,-0.03748c2.10094,-2.22401 4.80214,-3.69835 7.79098,-4.2606c0.42519,-0.07497 0.78785,-0.52477 0.78785,-0.94958v-5.84739c0,-0.27488 -0.15007,-0.54975 -0.35016,-0.72468c-0.18758,-0.16243 -0.48772,-0.27488 -0.73783,-0.23739c-3.66414,0.48728 -7.04064,1.88666 -9.91693,3.94824l-2.6887,-3.76082c-0.18758,-0.24989 -0.47521,-0.39982 -0.78785,-0.39982h-4.00179c-0.4377,-1.66176 -1.92586,-2.89871 -3.72666,-2.89871c-2.13845,0 -3.86423,1.72423 -3.86423,3.86078c0,2.13655 1.72577,3.86078 3.86423,3.86078v0zM3.90174,4.82285c1.06297,0 1.92586,0.86212 1.92586,1.92414c0,1.06203 -0.86289,1.92414 -1.92586,1.92414c-1.06297,0 -1.92586,-0.86212 -1.92586,-1.92414c0,-1.06203 0.86289,-1.92414 1.92586,-1.92414zM49.27199,48.21598c-1.8008,0 -3.28897,1.23695 -3.72666,2.89871h-2.55114l-3.25145,-4.33556c2.05092,-1.26194 3.87673,-2.83623 5.40241,-4.6979c0.33765,-0.41232 0.27512,-1.02454 -0.13756,-1.36189c-0.41268,-0.33735 -1.02546,-0.27488 -1.36311,0.13744c-1.43814,1.74922 -3.15141,3.19857 -5.07727,4.37305l-1.08799,-1.44935c-0.31264,-0.42481 -0.92541,-0.51227 -1.3506,-0.18742c-0.42519,0.32485 -0.51273,0.92459 -0.18758,1.3494l0.92541,1.24944c-2.72622,1.3369 -5.77758,2.04909 -8.84145,2.04909c-3.66414,0 -7.20322,-0.97456 -10.3046,-2.81124l2.85127,-2.84873c2.30103,1.17448 4.85217,1.7992 7.45333,1.7992c7.60339,0 14.18133,-5.22267 15.93211,-12.53191h3.95176c-0.36266,1.87416 -0.96293,3.66087 -1.82582,5.34761c-0.23761,0.47479 -0.06253,1.04953 0.41268,1.29942c0.46271,0.23739 1.06297,0.06247 1.30058,-0.41232c1.13801,-2.19902 1.88834,-4.57296 2.22599,-7.05935c0.02501,-0.18742 -0.02501,-0.39982 -0.10004,-0.56225c-0.15007,-0.29987 -0.50022,-0.52477 -0.85038,-0.52477h-5.85261c-0.4377,0 -0.86289,0.36234 -0.95042,0.78715c-1.28808,6.80946 -7.26574,11.75725 -14.23135,11.75725c-2.51362,0 -4.98973,-0.64971 -7.15319,-1.88666c-0.35016,-0.19991 -0.87539,-0.13744 -1.16302,0.14993l-4.21438,4.21062c-0.40018,0.39982 -0.32515,1.16198 0.15007,1.48684c3.65163,2.4614 7.92854,3.76082 12.38053,3.76082c3.48906,0 6.9406,-0.83713 10.01697,-2.39893l3.68915,4.91031c0.18758,0.23739 0.46271,0.38733 0.77535,0.38733h3.02635c0.4377,1.66176 1.92586,2.89871 3.72666,2.89871c2.13845,0 3.86423,-1.72423 3.86423,-3.86078c0,-2.13655 -1.72577,-3.86078 -3.86423,-3.86078v-0.02499zM49.27199,54.00089c-1.06297,0 -1.92586,-0.86212 -1.92586,-1.92414c0,-1.06203 0.86289,-1.92414 1.92586,-1.92414c1.06297,0 1.92586,0.86212 1.92586,1.92414c0,1.06203 -0.86289,1.92414 -1.92586,1.92414zM1.01295,47.2539h3.86423c0.52523,0 0.96293,-0.4373 0.96293,-0.96207c0,-0.52477 -0.4377,-0.96207 -0.96293,-0.96207h-3.86423c-0.52523,0 -0.96293,0.4373 -0.96293,0.96207c0,0.52477 0.4377,0.96207 0.96293,0.96207zM1.01295,50.14012h6.75301c0.52523,0 0.96293,-0.4373 0.96293,-0.96207c0,-0.52477 -0.4377,-0.96207 -0.96293,-0.96207h-6.75301c-0.52523,0 -0.96293,0.4373 -0.96293,0.96207c0,0.52477 0.4377,0.96207 0.96293,0.96207zM8.7289,51.10219h-7.71594c-0.52523,0 -0.96293,0.4373 -0.96293,0.96207c0,0.52477 0.4377,0.96207 0.96293,0.96207h7.71594c0.52523,0 0.96293,-0.4373 0.96293,-0.96207c0,-0.52477 -0.4377,-0.96207 -0.96293,-0.96207zM5.84011,54.00089h-4.82715c-0.52523,0 -0.96293,0.4373 -0.96293,0.96207c0,0.52477 0.4377,0.96207 0.96293,0.96207h4.82715c0.52523,0 0.96293,-0.4373 0.96293,-0.96207c0,-0.52477 -0.4377,-0.96207 -0.96293,-0.96207z" vector-effect="non-scaling-stroke"/><linearGradient id="gradient-174558453392818674" x1="15%" y1="15%" x2="85%" y2="85%" vector-effect="non-scaling-stroke"><stop offset="0%" stop-color="rgb(0,89,178)" stop-opacity="1" vector-effect="non-scaling-stroke"/><stop offset="100%" stop-color="rgb(181,245,140)" stop-opacity="1" vector-effect="non-scaling-stroke"/></linearGradient></defs><path style="stroke-width: 0; stroke-linecap: butt; stroke-linejoin: miter; fill: url(&quot;#gradient-174558453392818674&quot;);" d="M28.03752,30.86122c-0.52523,0 -0.96293,-0.4373 -0.96293,-0.96207c0,-0.52477 -0.4377,-0.96207 -0.96293,-0.96207c-0.52523,0 -0.96293,0.4373 -0.96293,0.96207c0,1.24944 0.81286,2.31147 1.92586,2.72378v1.13699c0,0.52477 0.4377,0.96207 0.96293,0.96207c0.52523,0 0.96293,-0.4373 0.96293,-0.96207v-1.13699c1.1255,-0.39982 1.92586,-1.46185 1.92586,-2.72378c0,-1.58679 -1.30058,-2.89871 -2.9013,-2.89871c-0.52523,0 -0.96293,-0.4373 -0.96293,-0.96207c0,-0.52477 0.4377,-0.96207 0.96293,-0.96207c0.52523,0 0.96293,0.4373 0.96293,0.96207c0,0.52477 0.4377,0.96207 0.96293,0.96207c0.52523,0 0.96293,-0.4373 0.96293,-0.96207c0,-1.24944 -0.81286,-2.31147 -1.92586,-2.72378v-1.13699c0,-0.52477 -0.4377,-0.96207 -0.96293,-0.96207c-0.52523,0 -0.96293,0.4373 -0.96293,0.96207v1.13699c-1.1255,0.39982 -1.92586,1.46185 -1.92586,2.72378c0,1.58679 1.30058,2.89871 2.9013,2.89871c0.52523,0 0.96293,0.4373 0.96293,0.96207c0,0.52477 -0.4377,0.96207 -0.96293,0.96207zM21.92229,35.47166c-0.30013,0.4498 -0.17508,1.03704 0.27512,1.3369c1.73828,1.16198 3.76418,1.76171 5.85261,1.76171c5.85261,0 10.61724,-4.74788 10.61724,-10.60776c0,-5.85988 -4.75212,-10.60776 -10.61724,-10.60776c-5.86512,0 -10.61724,4.74788 -10.61724,10.60776c0,2.08657 0.61277,4.11066 1.76329,5.84739c0.30013,0.4498 0.9004,0.57474 1.3381,0.27488c0.4502,-0.29987 0.56275,-0.8996 0.27512,-1.3369c-0.95042,-1.41187 -1.43814,-3.06113 -1.43814,-4.78536c0,-4.78536 3.90174,-8.68362 8.69138,-8.68362c4.78964,0 8.69138,3.89826 8.69138,8.68362c0,4.78536 -3.90174,8.68362 -8.69138,8.68362c-1.71326,0 -3.364,-0.49978 -4.78964,-1.43686c-0.4502,-0.29987 -1.03796,-0.17492 -1.3381,0.27488zM16.45735,38.00803c0.15007,-0.14993 0.25011,-0.39982 0.27512,-0.61223c0.02501,-0.2249 -0.05002,-0.48728 -0.18758,-0.6622c-1.38812,-1.81169 -2.30103,-3.84828 -2.71371,-6.05979c-0.03752,-0.21241 -0.18758,-0.42481 -0.35016,-0.56225c-0.16257,-0.13744 -0.40018,-0.23739 -0.61277,-0.23739h-5.86512c-0.17508,0 -0.36266,0.06247 -0.50022,0.14993c-0.30013,0.18742 -0.50022,0.58724 -0.4502,0.93708c0.31264,2.29897 0.98794,4.51049 1.98839,6.58456l-3.65163,4.86033h-3.37651c-0.52523,0 -0.96293,0.4373 -0.96293,0.96207c0,0.52477 0.4377,0.96207 0.96293,0.96207h3.86423c0.30013,0 0.58776,-0.14993 0.77535,-0.38733l3.40152,-4.52298c0.55025,0.91209 1.16302,1.7992 1.85083,2.62383c0.16257,0.18742 0.41268,0.31236 0.6628,0.34984c0.27512,0.02499 0.57526,-0.08746 0.76284,-0.27488l4.12684,-4.12316zM11.24252,34.90942c-0.42519,-0.31236 -1.03796,-0.23739 -1.3506,0.18742l-0.53774,0.71218c-0.53774,-1.28693 -0.95042,-2.62383 -1.20054,-3.99822h3.95176c0.46271,1.92414 1.28808,3.76082 2.41358,5.39759l-2.77624,2.77376c-0.52523,-0.71218 -1.00045,-1.46185 -1.42564,-2.22401l1.1255,-1.49933c0.31264,-0.42481 0.23761,-1.03704 -0.18758,-1.3494zM52.16079,0c-1.8008,0 -3.28897,1.23695 -3.72666,2.89871h-3.02635c-0.37517,0 -0.72532,0.2249 -0.87539,0.57474l-3.11389,6.83445c-2.96382,-2.249 -6.5029,-3.77332 -10.35462,-4.28559c-0.23761,-0.02499 -0.52523,0.04998 -0.71282,0.19991c-0.2251,0.17492 -0.38767,0.47479 -0.38767,0.74967v5.84739c0,0.18742 0.08754,0.39982 0.18758,0.54975c0.13756,0.18742 0.36266,0.36234 0.58776,0.39982c5.77758,1.09951 10.41715,5.72245 11.50514,11.49487c0.08754,0.4373 0.51273,0.78715 0.95042,0.78715h5.85261c0.27512,0 0.57526,-0.14993 0.73783,-0.37483c0.15007,-0.18742 0.25011,-0.47479 0.21259,-0.72468c-0.71282,-5.27265 -3.31398,-9.94556 -7.06565,-13.36903l3.06387,-6.74699h2.41358c0.4377,1.66176 1.92586,2.89871 3.72666,2.89871c2.13845,0 3.86423,-1.72423 3.86423,-3.86078c0,-2.13655 -1.72577,-3.86078 -3.86423,-3.86078v0zM47.92139,24.10174h-3.93926c-1.43814,-5.92236 -6.15275,-10.63275 -12.08039,-12.06961v-3.93574c3.23895,0.62472 6.20277,2.0116 8.70389,3.99822l-0.9004,1.96162c-0.2251,0.48728 0,1.06203 0.48772,1.27443c0.48772,0.2249 1.06297,0 1.27557,-0.48728l0.65029,-1.44935c2.92631,2.83623 5.00223,6.53458 5.80259,10.68273zM52.16079,5.78492c-1.06297,0 -1.92586,-0.86212 -1.92586,-1.92414c0,-1.06203 0.86289,-1.92414 1.92586,-1.92414c1.06297,0 1.92586,0.86212 1.92586,1.92414c0,1.06203 -0.86289,1.92414 -1.92586,1.92414zM3.90174,10.60776c1.8008,0 3.28897,-1.23695 3.72666,-2.89871h3.50156l2.45109,3.42347c-4.01429,3.44846 -6.79053,8.30879 -7.52836,13.79384v0.06247c0,0 0,0.03748 0,0.06247c0,0.04998 0.02501,0.08746 0.02501,0.12494c0,0.06247 0.02501,0.12494 0.03752,0.18742c0.02501,0.06247 0.05002,0.09996 0.07503,0.16243c0.02501,0.06247 0.06253,0.09996 0.10004,0.14993c0.03752,0.04998 0.08754,0.08746 0.13756,0.12494c0.05002,0.03748 0.10004,0.07497 0.15007,0.09996c0.05002,0.02499 0.11255,0.04998 0.18758,0.06247c0.03752,0 0.07503,0.03748 0.11255,0.03748h5.99017c0.12506,0 0.23761,-0.02499 0.35016,-0.06247c0.03752,-0.02499 0.06253,-0.03748 0.10004,-0.06247c0.06253,-0.03748 0.13756,-0.07497 0.18758,-0.12494c0.03752,-0.02499 0.06253,-0.06247 0.08754,-0.09996c0.05002,-0.06247 0.08754,-0.09996 0.11255,-0.17492c0.02501,-0.04998 0.03752,-0.09996 0.06253,-0.14993c0,-0.03748 0.02501,-0.06247 0.03752,-0.09996c0.23761,-1.24944 0.65029,-2.4739 1.20054,-3.61089c0.23761,-0.48728 0.03752,-1.06203 -0.4502,-1.28693c-0.48772,-0.2249 -1.06297,-0.03748 -1.28808,0.4498c-0.51273,1.04953 -0.91291,2.17403 -1.18803,3.31102h-3.93926c0.86289,-4.49799 3.22644,-8.48371 6.55293,-11.38242l0.95042,1.3369c0.30013,0.42481 0.92541,0.52477 1.3506,0.2249c0.4377,-0.31236 0.52523,-0.91209 0.2251,-1.3494l-1.02546,-1.42436c2.32604,-1.67425 5.02724,-2.84873 7.95355,-3.41098v3.93574c-3.07637,0.73717 -5.85261,2.33646 -8.0536,4.66042c-0.36266,0.38733 -0.35016,0.98706 0.03752,1.36189c0.38767,0.36234 1.00045,0.34984 1.36311,-0.03748c2.10094,-2.22401 4.80214,-3.69835 7.79098,-4.2606c0.42519,-0.07497 0.78785,-0.52477 0.78785,-0.94958v-5.84739c0,-0.27488 -0.15007,-0.54975 -0.35016,-0.72468c-0.18758,-0.16243 -0.48772,-0.27488 -0.73783,-0.23739c-3.66414,0.48728 -7.04064,1.88666 -9.91693,3.94824l-2.6887,-3.76082c-0.18758,-0.24989 -0.47521,-0.39982 -0.78785,-0.39982h-4.00179c-0.4377,-1.66176 -1.92586,-2.89871 -3.72666,-2.89871c-2.13845,0 -3.86423,1.72423 -3.86423,3.86078c0,2.13655 1.72577,3.86078 3.86423,3.86078v0zM3.90174,4.82285c1.06297,0 1.92586,0.86212 1.92586,1.92414c0,1.06203 -0.86289,1.92414 -1.92586,1.92414c-1.06297,0 -1.92586,-0.86212 -1.92586,-1.92414c0,-1.06203 0.86289,-1.92414 1.92586,-1.92414zM49.27199,48.21598c-1.8008,0 -3.28897,1.23695 -3.72666,2.89871h-2.55114l-3.25145,-4.33556c2.05092,-1.26194 3.87673,-2.83623 5.40241,-4.6979c0.33765,-0.41232 0.27512,-1.02454 -0.13756,-1.36189c-0.41268,-0.33735 -1.02546,-0.27488 -1.36311,0.13744c-1.43814,1.74922 -3.15141,3.19857 -5.07727,4.37305l-1.08799,-1.44935c-0.31264,-0.42481 -0.92541,-0.51227 -1.3506,-0.18742c-0.42519,0.32485 -0.51273,0.92459 -0.18758,1.3494l0.92541,1.24944c-2.72622,1.3369 -5.77758,2.04909 -8.84145,2.04909c-3.66414,0 -7.20322,-0.97456 -10.3046,-2.81124l2.85127,-2.84873c2.30103,1.17448 4.85217,1.7992 7.45333,1.7992c7.60339,0 14.18133,-5.22267 15.93211,-12.53191h3.95176c-0.36266,1.87416 -0.96293,3.66087 -1.82582,5.34761c-0.23761,0.47479 -0.06253,1.04953 0.41268,1.29942c0.46271,0.23739 1.06297,0.06247 1.30058,-0.41232c1.13801,-2.19902 1.88834,-4.57296 2.22599,-7.05935c0.02501,-0.18742 -0.02501,-0.39982 -0.10004,-0.56225c-0.15007,-0.29987 -0.50022,-0.52477 -0.85038,-0.52477h-5.85261c-0.4377,0 -0.86289,0.36234 -0.95042,0.78715c-1.28808,6.80946 -7.26574,11.75725 -14.23135,11.75725c-2.51362,0 -4.98973,-0.64971 -7.15319,-1.88666c-0.35016,-0.19991 -0.87539,-0.13744 -1.16302,0.14993l-4.21438,4.21062c-0.40018,0.39982 -0.32515,1.16198 0.15007,1.48684c3.65163,2.4614 7.92854,3.76082 12.38053,3.76082c3.48906,0 6.9406,-0.83713 10.01697,-2.39893l3.68915,4.91031c0.18758,0.23739 0.46271,0.38733 0.77535,0.38733h3.02635c0.4377,1.66176 1.92586,2.89871 3.72666,2.89871c2.13845,0 3.86423,-1.72423 3.86423,-3.86078c0,-2.13655 -1.72577,-3.86078 -3.86423,-3.86078v-0.02499zM49.27199,54.00089c-1.06297,0 -1.92586,-0.86212 -1.92586,-1.92414c0,-1.06203 0.86289,-1.92414 1.92586,-1.92414c1.06297,0 1.92586,0.86212 1.92586,1.92414c0,1.06203 -0.86289,1.92414 -1.92586,1.92414zM1.01295,47.2539h3.86423c0.52523,0 0.96293,-0.4373 0.96293,-0.96207c0,-0.52477 -0.4377,-0.96207 -0.96293,-0.96207h-3.86423c-0.52523,0 -0.96293,0.4373 -0.96293,0.96207c0,0.52477 0.4377,0.96207 0.96293,0.96207zM1.01295,50.14012h6.75301c0.52523,0 0.96293,-0.4373 0.96293,-0.96207c0,-0.52477 -0.4377,-0.96207 -0.96293,-0.96207h-6.75301c-0.52523,0 -0.96293,0.4373 -0.96293,0.96207c0,0.52477 0.4377,0.96207 0.96293,0.96207zM8.7289,51.10219h-7.71594c-0.52523,0 -0.96293,0.4373 -0.96293,0.96207c0,0.52477 0.4377,0.96207 0.96293,0.96207h7.71594c0.52523,0 0.96293,-0.4373 0.96293,-0.96207c0,-0.52477 -0.4377,-0.96207 -0.96293,-0.96207zM5.84011,54.00089h-4.82715c-0.52523,0 -0.96293,0.4373 -0.96293,0.96207c0,0.52477 0.4377,0.96207 0.96293,0.96207h4.82715c0.52523,0 0.96293,-0.4373 0.96293,-0.96207c0,-0.52477 -0.4377,-0.96207 -0.96293,-0.96207z" transform="translate(0.000039999999984274837, 0) rotate(0)" vector-effect="non-scaling-stroke"/></g></svg>