<svg version="1.2" xmlns="http://www.w3.org/2000/svg" xmlns:xlink="http://www.w3.org/1999/xlink" overflow="visible" preserveAspectRatio="none" viewBox="0 0 60.000009999999996 59.99998999999999" width="60.000009999999996" height="59.99998999999999"><g transform="translate(0, 0)"><g transform="translate(-3.9968028886505635e-15, -0.000010000000011611831) rotate(0)"><path style="stroke-width: 0; stroke-linecap: butt; stroke-linejoin: miter; fill: url(&quot;#gradient-174558453391818539&quot;);" d="M29.99468,29.45745c-3.13774,0 -5.69048,-2.55319 -5.69048,-5.69149c0,-3.1383 2.55274,-5.69149 5.69048,-5.69149c3.13774,0 5.69048,2.55319 5.69048,5.69149c0,3.1383 -2.55274,5.69149 -5.69048,5.69149zM29.99468,19.90426c-2.12728,0 -3.86102,1.73404 -3.86102,3.8617c0,2.12766 1.73374,3.8617 3.86102,3.8617c2.12728,0 3.86102,-1.73404 3.86102,-3.8617c0,-2.12766 -1.73374,-3.8617 -3.86102,-3.8617zM57.68126,60c-0.49991,0 -0.91473,-0.41489 -0.91473,-0.91489c0,-0.5 0.41482,-0.91489 0.91473,-0.91489h0.468v-9.42553h-9.42386v9.42553h6.14785c0.49991,0 0.91473,0.41489 0.91473,0.91489c0,0.5 -0.41482,0.91489 -0.91473,0.91489h-7.06258c-0.49991,0 -0.91473,-0.41489 -0.91473,-0.91489v-11.25532c0,-0.5 0.41482,-0.91489 0.91473,-0.91489h4.71193v-2.8617h-21.61319v2.8617h4.71193c0.51055,0 0.91473,0.41489 0.91473,0.91489v11.25532c0,0.5 -0.41482,0.91489 -0.91473,0.91489h-11.25332c-0.51055,0 -0.91473,-0.41489 -0.91473,-0.91489v-1.45745c0,-0.5 0.41482,-0.91489 0.91473,-0.91489c0.49991,0 0.91473,0.41489 0.91473,0.91489v0.53191h9.42386v-9.42553h-9.42386v5.64894c0,0.51064 -0.41482,0.91489 -0.91473,0.91489c-0.49991,0 -0.91473,-0.41489 -0.91473,-0.91489v-6.56383c0,-0.5 0.41482,-0.91489 0.91473,-0.91489h4.71193v-2.8617h-21.62383v2.8617h4.71193c0.49991,0 0.91473,0.41489 0.91473,0.91489v11.25532c0,0.5 -0.41482,0.91489 -0.91473,0.91489h-11.25332c-0.49991,0 -0.91473,-0.41489 -0.91473,-0.91489v-11.25532c0,-0.5 0.41482,-0.91489 0.91473,-0.91489h0.936c0.51055,0 0.91473,0.41489 0.91473,0.91489c0,0.44681 -0.31909,0.82979 -0.76582,0.90426l-0.18082,0.03191v9.40426h9.42386v-9.42553h-6.53076c-0.51055,0 -0.91473,-0.41489 -0.91473,-0.91489c0,-0.5 0.41482,-0.91489 0.91473,-0.91489h0.9041v-3.7766c0,-0.51064 0.41482,-0.91489 0.91473,-0.91489h22.53856v-2.8617h-21.59192c-0.51055,0 -0.91473,-0.41489 -0.91473,-0.91489v-23.44681c0,-0.5 0.41482,-0.91489 0.91473,-0.91489c0.49991,0 0.91473,0.41489 0.91473,0.91489v22.54255h20.65591v-1.91489h-0.61691c-0.45737,0 -0.84028,-0.35106 -0.9041,-0.80851l-0.14891,-1.24468l-0.13827,-0.04255c-0.85091,-0.24468 -1.66992,-0.59574 -2.4251,-1.04255l-0.12764,-0.07447l-1.0211,0.79787c-0.15955,0.12766 -0.36164,0.19149 -0.56373,0.19149c-0.24464,0 -0.468,-0.09574 -0.64882,-0.26596l-2.16983,-2.17021c-0.31909,-0.31915 -0.351,-0.84043 -0.07445,-1.21277l0.88282,-1.1383l-0.06382,-0.11702c-0.38291,-0.73404 -0.68073,-1.51064 -0.86155,-2.28723l-0.03191,-0.1383l-1.51037,-0.19149c-0.45737,-0.05319 -0.80837,-0.43617 -0.80837,-0.90426v-3.06383c0,-0.45745 0.351,-0.84043 0.80837,-0.90426l1.70183,-0.21277l0.04255,-0.12766c0.22336,-0.69149 0.52118,-1.3617 0.88282,-1.97872l0.07445,-0.12766l-1.09555,-1.42553c-0.28718,-0.37234 -0.25527,-0.88298 0.07445,-1.21277l2.16983,-2.17021c0.17018,-0.17021 0.40418,-0.26596 0.64882,-0.26596c0.20209,0 0.40418,0.06383 0.56373,0.19149l1.53164,1.19149l0.117,-0.06383c0.59564,-0.30851 1.21255,-0.56383 1.8401,-0.74468l0.13827,-0.04255l0.24464,-1.94681c0.04255,-0.45745 0.43609,-0.80851 0.9041,-0.80851h3.06329c0.45737,0 0.84028,0.34043 0.9041,0.80851l0.24464,1.94681l0.13827,0.04255c0.62755,0.18085 1.24446,0.43617 1.8401,0.74468l0.117,0.06383l1.53164,-1.19149c0.15955,-0.12766 0.36164,-0.19149 0.56373,-0.19149c0.24464,0 0.468,0.09574 0.64882,0.26596l2.16983,2.17021c0.32973,0.32979 0.36164,0.84043 0.07445,1.21277l-1.10619,1.42553l0.07445,0.12766c0.36164,0.61702 0.65946,1.28723 0.88282,1.97872l0.04255,0.12766l1.70183,0.21277c0.45737,0.05319 0.80837,0.43617 0.80837,0.90426v3.06383c0,0.45745 -0.351,0.84043 -0.80837,0.90426l-1.51037,0.19149l-0.03191,0.1383c-0.20209,0.80851 -0.49991,1.57447 -0.87219,2.28723l-0.06382,0.11702l0.88282,1.12766c0.27655,0.3617 0.24464,0.88298 -0.07445,1.21277l-2.16983,2.17021c-0.17018,0.17021 -0.40418,0.26596 -0.64882,0.26596c-0.24464,0 -0.47864,-0.09574 -0.64882,-0.26596c-0.351,-0.3617 -0.351,-0.93617 0,-1.29787l1.6061,-1.60638l-0.76582,-0.98936c-0.234,-0.30851 -0.25527,-0.7234 -0.05318,-1.05319c0.60628,-0.94681 0.99982,-2 1.17001,-3.10638c0.06382,-0.40426 0.38291,-0.7234 0.79773,-0.76596l1.3721,-0.17021v-1.45745l-1.51037,-0.19149c-0.38291,-0.05319 -0.69137,-0.32979 -0.77646,-0.70213c-0.234,-1 -0.65946,-1.94681 -1.26573,-2.80851c-0.234,-0.32979 -0.22336,-0.76596 0.02127,-1.08511l1.01046,-1.29787l-1.03173,-1.03191l-1.38273,1.07447c-0.15955,0.12766 -0.36164,0.19149 -0.56373,0.19149c-0.17018,0 -0.34037,-0.05319 -0.48927,-0.1383c-0.85091,-0.53191 -1.75501,-0.89362 -2.69101,-1.08511c-0.38291,-0.07447 -0.67009,-0.39362 -0.72328,-0.78723l-0.22336,-1.7766h-1.45719l-0.22336,1.7766c-0.05318,0.39362 -0.34037,0.71277 -0.72328,0.78723c-0.936,0.19149 -1.8401,0.55319 -2.69101,1.08511c-0.14891,0.09574 -0.31909,0.1383 -0.48927,0.1383c-0.20209,0 -0.40418,-0.06383 -0.56373,-0.19149l-1.38273,-1.07447l-1.03173,1.03191l1.01046,1.29787c0.24464,0.31915 0.25527,0.75532 0.02127,1.08511c-0.585,0.84043 -1.01046,1.78723 -1.26573,2.80851c-0.09573,0.37234 -0.40418,0.64894 -0.77646,0.69149l-1.51037,0.19149v1.45745l1.3721,0.17021c0.41482,0.06383 0.73391,0.37234 0.79773,0.76596c0.18082,1.11702 0.57437,2.15957 1.17001,3.09574c0.20209,0.32979 0.19146,0.74468 -0.05318,1.05319l-0.76582,0.98936l1.03173,1.03191l0.9041,-0.70213c0.17018,-0.12766 0.36164,-0.19149 0.57437,-0.19149c0.19146,0 0.37227,0.05319 0.53182,0.17021c0.95728,0.68085 2.03155,1.14894 3.20156,1.38298c0.39355,0.07447 0.68073,0.38298 0.73391,0.78723l0.13827,1.08511h1.45719l0.13827,-1.07447c0.05318,-0.39362 0.351,-0.71277 0.73391,-0.78723c0.585,-0.10638 1.14873,-0.28723 1.69119,-0.52128c0.117,-0.05319 0.234,-0.07447 0.36164,-0.07447c0.36164,0 0.69137,0.21277 0.84028,0.54255c0.20209,0.46809 0,1 -0.468,1.21277c-0.39355,0.17021 -0.819,0.32979 -1.27637,0.45745l-0.13827,0.04255l-0.15955,1.24468c-0.04255,0.45745 -0.43609,0.80851 -0.9041,0.80851h-0.61691v1.91489h20.67718v-28.18085h-43.20511v2.45745c0,0.51064 -0.41482,0.91489 -0.91473,0.91489c-0.49991,0 -0.91473,-0.41489 -0.91473,-0.91489v-10.88298c0,-0.51064 0.41482,-0.91489 0.91473,-0.91489h31.88796c0.49991,0 0.91473,0.41489 0.91473,0.91489c0,0.5 -0.41482,0.91489 -0.91473,0.91489h-30.97323v5.67021h43.19447v-5.67021h-8.95586c-0.49991,0 -0.91473,-0.41489 -0.91473,-0.91489c0,-0.5 0.41482,-0.91489 0.91473,-0.91489h9.87059c0.51055,0 0.91473,0.41489 0.91473,0.91489v37.52128c0,0.51064 -0.41482,0.91489 -0.91473,0.91489h-21.59192v2.8617h22.53856c0.51055,0 0.91473,0.41489 0.91473,0.91489v3.7766h4.71193c0.49991,0 0.91473,0.41489 0.91473,0.91489v11.25532c0,0.5 -0.41482,0.91489 -0.91473,0.91489h-1.40401zM28.84595,4.67021c0,-0.6383 0.51055,-1.14894 1.14873,-1.14894c0.63818,0 1.14873,0.51064 1.14873,1.14894c0,0.6383 -0.51055,1.14894 -1.14873,1.14894c-0.63818,0 -1.14873,-0.51064 -1.14873,-1.14894zM29.05868,56.24468c-0.24464,0 -0.47864,-0.09574 -0.64882,-0.26596l-1.87201,-1.87234c-0.17018,-0.17021 -0.26591,-0.40426 -0.26591,-0.64894c0,-0.24468 0.09573,-0.47872 0.26591,-0.64894c0.17018,-0.17021 0.40418,-0.26596 0.64882,-0.26596c0.24464,0 0.47864,0.09574 0.64882,0.26596l1.23382,1.23404l3.10583,-3.10638c0.17018,-0.17021 0.40418,-0.26596 0.64882,-0.26596c0.24464,0 0.47864,0.09574 0.64882,0.26596c0.17018,0.17021 0.26591,0.40426 0.26591,0.64894c0,0.24468 -0.09573,0.47872 -0.26591,0.64894l-3.75465,3.75532c-0.17018,0.17021 -0.40418,0.26596 -0.64882,0.26596h-0.01064zM28.84595,4.67021c0,-0.6383 0.51055,-1.14894 1.14873,-1.14894c0.63818,0 1.14873,0.51064 1.14873,1.14894c0,0.6383 -0.51055,1.14894 -1.14873,1.14894c-0.63818,0 -1.14873,-0.51064 -1.14873,-1.14894zM28.84595,4.67021c0,-0.6383 0.51055,-1.14894 1.14873,-1.14894c0.63818,0 1.14873,0.51064 1.14873,1.14894c0,0.6383 -0.51055,1.14894 -1.14873,1.14894c-0.63818,0 -1.14873,-0.51064 -1.14873,-1.14894zM29.05868,56.24468c-0.24464,0 -0.47864,-0.09574 -0.64882,-0.26596l-1.87201,-1.87234c-0.17018,-0.17021 -0.26591,-0.40426 -0.26591,-0.64894c0,-0.24468 0.09573,-0.47872 0.26591,-0.64894c0.17018,-0.17021 0.40418,-0.26596 0.64882,-0.26596c0.24464,0 0.47864,0.09574 0.64882,0.26596l1.23382,1.23404l3.10583,-3.10638c0.17018,-0.17021 0.40418,-0.26596 0.64882,-0.26596c0.24464,0 0.47864,0.09574 0.64882,0.26596c0.17018,0.17021 0.26591,0.40426 0.26591,0.64894c0,0.24468 -0.09573,0.47872 -0.26591,0.64894l-3.75465,3.75532c-0.17018,0.17021 -0.40418,0.26596 -0.64882,0.26596h-0.01064zM29.05868,56.24468c-0.24464,0 -0.47864,-0.09574 -0.64882,-0.26596l-1.87201,-1.87234c-0.17018,-0.17021 -0.26591,-0.40426 -0.26591,-0.64894c0,-0.24468 0.09573,-0.47872 0.26591,-0.64894c0.17018,-0.17021 0.40418,-0.26596 0.64882,-0.26596c0.24464,0 0.47864,0.09574 0.64882,0.26596l1.23382,1.23404l3.10583,-3.10638c0.17018,-0.17021 0.40418,-0.26596 0.64882,-0.26596c0.24464,0 0.47864,0.09574 0.64882,0.26596c0.17018,0.17021 0.26591,0.40426 0.26591,0.64894c0,0.24468 -0.09573,0.47872 -0.26591,0.64894l-3.75465,3.75532c-0.17018,0.17021 -0.40418,0.26596 -0.64882,0.26596h-0.01064z" vector-effect="non-scaling-stroke"/></g><defs><path id="path-17455845325212941" d="M29.99468,29.45745c-3.13774,0 -5.69048,-2.55319 -5.69048,-5.69149c0,-3.1383 2.55274,-5.69149 5.69048,-5.69149c3.13774,0 5.69048,2.55319 5.69048,5.69149c0,3.1383 -2.55274,5.69149 -5.69048,5.69149zM29.99468,19.90426c-2.12728,0 -3.86102,1.73404 -3.86102,3.8617c0,2.12766 1.73374,3.8617 3.86102,3.8617c2.12728,0 3.86102,-1.73404 3.86102,-3.8617c0,-2.12766 -1.73374,-3.8617 -3.86102,-3.8617zM57.68126,60c-0.49991,0 -0.91473,-0.41489 -0.91473,-0.91489c0,-0.5 0.41482,-0.91489 0.91473,-0.91489h0.468v-9.42553h-9.42386v9.42553h6.14785c0.49991,0 0.91473,0.41489 0.91473,0.91489c0,0.5 -0.41482,0.91489 -0.91473,0.91489h-7.06258c-0.49991,0 -0.91473,-0.41489 -0.91473,-0.91489v-11.25532c0,-0.5 0.41482,-0.91489 0.91473,-0.91489h4.71193v-2.8617h-21.61319v2.8617h4.71193c0.51055,0 0.91473,0.41489 0.91473,0.91489v11.25532c0,0.5 -0.41482,0.91489 -0.91473,0.91489h-11.25332c-0.51055,0 -0.91473,-0.41489 -0.91473,-0.91489v-1.45745c0,-0.5 0.41482,-0.91489 0.91473,-0.91489c0.49991,0 0.91473,0.41489 0.91473,0.91489v0.53191h9.42386v-9.42553h-9.42386v5.64894c0,0.51064 -0.41482,0.91489 -0.91473,0.91489c-0.49991,0 -0.91473,-0.41489 -0.91473,-0.91489v-6.56383c0,-0.5 0.41482,-0.91489 0.91473,-0.91489h4.71193v-2.8617h-21.62383v2.8617h4.71193c0.49991,0 0.91473,0.41489 0.91473,0.91489v11.25532c0,0.5 -0.41482,0.91489 -0.91473,0.91489h-11.25332c-0.49991,0 -0.91473,-0.41489 -0.91473,-0.91489v-11.25532c0,-0.5 0.41482,-0.91489 0.91473,-0.91489h0.936c0.51055,0 0.91473,0.41489 0.91473,0.91489c0,0.44681 -0.31909,0.82979 -0.76582,0.90426l-0.18082,0.03191v9.40426h9.42386v-9.42553h-6.53076c-0.51055,0 -0.91473,-0.41489 -0.91473,-0.91489c0,-0.5 0.41482,-0.91489 0.91473,-0.91489h0.9041v-3.7766c0,-0.51064 0.41482,-0.91489 0.91473,-0.91489h22.53856v-2.8617h-21.59192c-0.51055,0 -0.91473,-0.41489 -0.91473,-0.91489v-23.44681c0,-0.5 0.41482,-0.91489 0.91473,-0.91489c0.49991,0 0.91473,0.41489 0.91473,0.91489v22.54255h20.65591v-1.91489h-0.61691c-0.45737,0 -0.84028,-0.35106 -0.9041,-0.80851l-0.14891,-1.24468l-0.13827,-0.04255c-0.85091,-0.24468 -1.66992,-0.59574 -2.4251,-1.04255l-0.12764,-0.07447l-1.0211,0.79787c-0.15955,0.12766 -0.36164,0.19149 -0.56373,0.19149c-0.24464,0 -0.468,-0.09574 -0.64882,-0.26596l-2.16983,-2.17021c-0.31909,-0.31915 -0.351,-0.84043 -0.07445,-1.21277l0.88282,-1.1383l-0.06382,-0.11702c-0.38291,-0.73404 -0.68073,-1.51064 -0.86155,-2.28723l-0.03191,-0.1383l-1.51037,-0.19149c-0.45737,-0.05319 -0.80837,-0.43617 -0.80837,-0.90426v-3.06383c0,-0.45745 0.351,-0.84043 0.80837,-0.90426l1.70183,-0.21277l0.04255,-0.12766c0.22336,-0.69149 0.52118,-1.3617 0.88282,-1.97872l0.07445,-0.12766l-1.09555,-1.42553c-0.28718,-0.37234 -0.25527,-0.88298 0.07445,-1.21277l2.16983,-2.17021c0.17018,-0.17021 0.40418,-0.26596 0.64882,-0.26596c0.20209,0 0.40418,0.06383 0.56373,0.19149l1.53164,1.19149l0.117,-0.06383c0.59564,-0.30851 1.21255,-0.56383 1.8401,-0.74468l0.13827,-0.04255l0.24464,-1.94681c0.04255,-0.45745 0.43609,-0.80851 0.9041,-0.80851h3.06329c0.45737,0 0.84028,0.34043 0.9041,0.80851l0.24464,1.94681l0.13827,0.04255c0.62755,0.18085 1.24446,0.43617 1.8401,0.74468l0.117,0.06383l1.53164,-1.19149c0.15955,-0.12766 0.36164,-0.19149 0.56373,-0.19149c0.24464,0 0.468,0.09574 0.64882,0.26596l2.16983,2.17021c0.32973,0.32979 0.36164,0.84043 0.07445,1.21277l-1.10619,1.42553l0.07445,0.12766c0.36164,0.61702 0.65946,1.28723 0.88282,1.97872l0.04255,0.12766l1.70183,0.21277c0.45737,0.05319 0.80837,0.43617 0.80837,0.90426v3.06383c0,0.45745 -0.351,0.84043 -0.80837,0.90426l-1.51037,0.19149l-0.03191,0.1383c-0.20209,0.80851 -0.49991,1.57447 -0.87219,2.28723l-0.06382,0.11702l0.88282,1.12766c0.27655,0.3617 0.24464,0.88298 -0.07445,1.21277l-2.16983,2.17021c-0.17018,0.17021 -0.40418,0.26596 -0.64882,0.26596c-0.24464,0 -0.47864,-0.09574 -0.64882,-0.26596c-0.351,-0.3617 -0.351,-0.93617 0,-1.29787l1.6061,-1.60638l-0.76582,-0.98936c-0.234,-0.30851 -0.25527,-0.7234 -0.05318,-1.05319c0.60628,-0.94681 0.99982,-2 1.17001,-3.10638c0.06382,-0.40426 0.38291,-0.7234 0.79773,-0.76596l1.3721,-0.17021v-1.45745l-1.51037,-0.19149c-0.38291,-0.05319 -0.69137,-0.32979 -0.77646,-0.70213c-0.234,-1 -0.65946,-1.94681 -1.26573,-2.80851c-0.234,-0.32979 -0.22336,-0.76596 0.02127,-1.08511l1.01046,-1.29787l-1.03173,-1.03191l-1.38273,1.07447c-0.15955,0.12766 -0.36164,0.19149 -0.56373,0.19149c-0.17018,0 -0.34037,-0.05319 -0.48927,-0.1383c-0.85091,-0.53191 -1.75501,-0.89362 -2.69101,-1.08511c-0.38291,-0.07447 -0.67009,-0.39362 -0.72328,-0.78723l-0.22336,-1.7766h-1.45719l-0.22336,1.7766c-0.05318,0.39362 -0.34037,0.71277 -0.72328,0.78723c-0.936,0.19149 -1.8401,0.55319 -2.69101,1.08511c-0.14891,0.09574 -0.31909,0.1383 -0.48927,0.1383c-0.20209,0 -0.40418,-0.06383 -0.56373,-0.19149l-1.38273,-1.07447l-1.03173,1.03191l1.01046,1.29787c0.24464,0.31915 0.25527,0.75532 0.02127,1.08511c-0.585,0.84043 -1.01046,1.78723 -1.26573,2.80851c-0.09573,0.37234 -0.40418,0.64894 -0.77646,0.69149l-1.51037,0.19149v1.45745l1.3721,0.17021c0.41482,0.06383 0.73391,0.37234 0.79773,0.76596c0.18082,1.11702 0.57437,2.15957 1.17001,3.09574c0.20209,0.32979 0.19146,0.74468 -0.05318,1.05319l-0.76582,0.98936l1.03173,1.03191l0.9041,-0.70213c0.17018,-0.12766 0.36164,-0.19149 0.57437,-0.19149c0.19146,0 0.37227,0.05319 0.53182,0.17021c0.95728,0.68085 2.03155,1.14894 3.20156,1.38298c0.39355,0.07447 0.68073,0.38298 0.73391,0.78723l0.13827,1.08511h1.45719l0.13827,-1.07447c0.05318,-0.39362 0.351,-0.71277 0.73391,-0.78723c0.585,-0.10638 1.14873,-0.28723 1.69119,-0.52128c0.117,-0.05319 0.234,-0.07447 0.36164,-0.07447c0.36164,0 0.69137,0.21277 0.84028,0.54255c0.20209,0.46809 0,1 -0.468,1.21277c-0.39355,0.17021 -0.819,0.32979 -1.27637,0.45745l-0.13827,0.04255l-0.15955,1.24468c-0.04255,0.45745 -0.43609,0.80851 -0.9041,0.80851h-0.61691v1.91489h20.67718v-28.18085h-43.20511v2.45745c0,0.51064 -0.41482,0.91489 -0.91473,0.91489c-0.49991,0 -0.91473,-0.41489 -0.91473,-0.91489v-10.88298c0,-0.51064 0.41482,-0.91489 0.91473,-0.91489h31.88796c0.49991,0 0.91473,0.41489 0.91473,0.91489c0,0.5 -0.41482,0.91489 -0.91473,0.91489h-30.97323v5.67021h43.19447v-5.67021h-8.95586c-0.49991,0 -0.91473,-0.41489 -0.91473,-0.91489c0,-0.5 0.41482,-0.91489 0.91473,-0.91489h9.87059c0.51055,0 0.91473,0.41489 0.91473,0.91489v37.52128c0,0.51064 -0.41482,0.91489 -0.91473,0.91489h-21.59192v2.8617h22.53856c0.51055,0 0.91473,0.41489 0.91473,0.91489v3.7766h4.71193c0.49991,0 0.91473,0.41489 0.91473,0.91489v11.25532c0,0.5 -0.41482,0.91489 -0.91473,0.91489h-1.40401zM28.84595,4.67021c0,-0.6383 0.51055,-1.14894 1.14873,-1.14894c0.63818,0 1.14873,0.51064 1.14873,1.14894c0,0.6383 -0.51055,1.14894 -1.14873,1.14894c-0.63818,0 -1.14873,-0.51064 -1.14873,-1.14894zM29.05868,56.24468c-0.24464,0 -0.47864,-0.09574 -0.64882,-0.26596l-1.87201,-1.87234c-0.17018,-0.17021 -0.26591,-0.40426 -0.26591,-0.64894c0,-0.24468 0.09573,-0.47872 0.26591,-0.64894c0.17018,-0.17021 0.40418,-0.26596 0.64882,-0.26596c0.24464,0 0.47864,0.09574 0.64882,0.26596l1.23382,1.23404l3.10583,-3.10638c0.17018,-0.17021 0.40418,-0.26596 0.64882,-0.26596c0.24464,0 0.47864,0.09574 0.64882,0.26596c0.17018,0.17021 0.26591,0.40426 0.26591,0.64894c0,0.24468 -0.09573,0.47872 -0.26591,0.64894l-3.75465,3.75532c-0.17018,0.17021 -0.40418,0.26596 -0.64882,0.26596h-0.01064zM28.84595,4.67021c0,-0.6383 0.51055,-1.14894 1.14873,-1.14894c0.63818,0 1.14873,0.51064 1.14873,1.14894c0,0.6383 -0.51055,1.14894 -1.14873,1.14894c-0.63818,0 -1.14873,-0.51064 -1.14873,-1.14894zM28.84595,4.67021c0,-0.6383 0.51055,-1.14894 1.14873,-1.14894c0.63818,0 1.14873,0.51064 1.14873,1.14894c0,0.6383 -0.51055,1.14894 -1.14873,1.14894c-0.63818,0 -1.14873,-0.51064 -1.14873,-1.14894zM29.05868,56.24468c-0.24464,0 -0.47864,-0.09574 -0.64882,-0.26596l-1.87201,-1.87234c-0.17018,-0.17021 -0.26591,-0.40426 -0.26591,-0.64894c0,-0.24468 0.09573,-0.47872 0.26591,-0.64894c0.17018,-0.17021 0.40418,-0.26596 0.64882,-0.26596c0.24464,0 0.47864,0.09574 0.64882,0.26596l1.23382,1.23404l3.10583,-3.10638c0.17018,-0.17021 0.40418,-0.26596 0.64882,-0.26596c0.24464,0 0.47864,0.09574 0.64882,0.26596c0.17018,0.17021 0.26591,0.40426 0.26591,0.64894c0,0.24468 -0.09573,0.47872 -0.26591,0.64894l-3.75465,3.75532c-0.17018,0.17021 -0.40418,0.26596 -0.64882,0.26596h-0.01064zM29.05868,56.24468c-0.24464,0 -0.47864,-0.09574 -0.64882,-0.26596l-1.87201,-1.87234c-0.17018,-0.17021 -0.26591,-0.40426 -0.26591,-0.64894c0,-0.24468 0.09573,-0.47872 0.26591,-0.64894c0.17018,-0.17021 0.40418,-0.26596 0.64882,-0.26596c0.24464,0 0.47864,0.09574 0.64882,0.26596l1.23382,1.23404l3.10583,-3.10638c0.17018,-0.17021 0.40418,-0.26596 0.64882,-0.26596c0.24464,0 0.47864,0.09574 0.64882,0.26596c0.17018,0.17021 0.26591,0.40426 0.26591,0.64894c0,0.24468 -0.09573,0.47872 -0.26591,0.64894l-3.75465,3.75532c-0.17018,0.17021 -0.40418,0.26596 -0.64882,0.26596h-0.01064z" vector-effect="non-scaling-stroke"/><linearGradient id="gradient-174558453391818539" x1="15%" y1="15%" x2="85%" y2="85%" vector-effect="non-scaling-stroke"><stop offset="0%" stop-color="rgb(0,89,178)" stop-opacity="1" vector-effect="non-scaling-stroke"/><stop offset="100%" stop-color="rgb(181,245,140)" stop-opacity="1" vector-effect="non-scaling-stroke"/></linearGradient></defs></g></svg>