<svg version="1.2" xmlns="http://www.w3.org/2000/svg" xmlns:xlink="http://www.w3.org/1999/xlink" overflow="visible" preserveAspectRatio="none" viewBox="0 0 57.00001 46" width="57.00001" height="46"><g transform="translate(0, 0)"><g transform="translate(0.000010000000003174137, -8.881784197001252e-16) rotate(0)"><path style="stroke-width: 0; stroke-linecap: butt; stroke-linejoin: miter; fill: rgb(242, 242, 243);" d="M54.72635,13.97386c-1.45441,-2.73934 -3.52235,-5.2015 -6.15329,-7.3073c-5.37014,-4.29799 -12.50146,-6.66656 -20.07307,-6.66656v0c-7.57161,0 -14.70293,2.36857 -20.07667,6.66656c-2.63094,2.1058 -4.70248,4.56796 -6.14968,7.3073c-1.50855,2.85813 -2.27365,5.89624 -2.27365,9.03154c0,3.1353 0.7651,6.16981 2.27365,9.02794c1.4472,2.73934 3.51874,5.1979 6.14968,7.3037c5.37375,4.30159 12.50146,6.66296 20.07667,6.66296c7.57522,0 14.70293,-2.36137 20.07307,-6.66296c2.63454,-2.1058 4.70248,-4.56436 6.15329,-7.3037c1.50855,-2.85813 2.27365,-5.89624 2.27365,-9.02794c0,-3.1317 -0.76871,-6.17341 -2.27365,-9.03154zM14.46473,16.01127c0.10827,5.35629 -3.47904,6.17341 -2.898,6.18421c3.64866,0.05759 2.99544,7.3181 3.05679,7.76086h-2.91604c0,0 0.01444,-3.41967 0,-3.69685c-0.16601,-3.1029 -2.60928,-3.36208 -2.60928,-3.0849v6.78175h-2.76447v-16.27404h2.75364c0,0 -0.04692,6.44338 0,6.95094c0,0 2.86913,-0.37076 2.69951,-6.33539c0,-0.12959 0.05774,-1.19149 0.53774,-2.45856c0.00361,-0.0108 0.00722,-0.0216 0.01444,-0.0324c0.01444,-0.0468 0.03248,-0.08999 0.04692,-0.13319h0.00722c1.00329,-2.38297 3.05679,-4.40598 6.67659,-4.40598v0c7.53552,0 7.04109,10.11503 7.03748,10.12943c0,0 -2.45771,0 -2.80778,0c-0.06496,-0.12959 0.50886,-8.326 -4.53647,-8.26121c-2.23756,0.0288 -3.32747,1.75303 -3.93016,3.66805c-0.25985,0.93231 -0.39699,2.00861 -0.37172,3.20729zM17.82829,23.25018v6.70256h-2.60206l0.01083,-11.07254h2.08959l0.27428,0.71633c0,0 0.75066,-0.69113 1.82975,-0.70553c0.60992,-0.0108 0.94916,0.16558 0.94916,0.16558v2.42977c0,0 -1.33532,0.018 -2.02824,0.64434c-0.23458,0.21238 -0.52691,0.51115 -0.52691,1.11949zM20.35096,24.42366c0,-3.06331 1.51937,-5.54347 4.2658,-5.54347c2.74642,0 4.26941,2.48016 4.26941,5.54347c0,3.06331 -1.36419,5.54347 -4.26941,5.54347c-2.90522,0 -4.2658,-2.48376 -4.2658,-5.54347zM30.44523,40.85969c-7.51747,0 -7.14214,-9.3843 -7.14214,-9.3987c0,0 2.45771,-0.0072 2.80778,-0.0072c0.04331,0.21238 -0.51247,7.66007 4.64113,7.54128c4.75662,-0.15119 4.68444,-7.2929 4.55812,-9.4599c-0.45834,0.17998 -0.9672,0.42116 -1.54825,0.42116c-2.9774,0 -4.29106,-2.46576 -4.29106,-5.54347c0,-3.07771 1.52659,-5.60106 4.28745,-5.53267c0.4836,0.0108 1.17652,0.23038 1.51216,0.58314v-0.60474h2.75725c0,0 -0.00722,10.64778 0,11.4577v0c0.01083,0.80632 0.57022,10.53979 -7.57883,10.53979zM40.40237,32.4221c-0.2021,0.19438 -0.44751,0.29157 -0.73262,0.29157c-0.28511,0 -0.54134,-0.10079 -0.73984,-0.30237c-0.20571,-0.20158 -0.30676,-0.44996 -0.30676,-0.74153c0,-0.30597 0.10827,-0.55795 0.32842,-0.75953c0.2021,-0.19078 0.4439,-0.28437 0.71818,-0.28437c0.28872,0 0.53413,0.10079 0.73984,0.30237c0.20571,0.20518 0.30315,0.44996 0.30315,0.74153c0,0.29157 -0.10105,0.54355 -0.31037,0.74873zM47.15835,24.53165v0h-2.51545v0h-3.48626c0.01804,1.91862 0.5233,3.30088 1.74313,3.30088c1.01051,0 1.51937,-0.93231 1.67817,-2.32898h2.51545c-0.29233,2.54496 -1.65291,4.46357 -4.20805,4.46357c-2.95574,0 -4.2658,-2.48376 -4.2658,-5.54347c0,-3.05971 1.51577,-5.54347 4.2658,-5.54347c2.25921,0 3.63784,1.59105 4.09618,3.80484h0.00361c0,0 0.19849,0.83512 0.16601,1.84662zM52.88939,21.48634c0,0 -1.33532,0.018 -2.03185,0.64434c-0.23458,0.21238 -0.5233,0.51115 -0.5233,1.11949v6.70256h-2.60206l0.01083,-11.07254h2.08959l0.27428,0.71633c0,0 0.74706,-0.69113 1.82975,-0.70553c0.60631,-0.0108 0.94916,0.16558 0.94916,0.16558v2.42977z" vector-effect="non-scaling-stroke"/></g><defs><path id="path-1745399088924321" d="M54.72635,13.97386c-1.45441,-2.73934 -3.52235,-5.2015 -6.15329,-7.3073c-5.37014,-4.29799 -12.50146,-6.66656 -20.07307,-6.66656v0c-7.57161,0 -14.70293,2.36857 -20.07667,6.66656c-2.63094,2.1058 -4.70248,4.56796 -6.14968,7.3073c-1.50855,2.85813 -2.27365,5.89624 -2.27365,9.03154c0,3.1353 0.7651,6.16981 2.27365,9.02794c1.4472,2.73934 3.51874,5.1979 6.14968,7.3037c5.37375,4.30159 12.50146,6.66296 20.07667,6.66296c7.57522,0 14.70293,-2.36137 20.07307,-6.66296c2.63454,-2.1058 4.70248,-4.56436 6.15329,-7.3037c1.50855,-2.85813 2.27365,-5.89624 2.27365,-9.02794c0,-3.1317 -0.76871,-6.17341 -2.27365,-9.03154zM14.46473,16.01127c0.10827,5.35629 -3.47904,6.17341 -2.898,6.18421c3.64866,0.05759 2.99544,7.3181 3.05679,7.76086h-2.91604c0,0 0.01444,-3.41967 0,-3.69685c-0.16601,-3.1029 -2.60928,-3.36208 -2.60928,-3.0849v6.78175h-2.76447v-16.27404h2.75364c0,0 -0.04692,6.44338 0,6.95094c0,0 2.86913,-0.37076 2.69951,-6.33539c0,-0.12959 0.05774,-1.19149 0.53774,-2.45856c0.00361,-0.0108 0.00722,-0.0216 0.01444,-0.0324c0.01444,-0.0468 0.03248,-0.08999 0.04692,-0.13319h0.00722c1.00329,-2.38297 3.05679,-4.40598 6.67659,-4.40598v0c7.53552,0 7.04109,10.11503 7.03748,10.12943c0,0 -2.45771,0 -2.80778,0c-0.06496,-0.12959 0.50886,-8.326 -4.53647,-8.26121c-2.23756,0.0288 -3.32747,1.75303 -3.93016,3.66805c-0.25985,0.93231 -0.39699,2.00861 -0.37172,3.20729zM17.82829,23.25018v6.70256h-2.60206l0.01083,-11.07254h2.08959l0.27428,0.71633c0,0 0.75066,-0.69113 1.82975,-0.70553c0.60992,-0.0108 0.94916,0.16558 0.94916,0.16558v2.42977c0,0 -1.33532,0.018 -2.02824,0.64434c-0.23458,0.21238 -0.52691,0.51115 -0.52691,1.11949zM20.35096,24.42366c0,-3.06331 1.51937,-5.54347 4.2658,-5.54347c2.74642,0 4.26941,2.48016 4.26941,5.54347c0,3.06331 -1.36419,5.54347 -4.26941,5.54347c-2.90522,0 -4.2658,-2.48376 -4.2658,-5.54347zM30.44523,40.85969c-7.51747,0 -7.14214,-9.3843 -7.14214,-9.3987c0,0 2.45771,-0.0072 2.80778,-0.0072c0.04331,0.21238 -0.51247,7.66007 4.64113,7.54128c4.75662,-0.15119 4.68444,-7.2929 4.55812,-9.4599c-0.45834,0.17998 -0.9672,0.42116 -1.54825,0.42116c-2.9774,0 -4.29106,-2.46576 -4.29106,-5.54347c0,-3.07771 1.52659,-5.60106 4.28745,-5.53267c0.4836,0.0108 1.17652,0.23038 1.51216,0.58314v-0.60474h2.75725c0,0 -0.00722,10.64778 0,11.4577v0c0.01083,0.80632 0.57022,10.53979 -7.57883,10.53979zM40.40237,32.4221c-0.2021,0.19438 -0.44751,0.29157 -0.73262,0.29157c-0.28511,0 -0.54134,-0.10079 -0.73984,-0.30237c-0.20571,-0.20158 -0.30676,-0.44996 -0.30676,-0.74153c0,-0.30597 0.10827,-0.55795 0.32842,-0.75953c0.2021,-0.19078 0.4439,-0.28437 0.71818,-0.28437c0.28872,0 0.53413,0.10079 0.73984,0.30237c0.20571,0.20518 0.30315,0.44996 0.30315,0.74153c0,0.29157 -0.10105,0.54355 -0.31037,0.74873zM47.15835,24.53165v0h-2.51545v0h-3.48626c0.01804,1.91862 0.5233,3.30088 1.74313,3.30088c1.01051,0 1.51937,-0.93231 1.67817,-2.32898h2.51545c-0.29233,2.54496 -1.65291,4.46357 -4.20805,4.46357c-2.95574,0 -4.2658,-2.48376 -4.2658,-5.54347c0,-3.05971 1.51577,-5.54347 4.2658,-5.54347c2.25921,0 3.63784,1.59105 4.09618,3.80484h0.00361c0,0 0.19849,0.83512 0.16601,1.84662zM52.88939,21.48634c0,0 -1.33532,0.018 -2.03185,0.64434c-0.23458,0.21238 -0.5233,0.51115 -0.5233,1.11949v6.70256h-2.60206l0.01083,-11.07254h2.08959l0.27428,0.71633c0,0 0.74706,-0.69113 1.82975,-0.70553c0.60631,-0.0108 0.94916,0.16558 0.94916,0.16558v2.42977z" vector-effect="non-scaling-stroke"/></defs></g></svg>