<svg version="1.2" xmlns="http://www.w3.org/2000/svg" xmlns:xlink="http://www.w3.org/1999/xlink" overflow="visible" preserveAspectRatio="none" viewBox="0 0 39.99998639268447 40.00001999999999" width="39.99998639268447" height="40.00001999999999"><g transform="translate(0, 0)"><g transform="translate(-0.00000360966584026564, 0.000009999999999621423) rotate(0)"><path style="stroke-width: 0; stroke-linecap: butt; stroke-linejoin: miter; fill: url(&quot;#gradient-17453834238487478&quot;);" d="M24.06504,9.9547c0,-2.23497 -1.82475,-4.0592 -4.06037,-4.0592c-2.23562,0 -4.06037,1.82422 -4.06037,4.0592c0,2.23497 1.82475,4.0592 4.06037,4.0592c2.23562,0 4.06037,-1.82422 4.06037,-4.0592zM20.00467,12.32256c-1.30512,0 -2.35647,-1.06312 -2.35647,-2.35578c0,-1.29266 1.06343,-2.35578 2.35647,-2.35578c1.29303,0 2.35647,1.06312 2.35647,2.35578c0,1.29266 -1.06343,2.35578 -2.35647,2.35578zM33.91387,19.74026c-0.10876,-0.35035 -0.43504,-0.59197 -0.80966,-0.59197h-5.08755c1.66765,-3.12896 2.50148,-6.01631 2.50148,-8.63788c0,-5.79885 -4.71293,-10.51042 -10.51346,-10.51042c-5.80053,0 -10.51346,4.71157 -10.51346,10.51042c0,2.89943 1.0876,5.90758 2.53773,8.63788h-5.1238c-0.37462,0 -0.7009,0.24162 -0.80966,0.59197l-6.0543,19.1483c-0.08459,0.2537 -0.03625,0.54364 0.12084,0.7611c0.1571,0.21746 0.41087,0.35035 0.67673,0.35035h38.30767c0.26586,0 0.51963,-0.13289 0.68881,-0.35035c0.16918,-0.21746 0.20544,-0.49532 0.12084,-0.7611l-6.0543,-19.1483zM20.00468,1.69133c4.85794,0 8.82164,3.95047 8.82164,8.81909c0,6.82573 -6.74312,14.50921 -8.80955,16.69587c-2.06644,-2.22289 -8.82164,-9.99094 -8.82164,-16.69587c0,-4.85654 3.95161,-8.81909 8.82164,-8.81909v0zM2.01095,38.29659l5.52259,-17.45697h5.46217c2.75525,4.53035 6.17515,7.94926 6.40475,8.19088c0.16918,0.16913 0.3867,0.24162 0.59214,0.24162c0.20544,0 0.42296,-0.08457 0.59214,-0.24162c0.09668,-0.09665 2.50148,-2.45243 4.93045,-5.8955c0.55588,-0.77318 1.06343,-1.54636 1.51055,-2.29538h5.438l5.52259,17.45697z" vector-effect="non-scaling-stroke"/></g><defs><path id="path-17453834221514413" d="M24.06504,9.9547c0,-2.23497 -1.82475,-4.0592 -4.06037,-4.0592c-2.23562,0 -4.06037,1.82422 -4.06037,4.0592c0,2.23497 1.82475,4.0592 4.06037,4.0592c2.23562,0 4.06037,-1.82422 4.06037,-4.0592zM20.00467,12.32256c-1.30512,0 -2.35647,-1.06312 -2.35647,-2.35578c0,-1.29266 1.06343,-2.35578 2.35647,-2.35578c1.29303,0 2.35647,1.06312 2.35647,2.35578c0,1.29266 -1.06343,2.35578 -2.35647,2.35578zM33.91387,19.74026c-0.10876,-0.35035 -0.43504,-0.59197 -0.80966,-0.59197h-5.08755c1.66765,-3.12896 2.50148,-6.01631 2.50148,-8.63788c0,-5.79885 -4.71293,-10.51042 -10.51346,-10.51042c-5.80053,0 -10.51346,4.71157 -10.51346,10.51042c0,2.89943 1.0876,5.90758 2.53773,8.63788h-5.1238c-0.37462,0 -0.7009,0.24162 -0.80966,0.59197l-6.0543,19.1483c-0.08459,0.2537 -0.03625,0.54364 0.12084,0.7611c0.1571,0.21746 0.41087,0.35035 0.67673,0.35035h38.30767c0.26586,0 0.51963,-0.13289 0.68881,-0.35035c0.16918,-0.21746 0.20544,-0.49532 0.12084,-0.7611l-6.0543,-19.1483zM20.00468,1.69133c4.85794,0 8.82164,3.95047 8.82164,8.81909c0,6.82573 -6.74312,14.50921 -8.80955,16.69587c-2.06644,-2.22289 -8.82164,-9.99094 -8.82164,-16.69587c0,-4.85654 3.95161,-8.81909 8.82164,-8.81909v0zM2.01095,38.29659l5.52259,-17.45697h5.46217c2.75525,4.53035 6.17515,7.94926 6.40475,8.19088c0.16918,0.16913 0.3867,0.24162 0.59214,0.24162c0.20544,0 0.42296,-0.08457 0.59214,-0.24162c0.09668,-0.09665 2.50148,-2.45243 4.93045,-5.8955c0.55588,-0.77318 1.06343,-1.54636 1.51055,-2.29538h5.438l5.52259,17.45697z" vector-effect="non-scaling-stroke"/><linearGradient id="gradient-17453834238487478" x1="86%" y1="85%" x2="14%" y2="15%" vector-effect="non-scaling-stroke"><stop offset="0%" stop-color="rgb(181,245,140)" stop-opacity="1" vector-effect="non-scaling-stroke"/><stop offset="100%" stop-color="rgb(0,89,178)" stop-opacity="1" vector-effect="non-scaling-stroke"/></linearGradient></defs></g></svg>