<svg version="1.2" xmlns="http://www.w3.org/2000/svg" xmlns:xlink="http://www.w3.org/1999/xlink" overflow="visible" preserveAspectRatio="none" viewBox="0 0 35.98776 40" width="35.98776" height="40"><g transform="translate(0, 0)"><g transform="translate(-1.5543122344752192e-15, 0.000010000000002285958) rotate(0)"><path style="stroke-width: 0; stroke-linecap: butt; stroke-linejoin: miter; fill: url(&quot;#gradient-174531279455220175&quot;);" d="M30.72775,0h-21.40291c-2.90411,0.00316 -5.25757,2.36596 -5.26072,5.2816v6.67013h-2.58678c-0.81047,-0.00437 -1.47145,0.65088 -1.47734,1.46456v1.11312c0.00629,0.81351 0.66703,1.46854 1.47734,1.46456h2.58678v0.70789c-0.01572,0.16496 -0.02429,0.33207 -0.02429,0.50205v17.51448c0.00315,2.91564 2.35661,5.27844 5.26072,5.2816h5.36716c2.90411,-0.00316 5.25757,-2.36596 5.26072,-5.2816v-6.71101h10.79861c2.90411,-0.00316 5.25757,-2.36596 5.26072,-5.2816v-17.44419c-0.00315,-2.91536 -2.35617,-5.27804 -5.26,-5.2816zM15.88216,34.71912c0,0.67339 -0.54373,1.21927 -1.21445,1.21927h-5.36787c-0.67072,0 -1.21445,-0.54589 -1.21445,-1.21927v-6.8602c0.40556,0.09887 0.8214,0.14895 1.23874,0.14918h6.55732zM15.88216,23.94506h-6.55732c-0.67072,0 -1.21445,-0.54589 -1.21445,-1.21927v-5.76429c0.10452,-0.51345 0.52416,-0.90241 1.04228,-0.96609h2.28245c0.05586,-0.00022 0.11167,-0.00357 0.16717,-0.01004h3.06542c0.67072,0 1.21445,0.54589 1.21445,1.21927zM31.94149,22.72579c0,0.67339 -0.54373,1.21927 -1.21445,1.21927h-10.7979v-6.74186c-0.00354,-2.91547 -2.35677,-5.27804 -5.26072,-5.2816l-6.55732,0.03156v-6.67013c0,-0.67339 0.54373,-1.21927 1.21445,-1.21927h21.4022c0.67072,0 1.21445,0.54589 1.21445,1.21927z" vector-effect="non-scaling-stroke"/></g><defs><path id="path-17453127927893405" d="M30.72775,0h-21.40291c-2.90411,0.00316 -5.25757,2.36596 -5.26072,5.2816v6.67013h-2.58678c-0.81047,-0.00437 -1.47145,0.65088 -1.47734,1.46456v1.11312c0.00629,0.81351 0.66703,1.46854 1.47734,1.46456h2.58678v0.70789c-0.01572,0.16496 -0.02429,0.33207 -0.02429,0.50205v17.51448c0.00315,2.91564 2.35661,5.27844 5.26072,5.2816h5.36716c2.90411,-0.00316 5.25757,-2.36596 5.26072,-5.2816v-6.71101h10.79861c2.90411,-0.00316 5.25757,-2.36596 5.26072,-5.2816v-17.44419c-0.00315,-2.91536 -2.35617,-5.27804 -5.26,-5.2816zM15.88216,34.71912c0,0.67339 -0.54373,1.21927 -1.21445,1.21927h-5.36787c-0.67072,0 -1.21445,-0.54589 -1.21445,-1.21927v-6.8602c0.40556,0.09887 0.8214,0.14895 1.23874,0.14918h6.55732zM15.88216,23.94506h-6.55732c-0.67072,0 -1.21445,-0.54589 -1.21445,-1.21927v-5.76429c0.10452,-0.51345 0.52416,-0.90241 1.04228,-0.96609h2.28245c0.05586,-0.00022 0.11167,-0.00357 0.16717,-0.01004h3.06542c0.67072,0 1.21445,0.54589 1.21445,1.21927zM31.94149,22.72579c0,0.67339 -0.54373,1.21927 -1.21445,1.21927h-10.7979v-6.74186c-0.00354,-2.91547 -2.35677,-5.27804 -5.26072,-5.2816l-6.55732,0.03156v-6.67013c0,-0.67339 0.54373,-1.21927 1.21445,-1.21927h21.4022c0.67072,0 1.21445,0.54589 1.21445,1.21927z" vector-effect="non-scaling-stroke"/><linearGradient id="gradient-174531279455220175" x1="16%" y1="87%" x2="84%" y2="13%" vector-effect="non-scaling-stroke"><stop offset="0.4%" stop-color="rgb(181,245,140)" stop-opacity="1" vector-effect="non-scaling-stroke"/><stop offset="100%" stop-color="rgb(5,91,200)" stop-opacity="1" vector-effect="non-scaling-stroke"/></linearGradient></defs></g></svg>