<svg version="1.2" xmlns="http://www.w3.org/2000/svg" xmlns:xlink="http://www.w3.org/1999/xlink" overflow="visible" preserveAspectRatio="none" viewBox="0 0 59.99999370855554 59.99998" width="59.99999370855554" height="59.99998"><g transform="translate(0, 0)"><g transform="translate(0.000013708555547213563, -0.000009999999997400977) rotate(0)"><path style="stroke-width: 0; stroke-linecap: butt; stroke-linejoin: miter; fill: url(&quot;#gradient-17453174993364989&quot;);" d="M53.97214,18.01506h-0.27524c0.05505,-0.35592 0.08257,-0.72553 0.08257,-1.09514c0,-3.8193 -3.12403,-6.94045 -6.97746,-6.94045c-1.67899,0 -3.27541,0.58864 -4.52778,1.6564c-1.30741,-1.45106 -2.98641,-2.51882 -4.83055,-3.12115c-0.2202,-3.62765 -3.23413,-6.51608 -6.93617,-6.51608c-1.67899,0 -3.27541,0.58864 -4.52778,1.6564c-2.09186,-2.31348 -5.07827,-3.65503 -8.22982,-3.65503c-5.75262,0 -10.50059,4.39425 -11.02356,10.03422h-0.55049c-3.3167,0 -6.02786,2.68309 -6.02786,5.99589c0,3.3128 2.6974,5.99589 6.02786,5.99589h10.62445c-0.2202,0.62971 -0.37158,1.28679 -0.37158,1.98494c0,3.29911 2.6974,5.99589 6.02786,5.99589h6.89488v0.15058c0,0.49281 0.37158,0.90349 0.85326,0.95825l1.14227,0.13689c0.09634,0.27379 0.20643,0.54757 0.33029,0.80767h-26.45103c-1.77533,0 -3.22036,1.43737 -3.22036,3.21697v18.76797h-0.97712c-0.30277,0 -0.59178,0.13689 -0.78445,0.36961c-0.19267,0.23272 -0.27524,0.53388 -0.23396,0.83504l0.31653,1.90281c0.27524,1.6564 1.69276,2.84736 3.38551,2.84736h34.69461c1.67899,0 3.11027,-1.20465 3.38551,-2.84736l0.31653,-1.90281c0.05505,-0.30116 -0.04129,-0.60233 -0.23396,-0.83504c-0.19267,-0.23272 -0.48168,-0.36961 -0.78445,-0.36961h-1.05969v-15.46886h0.17891c0.5092,0 0.92207,-0.36961 0.96336,-0.86242l0.16515,-1.31417c0.41287,-0.1232 0.8395,-0.28747 1.33494,-0.53388l1.04593,0.80767c0.16515,0.13689 0.38534,0.20534 0.60554,0.20534c0.26148,0 0.5092,-0.10951 0.68811,-0.28747l1.66523,-1.6564c0.35782,-0.35592 0.38534,-0.8898 0.08257,-1.28679l-0.7294,-0.94456c0.24772,-0.42437 0.45415,-0.8898 0.64683,-1.43737l1.14227,-0.13689c0.49544,-0.06845 0.85326,-0.47912 0.85326,-0.95825v-0.15058h5.29846c3.3167,0 6.02786,-2.68309 6.02786,-5.99589c0,-3.3128 -2.6974,-5.99589 -6.02786,-5.99589zM6.2034,19.97262c-2.1882,0 -3.96353,-1.76591 -3.96353,-3.94251c0,-2.17659 1.77533,-3.94251 3.96353,-3.94251h1.54137c0.56425,0 1.03217,-0.5065 1.03217,-1.08145c0,-4.94182 4.0461,-8.95277 9.00051,-8.95277c2.89007,0 5.61499,1.3963 7.30775,3.73717c0.19267,0.2601 0.48168,0.41068 0.81197,0.42437c0.31653,0 0.63306,-0.1232 0.82573,-0.36961c0.93583,-1.13621 2.32582,-1.79329 3.79838,-1.79329c2.40839,0 4.40392,1.73854 4.81678,4.01095c-0.42663,-0.05476 -0.85326,-0.08214 -1.29365,-0.08214c-5.75262,0 -10.50059,4.39425 -11.02356,10.03422h-0.55049c-1.7478,0 -3.3167,0.7666 -4.41768,1.95756h-11.86305zM39.75574,56.8104c-0.1101,0.65708 -0.67435,1.13621 -1.3487,1.13621h-34.69461c-0.67435,0 -1.2386,-0.47912 -1.3487,-1.13621l-0.12386,-0.69815h15.05589c0.06881,0.30116 0.2202,0.58864 0.45415,0.80767c0.31653,0.31485 0.74316,0.49281 1.18355,0.49281h4.65164c0.45415,0 0.86702,-0.17796 1.18355,-0.49281c0.2202,-0.21903 0.37158,-0.5065 0.44039,-0.80767h14.65679zM37.96665,54.04517h-13.10165c-0.45415,0 -0.86702,0.17796 -1.18355,0.49281c-0.2202,0.21903 -0.37158,0.5065 -0.44039,0.80767h-3.94976c-0.06881,-0.30116 -0.2202,-0.58864 -0.45415,-0.80767c-0.31653,-0.31485 -0.74316,-0.49281 -1.18355,-0.49281h-13.58333v-18.76797c0,-0.64339 0.52297,-1.16359 1.15603,-1.16359h25.88678c-0.04129,0.28747 0.04129,0.58864 0.26148,0.80767l1.67899,1.67009c0.19267,0.17796 0.42663,0.27379 0.68811,0.27379c0.2202,0 0.44039,-0.06845 0.60554,-0.20534l1.03217,-0.80767c0.42663,0.21903 0.85326,0.39699 1.33494,0.53388l0.16515,1.31417c0.06881,0.49281 0.46792,0.84873 0.96336,0.84873h0.12386v15.46886zM47.17359,29.36345l-0.97712,0.1232c-0.41287,0.04107 -0.75692,0.35592 -0.86702,0.7666c-0.20643,0.79398 -0.53673,1.5332 -0.99088,2.17659c-0.26148,0.35592 -0.24772,0.84873 0.02752,1.20465l0.67435,0.86242l-0.49544,0.49281l-0.93583,-0.72553c-0.17891,-0.13689 -0.39911,-0.21903 -0.63306,-0.21903c-0.19267,0 -0.38534,0.05476 -0.53673,0.15058c-0.66059,0.41068 -1.36246,0.68446 -2.09186,0.83504c-0.42663,0.08214 -0.74316,0.42437 -0.81197,0.86242l-0.15138,1.20465h-0.70187l-0.15138,-1.20465c-0.05505,-0.43806 -0.38534,-0.78029 -0.79821,-0.86242c-0.7294,-0.15058 -1.44504,-0.43806 -2.10562,-0.84873c-0.16515,-0.09582 -0.35782,-0.15058 -0.53673,-0.15058c-0.23396,0 -0.45415,0.08214 -0.63306,0.21903l-0.93583,0.72553l-0.49544,-0.49281l0.67435,-0.86242c0.27524,-0.35592 0.28901,-0.83504 0.02752,-1.20465c-0.46792,-0.67077 -0.79821,-1.3963 -0.99088,-2.17659c-0.09634,-0.41068 -0.44039,-0.71184 -0.86702,-0.78029l-0.99088,-0.1232v-0.7666l0.99088,-0.1232c0.41287,-0.05476 0.75692,-0.35592 0.86702,-0.7666c0.20643,-0.79398 0.53673,-1.5332 0.99088,-2.17659c0.26148,-0.35592 0.24772,-0.84873 -0.02752,-1.20465l-0.67435,-0.86242l0.49544,-0.49281l0.93583,0.72553c0.17891,0.13689 0.39911,0.21903 0.63306,0.21903c0.19267,0 0.38534,-0.05476 0.53673,-0.15058c0.66059,-0.41068 1.36246,-0.68446 2.09186,-0.83504c0.42663,-0.08214 0.74316,-0.42437 0.81197,-0.86242l0.15138,-1.20465h0.70187l0.15138,1.20465c0.05505,0.43806 0.38534,0.78029 0.79821,0.86242c0.74316,0.15058 1.44504,0.43806 2.10562,0.84873c0.16515,0.09582 0.35782,0.15058 0.53673,0.15058c0.23396,0 0.45415,-0.08214 0.63306,-0.21903l0.93583,-0.72553l0.49544,0.49281l-0.67435,0.86242c-0.27524,0.35592 -0.28901,0.83504 -0.02752,1.20465c0.46792,0.67077 0.79821,1.3963 0.99088,2.17659c0.09634,0.41068 0.42663,0.71184 0.86702,0.78029l0.99088,0.1232v0.7666zM53.97214,27.95346h-5.29846v-0.15058c0,-0.49281 -0.37158,-0.90349 -0.86702,-0.95825l-1.14227,-0.13689c-0.16515,-0.47912 -0.37158,-0.94456 -0.64683,-1.43737l0.74316,-0.94456c0.30277,-0.39699 0.27524,-0.93087 -0.08257,-1.28679l-1.67899,-1.67009c-0.19267,-0.17796 -0.42663,-0.27379 -0.68811,-0.27379c-0.2202,0 -0.44039,0.06845 -0.60554,0.20534l-1.03217,0.80767c-0.42663,-0.21903 -0.85326,-0.3833 -1.33494,-0.53388l-0.16515,-1.31417c-0.06881,-0.49281 -0.46792,-0.84873 -0.96336,-0.84873h-2.35334c-0.5092,0 -0.92207,0.36961 -0.96336,0.84873l-0.16515,1.31417c-0.41287,0.1232 -0.8395,0.28747 -1.33494,0.53388l-1.03217,-0.80767c-0.16515,-0.13689 -0.38534,-0.20534 -0.60554,-0.20534c-0.26148,0 -0.5092,0.10951 -0.68811,0.28747l-1.66523,1.6564c-0.35782,0.35592 -0.38534,0.8898 -0.08257,1.28679l0.7294,0.94456c-0.24772,0.42437 -0.45415,0.8898 -0.64683,1.43737l-1.14227,0.13689c-0.48168,0.06845 -0.85326,0.47912 -0.85326,0.95825v0.15058h-6.89488c-2.1882,0 -3.96353,-1.76591 -3.96353,-3.94251c0,-2.17659 1.77533,-3.94251 3.96353,-3.94251h1.54137c0.56425,0 1.03217,-0.5065 1.03217,-1.08145c0,-4.94182 4.0461,-8.95277 9.00051,-8.95277c2.89007,0 5.61499,1.3963 7.30775,3.73717c0.19267,0.2601 0.48168,0.41068 0.81197,0.42437c0.31653,0.01369 0.63306,-0.1232 0.82573,-0.3833c0.93583,-1.13621 2.32582,-1.79329 3.79838,-1.79329c2.71116,0 4.91312,2.19028 4.91312,4.88706c0,0.58864 -0.1101,1.17728 -0.33029,1.75222c-0.12386,0.31485 -0.08257,0.67077 0.1101,0.94456c0.19267,0.27379 0.5092,0.45175 0.85326,0.45175h1.61018c2.1882,0 3.96353,1.76591 3.96353,3.94251c0,2.17659 -1.77533,3.94251 -3.96353,3.94251zM17.11685,42.98426c-0.55049,0 -1.00464,0.45175 -1.00464,0.99932c0,0.54757 0.45415,0.99932 1.00464,0.99932c0.55049,0 1.00464,-0.45175 1.00464,-0.99932c0,-0.54757 -0.45415,-0.99932 -1.00464,-0.99932zM21.05285,42.98426c-0.55049,0 -1.00464,0.45175 -1.00464,0.99932c0,0.54757 0.45415,0.99932 1.00464,0.99932c0.55049,0 1.00464,-0.45175 1.00464,-0.99932c0,-0.54757 -0.45415,-0.99932 -1.00464,-0.99932zM25.07143,42.98426c-0.55049,0 -1.00464,0.45175 -1.00464,0.99932c0,0.54757 0.45415,0.99932 1.00464,0.99932c0.55049,0 1.00464,-0.45175 1.00464,-0.99932c0,-0.54757 -0.45415,-0.99932 -1.00464,-0.99932zM39.02634,25.01027c-2.33958,0 -4.25253,1.90281 -4.25253,4.22998c0,2.32717 1.91295,4.22998 4.25253,4.22998c2.33958,0 4.25253,-1.90281 4.25253,-4.22998c0,-2.32717 -1.91295,-4.22998 -4.25253,-4.22998zM39.02634,31.89596c-1.47256,0 -2.66987,-1.19097 -2.66987,-2.65572c0,-1.46475 1.19732,-2.65572 2.66987,-2.65572c1.47256,0 2.66987,1.19097 2.66987,2.65572c0,1.46475 -1.19732,2.65572 -2.66987,2.65572z" vector-effect="non-scaling-stroke"/></g><defs><path id="path-17453174984112878" d="M53.97214,18.01506h-0.27524c0.05505,-0.35592 0.08257,-0.72553 0.08257,-1.09514c0,-3.8193 -3.12403,-6.94045 -6.97746,-6.94045c-1.67899,0 -3.27541,0.58864 -4.52778,1.6564c-1.30741,-1.45106 -2.98641,-2.51882 -4.83055,-3.12115c-0.2202,-3.62765 -3.23413,-6.51608 -6.93617,-6.51608c-1.67899,0 -3.27541,0.58864 -4.52778,1.6564c-2.09186,-2.31348 -5.07827,-3.65503 -8.22982,-3.65503c-5.75262,0 -10.50059,4.39425 -11.02356,10.03422h-0.55049c-3.3167,0 -6.02786,2.68309 -6.02786,5.99589c0,3.3128 2.6974,5.99589 6.02786,5.99589h10.62445c-0.2202,0.62971 -0.37158,1.28679 -0.37158,1.98494c0,3.29911 2.6974,5.99589 6.02786,5.99589h6.89488v0.15058c0,0.49281 0.37158,0.90349 0.85326,0.95825l1.14227,0.13689c0.09634,0.27379 0.20643,0.54757 0.33029,0.80767h-26.45103c-1.77533,0 -3.22036,1.43737 -3.22036,3.21697v18.76797h-0.97712c-0.30277,0 -0.59178,0.13689 -0.78445,0.36961c-0.19267,0.23272 -0.27524,0.53388 -0.23396,0.83504l0.31653,1.90281c0.27524,1.6564 1.69276,2.84736 3.38551,2.84736h34.69461c1.67899,0 3.11027,-1.20465 3.38551,-2.84736l0.31653,-1.90281c0.05505,-0.30116 -0.04129,-0.60233 -0.23396,-0.83504c-0.19267,-0.23272 -0.48168,-0.36961 -0.78445,-0.36961h-1.05969v-15.46886h0.17891c0.5092,0 0.92207,-0.36961 0.96336,-0.86242l0.16515,-1.31417c0.41287,-0.1232 0.8395,-0.28747 1.33494,-0.53388l1.04593,0.80767c0.16515,0.13689 0.38534,0.20534 0.60554,0.20534c0.26148,0 0.5092,-0.10951 0.68811,-0.28747l1.66523,-1.6564c0.35782,-0.35592 0.38534,-0.8898 0.08257,-1.28679l-0.7294,-0.94456c0.24772,-0.42437 0.45415,-0.8898 0.64683,-1.43737l1.14227,-0.13689c0.49544,-0.06845 0.85326,-0.47912 0.85326,-0.95825v-0.15058h5.29846c3.3167,0 6.02786,-2.68309 6.02786,-5.99589c0,-3.3128 -2.6974,-5.99589 -6.02786,-5.99589zM6.2034,19.97262c-2.1882,0 -3.96353,-1.76591 -3.96353,-3.94251c0,-2.17659 1.77533,-3.94251 3.96353,-3.94251h1.54137c0.56425,0 1.03217,-0.5065 1.03217,-1.08145c0,-4.94182 4.0461,-8.95277 9.00051,-8.95277c2.89007,0 5.61499,1.3963 7.30775,3.73717c0.19267,0.2601 0.48168,0.41068 0.81197,0.42437c0.31653,0 0.63306,-0.1232 0.82573,-0.36961c0.93583,-1.13621 2.32582,-1.79329 3.79838,-1.79329c2.40839,0 4.40392,1.73854 4.81678,4.01095c-0.42663,-0.05476 -0.85326,-0.08214 -1.29365,-0.08214c-5.75262,0 -10.50059,4.39425 -11.02356,10.03422h-0.55049c-1.7478,0 -3.3167,0.7666 -4.41768,1.95756h-11.86305zM39.75574,56.8104c-0.1101,0.65708 -0.67435,1.13621 -1.3487,1.13621h-34.69461c-0.67435,0 -1.2386,-0.47912 -1.3487,-1.13621l-0.12386,-0.69815h15.05589c0.06881,0.30116 0.2202,0.58864 0.45415,0.80767c0.31653,0.31485 0.74316,0.49281 1.18355,0.49281h4.65164c0.45415,0 0.86702,-0.17796 1.18355,-0.49281c0.2202,-0.21903 0.37158,-0.5065 0.44039,-0.80767h14.65679zM37.96665,54.04517h-13.10165c-0.45415,0 -0.86702,0.17796 -1.18355,0.49281c-0.2202,0.21903 -0.37158,0.5065 -0.44039,0.80767h-3.94976c-0.06881,-0.30116 -0.2202,-0.58864 -0.45415,-0.80767c-0.31653,-0.31485 -0.74316,-0.49281 -1.18355,-0.49281h-13.58333v-18.76797c0,-0.64339 0.52297,-1.16359 1.15603,-1.16359h25.88678c-0.04129,0.28747 0.04129,0.58864 0.26148,0.80767l1.67899,1.67009c0.19267,0.17796 0.42663,0.27379 0.68811,0.27379c0.2202,0 0.44039,-0.06845 0.60554,-0.20534l1.03217,-0.80767c0.42663,0.21903 0.85326,0.39699 1.33494,0.53388l0.16515,1.31417c0.06881,0.49281 0.46792,0.84873 0.96336,0.84873h0.12386v15.46886zM47.17359,29.36345l-0.97712,0.1232c-0.41287,0.04107 -0.75692,0.35592 -0.86702,0.7666c-0.20643,0.79398 -0.53673,1.5332 -0.99088,2.17659c-0.26148,0.35592 -0.24772,0.84873 0.02752,1.20465l0.67435,0.86242l-0.49544,0.49281l-0.93583,-0.72553c-0.17891,-0.13689 -0.39911,-0.21903 -0.63306,-0.21903c-0.19267,0 -0.38534,0.05476 -0.53673,0.15058c-0.66059,0.41068 -1.36246,0.68446 -2.09186,0.83504c-0.42663,0.08214 -0.74316,0.42437 -0.81197,0.86242l-0.15138,1.20465h-0.70187l-0.15138,-1.20465c-0.05505,-0.43806 -0.38534,-0.78029 -0.79821,-0.86242c-0.7294,-0.15058 -1.44504,-0.43806 -2.10562,-0.84873c-0.16515,-0.09582 -0.35782,-0.15058 -0.53673,-0.15058c-0.23396,0 -0.45415,0.08214 -0.63306,0.21903l-0.93583,0.72553l-0.49544,-0.49281l0.67435,-0.86242c0.27524,-0.35592 0.28901,-0.83504 0.02752,-1.20465c-0.46792,-0.67077 -0.79821,-1.3963 -0.99088,-2.17659c-0.09634,-0.41068 -0.44039,-0.71184 -0.86702,-0.78029l-0.99088,-0.1232v-0.7666l0.99088,-0.1232c0.41287,-0.05476 0.75692,-0.35592 0.86702,-0.7666c0.20643,-0.79398 0.53673,-1.5332 0.99088,-2.17659c0.26148,-0.35592 0.24772,-0.84873 -0.02752,-1.20465l-0.67435,-0.86242l0.49544,-0.49281l0.93583,0.72553c0.17891,0.13689 0.39911,0.21903 0.63306,0.21903c0.19267,0 0.38534,-0.05476 0.53673,-0.15058c0.66059,-0.41068 1.36246,-0.68446 2.09186,-0.83504c0.42663,-0.08214 0.74316,-0.42437 0.81197,-0.86242l0.15138,-1.20465h0.70187l0.15138,1.20465c0.05505,0.43806 0.38534,0.78029 0.79821,0.86242c0.74316,0.15058 1.44504,0.43806 2.10562,0.84873c0.16515,0.09582 0.35782,0.15058 0.53673,0.15058c0.23396,0 0.45415,-0.08214 0.63306,-0.21903l0.93583,-0.72553l0.49544,0.49281l-0.67435,0.86242c-0.27524,0.35592 -0.28901,0.83504 -0.02752,1.20465c0.46792,0.67077 0.79821,1.3963 0.99088,2.17659c0.09634,0.41068 0.42663,0.71184 0.86702,0.78029l0.99088,0.1232v0.7666zM53.97214,27.95346h-5.29846v-0.15058c0,-0.49281 -0.37158,-0.90349 -0.86702,-0.95825l-1.14227,-0.13689c-0.16515,-0.47912 -0.37158,-0.94456 -0.64683,-1.43737l0.74316,-0.94456c0.30277,-0.39699 0.27524,-0.93087 -0.08257,-1.28679l-1.67899,-1.67009c-0.19267,-0.17796 -0.42663,-0.27379 -0.68811,-0.27379c-0.2202,0 -0.44039,0.06845 -0.60554,0.20534l-1.03217,0.80767c-0.42663,-0.21903 -0.85326,-0.3833 -1.33494,-0.53388l-0.16515,-1.31417c-0.06881,-0.49281 -0.46792,-0.84873 -0.96336,-0.84873h-2.35334c-0.5092,0 -0.92207,0.36961 -0.96336,0.84873l-0.16515,1.31417c-0.41287,0.1232 -0.8395,0.28747 -1.33494,0.53388l-1.03217,-0.80767c-0.16515,-0.13689 -0.38534,-0.20534 -0.60554,-0.20534c-0.26148,0 -0.5092,0.10951 -0.68811,0.28747l-1.66523,1.6564c-0.35782,0.35592 -0.38534,0.8898 -0.08257,1.28679l0.7294,0.94456c-0.24772,0.42437 -0.45415,0.8898 -0.64683,1.43737l-1.14227,0.13689c-0.48168,0.06845 -0.85326,0.47912 -0.85326,0.95825v0.15058h-6.89488c-2.1882,0 -3.96353,-1.76591 -3.96353,-3.94251c0,-2.17659 1.77533,-3.94251 3.96353,-3.94251h1.54137c0.56425,0 1.03217,-0.5065 1.03217,-1.08145c0,-4.94182 4.0461,-8.95277 9.00051,-8.95277c2.89007,0 5.61499,1.3963 7.30775,3.73717c0.19267,0.2601 0.48168,0.41068 0.81197,0.42437c0.31653,0.01369 0.63306,-0.1232 0.82573,-0.3833c0.93583,-1.13621 2.32582,-1.79329 3.79838,-1.79329c2.71116,0 4.91312,2.19028 4.91312,4.88706c0,0.58864 -0.1101,1.17728 -0.33029,1.75222c-0.12386,0.31485 -0.08257,0.67077 0.1101,0.94456c0.19267,0.27379 0.5092,0.45175 0.85326,0.45175h1.61018c2.1882,0 3.96353,1.76591 3.96353,3.94251c0,2.17659 -1.77533,3.94251 -3.96353,3.94251zM17.11685,42.98426c-0.55049,0 -1.00464,0.45175 -1.00464,0.99932c0,0.54757 0.45415,0.99932 1.00464,0.99932c0.55049,0 1.00464,-0.45175 1.00464,-0.99932c0,-0.54757 -0.45415,-0.99932 -1.00464,-0.99932zM21.05285,42.98426c-0.55049,0 -1.00464,0.45175 -1.00464,0.99932c0,0.54757 0.45415,0.99932 1.00464,0.99932c0.55049,0 1.00464,-0.45175 1.00464,-0.99932c0,-0.54757 -0.45415,-0.99932 -1.00464,-0.99932zM25.07143,42.98426c-0.55049,0 -1.00464,0.45175 -1.00464,0.99932c0,0.54757 0.45415,0.99932 1.00464,0.99932c0.55049,0 1.00464,-0.45175 1.00464,-0.99932c0,-0.54757 -0.45415,-0.99932 -1.00464,-0.99932zM39.02634,25.01027c-2.33958,0 -4.25253,1.90281 -4.25253,4.22998c0,2.32717 1.91295,4.22998 4.25253,4.22998c2.33958,0 4.25253,-1.90281 4.25253,-4.22998c0,-2.32717 -1.91295,-4.22998 -4.25253,-4.22998zM39.02634,31.89596c-1.47256,0 -2.66987,-1.19097 -2.66987,-2.65572c0,-1.46475 1.19732,-2.65572 2.66987,-2.65572c1.47256,0 2.66987,1.19097 2.66987,2.65572c0,1.46475 -1.19732,2.65572 -2.66987,2.65572z" vector-effect="non-scaling-stroke"/><linearGradient id="gradient-17453174993364989" x1="86%" y1="85%" x2="14%" y2="15%" vector-effect="non-scaling-stroke"><stop offset="0%" stop-color="rgb(181,245,140)" stop-opacity="1" vector-effect="non-scaling-stroke"/><stop offset="100%" stop-color="rgb(0,89,178)" stop-opacity="1" vector-effect="non-scaling-stroke"/></linearGradient></defs></g></svg>