<svg version="1.2" xmlns="http://www.w3.org/2000/svg" xmlns:xlink="http://www.w3.org/1999/xlink" overflow="visible" preserveAspectRatio="none" viewBox="0 0 50 50" width="50" height="50"><g transform="translate(0, 0)"><g transform="translate(0, 0) rotate(0)"><path style="stroke-width: 0; stroke-linecap: butt; stroke-linejoin: miter; fill: url(&quot;#gradient-174539925441617080&quot;);" d="M25,0c-13.80697,0 -25,11.19303 -25,25c0,13.80697 11.19303,25 25,25c13.80697,0 25,-11.19303 25,-25c0,-13.80697 -11.19303,-25 -25,-25zM16.08579,26.60858l-1.41809,4.50825c-0.15169,0.575 0.27162,0.99831 0.56794,1.05475h-5.41484c0.31396,-0.07761 0.89601,-0.59616 1.04769,-1.09002l3.90151,-12.46296c0.10936,-0.31396 0.20107,-0.8184 -0.35276,-1.20291h6.69536c2.02131,0 5.12558,1.11119 3.46409,5.19966c-1.97192,4.87512 -8.48737,3.99323 -8.4909,3.99323zM28.91209,32.17864c-0.37392,-0.17991 -1.09002,-0.85368 -1.36165,-1.11119c-0.27868,0.20107 -1.85551,1.2911 -3.44998,1.31932c-1.471,0.02822 -2.38818,-0.50797 -2.93142,-1.35459c-0.31396,-0.49386 -0.41626,-1.03358 -0.41626,-1.52039c0,-0.56089 0.13758,-1.04769 0.23635,-1.26993c0.76549,-1.76379 2.91026,-2.33173 3.71455,-2.63158c0,0 0.10936,-0.04233 0.17285,-0.07055c-0.00706,-0.08466 -0.01411,-0.22224 -0.01411,-0.4092c0,-0.77254 0.13758,-2.47284 1.23466,-3.50642c0.31396,-0.28573 0.93128,-0.67377 1.65797,-0.81134c0.91012,-0.1658 1.77085,0.05644 2.31762,0.59616c0.32101,0.31396 0.49386,0.73021 0.49386,1.17469v0.05644c-0.01411,0.42331 -0.19402,1.07591 -0.98067,1.76379c-0.82546,0.72316 -1.86962,1.1253 -2.61041,1.49217c0.20813,1.37576 0.79723,2.3141 1.35459,3.1325c0.32101,-0.39509 0.48681,-0.96656 0.48681,-1.37576c0,-0.44448 -0.35981,-0.6526 -0.35981,-0.6526h1.88726c-0.12347,1.54861 -0.81134,2.3141 -1.3687,2.91731c0.68788,0.78312 2.40934,1.88726 3.57697,2.26471h-3.644zM43.00127,25.89248l-1.67208,5.33371c-0.29984,0.14463 -4.34599,2.23649 -8.01467,0.42331c-3.42176,-1.69324 -2.7621,-8.01467 -0.0635,-11.09778c4.39537,-5.0127 10.61098,-2.91026 11.46465,-2.65274l-0.61733,1.96487c-0.15874,-0.11641 -1.9437,-1.81318 -4.10964,-1.2911c-2.57514,0.61733 -4.15197,3.84154 -4.73049,5.59828c-2.61747,8.18753 2.06364,7.0199 2.28588,6.97756l1.67208,-5.33371c0.0635,-0.26457 0.12347,-0.90306 -0.72316,-1.25582h5.82052c-0.72316,0.27162 -1.13236,0.68788 -1.31226,1.33343z" vector-effect="non-scaling-stroke"/></g><defs><path id="path-1745399252562337" d="M25,0c-13.80697,0 -25,11.19303 -25,25c0,13.80697 11.19303,25 25,25c13.80697,0 25,-11.19303 25,-25c0,-13.80697 -11.19303,-25 -25,-25zM16.08579,26.60858l-1.41809,4.50825c-0.15169,0.575 0.27162,0.99831 0.56794,1.05475h-5.41484c0.31396,-0.07761 0.89601,-0.59616 1.04769,-1.09002l3.90151,-12.46296c0.10936,-0.31396 0.20107,-0.8184 -0.35276,-1.20291h6.69536c2.02131,0 5.12558,1.11119 3.46409,5.19966c-1.97192,4.87512 -8.48737,3.99323 -8.4909,3.99323zM28.91209,32.17864c-0.37392,-0.17991 -1.09002,-0.85368 -1.36165,-1.11119c-0.27868,0.20107 -1.85551,1.2911 -3.44998,1.31932c-1.471,0.02822 -2.38818,-0.50797 -2.93142,-1.35459c-0.31396,-0.49386 -0.41626,-1.03358 -0.41626,-1.52039c0,-0.56089 0.13758,-1.04769 0.23635,-1.26993c0.76549,-1.76379 2.91026,-2.33173 3.71455,-2.63158c0,0 0.10936,-0.04233 0.17285,-0.07055c-0.00706,-0.08466 -0.01411,-0.22224 -0.01411,-0.4092c0,-0.77254 0.13758,-2.47284 1.23466,-3.50642c0.31396,-0.28573 0.93128,-0.67377 1.65797,-0.81134c0.91012,-0.1658 1.77085,0.05644 2.31762,0.59616c0.32101,0.31396 0.49386,0.73021 0.49386,1.17469v0.05644c-0.01411,0.42331 -0.19402,1.07591 -0.98067,1.76379c-0.82546,0.72316 -1.86962,1.1253 -2.61041,1.49217c0.20813,1.37576 0.79723,2.3141 1.35459,3.1325c0.32101,-0.39509 0.48681,-0.96656 0.48681,-1.37576c0,-0.44448 -0.35981,-0.6526 -0.35981,-0.6526h1.88726c-0.12347,1.54861 -0.81134,2.3141 -1.3687,2.91731c0.68788,0.78312 2.40934,1.88726 3.57697,2.26471h-3.644zM43.00127,25.89248l-1.67208,5.33371c-0.29984,0.14463 -4.34599,2.23649 -8.01467,0.42331c-3.42176,-1.69324 -2.7621,-8.01467 -0.0635,-11.09778c4.39537,-5.0127 10.61098,-2.91026 11.46465,-2.65274l-0.61733,1.96487c-0.15874,-0.11641 -1.9437,-1.81318 -4.10964,-1.2911c-2.57514,0.61733 -4.15197,3.84154 -4.73049,5.59828c-2.61747,8.18753 2.06364,7.0199 2.28588,6.97756l1.67208,-5.33371c0.0635,-0.26457 0.12347,-0.90306 -0.72316,-1.25582h5.82052c-0.72316,0.27162 -1.13236,0.68788 -1.31226,1.33343z" vector-effect="non-scaling-stroke"/><linearGradient id="gradient-174539925441617080" x1="0%" y1="50%" x2="100%" y2="50%" vector-effect="non-scaling-stroke"><stop offset="0%" stop-color="rgb(242,242,243)" stop-opacity="1" vector-effect="non-scaling-stroke"/><stop offset="100%" stop-color="rgb(214,214,214)" stop-opacity="1" vector-effect="non-scaling-stroke"/></linearGradient></defs></g></svg>