<svg version="1.2" xmlns="http://www.w3.org/2000/svg" xmlns:xlink="http://www.w3.org/1999/xlink" overflow="visible" preserveAspectRatio="none" viewBox="0 0 166.8512 37.03232" width="166.8512" height="37.03232"><g transform="translate(0, 0)"><g transform="translate(0.00001000000000095369, -0.000010000000000537357) rotate(0)"><path style="stroke-width: 0; stroke-linecap: butt; stroke-linejoin: miter; fill: rgb(242, 242, 243);" d="M38.25259,23.04997h4.00285c1.56449,0 2.15647,0.54086 2.15647,1.86243c0,1.32158 -0.59667,1.8107 -2.15647,1.8107h-4.00285zM32.05099,36.41623h6.2016v-5.4368h6.64323c4.3975,0 5.98078,-2.59612 5.98078,-5.94944c0,-3.89418 -1.63027,-6.09524 -6.02777,-6.09524h-12.80254v17.48148zM52.92501,18.93474h16.69264v4.26102h-10.49104v2.35156h9.74403v4.26102h-9.74403v2.35156h10.49104v4.26102h-16.69264v-17.48148zM78.42204,23.04997h4.00285c1.5598,0 2.15647,0.54086 2.15647,1.86243c0,1.32158 -0.59667,1.8107 -2.15647,1.8107h-4.00285zM72.21574,36.41623h6.2016v-5.4368h6.64323c4.4022,0 5.98548,-2.59612 5.98548,-5.94944c0,-3.89418 -1.63027,-6.09524 -6.02777,-6.09524h-12.80254zM97.05032,28.99941c-3.03502,-0.51264 -4.28944,-2.47384 -4.28944,-4.91946c0,-4.5291 3.97936,-5.75191 9.08158,-5.75191c6.99559,0 9.87558,2.03175 10.09639,5.7284h-7.21641c0,-0.71017 -0.37585,-1.15226 -0.94433,-1.39683c-0.54969,-0.26808 -1.25441,-0.36684 -1.93565,-0.36684c-1.84639,0 -2.48534,0.51264 -2.48534,1.24633c0,0.48912 0.19732,0.80894 0.81279,0.9077l7.41373,1.22281c3.12429,0.51264 5.05994,2.13051 5.05994,5.09347c0,4.26102 -3.12429,6.26925 -10.09639,6.26925c-4.77335,0 -9.98833,-0.73369 -10.00713,-5.87419h7.4795c0.01879,0.58789 0.22081,0.97825 0.66244,1.24633c0.46042,0.24456 1.14166,0.36684 2.10948,0.36684c1.93565,0 2.46654,-0.58789 2.46654,-1.42034c0,-0.51264 -0.28659,-1.02998 -1.12287,-1.17578zM114.6732,18.93474h6.2016v17.48148h-6.2016zM143.863,29.61082c-0.39465,2.29982 -1.09937,4.16226 -2.64038,5.4368c-1.51751,1.27454 -3.89479,1.98471 -7.67683,1.98471c-3.78204,0 -10.73534,-0.2963 -10.73534,-9.34979c0,-9.0535 6.9721,-9.3545 10.73534,-9.3545c3.76324,0 9.50442,0.53616 10.31721,7.46855h-6.99559c-0.17383,-1.25103 -0.92554,-3.06173 -3.32161,-3.06173c-2.53232,0 -4.1344,1.39683 -4.1344,4.94768c0,3.55085 1.56449,4.94297 3.82902,4.94297c1.95914,0 3.12429,-0.9077 3.63169,-3.00999h6.99559v0zM151.98145,27.67784c0,-3.55085 1.60678,-4.94768 4.1344,-4.94768c2.52762,0 4.1344,1.39683 4.1344,4.94768c0,3.55085 -1.60678,4.94297 -4.1344,4.94297c-2.53232,0 -4.1344,-1.39683 -4.1344,-4.94297zM145.38051,27.67784c0,9.0582 6.9721,9.34979 10.73534,9.34979c3.76324,0 10.73534,-0.2963 10.73534,-9.34979c0,-9.0535 -6.9721,-9.3545 -10.73534,-9.3545c-3.76324,0 -10.73534,0.29159 -10.73534,9.3545zM22.67812,19.10876c0.39935,-8.38566 -6.82646,-17.82951 -16.67384,-18.99588l0.01879,-0.11287c9.71114,0 17.15306,8.99706 17.15306,16.09877c-0.0094,1.47678 -0.12685,2.39389 -0.33357,3.05703l-0.16444,-0.04233zM22.09085,20.17637c-0.64835,0.79012 -1.45644,1.58495 -2.41017,2.34215c-1.75242,-10.08348 -9.15206,-18.89712 -14.38583,-21.46972l-0.11276,0.07995c5.26196,4.32216 11.53873,12.72193 13.97709,21.78954c-1.24502,0.91711 -2.5887,1.68842 -4.00755,2.29982c-4.96598,-5.66725 -9.59369,-16.602 -11.08771,-23.53909l-0.15034,0.04703c0.03289,6.73486 4.81094,18.16814 10.63198,23.74603c-1.33428,0.53145 -2.72494,0.9124 -4.1438,1.14756c-5.58144,-2.21517 -9.5561,-9.30747 -9.5561,-16.56908c0,-4.74074 1.44234,-7.67549 1.72423,-8.27748l-0.11745,-0.04703c-0.33827,0.51264 -2.45245,3.44268 -2.45245,8.56437c0,8.21164 4.04513,14.4856 9.41515,16.46561c-1.92156,0.21164 -3.8619,0.12228 -5.75527,-0.26808l-0.04228,0.12698c0.57318,0.21164 2.52292,1.02998 5.49687,1.02998c6.7278,0 11.27094,-4.18107 13.10323,-7.36508l-0.13155,-0.08936z" vector-effect="non-scaling-stroke"/></g><defs><path id="path-17453942361561214" d="M38.25259,23.04997h4.00285c1.56449,0 2.15647,0.54086 2.15647,1.86243c0,1.32158 -0.59667,1.8107 -2.15647,1.8107h-4.00285zM32.05099,36.41623h6.2016v-5.4368h6.64323c4.3975,0 5.98078,-2.59612 5.98078,-5.94944c0,-3.89418 -1.63027,-6.09524 -6.02777,-6.09524h-12.80254v17.48148zM52.92501,18.93474h16.69264v4.26102h-10.49104v2.35156h9.74403v4.26102h-9.74403v2.35156h10.49104v4.26102h-16.69264v-17.48148zM78.42204,23.04997h4.00285c1.5598,0 2.15647,0.54086 2.15647,1.86243c0,1.32158 -0.59667,1.8107 -2.15647,1.8107h-4.00285zM72.21574,36.41623h6.2016v-5.4368h6.64323c4.4022,0 5.98548,-2.59612 5.98548,-5.94944c0,-3.89418 -1.63027,-6.09524 -6.02777,-6.09524h-12.80254zM97.05032,28.99941c-3.03502,-0.51264 -4.28944,-2.47384 -4.28944,-4.91946c0,-4.5291 3.97936,-5.75191 9.08158,-5.75191c6.99559,0 9.87558,2.03175 10.09639,5.7284h-7.21641c0,-0.71017 -0.37585,-1.15226 -0.94433,-1.39683c-0.54969,-0.26808 -1.25441,-0.36684 -1.93565,-0.36684c-1.84639,0 -2.48534,0.51264 -2.48534,1.24633c0,0.48912 0.19732,0.80894 0.81279,0.9077l7.41373,1.22281c3.12429,0.51264 5.05994,2.13051 5.05994,5.09347c0,4.26102 -3.12429,6.26925 -10.09639,6.26925c-4.77335,0 -9.98833,-0.73369 -10.00713,-5.87419h7.4795c0.01879,0.58789 0.22081,0.97825 0.66244,1.24633c0.46042,0.24456 1.14166,0.36684 2.10948,0.36684c1.93565,0 2.46654,-0.58789 2.46654,-1.42034c0,-0.51264 -0.28659,-1.02998 -1.12287,-1.17578zM114.6732,18.93474h6.2016v17.48148h-6.2016zM143.863,29.61082c-0.39465,2.29982 -1.09937,4.16226 -2.64038,5.4368c-1.51751,1.27454 -3.89479,1.98471 -7.67683,1.98471c-3.78204,0 -10.73534,-0.2963 -10.73534,-9.34979c0,-9.0535 6.9721,-9.3545 10.73534,-9.3545c3.76324,0 9.50442,0.53616 10.31721,7.46855h-6.99559c-0.17383,-1.25103 -0.92554,-3.06173 -3.32161,-3.06173c-2.53232,0 -4.1344,1.39683 -4.1344,4.94768c0,3.55085 1.56449,4.94297 3.82902,4.94297c1.95914,0 3.12429,-0.9077 3.63169,-3.00999h6.99559v0zM151.98145,27.67784c0,-3.55085 1.60678,-4.94768 4.1344,-4.94768c2.52762,0 4.1344,1.39683 4.1344,4.94768c0,3.55085 -1.60678,4.94297 -4.1344,4.94297c-2.53232,0 -4.1344,-1.39683 -4.1344,-4.94297zM145.38051,27.67784c0,9.0582 6.9721,9.34979 10.73534,9.34979c3.76324,0 10.73534,-0.2963 10.73534,-9.34979c0,-9.0535 -6.9721,-9.3545 -10.73534,-9.3545c-3.76324,0 -10.73534,0.29159 -10.73534,9.3545zM22.67812,19.10876c0.39935,-8.38566 -6.82646,-17.82951 -16.67384,-18.99588l0.01879,-0.11287c9.71114,0 17.15306,8.99706 17.15306,16.09877c-0.0094,1.47678 -0.12685,2.39389 -0.33357,3.05703l-0.16444,-0.04233zM22.09085,20.17637c-0.64835,0.79012 -1.45644,1.58495 -2.41017,2.34215c-1.75242,-10.08348 -9.15206,-18.89712 -14.38583,-21.46972l-0.11276,0.07995c5.26196,4.32216 11.53873,12.72193 13.97709,21.78954c-1.24502,0.91711 -2.5887,1.68842 -4.00755,2.29982c-4.96598,-5.66725 -9.59369,-16.602 -11.08771,-23.53909l-0.15034,0.04703c0.03289,6.73486 4.81094,18.16814 10.63198,23.74603c-1.33428,0.53145 -2.72494,0.9124 -4.1438,1.14756c-5.58144,-2.21517 -9.5561,-9.30747 -9.5561,-16.56908c0,-4.74074 1.44234,-7.67549 1.72423,-8.27748l-0.11745,-0.04703c-0.33827,0.51264 -2.45245,3.44268 -2.45245,8.56437c0,8.21164 4.04513,14.4856 9.41515,16.46561c-1.92156,0.21164 -3.8619,0.12228 -5.75527,-0.26808l-0.04228,0.12698c0.57318,0.21164 2.52292,1.02998 5.49687,1.02998c6.7278,0 11.27094,-4.18107 13.10323,-7.36508l-0.13155,-0.08936z" vector-effect="non-scaling-stroke"/></defs></g></svg>