<svg version="1.2" xmlns="http://www.w3.org/2000/svg" xmlns:xlink="http://www.w3.org/1999/xlink" overflow="visible" preserveAspectRatio="none" viewBox="0 0 49.99999822333708 43.000011987001514" width="49.99999822333708" height="43.000011987001514"><g transform="translate(0, 0)"><g transform="translate(-0.000014984295704679063, -8.635219944990932e-7) rotate(0)"><path style="stroke-width: 0; stroke-linecap: butt; stroke-linejoin: miter; fill: url(&quot;#gradient-17453834237057376&quot;);" d="M26.8673,29.9118c1.7289,3.54124 6.04425,5.04524 9.62654,3.33615c3.58229,-1.70909 5.10373,-5.97498 3.37482,-9.51622c-1.7289,-3.54124 -6.04425,-5.04524 -9.62654,-3.33615c-3.58229,1.70909 -5.10373,5.97498 -3.37482,9.51622zM28.58237,29.09144c-1.27247,-2.61149 -0.15214,-5.76989 2.48962,-7.02778c2.64177,-1.25789 5.83678,-0.1504 7.10926,2.46109c1.27247,2.61149 0.15214,5.76989 -2.48962,7.02778c-2.64177,1.25789 -5.83678,0.1504 -7.10926,-2.46109zM16.93647,31.7713l0.92669,1.90051l0.92669,1.90051c0.27662,0.57425 0.95436,0.83404 1.56293,0.64262l2.26832,-0.752l0.12448,0.13673c0.70539,0.72465 1.47994,1.38095 2.30982,1.92786l0.16597,0.10938l-0.51176,2.42007c-0.13831,0.62895 0.20747,1.24422 0.82987,1.46298l4.03872,1.40829c0.31812,0.10938 0.6639,0.09571 0.98202,-0.05469c0.24896,-0.12305 0.47026,-0.31447 0.59474,-0.57425l1.20332,-2.39273h0.17981c0.94052,0.04102 1.86722,-0.01367 2.76625,-0.16407l0.19364,-0.02735l1.47994,2.26967c0.33195,0.54691 1.03734,0.73833 1.63209,0.46487l3.85892,-1.83215c0.58091,-0.27345 0.85754,-0.92975 0.65007,-1.54502l-0.87137,-2.57047l0.15214,-0.13673c0.67773,-0.6016 1.30014,-1.28524 1.86722,-2.02356l0.11065,-0.1504l2.64177,0.56058c0.27662,0.06836 0.56708,0.02735 0.82987,-0.09571c0.30429,-0.1504 0.52559,-0.39651 0.65007,-0.72465l1.42462,-3.99244c0.2213,-0.6016 -0.05532,-1.25789 -0.63624,-1.55869l-2.25449,-1.10749v-0.20509c0.09682,-0.98444 0.06916,-1.99622 -0.06916,-2.98066l-0.02766,-0.17775l2.00553,-1.28524c0.53942,-0.34182 0.74689,-1.02545 0.47026,-1.61338l-0.92669,-1.90051l-0.92669,-1.90051c-0.27662,-0.57425 -0.95436,-0.83404 -1.56293,-0.64262l-2.26832,0.752l-0.12448,-0.13673c-0.70539,-0.72465 -1.47994,-1.38095 -2.30982,-1.92786l-0.16597,-0.10938l0.51176,-2.42007c0.13831,-0.62895 -0.20747,-1.24422 -0.82987,-1.46298l-4.03872,-1.40829c-0.31812,-0.10938 -0.6639,-0.09571 -0.98202,0.05469c-0.24896,0.12305 -0.47026,0.31447 -0.59474,0.57425l-1.20332,2.39273h-0.17981c-0.94052,-0.04102 -1.86722,0.01367 -2.76625,0.16407l-0.19364,0.02735l-1.47994,-2.26967c-0.33195,-0.54691 -1.03734,-0.73833 -1.63209,-0.46487l-3.85892,1.83215c-0.58091,0.27345 -0.85754,0.92975 -0.65007,1.54502l0.87137,2.57047l-0.15214,0.13673c-0.67773,0.6016 -1.30014,1.28524 -1.86722,2.02356l-0.11065,0.1504l-2.64177,-0.56058c-0.27662,-0.06836 -0.56708,-0.02735 -0.82987,0.09571c-0.30429,0.1504 -0.52559,0.39651 -0.65007,0.72465l-1.42462,3.99244c-0.2213,0.6016 0.05532,1.25789 0.63624,1.55869l2.25449,1.10749v0.20509c-0.09682,0.98444 -0.06916,1.99622 0.06916,2.99433l0.02766,0.17775l-2.00553,1.28524c-0.53942,0.34182 -0.74689,1.02545 -0.47026,1.61338zM18.92817,31.9217l1.88105,-1.2032c0.47026,-0.31447 0.70539,-0.87505 0.58091,-1.40829c-0.33195,-1.46298 -0.35961,-2.96698 -0.11065,-4.48466c0.09682,-0.57425 -0.19364,-1.14851 -0.71922,-1.40829l-2.1715,-1.06647l0.70539,-2.00989l2.51729,0.53324c0.29046,0.06836 0.60857,0.02735 0.87137,-0.10938c0.2213,-0.10938 0.41494,-0.28713 0.56708,-0.49222c0.78838,-1.23055 1.75657,-2.28335 2.8769,-3.11738c0.45643,-0.34182 0.63624,-0.94342 0.45643,-1.49033l-0.82987,-2.47476l1.93637,-0.91607l1.42462,2.18764c0.31812,0.47855 0.91286,0.72465 1.46611,0.57425c1.36929,-0.34182 2.79391,-0.43753 4.26002,-0.27345c0.26279,0.02735 0.51176,-0.01367 0.73306,-0.12305c0.26279,-0.12305 0.49792,-0.34182 0.62241,-0.6016l1.14799,-2.28335l2.03319,0.69731l-0.51176,2.33804c-0.12448,0.57425 0.13831,1.14851 0.6639,1.43564c1.31397,0.73833 2.47579,1.70909 3.47164,2.88495c0.35961,0.42385 0.95436,0.6016 1.46611,0.42385l2.13001,-0.69731l0.49792,1.02545l0.48409,1.01178l-1.88105,1.2032c-0.47026,0.31447 -0.70539,0.87505 -0.58091,1.40829c0.33195,1.46298 0.35961,2.96698 0.11065,4.48466c-0.09682,0.57425 0.19364,1.14851 0.71922,1.40829l2.1715,1.06647l-0.70539,2.00989l-2.51729,-0.53324c-0.29046,-0.06836 -0.60857,-0.02735 -0.87137,0.10938c-0.2213,0.10938 -0.41494,0.28713 -0.56708,0.49222c-0.78838,1.23055 -1.75657,2.28335 -2.8769,3.11738c-0.45643,0.34182 -0.63624,0.94342 -0.45643,1.49033l0.84371,2.47476l-1.93637,0.91607l-1.42462,-2.18764c-0.31812,-0.47855 -0.91286,-0.72465 -1.46611,-0.57425c-1.36929,0.34182 -2.79391,0.43753 -4.27385,0.27345c-0.26279,-0.02735 -0.51176,0.01367 -0.73306,0.12305c-0.26279,0.12305 -0.49792,0.34182 -0.62241,0.6016l-1.14799,2.28335l-2.03319,-0.69731l0.51176,-2.33804c0.12448,-0.57425 -0.13831,-1.14851 -0.6639,-1.43564c-1.31397,-0.73833 -2.47579,-1.70909 -3.47164,-2.88495c-0.35961,-0.42385 -0.95436,-0.6016 -1.46611,-0.42385l-2.13001,0.69731l-0.49792,-1.02545zM6.96415,10.96139c-0.51176,-2.32436 0.98202,-4.62138 3.33333,-5.12727c2.35131,-0.50589 4.67496,0.97076 5.18671,3.29513c0.51176,2.32436 -0.98202,4.62138 -3.33333,5.12727c-2.35131,0.50589 -4.67496,-0.97076 -5.18671,-3.29513zM8.61007,10.6059c0.31812,1.42196 1.74274,2.32436 3.18118,2.02356c1.43845,-0.3008 2.35131,-1.72276 2.04702,-3.14473c-0.30429,-1.42196 -1.74274,-2.32436 -3.18118,-2.02356c-1.43845,0.3008 -2.35131,1.72276 -2.04702,3.14473zM12.08171,19.54786c-0.52559,0.10938 -1.03734,-0.17775 -1.18949,-0.65629l-0.4426,-1.24422c-0.42877,-0.04102 -0.8852,-0.10938 -1.39695,-0.24611l-0.84371,0.99811c-0.13831,0.17775 -0.34578,0.3008 -0.58091,0.34182c-0.26279,0.05469 -0.55325,0 -0.77455,-0.13673l-2.01936,-1.28524c-0.4426,-0.28713 -0.59474,-0.82036 -0.37344,-1.29891l0.51176,-1.06647c-0.33195,-0.36916 -0.63624,-0.76567 -0.92669,-1.25789l-1.14799,0.09571c-0.51176,0.04102 -0.99585,-0.3008 -1.09267,-0.79302l-0.51176,-2.31069c-0.11065,-0.50589 0.17981,-1.01178 0.6639,-1.17586l1.07884,-0.36916c0.05532,-0.49222 0.15214,-0.98444 0.31812,-1.51767l-0.92669,-0.76567c-0.40111,-0.34182 -0.48409,-0.9024 -0.20747,-1.33993l1.30014,-2.00989c0.16597,-0.23244 0.38727,-0.38284 0.65007,-0.43753c0.23513,-0.05469 0.47026,-0.02735 0.6639,0.08204l1.18949,0.56058c0.35961,-0.28713 0.74689,-0.54691 1.17566,-0.79302l-0.12448,-1.31258c-0.04149,-0.51956 0.29046,-0.98444 0.80221,-1.08015l2.33748,-0.50589c0.52559,-0.10938 1.03734,0.17775 1.18949,0.65629l0.4426,1.24422c0.42877,0.02735 0.87137,0.10938 1.39695,0.24611l0.84371,-0.99811c0.13831,-0.17775 0.34578,-0.3008 0.58091,-0.34182c0.26279,-0.05469 0.55325,0 0.77455,0.13673l2.01936,1.28524c0.4426,0.28713 0.59474,0.82036 0.37344,1.29891l-0.51176,1.06647c0.33195,0.36916 0.63624,0.76567 0.92669,1.25789l1.14799,-0.09571c0.52559,-0.04102 0.99585,0.3008 1.09267,0.79302l0.51176,2.31069c0.11065,0.50589 -0.17981,1.01178 -0.6639,1.17586l-1.07884,0.38284c-0.05532,0.49222 -0.15214,0.98444 -0.31812,1.51767l0.92669,0.76567c0.40111,0.34182 0.49792,0.9024 0.20747,1.32626l-1.30014,2.00989c-0.16597,0.23244 -0.38727,0.38284 -0.65007,0.43753c-0.23513,0.05469 -0.47026,0.02735 -0.6639,-0.08204l-1.18949,-0.56058c-0.35961,0.28713 -0.73306,0.54691 -1.17566,0.79302l0.12448,1.31258c0.04149,0.51956 -0.29046,0.98444 -0.80221,1.08015zM13.24353,17.71572l-0.11065,-1.18953c-0.04149,-0.46487 0.2213,-0.88873 0.63624,-1.06647c0.69156,-0.3008 1.3278,-0.72465 1.89488,-1.28524c0.15214,-0.13673 0.33195,-0.23244 0.51176,-0.25978c0.23513,-0.05469 0.48409,-0.02735 0.69156,0.08204l1.05117,0.50589l0.35961,-0.54691l-0.82987,-0.68364c-0.35961,-0.3008 -0.48409,-0.79302 -0.29046,-1.21687c0.31812,-0.752 0.49792,-1.54502 0.51176,-2.33804c0,-0.43753 0.29046,-0.82036 0.71922,-0.98444l0.92669,-0.32815l-0.15214,-0.69731l-0.96819,0.08204c-0.42877,0.04102 -0.85754,-0.19142 -1.06501,-0.58793c-0.37344,-0.73833 -0.85754,-1.39462 -1.43845,-1.92786c-0.34578,-0.31447 -0.4426,-0.80669 -0.24896,-1.23055l0.47026,-0.97076l-0.55325,-0.34182l-0.74689,0.88873c-0.15214,0.17775 -0.35961,0.31447 -0.59474,0.35549c-0.20747,0.04102 -0.40111,0.02735 -0.59474,-0.04102c-0.73306,-0.25978 -1.49377,-0.38284 -2.25449,-0.38284c-0.45643,0 -0.87137,-0.27345 -1.02351,-0.71098l-0.40111,-1.12116l-0.63624,0.13673l0.11065,1.18953c0.04149,0.46487 -0.2213,0.88873 -0.63624,1.06647c-0.69156,0.3008 -1.3278,0.73833 -1.89488,1.28524c-0.15214,0.13673 -0.33195,0.23244 -0.51176,0.27345c-0.23513,0.05469 -0.48409,0.02735 -0.69156,-0.08204l-1.05117,-0.50589l-0.35961,0.54691l0.82987,0.68364c0.35961,0.3008 0.47026,0.79302 0.29046,1.21687c-0.31812,0.752 -0.49792,1.54502 -0.51176,2.33804c0,0.43753 -0.27662,0.83404 -0.71922,0.98444l-0.92669,0.32815l0.15214,0.69731l0.98202,-0.08204c0.42877,-0.04102 0.85754,0.19142 1.06501,0.58793c0.37344,0.73833 0.85754,1.39462 1.43845,1.92786c0.34578,0.31447 0.4426,0.80669 0.24896,1.23055l-0.47026,0.97076l0.55325,0.34182l0.74689,-0.88873c0.15214,-0.17775 0.35961,-0.3008 0.59474,-0.35549c0.20747,-0.04102 0.41494,-0.02735 0.59474,0.04102c0.74689,0.25978 1.49377,0.39651 2.25449,0.38284c0.45643,0 0.87137,0.27345 1.02351,0.71098l0.40111,1.12116l0.63624,-0.13673zM7.72483,32.67368c-1.60442,0 -3.01521,-1.12116 -3.34716,-2.66618c-0.40111,-1.83215 0.77455,-3.63695 2.62794,-4.03346c0.23513,-0.05469 0.48409,-0.08204 0.73306,-0.08204c1.60442,0 3.01521,1.12116 3.34716,2.66618c0.19364,0.88873 0.02766,1.79113 -0.47026,2.5568c-0.49792,0.76567 -1.25864,1.28524 -2.15767,1.47666c-0.23513,0.05469 -0.48409,0.08204 -0.73306,0.08204zM7.73866,27.32764c-0.13831,0 -0.27662,0.01367 -0.41494,0.04102c-0.51176,0.10938 -0.95436,0.41018 -1.24481,0.84771c-0.29046,0.43753 -0.38727,0.95709 -0.27662,1.47666c0.19364,0.88873 1.00968,1.54502 1.93637,1.54502c0.13831,0 0.27662,-0.01367 0.41494,-0.04102c0.51176,-0.10938 0.95436,-0.41018 1.24481,-0.84771c0.29046,-0.43753 0.38727,-0.95709 0.27662,-1.47666c-0.19364,-0.88873 -1.00968,-1.53135 -1.93637,-1.53135zM8.22278,36.69346c-0.37344,0 -0.70539,-0.23244 -0.81604,-0.58793l-0.34578,-0.95709c0,0 -0.08299,0 -0.12448,0c-0.26279,0 -0.55325,-0.05469 -0.89903,-0.13673l-0.56708,0.73833c-0.12448,0.1504 -0.29046,0.24611 -0.48409,0.28713c-0.05532,0 -0.12448,0.01367 -0.17981,0.01367c-0.16597,0 -0.33195,-0.04102 -0.47026,-0.13673l-1.5491,-0.98444c-0.37344,-0.23244 -0.51176,-0.69731 -0.31812,-1.09382l0.38727,-0.82036c-0.24896,-0.20509 -0.48409,-0.51956 -0.70539,-0.88873l-0.81604,0.10938c-0.47026,0 -0.82987,-0.28713 -0.92669,-0.66996l-0.38727,-1.77746c-0.09682,-0.42385 0.15214,-0.84771 0.56708,-0.99811l0.82987,-0.28713c0,-0.32815 0.06916,-0.69731 0.19364,-1.12116l-0.69156,-0.50589c-0.34578,-0.28713 -0.41494,-0.752 -0.17981,-1.12116l1.00968,-1.54502c0.13831,-0.19142 0.31812,-0.31447 0.53942,-0.36916c0.05532,0 0.12448,-0.01367 0.19364,-0.01367c0.13831,0 0.26279,0.02735 0.37344,0.08204l0.91286,0.43753c0.20747,-0.21876 0.49792,-0.42385 0.82987,-0.61527l-0.12448,-0.92975c-0.02766,-0.43753 0.24896,-0.83404 0.67773,-0.91607l1.79806,-0.38284c0,0 0.12448,-0.01367 0.19364,-0.01367c0.37344,0 0.70539,0.23244 0.81604,0.58793l0.34578,0.95709c0,0 0.08299,0 0.13831,0c0.24896,0 0.55325,0.05469 0.89903,0.13673l0.56708,-0.73833c0.12448,-0.1504 0.29046,-0.24611 0.48409,-0.28713c0.05532,0 0.12448,-0.01367 0.17981,-0.01367c0.16597,0 0.33195,0.04102 0.47026,0.13673l1.5491,0.98444c0.37344,0.23244 0.51176,0.69731 0.31812,1.09382l-0.38727,0.82036c0.24896,0.20509 0.48409,0.51956 0.70539,0.88873l0.81604,-0.10938c0.48409,0 0.82987,0.28713 0.92669,0.66996l0.38727,1.77746c0.09682,0.42385 -0.15214,0.84771 -0.56708,0.98444l-0.82987,0.28713c0,0.32815 -0.06916,0.71098 -0.19364,1.12116l0.67773,0.50589c0.34578,0.28713 0.41494,0.752 0.17981,1.12116l-0.99585,1.54502c-0.13831,0.19142 -0.31812,0.31447 -0.53942,0.36916c-0.05532,0 -0.12448,0.01367 -0.19364,0.01367c-0.12448,0 -0.26279,-0.02735 -0.37344,-0.08204l-0.91286,-0.43753c-0.19364,0.21876 -0.49792,0.41018 -0.82987,0.6016l0.12448,0.94342c0.02766,0.43753 -0.24896,0.82036 -0.67773,0.91607l-1.79806,0.38284c0,0 -0.12448,0.01367 -0.19364,0.01367zM7.72485,33.80851c0.37344,0 0.71922,0.24611 0.84371,0.6016l0.30429,0.86138l0.40111,-0.1504l-0.13831,-0.83404c-0.02766,-0.38284 0.17981,-0.752 0.53942,-0.88873c0.52559,-0.23244 1.00968,-0.54691 1.43845,-0.97076c0.12448,-0.10938 0.27662,-0.19142 0.42877,-0.23244c0.06916,0 0.12448,-0.01367 0.19364,-0.01367c0.13831,0 0.27662,0.02735 0.38727,0.08204l0.81604,0.38284l0.16597,-0.38284l-0.62241,-0.42385c-0.30429,-0.25978 -0.40111,-0.66996 -0.24896,-1.02545c0.24896,-0.57425 0.37344,-1.16218 0.38727,-1.77746c0,-0.36916 0.23513,-0.69731 0.59474,-0.82036l0.71922,-0.24611l-0.16597,-0.4512l-0.67773,0.12305c-0.41494,0 -0.73306,-0.19142 -0.8852,-0.49222c-0.27662,-0.56058 -0.65007,-1.0528 -1.09267,-1.46298c-0.29046,-0.25978 -0.37344,-0.68364 -0.20747,-1.03913l0.35961,-0.73833l-0.38727,-0.16407l-0.47026,0.66996c-0.12448,0.1504 -0.30429,0.25978 -0.49792,0.3008c-0.06916,0 -0.13831,0.02735 -0.19364,0.02735c-0.11065,0 -0.20747,-0.01367 -0.30429,-0.05469c-0.53942,-0.19142 -1.1065,-0.28713 -1.65975,-0.28713v0c-0.4426,0 -0.77455,-0.23244 -0.89903,-0.6016l-0.30429,-0.86138l-0.40111,0.1504l0.13831,0.83404c0.02766,0.38284 -0.17981,0.752 -0.53942,0.88873c-0.52559,0.23244 -1.00968,0.56058 -1.43845,0.97076c-0.12448,0.10938 -0.27662,0.19142 -0.42877,0.23244c-0.06916,0 -0.12448,0.01367 -0.19364,0.01367c-0.13831,0 -0.27662,-0.02735 -0.38727,-0.08204l-0.81604,-0.38284l-0.16597,0.38284l0.62241,0.42385c0.30429,0.25978 0.40111,0.66996 0.24896,1.02545c-0.24896,0.57425 -0.37344,1.16218 -0.38727,1.77746c0,0.36916 -0.23513,0.69731 -0.59474,0.83404l-0.71922,0.24611l0.16597,0.4512l0.67773,-0.12305c0.41494,0 0.73306,0.19142 0.8852,0.49222c0.27662,0.56058 0.65007,1.0528 1.09267,1.46298c0.29046,0.25978 0.37344,0.68364 0.20747,1.03913l-0.35961,0.73833l0.38727,0.16407l0.47026,-0.66996c0.12448,-0.1504 0.30429,-0.25978 0.49792,-0.3008c0.06916,-0.01367 0.13831,-0.02735 0.20747,-0.02735c0.11065,0 0.20747,0.01367 0.29046,0.05469c0.53942,0.19142 1.09267,0.28713 1.63209,0.28713h0.08299z" vector-effect="non-scaling-stroke"/></g><defs><path id="path-17453834216024151" d="M26.8673,29.9118c1.7289,3.54124 6.04425,5.04524 9.62654,3.33615c3.58229,-1.70909 5.10373,-5.97498 3.37482,-9.51622c-1.7289,-3.54124 -6.04425,-5.04524 -9.62654,-3.33615c-3.58229,1.70909 -5.10373,5.97498 -3.37482,9.51622zM28.58237,29.09144c-1.27247,-2.61149 -0.15214,-5.76989 2.48962,-7.02778c2.64177,-1.25789 5.83678,-0.1504 7.10926,2.46109c1.27247,2.61149 0.15214,5.76989 -2.48962,7.02778c-2.64177,1.25789 -5.83678,0.1504 -7.10926,-2.46109zM16.93647,31.7713l0.92669,1.90051l0.92669,1.90051c0.27662,0.57425 0.95436,0.83404 1.56293,0.64262l2.26832,-0.752l0.12448,0.13673c0.70539,0.72465 1.47994,1.38095 2.30982,1.92786l0.16597,0.10938l-0.51176,2.42007c-0.13831,0.62895 0.20747,1.24422 0.82987,1.46298l4.03872,1.40829c0.31812,0.10938 0.6639,0.09571 0.98202,-0.05469c0.24896,-0.12305 0.47026,-0.31447 0.59474,-0.57425l1.20332,-2.39273h0.17981c0.94052,0.04102 1.86722,-0.01367 2.76625,-0.16407l0.19364,-0.02735l1.47994,2.26967c0.33195,0.54691 1.03734,0.73833 1.63209,0.46487l3.85892,-1.83215c0.58091,-0.27345 0.85754,-0.92975 0.65007,-1.54502l-0.87137,-2.57047l0.15214,-0.13673c0.67773,-0.6016 1.30014,-1.28524 1.86722,-2.02356l0.11065,-0.1504l2.64177,0.56058c0.27662,0.06836 0.56708,0.02735 0.82987,-0.09571c0.30429,-0.1504 0.52559,-0.39651 0.65007,-0.72465l1.42462,-3.99244c0.2213,-0.6016 -0.05532,-1.25789 -0.63624,-1.55869l-2.25449,-1.10749v-0.20509c0.09682,-0.98444 0.06916,-1.99622 -0.06916,-2.98066l-0.02766,-0.17775l2.00553,-1.28524c0.53942,-0.34182 0.74689,-1.02545 0.47026,-1.61338l-0.92669,-1.90051l-0.92669,-1.90051c-0.27662,-0.57425 -0.95436,-0.83404 -1.56293,-0.64262l-2.26832,0.752l-0.12448,-0.13673c-0.70539,-0.72465 -1.47994,-1.38095 -2.30982,-1.92786l-0.16597,-0.10938l0.51176,-2.42007c0.13831,-0.62895 -0.20747,-1.24422 -0.82987,-1.46298l-4.03872,-1.40829c-0.31812,-0.10938 -0.6639,-0.09571 -0.98202,0.05469c-0.24896,0.12305 -0.47026,0.31447 -0.59474,0.57425l-1.20332,2.39273h-0.17981c-0.94052,-0.04102 -1.86722,0.01367 -2.76625,0.16407l-0.19364,0.02735l-1.47994,-2.26967c-0.33195,-0.54691 -1.03734,-0.73833 -1.63209,-0.46487l-3.85892,1.83215c-0.58091,0.27345 -0.85754,0.92975 -0.65007,1.54502l0.87137,2.57047l-0.15214,0.13673c-0.67773,0.6016 -1.30014,1.28524 -1.86722,2.02356l-0.11065,0.1504l-2.64177,-0.56058c-0.27662,-0.06836 -0.56708,-0.02735 -0.82987,0.09571c-0.30429,0.1504 -0.52559,0.39651 -0.65007,0.72465l-1.42462,3.99244c-0.2213,0.6016 0.05532,1.25789 0.63624,1.55869l2.25449,1.10749v0.20509c-0.09682,0.98444 -0.06916,1.99622 0.06916,2.99433l0.02766,0.17775l-2.00553,1.28524c-0.53942,0.34182 -0.74689,1.02545 -0.47026,1.61338zM18.92817,31.9217l1.88105,-1.2032c0.47026,-0.31447 0.70539,-0.87505 0.58091,-1.40829c-0.33195,-1.46298 -0.35961,-2.96698 -0.11065,-4.48466c0.09682,-0.57425 -0.19364,-1.14851 -0.71922,-1.40829l-2.1715,-1.06647l0.70539,-2.00989l2.51729,0.53324c0.29046,0.06836 0.60857,0.02735 0.87137,-0.10938c0.2213,-0.10938 0.41494,-0.28713 0.56708,-0.49222c0.78838,-1.23055 1.75657,-2.28335 2.8769,-3.11738c0.45643,-0.34182 0.63624,-0.94342 0.45643,-1.49033l-0.82987,-2.47476l1.93637,-0.91607l1.42462,2.18764c0.31812,0.47855 0.91286,0.72465 1.46611,0.57425c1.36929,-0.34182 2.79391,-0.43753 4.26002,-0.27345c0.26279,0.02735 0.51176,-0.01367 0.73306,-0.12305c0.26279,-0.12305 0.49792,-0.34182 0.62241,-0.6016l1.14799,-2.28335l2.03319,0.69731l-0.51176,2.33804c-0.12448,0.57425 0.13831,1.14851 0.6639,1.43564c1.31397,0.73833 2.47579,1.70909 3.47164,2.88495c0.35961,0.42385 0.95436,0.6016 1.46611,0.42385l2.13001,-0.69731l0.49792,1.02545l0.48409,1.01178l-1.88105,1.2032c-0.47026,0.31447 -0.70539,0.87505 -0.58091,1.40829c0.33195,1.46298 0.35961,2.96698 0.11065,4.48466c-0.09682,0.57425 0.19364,1.14851 0.71922,1.40829l2.1715,1.06647l-0.70539,2.00989l-2.51729,-0.53324c-0.29046,-0.06836 -0.60857,-0.02735 -0.87137,0.10938c-0.2213,0.10938 -0.41494,0.28713 -0.56708,0.49222c-0.78838,1.23055 -1.75657,2.28335 -2.8769,3.11738c-0.45643,0.34182 -0.63624,0.94342 -0.45643,1.49033l0.84371,2.47476l-1.93637,0.91607l-1.42462,-2.18764c-0.31812,-0.47855 -0.91286,-0.72465 -1.46611,-0.57425c-1.36929,0.34182 -2.79391,0.43753 -4.27385,0.27345c-0.26279,-0.02735 -0.51176,0.01367 -0.73306,0.12305c-0.26279,0.12305 -0.49792,0.34182 -0.62241,0.6016l-1.14799,2.28335l-2.03319,-0.69731l0.51176,-2.33804c0.12448,-0.57425 -0.13831,-1.14851 -0.6639,-1.43564c-1.31397,-0.73833 -2.47579,-1.70909 -3.47164,-2.88495c-0.35961,-0.42385 -0.95436,-0.6016 -1.46611,-0.42385l-2.13001,0.69731l-0.49792,-1.02545zM6.96415,10.96139c-0.51176,-2.32436 0.98202,-4.62138 3.33333,-5.12727c2.35131,-0.50589 4.67496,0.97076 5.18671,3.29513c0.51176,2.32436 -0.98202,4.62138 -3.33333,5.12727c-2.35131,0.50589 -4.67496,-0.97076 -5.18671,-3.29513zM8.61007,10.6059c0.31812,1.42196 1.74274,2.32436 3.18118,2.02356c1.43845,-0.3008 2.35131,-1.72276 2.04702,-3.14473c-0.30429,-1.42196 -1.74274,-2.32436 -3.18118,-2.02356c-1.43845,0.3008 -2.35131,1.72276 -2.04702,3.14473zM12.08171,19.54786c-0.52559,0.10938 -1.03734,-0.17775 -1.18949,-0.65629l-0.4426,-1.24422c-0.42877,-0.04102 -0.8852,-0.10938 -1.39695,-0.24611l-0.84371,0.99811c-0.13831,0.17775 -0.34578,0.3008 -0.58091,0.34182c-0.26279,0.05469 -0.55325,0 -0.77455,-0.13673l-2.01936,-1.28524c-0.4426,-0.28713 -0.59474,-0.82036 -0.37344,-1.29891l0.51176,-1.06647c-0.33195,-0.36916 -0.63624,-0.76567 -0.92669,-1.25789l-1.14799,0.09571c-0.51176,0.04102 -0.99585,-0.3008 -1.09267,-0.79302l-0.51176,-2.31069c-0.11065,-0.50589 0.17981,-1.01178 0.6639,-1.17586l1.07884,-0.36916c0.05532,-0.49222 0.15214,-0.98444 0.31812,-1.51767l-0.92669,-0.76567c-0.40111,-0.34182 -0.48409,-0.9024 -0.20747,-1.33993l1.30014,-2.00989c0.16597,-0.23244 0.38727,-0.38284 0.65007,-0.43753c0.23513,-0.05469 0.47026,-0.02735 0.6639,0.08204l1.18949,0.56058c0.35961,-0.28713 0.74689,-0.54691 1.17566,-0.79302l-0.12448,-1.31258c-0.04149,-0.51956 0.29046,-0.98444 0.80221,-1.08015l2.33748,-0.50589c0.52559,-0.10938 1.03734,0.17775 1.18949,0.65629l0.4426,1.24422c0.42877,0.02735 0.87137,0.10938 1.39695,0.24611l0.84371,-0.99811c0.13831,-0.17775 0.34578,-0.3008 0.58091,-0.34182c0.26279,-0.05469 0.55325,0 0.77455,0.13673l2.01936,1.28524c0.4426,0.28713 0.59474,0.82036 0.37344,1.29891l-0.51176,1.06647c0.33195,0.36916 0.63624,0.76567 0.92669,1.25789l1.14799,-0.09571c0.52559,-0.04102 0.99585,0.3008 1.09267,0.79302l0.51176,2.31069c0.11065,0.50589 -0.17981,1.01178 -0.6639,1.17586l-1.07884,0.38284c-0.05532,0.49222 -0.15214,0.98444 -0.31812,1.51767l0.92669,0.76567c0.40111,0.34182 0.49792,0.9024 0.20747,1.32626l-1.30014,2.00989c-0.16597,0.23244 -0.38727,0.38284 -0.65007,0.43753c-0.23513,0.05469 -0.47026,0.02735 -0.6639,-0.08204l-1.18949,-0.56058c-0.35961,0.28713 -0.73306,0.54691 -1.17566,0.79302l0.12448,1.31258c0.04149,0.51956 -0.29046,0.98444 -0.80221,1.08015zM13.24353,17.71572l-0.11065,-1.18953c-0.04149,-0.46487 0.2213,-0.88873 0.63624,-1.06647c0.69156,-0.3008 1.3278,-0.72465 1.89488,-1.28524c0.15214,-0.13673 0.33195,-0.23244 0.51176,-0.25978c0.23513,-0.05469 0.48409,-0.02735 0.69156,0.08204l1.05117,0.50589l0.35961,-0.54691l-0.82987,-0.68364c-0.35961,-0.3008 -0.48409,-0.79302 -0.29046,-1.21687c0.31812,-0.752 0.49792,-1.54502 0.51176,-2.33804c0,-0.43753 0.29046,-0.82036 0.71922,-0.98444l0.92669,-0.32815l-0.15214,-0.69731l-0.96819,0.08204c-0.42877,0.04102 -0.85754,-0.19142 -1.06501,-0.58793c-0.37344,-0.73833 -0.85754,-1.39462 -1.43845,-1.92786c-0.34578,-0.31447 -0.4426,-0.80669 -0.24896,-1.23055l0.47026,-0.97076l-0.55325,-0.34182l-0.74689,0.88873c-0.15214,0.17775 -0.35961,0.31447 -0.59474,0.35549c-0.20747,0.04102 -0.40111,0.02735 -0.59474,-0.04102c-0.73306,-0.25978 -1.49377,-0.38284 -2.25449,-0.38284c-0.45643,0 -0.87137,-0.27345 -1.02351,-0.71098l-0.40111,-1.12116l-0.63624,0.13673l0.11065,1.18953c0.04149,0.46487 -0.2213,0.88873 -0.63624,1.06647c-0.69156,0.3008 -1.3278,0.73833 -1.89488,1.28524c-0.15214,0.13673 -0.33195,0.23244 -0.51176,0.27345c-0.23513,0.05469 -0.48409,0.02735 -0.69156,-0.08204l-1.05117,-0.50589l-0.35961,0.54691l0.82987,0.68364c0.35961,0.3008 0.47026,0.79302 0.29046,1.21687c-0.31812,0.752 -0.49792,1.54502 -0.51176,2.33804c0,0.43753 -0.27662,0.83404 -0.71922,0.98444l-0.92669,0.32815l0.15214,0.69731l0.98202,-0.08204c0.42877,-0.04102 0.85754,0.19142 1.06501,0.58793c0.37344,0.73833 0.85754,1.39462 1.43845,1.92786c0.34578,0.31447 0.4426,0.80669 0.24896,1.23055l-0.47026,0.97076l0.55325,0.34182l0.74689,-0.88873c0.15214,-0.17775 0.35961,-0.3008 0.59474,-0.35549c0.20747,-0.04102 0.41494,-0.02735 0.59474,0.04102c0.74689,0.25978 1.49377,0.39651 2.25449,0.38284c0.45643,0 0.87137,0.27345 1.02351,0.71098l0.40111,1.12116l0.63624,-0.13673zM7.72483,32.67368c-1.60442,0 -3.01521,-1.12116 -3.34716,-2.66618c-0.40111,-1.83215 0.77455,-3.63695 2.62794,-4.03346c0.23513,-0.05469 0.48409,-0.08204 0.73306,-0.08204c1.60442,0 3.01521,1.12116 3.34716,2.66618c0.19364,0.88873 0.02766,1.79113 -0.47026,2.5568c-0.49792,0.76567 -1.25864,1.28524 -2.15767,1.47666c-0.23513,0.05469 -0.48409,0.08204 -0.73306,0.08204zM7.73866,27.32764c-0.13831,0 -0.27662,0.01367 -0.41494,0.04102c-0.51176,0.10938 -0.95436,0.41018 -1.24481,0.84771c-0.29046,0.43753 -0.38727,0.95709 -0.27662,1.47666c0.19364,0.88873 1.00968,1.54502 1.93637,1.54502c0.13831,0 0.27662,-0.01367 0.41494,-0.04102c0.51176,-0.10938 0.95436,-0.41018 1.24481,-0.84771c0.29046,-0.43753 0.38727,-0.95709 0.27662,-1.47666c-0.19364,-0.88873 -1.00968,-1.53135 -1.93637,-1.53135zM8.22278,36.69346c-0.37344,0 -0.70539,-0.23244 -0.81604,-0.58793l-0.34578,-0.95709c0,0 -0.08299,0 -0.12448,0c-0.26279,0 -0.55325,-0.05469 -0.89903,-0.13673l-0.56708,0.73833c-0.12448,0.1504 -0.29046,0.24611 -0.48409,0.28713c-0.05532,0 -0.12448,0.01367 -0.17981,0.01367c-0.16597,0 -0.33195,-0.04102 -0.47026,-0.13673l-1.5491,-0.98444c-0.37344,-0.23244 -0.51176,-0.69731 -0.31812,-1.09382l0.38727,-0.82036c-0.24896,-0.20509 -0.48409,-0.51956 -0.70539,-0.88873l-0.81604,0.10938c-0.47026,0 -0.82987,-0.28713 -0.92669,-0.66996l-0.38727,-1.77746c-0.09682,-0.42385 0.15214,-0.84771 0.56708,-0.99811l0.82987,-0.28713c0,-0.32815 0.06916,-0.69731 0.19364,-1.12116l-0.69156,-0.50589c-0.34578,-0.28713 -0.41494,-0.752 -0.17981,-1.12116l1.00968,-1.54502c0.13831,-0.19142 0.31812,-0.31447 0.53942,-0.36916c0.05532,0 0.12448,-0.01367 0.19364,-0.01367c0.13831,0 0.26279,0.02735 0.37344,0.08204l0.91286,0.43753c0.20747,-0.21876 0.49792,-0.42385 0.82987,-0.61527l-0.12448,-0.92975c-0.02766,-0.43753 0.24896,-0.83404 0.67773,-0.91607l1.79806,-0.38284c0,0 0.12448,-0.01367 0.19364,-0.01367c0.37344,0 0.70539,0.23244 0.81604,0.58793l0.34578,0.95709c0,0 0.08299,0 0.13831,0c0.24896,0 0.55325,0.05469 0.89903,0.13673l0.56708,-0.73833c0.12448,-0.1504 0.29046,-0.24611 0.48409,-0.28713c0.05532,0 0.12448,-0.01367 0.17981,-0.01367c0.16597,0 0.33195,0.04102 0.47026,0.13673l1.5491,0.98444c0.37344,0.23244 0.51176,0.69731 0.31812,1.09382l-0.38727,0.82036c0.24896,0.20509 0.48409,0.51956 0.70539,0.88873l0.81604,-0.10938c0.48409,0 0.82987,0.28713 0.92669,0.66996l0.38727,1.77746c0.09682,0.42385 -0.15214,0.84771 -0.56708,0.98444l-0.82987,0.28713c0,0.32815 -0.06916,0.71098 -0.19364,1.12116l0.67773,0.50589c0.34578,0.28713 0.41494,0.752 0.17981,1.12116l-0.99585,1.54502c-0.13831,0.19142 -0.31812,0.31447 -0.53942,0.36916c-0.05532,0 -0.12448,0.01367 -0.19364,0.01367c-0.12448,0 -0.26279,-0.02735 -0.37344,-0.08204l-0.91286,-0.43753c-0.19364,0.21876 -0.49792,0.41018 -0.82987,0.6016l0.12448,0.94342c0.02766,0.43753 -0.24896,0.82036 -0.67773,0.91607l-1.79806,0.38284c0,0 -0.12448,0.01367 -0.19364,0.01367zM7.72485,33.80851c0.37344,0 0.71922,0.24611 0.84371,0.6016l0.30429,0.86138l0.40111,-0.1504l-0.13831,-0.83404c-0.02766,-0.38284 0.17981,-0.752 0.53942,-0.88873c0.52559,-0.23244 1.00968,-0.54691 1.43845,-0.97076c0.12448,-0.10938 0.27662,-0.19142 0.42877,-0.23244c0.06916,0 0.12448,-0.01367 0.19364,-0.01367c0.13831,0 0.27662,0.02735 0.38727,0.08204l0.81604,0.38284l0.16597,-0.38284l-0.62241,-0.42385c-0.30429,-0.25978 -0.40111,-0.66996 -0.24896,-1.02545c0.24896,-0.57425 0.37344,-1.16218 0.38727,-1.77746c0,-0.36916 0.23513,-0.69731 0.59474,-0.82036l0.71922,-0.24611l-0.16597,-0.4512l-0.67773,0.12305c-0.41494,0 -0.73306,-0.19142 -0.8852,-0.49222c-0.27662,-0.56058 -0.65007,-1.0528 -1.09267,-1.46298c-0.29046,-0.25978 -0.37344,-0.68364 -0.20747,-1.03913l0.35961,-0.73833l-0.38727,-0.16407l-0.47026,0.66996c-0.12448,0.1504 -0.30429,0.25978 -0.49792,0.3008c-0.06916,0 -0.13831,0.02735 -0.19364,0.02735c-0.11065,0 -0.20747,-0.01367 -0.30429,-0.05469c-0.53942,-0.19142 -1.1065,-0.28713 -1.65975,-0.28713v0c-0.4426,0 -0.77455,-0.23244 -0.89903,-0.6016l-0.30429,-0.86138l-0.40111,0.1504l0.13831,0.83404c0.02766,0.38284 -0.17981,0.752 -0.53942,0.88873c-0.52559,0.23244 -1.00968,0.56058 -1.43845,0.97076c-0.12448,0.10938 -0.27662,0.19142 -0.42877,0.23244c-0.06916,0 -0.12448,0.01367 -0.19364,0.01367c-0.13831,0 -0.27662,-0.02735 -0.38727,-0.08204l-0.81604,-0.38284l-0.16597,0.38284l0.62241,0.42385c0.30429,0.25978 0.40111,0.66996 0.24896,1.02545c-0.24896,0.57425 -0.37344,1.16218 -0.38727,1.77746c0,0.36916 -0.23513,0.69731 -0.59474,0.83404l-0.71922,0.24611l0.16597,0.4512l0.67773,-0.12305c0.41494,0 0.73306,0.19142 0.8852,0.49222c0.27662,0.56058 0.65007,1.0528 1.09267,1.46298c0.29046,0.25978 0.37344,0.68364 0.20747,1.03913l-0.35961,0.73833l0.38727,0.16407l0.47026,-0.66996c0.12448,-0.1504 0.30429,-0.25978 0.49792,-0.3008c0.06916,-0.01367 0.13831,-0.02735 0.20747,-0.02735c0.11065,0 0.20747,0.01367 0.29046,0.05469c0.53942,0.19142 1.09267,0.28713 1.63209,0.28713h0.08299z" vector-effect="non-scaling-stroke"/><linearGradient id="gradient-17453834237057376" x1="85%" y1="86%" x2="15%" y2="14%" vector-effect="non-scaling-stroke"><stop offset="0%" stop-color="rgb(181,245,140)" stop-opacity="1" vector-effect="non-scaling-stroke"/><stop offset="100%" stop-color="rgb(0,89,178)" stop-opacity="1" vector-effect="non-scaling-stroke"/></linearGradient></defs></g></svg>