<svg height="34.999998703481424" overflow="visible" viewBox="0 0 130.99999999999997 34.999998703481424" width="130.99999999999997" xmlns="http://www.w3.org/2000/svg"><g><defs><path id="path-17472836949783403" d="M132.40950278640364 3.64357491886902 C131.43791195306346 3.6384668250686296 130.64545702859604 4.413255046400377 130.63797559272172 5.375608326769341 C130.63797559272172 5.375608326769341 130.63797559272172 6.692350582039288 130.63797559272172 6.692350582039288 C130.64545702859613 7.654703862408897 131.43791195306355 8.42949208374 132.40950278640364 8.424383989940253 C132.40950278640364 8.424383989940253 133.72169215361387 8.424383989940253 133.72169215361387 8.424383989940253 C134.69328298695396 8.42949208374 135.4857379114213 7.654703862408897 135.49321934729582 6.692350582039288 C135.49321934729582 6.692350582039288 135.49321934729582 5.375608326769341 135.49321934729582 5.375608326769341 C135.48573791142138 4.413255046400377 134.69328298695396 3.6384668250692744 133.72169215361387 3.64357491886902 C133.72169215361387 3.64357491886902 132.40950278640364 3.64357491886902 132.40950278640364 3.64357491886902 Z" vector-effect="non-scaling-stroke"/></defs> <path style="stroke-width: 0; stroke-linecap: butt; stroke-linejoin: miter; fill: rgb(248, 249, 250);" d="M76.1599287797525 0.000025113238002916205 C75.18833794641233 -0.005082980562391981 74.39588302194491 0.7697052407693619 74.38840158607059 1.7320585211383204 C74.38840158607059 1.7320585211383204 74.38840158607059 3.048800776408271 74.38840158607059 3.048800776408271 C74.395883021945 4.011154056777876 75.18833794641242 4.785942278108983 76.1599287797525 4.780834184309235 C76.1599287797525 4.780834184309235 77.47211814696274 4.780834184309235 77.47211814696274 4.780834184309235 C78.44370898030283 4.785942278108983 79.23616390477017 4.011154056777876 79.24364534064469 3.048800776408271 C79.24364534064469 3.048800776408271 79.24364534064469 1.7320585211383204 79.24364534064469 1.7320585211383204 C79.23616390477022 0.7697052407693619 78.44370898030283 -0.005082980561745387 77.47211814696274 0.000025113238002916205 C77.47211814696274 0.000025113238002916205 76.1599287797525 0.000025113238002916205 76.1599287797525 0.000025113238002916205 Z" vector-effect="non-scaling-stroke"/></g><g><defs><path id="path-17472836949773401" d="M161.07876556945595 3.6435749188690254 C160.10717473611587 3.6384668250692793 159.31471981164853 4.4132550464003835 159.30723837577403 5.375608326769349 C159.30723837577403 5.375608326769349 159.30723837577403 6.692350582039298 159.30723837577403 6.692350582039298 C159.31471981164844 7.654703862408907 160.10717473611587 8.429492083740012 161.07876556945595 8.424383989940264 C161.07876556945595 8.424383989940264 162.38880849822482 8.424383989940264 162.38880849822482 8.424383989940264 C163.36039933156496 8.429492083740012 164.1528542560324 7.654703862408907 164.16033569190677 6.692350582039298 C164.16033569190677 6.692350582039298 164.16033569190677 5.375608326769349 164.16033569190677 5.375608326769349 C164.15285425603233 4.4132550464003835 163.36039933156488 3.6384668250692793 162.38880849822482 3.6435749188690254 C162.38880849822482 3.6435749188690254 161.07876556945595 3.6435749188690254 161.07876556945595 3.6435749188690254 Z" vector-effect="non-scaling-stroke"/></defs> <path style="stroke-width: 0; stroke-linecap: butt; stroke-linejoin: miter; fill: rgb(248, 249, 250);" d="M104.82919156280374 0.000025113238038443342 C103.85760072946366 -0.00508298056170986 103.06514580499638 0.7697052407693974 103.05766436912185 1.732058521138363 C103.05766436912185 1.732058521138363 103.05766436912185 3.0488007764083136 103.05766436912185 3.0488007764083136 C103.06514580499626 4.011154056777919 103.85760072946366 4.785942278109026 104.82919156280374 4.780834184309278 C104.82919156280374 4.780834184309278 106.13923449157264 4.780834184309278 106.13923449157264 4.780834184309278 C107.11082532491278 4.785942278109026 107.90328024938023 4.011154056777919 107.91076168525458 3.0488007764083136 C107.91076168525458 3.0488007764083136 107.91076168525458 1.732058521138363 107.91076168525458 1.732058521138363 C107.90328024938012 0.7697052407693974 107.11082532491272 -0.00508298056170986 106.13923449157264 0.000025113238038443342 C106.13923449157264 0.000025113238038443342 104.82919156280374 0.000025113238038443342 104.82919156280374 0.000025113238038443342 Z" vector-effect="non-scaling-stroke"/></g><g><defs><path id="path-17472836949763399" d="M184.155125253551 3.6435749188690254 C183.18353442021092 3.6384668250692793 182.39107949574358 4.4132550464003835 182.38359805986906 5.375608326769349 C182.38359805986906 5.375608326769349 182.38359805986906 6.692350582039298 182.38359805986906 6.692350582039298 C182.3910794957435 7.654703862408907 183.18353442021092 8.429492083740012 184.155125253551 8.424383989940264 C184.155125253551 8.424383989940264 185.4637372233588 8.424383989940264 185.4637372233588 8.424383989940264 C186.4353280566989 8.429492083740012 187.22778298116623 7.654703862408907 187.23526441704072 6.692350582039298 C187.23526441704072 6.692350582039298 187.23526441704072 5.375608326769349 187.23526441704072 5.375608326769349 C187.2277829811663 4.4132550464003835 186.4353280566989 3.6384668250692793 185.4637372233588 3.6435749188690254 C185.4637372233588 3.6435749188690254 184.155125253551 3.6435749188690254 184.155125253551 3.6435749188690254 Z" vector-effect="non-scaling-stroke"/><linearGradient id="gradient-174728369802920178" x1="12%" y1="83%" x2="88%" y2="17%" vector-effect="non-scaling-stroke"><stop offset="0.4%" stop-color="rgb(181,245,140)" stop-opacity="1" vector-effect="non-scaling-stroke"/><stop offset="100%" stop-color="rgb(5,91,200)" stop-opacity="1" vector-effect="non-scaling-stroke"/></linearGradient></defs> <path style="stroke-width: 0; stroke-linecap: butt; stroke-linejoin: miter; fill: url(&quot;#gradient-174728369802920178&quot;);" d="M127.90555124690061 0.000025113238038443342 C126.93396041356053 -0.00508298056170986 126.14150548909319 0.7697052407693974 126.13402405321867 1.732058521138363 C126.13402405321867 1.732058521138363 126.13402405321867 3.0488007764083136 126.13402405321867 3.0488007764083136 C126.14150548909308 4.011154056777919 126.93396041356053 4.785942278109026 127.90555124690061 4.780834184309278 C127.90555124690061 4.780834184309278 129.21416321670844 4.780834184309278 129.21416321670844 4.780834184309278 C130.18575405004853 4.785942278109026 130.9782089745158 4.011154056777919 130.98569041039033 3.0488007764083136 C130.98569041039033 3.0488007764083136 130.98569041039033 1.732058521138363 130.98569041039033 1.732058521138363 C130.97820897451592 0.7697052407693974 130.18575405004853 -0.00508298056170986 129.21416321670844 0.000025113238038443342 C129.21416321670844 0.000025113238038443342 127.90555124690061 0.000025113238038443342 127.90555124690061 0.000025113238038443342 Z" vector-effect="non-scaling-stroke"/></g><g><defs><path id="path-17472836946602906" d="M0,27.4496v-26.99043h4.8395l0.02075,2.67702c0.65657,-0.87433 1.47487,-1.61653 2.41117,-2.18694c1.18107,-0.67436 2.53101,-1.00126 3.89221,-0.94253c1.67208,-0.02771 3.31783,0.41558 4.74649,1.27849c1.39452,0.85751 2.53453,2.06742 3.30337,3.50592c0.82807,1.5548 1.24648,3.29228 1.21632,5.05076c0.03187,1.75278 -0.38675,3.48471 -1.21632,5.03229c-0.7698,1.42789 -1.91034,2.62537 -3.30337,3.46827c-1.43235,0.85266 -3.07658,1.29013 -4.74649,1.26287c-1.28549,0.02854 -2.5598,-0.24271 -3.72049,-0.79196c-1.03989,-0.50724 -1.92956,-1.27346 -2.58217,-2.22387v10.85584zM11.00551,15.54256c1.44021,0.04215 2.83191,-0.51873 3.83497,-1.54556c1.02969,-1.07337 1.57765,-2.51492 1.51896,-3.996c0.05384,-1.49152 -0.49273,-2.94295 -1.51896,-4.03365c-2.12203,-2.10355 -5.55661,-2.11212 -7.68926,-0.01918c-1.99804,2.30773 -1.99804,5.71837 0,8.0261c0.99974,1.04595 2.40266,1.61704 3.85429,1.569z" vector-effect="non-scaling-stroke"/></defs><path style="stroke-width: 0; stroke-linecap: butt; stroke-linejoin: miter; fill: rgb(248, 249, 250);" d="M0,27.4496v-26.99043h4.8395l0.02075,2.67702c0.65657,-0.87433 1.47487,-1.61653 2.41117,-2.18694c1.18107,-0.67436 2.53101,-1.00126 3.89221,-0.94253c1.67208,-0.02771 3.31783,0.41558 4.74649,1.27849c1.39452,0.85751 2.53453,2.06742 3.30337,3.50592c0.82807,1.5548 1.24648,3.29228 1.21632,5.05076c0.03187,1.75278 -0.38675,3.48471 -1.21632,5.03229c-0.7698,1.42789 -1.91034,2.62537 -3.30337,3.46827c-1.43235,0.85266 -3.07658,1.29013 -4.74649,1.26287c-1.28549,0.02854 -2.5598,-0.24271 -3.72049,-0.79196c-1.03989,-0.50724 -1.92956,-1.27346 -2.58217,-2.22387v10.85584zM11.00551,15.54256c1.44021,0.04215 2.83191,-0.51873 3.83497,-1.54556c1.02969,-1.07337 1.57765,-2.51492 1.51896,-3.996c0.05384,-1.49152 -0.49273,-2.94295 -1.51896,-4.03365c-2.12203,-2.10355 -5.55661,-2.11212 -7.68926,-0.01918c-1.99804,2.30773 -1.99804,5.71837 0,8.0261c0.99974,1.04595 2.40266,1.61704 3.85429,1.569z" transform="translate(0, 7.550398703481427) rotate(0)" vector-effect="non-scaling-stroke"/></g><g><defs><path id="path-17472836946602904" d="M78.72850832454263 30.437604530606805 C78.72850832454263 30.437604530606805 78.72850832454263 11.740338027241608 78.72850832454263 11.740338027241608 C78.72850832454263 11.740338027241608 83.49789454145856 11.740338027241608 83.49789454145856 11.740338027241608 C83.49789454145856 11.740338027241608 83.51291961054872 15.246253065252786 83.51291961054872 15.246253065252786 C84.89336030511201 12.732942128336525 87.57930752932073 11.202887638621762 90.46165632502324 11.287893157060841 C90.46165632502324 11.287893157060841 90.46165632502324 16.37701010344486 90.46165632502324 16.37701010344486 C90.46165632502324 16.37701010344486 89.09437503781562 16.37701010344486 89.09437503781562 16.37701010344486 C88.1225715615945 16.361134222057473 87.15647433108683 16.527404992447973 86.24676670548358 16.867099523263832 C85.41603824997854 17.18971571541613 84.72439818384163 17.78943085021761 84.29064580583639 18.563235080551298 C83.76940967285812 19.602721871887912 83.5276305378961 20.758293341598478 83.58876043548018 21.917861645488024 C83.58876043548018 21.917861645488024 83.58876043548018 30.437604530606805 83.58876043548018 30.437604530606805 C83.58876043548018 30.437604530606805 78.72850832454263 30.437604530606805 78.72850832454263 30.437604530606805 Z" vector-effect="non-scaling-stroke"/></defs> <path style="stroke-width: 0; stroke-linecap: butt; stroke-linejoin: miter; fill: rgb(248, 249, 250);" d="M22.478934317891373 26.707542977865344 C22.478934317891373 26.707542977865344 22.478934317891373 8.010276474500145 22.478934317891373 8.010276474500145 C22.478934317891373 8.010276474500145 27.248320534807306 8.010276474500145 27.248320534807306 8.010276474500145 C27.248320534807306 8.010276474500145 27.263345603897477 11.516191512511327 27.263345603897477 11.516191512511327 C28.643786298460753 9.002880575595064 31.32973352266947 7.4728260858803 34.21208231837198 7.557831604319382 C34.21208231837198 7.557831604319382 34.21208231837198 12.6469485507034 34.21208231837198 12.6469485507034 C34.21208231837198 12.6469485507034 32.844801031164366 12.6469485507034 32.844801031164366 12.6469485507034 C31.872997554943225 12.631072669316012 30.906900324435554 12.79734343970651 29.997192698832322 13.137037970522371 C29.166464243327283 13.459654162674667 28.474824177190357 14.059369297476152 28.04107179918512 14.833173527809834 C27.51983566620686 15.872660319146448 27.278056531244857 17.028231788857013 27.339186428828924 18.187800092746564 C27.339186428828924 18.187800092746564 27.339186428828924 26.707542977865344 27.339186428828924 26.707542977865344 C27.339186428828924 26.707542977865344 22.478934317891373 26.707542977865344 22.478934317891373 26.707542977865344 Z" vector-effect="non-scaling-stroke"/></g><g><defs><path id="path-17472836946592902" d="M9.64706,19.60271c-1.72137,0.02583 -3.41864,-0.40367 -4.91749,-1.2444c-1.44501,-0.81819 -2.63935,-2.01022 -3.45577,-3.44909c-0.87114,-1.56103 -1.30984,-3.32342 -1.27141,-5.10758c-0.0393,-1.78654 0.40548,-3.55076 1.28786,-5.10829c0.82702,-1.43712 2.02672,-2.62809 3.47437,-3.44909c3.05189,-1.65899 6.74517,-1.65899 9.79706,0c1.44451,0.8186 2.63852,2.01055 3.45505,3.44909c1.69613,3.1969 1.69613,7.01827 0,10.21517c-0.82023,1.44225 -2.02154,2.63483 -3.47437,3.44909c-1.49284,0.83577 -3.18156,1.26529 -4.89531,1.24511zM9.64706,15.41848c1.25137,0.00614 2.4486,-0.50613 3.30337,-1.41345c0.93632,-0.94277 1.40449,-2.34367 1.40449,-4.20269c0,-1.85903 -0.46816,-3.26016 -1.40449,-4.2034c-0.85458,-0.90213 -2.04662,-1.41372 -3.29407,-1.41372c-1.24745,0 -2.43948,0.51159 -3.29407,1.41372c-0.9244,0.9423 -1.38636,2.34343 -1.38588,4.2034c0.00048,1.85997 0.46244,3.26087 1.38588,4.20269c0.84592,0.90884 2.03832,1.42193 3.28477,1.41345z" vector-effect="non-scaling-stroke"/></defs><path style="stroke-width: 0; stroke-linecap: butt; stroke-linejoin: miter; fill: rgb(248, 249, 250);" d="M9.64706,19.60271c-1.72137,0.02583 -3.41864,-0.40367 -4.91749,-1.2444c-1.44501,-0.81819 -2.63935,-2.01022 -3.45577,-3.44909c-0.87114,-1.56103 -1.30984,-3.32342 -1.27141,-5.10758c-0.0393,-1.78654 0.40548,-3.55076 1.28786,-5.10829c0.82702,-1.43712 2.02672,-2.62809 3.47437,-3.44909c3.05189,-1.65899 6.74517,-1.65899 9.79706,0c1.44451,0.8186 2.63852,2.01055 3.45505,3.44909c1.69613,3.1969 1.69613,7.01827 0,10.21517c-0.82023,1.44225 -2.02154,2.63483 -3.47437,3.44909c-1.49284,0.83577 -3.18156,1.26529 -4.89531,1.24511zM9.64706,15.41848c1.25137,0.00614 2.4486,-0.50613 3.30337,-1.41345c0.93632,-0.94277 1.40449,-2.34367 1.40449,-4.20269c0,-1.85903 -0.46816,-3.26016 -1.40449,-4.2034c-0.85458,-0.90213 -2.04662,-1.41372 -3.29407,-1.41372c-1.24745,0 -2.43948,0.51159 -3.29407,1.41372c-0.9244,0.9423 -1.38636,2.34343 -1.38588,4.2034c0.00048,1.85997 0.46244,3.26087 1.38588,4.20269c0.84592,0.90884 2.03832,1.42193 3.28477,1.41345z" transform="translate(34.28695840557643, 7.557274461969087) rotate(0)" vector-effect="non-scaling-stroke"/></g><g><defs><path id="path-17472836946582900" d="M116.05364186250699 30.437604530606805 C116.05364186250699 30.437604530606805 109.1428255604982 11.740338027241608 109.1428255604982 11.740338027241608 C109.1428255604982 11.740338027241608 114.2313156257106 11.740338027241608 114.2313156257106 11.740338027241608 C114.2313156257106 11.740338027241608 119.01572691171668 25.874801004637373 119.01572691171668 25.874801004637373 C119.01572691171668 25.874801004637373 123.8001381977228 11.740338027241608 123.8001381977228 11.740338027241608 C123.8001381977228 11.740338027241608 128.8879127834547 11.740338027241608 128.8879127834547 11.740338027241608 C128.8879127834547 11.740338027241608 121.94203798690215 30.437604530606805 121.94203798690215 30.437604530606805 C121.94203798690215 30.437604530606805 116.05364186250699 30.437604530606805 116.05364186250699 30.437604530606805 Z" vector-effect="non-scaling-stroke"/></defs> <path style="stroke-width: 0; stroke-linecap: butt; stroke-linejoin: miter; fill: rgb(248, 249, 250);" d="M59.80406785585549 26.707542977865344 C59.80406785585549 26.707542977865344 52.89325155384668 8.010276474500145 52.89325155384668 8.010276474500145 C52.89325155384668 8.010276474500145 57.98174161905908 8.010276474500145 57.98174161905908 8.010276474500145 C57.98174161905908 8.010276474500145 62.766152905065184 22.144739451895916 62.766152905065184 22.144739451895916 C62.766152905065184 22.144739451895916 67.55056419107129 8.010276474500145 67.55056419107129 8.010276474500145 C67.55056419107129 8.010276474500145 72.63833877680318 8.010276474500145 72.63833877680318 8.010276474500145 C72.63833877680318 8.010276474500145 65.69246398025064 26.707542977865344 65.69246398025064 26.707542977865344 C65.69246398025064 26.707542977865344 59.80406785585549 26.707542977865344 59.80406785585549 26.707542977865344 Z" vector-effect="non-scaling-stroke"/></g><g><defs><path id="path-17472836946572898" d="M130.63511367480064 30.437604530606805 C130.63511367480064 30.437604530606805 130.63511367480064 11.740338027241608 130.63511367480064 11.740338027241608 C130.63511367480064 11.740338027241608 135.49536578573822 11.740338027241608 135.49536578573822 11.740338027241608 C135.49536578573822 11.740338027241608 135.49536578573822 30.437604530606805 135.49536578573822 30.437604530606805 C135.49536578573822 30.437604530606805 130.63511367480064 30.437604530606805 130.63511367480064 30.437604530606805 Z" vector-effect="non-scaling-stroke"/></defs> <path style="stroke-width: 0; stroke-linecap: butt; stroke-linejoin: miter; fill: rgb(248, 249, 250);" d="M74.38553966814862 26.707542977865344 C74.38553966814862 26.707542977865344 74.38553966814862 8.010276474500145 74.38553966814862 8.010276474500145 C74.38553966814862 8.010276474500145 79.2457917790862 8.010276474500145 79.2457917790862 8.010276474500145 C79.2457917790862 8.010276474500145 79.2457917790862 26.707542977865344 79.2457917790862 26.707542977865344 C79.2457917790862 26.707542977865344 74.38553966814862 26.707542977865344 74.38553966814862 26.707542977865344 Z" vector-effect="non-scaling-stroke"/></g><g><defs><path id="path-17472836946572896" d="M138.3057691850844 30.437604530606777 C138.3057691850844 30.437604530606777 138.3057691850844 11.740338027241595 138.3057691850844 11.740338027241595 C138.3057691850844 11.740338027241595 142.95209293135682 11.740338027241595 142.95209293135682 11.740338027241595 C142.95209293135682 11.740338027241595 142.97570375421284 14.906741843986628 142.97570375421284 14.906741843986628 C143.5511466502324 13.809833664219891 144.42653004018712 12.896259931826762 145.50134632032632 12.270913094785266 C146.6838216970249 11.596442631915119 148.0302053880681 11.257381441649501 149.39355469416714 11.29073425514667 C151.44225968494544 11.17573449738838 153.43504854499355 11.978258911108263 154.82404395105158 13.477669506774731 C156.1147689338473 14.935152824846337 156.7601314252452 17.07118506910183 156.7601314252452 19.885766239541862 C156.7601314252452 19.885766239541862 156.7601314252452 30.44044562869326 156.7601314252452 30.44044562869326 C156.7601314252452 30.44044562869326 151.89987931430764 30.44044562869326 151.89987931430764 30.44044562869326 C151.89987931430764 30.44044562869326 151.89987931430764 20.334659737115807 151.89987931430764 20.334659737115807 C151.98584289163992 19.02951613592242 151.63906344620653 17.732316977587747 150.91251763123773 16.64123222543392 C150.1570678382758 15.744268167255482 149.0097875994226 15.267505088112514 147.8359558651504 15.362738086775504 C146.55702918227794 15.324405776857677 145.32632952319534 15.84871702379018 144.47320230686884 16.795361796594868 C143.54268076337559 17.91469095215681 143.07450634449222 19.342756417658876 143.1631593781 20.79136625442566 C143.1631593781 20.79136625442566 143.1631593781 30.441155903214238 143.1631593781 30.441155903214238 C143.1631593781 30.441155903214238 138.3057691850844 30.437604530606777 138.3057691850844 30.437604530606777 Z" vector-effect="non-scaling-stroke"/></defs> <path style="stroke-width: 0; stroke-linecap: butt; stroke-linejoin: miter; fill: rgb(248, 249, 250);" d="M82.05619517843294 26.70754297786533 C82.05619517843294 26.70754297786533 82.05619517843294 8.010276474500145 82.05619517843294 8.010276474500145 C82.05619517843294 8.010276474500145 86.70251892470534 8.010276474500145 86.70251892470534 8.010276474500145 C86.70251892470534 8.010276474500145 86.72612974756143 11.176680291245184 86.72612974756143 11.176680291245184 C87.30157264358095 10.079772111478448 88.17695603353567 9.166198379085316 89.25177231367488 8.540851542043818 C90.43424769037344 7.866381079173671 91.78063138141667 7.527319888908053 93.14398068751572 7.560672702405228 C95.192685678294 7.44567294464693 97.1854745383421 8.248197358366816 98.57446994440014 9.747607954033285 C99.86519492719586 11.205091272104895 100.51055741859372 13.341123516360383 100.51055741859372 16.15570468680042 C100.51055741859372 16.15570468680042 100.51055741859372 26.710384075951815 100.51055741859372 26.710384075951815 C100.51055741859372 26.710384075951815 95.65030530765623 26.710384075951815 95.65030530765623 26.710384075951815 C95.65030530765623 26.710384075951815 95.65030530765623 16.60459818437436 95.65030530765623 16.60459818437436 C95.73626888498845 15.299454583180975 95.38948943955509 14.002255424846297 94.66294362458629 12.911170672692478 C93.90749383162435 12.014206614514038 92.76021359277112 11.537443535371068 91.58638185849892 11.632676534034061 C90.30745517562647 11.594344224116227 89.0767555165439 12.118655471048733 88.22362830021743 13.065300243853422 C87.29310675672414 14.184629399415364 86.82493233784075 15.61269486491743 86.91358537144853 17.061304701684215 C86.91358537144853 17.061304701684215 86.91358537144853 26.71109435047279 86.91358537144853 26.71109435047279 C86.91358537144853 26.71109435047279 82.05619517843294 26.70754297786533 82.05619517843294 26.70754297786533 Z" vector-effect="non-scaling-stroke"/></g><g><defs><path id="path-17472836946562894" d="M159.30294549888765 30.437604530606805 C159.30294549888765 30.437604530606805 159.30294549888765 11.740338027241608 159.30294549888765 11.740338027241608 C159.30294549888765 11.740338027241608 164.1639130893056 11.740338027241608 164.1639130893056 11.740338027241608 C164.1639130893056 11.740338027241608 164.1639130893056 30.437604530606805 164.1639130893056 30.437604530606805 C164.1639130893056 30.437604530606805 159.30294549888765 30.437604530606805 159.30294549888765 30.437604530606805 Z" vector-effect="non-scaling-stroke"/></defs> <path style="stroke-width: 0; stroke-linecap: butt; stroke-linejoin: miter; fill: rgb(248, 249, 250);" d="M103.05337149223905 26.707542977865344 C103.05337149223905 26.707542977865344 103.05337149223905 8.010276474500145 103.05337149223905 8.010276474500145 C103.05337149223905 8.010276474500145 107.914339082657 8.010276474500145 107.914339082657 8.010276474500145 C107.914339082657 8.010276474500145 107.914339082657 26.707542977865344 107.914339082657 26.707542977865344 C107.914339082657 26.707542977865344 103.05337149223905 26.707542977865344 103.05337149223905 26.707542977865344 Z" vector-effect="non-scaling-stroke"/></g><g><defs><path id="path-17472836946552892" d="M176.12529904406392 30.437604530606816 C174.42340447245203 30.522964650744704 172.74481885864265 30.016320560747598 171.37880817052354 29.004980820787452 C170.18872730131613 28.050371863922077 169.59368686671237 26.354236306634608 169.59368686671237 23.916574148925054 C169.59368686671237 23.916574148925054 169.59368686671237 15.77398703471062 169.59368686671237 15.77398703471062 C169.59368686671237 15.77398703471062 166.36615893024262 15.77398703471062 166.36615893024262 15.77398703471062 C166.36615893024262 15.77398703471062 166.36615893024262 11.743179125327451 166.36615893024262 11.743179125327451 C166.36615893024262 11.743179125327451 169.59368686671237 11.743179125327451 169.59368686671237 11.743179125327451 C169.59368686671237 11.743179125327451 169.59368686671237 6.7300615527414696 169.59368686671237 6.7300615527414696 C169.59368686671237 6.7300615527414696 174.45894733401332 6.7300615527414696 174.45894733401332 6.7300615527414696 C174.45894733401332 6.7300615527414696 174.45894733401332 11.743179125327451 174.45894733401332 11.743179125327451 C174.45894733401332 11.743179125327451 179.5474373992257 11.743179125327451 179.5474373992257 11.743179125327451 C179.5474373992257 11.743179125327451 179.5474373992257 15.77682813279646 179.5474373992257 15.77682813279646 C179.5474373992257 15.77682813279646 174.45894733401332 15.77682813279646 174.45894733401332 15.77682813279646 C174.45894733401332 15.77682813279646 174.45894733401332 23.9570597966491 174.45894733401332 23.9570597966491 C174.37917500970863 24.63383580589974 174.59329608895243 25.312334028822022 175.0477869464528 25.822950964569966 C175.6452425506632 26.220629655241233 176.36301304929245 26.400586521007593 177.07903319155096 26.332217796468854 C177.07903319155096 26.332217796468854 179.43296068234804 26.332217796468854 179.43296068234804 26.332217796468854 C179.43296068234804 26.332217796468854 179.43296068234804 30.441155903214277 179.43296068234804 30.441155903214277 C179.43296068234804 30.441155903214277 176.12529904406392 30.437604530606816 176.12529904406392 30.437604530606816 Z" vector-effect="non-scaling-stroke"/></defs> <path style="stroke-width: 0; stroke-linecap: butt; stroke-linejoin: miter; fill: rgb(248, 249, 250);" d="M119.8757250374126 26.707542977865344 C118.1738304658007 26.792903098003237 116.49524485199126 26.286259008006127 115.12923416387216 25.274919268045984 C113.9391532946648 24.320310311180606 113.34411286006102 22.624174753893143 113.34411286006102 20.18651259618359 C113.34411286006102 20.18651259618359 113.34411286006102 12.043925481969154 113.34411286006102 12.043925481969154 C113.34411286006102 12.043925481969154 110.11658492359126 12.043925481969154 110.11658492359126 12.043925481969154 C110.11658492359126 12.043925481969154 110.11658492359126 8.013117572585983 110.11658492359126 8.013117572585983 C110.11658492359126 8.013117572585983 113.34411286006102 8.013117572585983 113.34411286006102 8.013117572585983 C113.34411286006102 8.013117572585983 113.34411286006102 3 113.34411286006102 3 C113.34411286006102 3 118.20937332736193 3 118.20937332736193 3 C118.20937332736193 3 118.20937332736193 8.013117572585983 118.20937332736193 8.013117572585983 C118.20937332736193 8.013117572585983 123.29786339257433 8.013117572585983 123.29786339257433 8.013117572585983 C123.29786339257433 8.013117572585983 123.29786339257433 12.046766580054992 123.29786339257433 12.046766580054992 C123.29786339257433 12.046766580054992 118.20937332736193 12.046766580054992 118.20937332736193 12.046766580054992 C118.20937332736193 12.046766580054992 118.20937332736193 20.22699824390763 118.20937332736193 20.22699824390763 C118.12960100305727 20.903774253158275 118.34372208230107 21.582272476080554 118.79821293980146 22.092889411828494 C119.39566854401184 22.490568102499765 120.11343904264109 22.670524968266122 120.8294591848996 22.602156243727386 C120.8294591848996 22.602156243727386 123.18338667569671 22.602156243727386 123.18338667569671 22.602156243727386 C123.18338667569671 22.602156243727386 123.18338667569671 26.711094350472806 123.18338667569671 26.711094350472806 C123.18338667569671 26.711094350472806 119.8757250374126 26.707542977865344 119.8757250374126 26.707542977865344 Z" vector-effect="non-scaling-stroke"/></g><g><defs><path id="path-17472836946542890" d="M182.38932189571577 30.437604530606805 C182.38932189571577 30.437604530606805 182.38932189571577 11.740338027241608 182.38932189571577 11.740338027241608 C182.38932189571577 11.740338027241608 187.24957400665335 11.740338027241608 187.24957400665335 11.740338027241608 C187.24957400665335 11.740338027241608 187.24957400665335 30.437604530606805 187.24957400665335 30.437604530606805 C187.24957400665335 30.437604530606805 182.38932189571577 30.437604530606805 182.38932189571577 30.437604530606805 Z" vector-effect="non-scaling-stroke"/></defs> <path style="stroke-width: 0; stroke-linecap: butt; stroke-linejoin: miter; fill: rgb(248, 249, 250);" d="M126.13974788906236 26.707542977865344 C126.13974788906236 26.707542977865344 126.13974788906236 8.010276474500145 126.13974788906236 8.010276474500145 C126.13974788906236 8.010276474500145 130.99999999999997 8.010276474500145 130.99999999999997 8.010276474500145 C130.99999999999997 8.010276474500145 130.99999999999997 26.707542977865344 130.99999999999997 26.707542977865344 C130.99999999999997 26.707542977865344 126.13974788906236 26.707542977865344 126.13974788906236 26.707542977865344 Z" vector-effect="non-scaling-stroke"/></g></svg>