<svg version="1.2" xmlns="http://www.w3.org/2000/svg" xmlns:xlink="http://www.w3.org/1999/xlink" overflow="visible" preserveAspectRatio="none" viewBox="0 0 21 35" width="21" height="35"><g transform="translate(1, 1)"><defs><path id="path-17453995578903565" d="M26.90706830823074 24.018417462482944 C26.90706830823074 26.494542974079124 24.76970189363166 28.520463847203274 22.157365164677213 28.520463847203274 C22.157365164677213 28.520463847203274 16.623961002437355 28.520463847203274 16.623961002437355 28.520463847203274 C15.317792637960133 28.520463847203274 14.249109430660583 29.533424283765342 14.249109430660583 30.77148703956344 C14.249109430660583 30.77148703956344 14.249109430660583 31.51432469304229 14.249109430660583 31.51432469304229 C14.249109430660583 34.82332878581173 17.07518280107494 37.50204638472033 20.589963127304554 37.50204638472033 C20.589963127304554 37.50204638472033 22.157365164677213 37.50204638472033 22.157365164677213 37.50204638472033 C23.012311730516867 37.52455661664393 23.724767202049875 38.177353342428376 23.748515717767656 39.01023192360164 C23.748515717767656 39.01023192360164 23.748515717767656 42.00409276944065 23.748515717767656 42.00409276944065 C23.724767202049875 42.83697135061392 23.03606024623463 43.48976807639836 22.157365164677213 43.51227830832197 C22.157365164677213 43.51227830832197 20.589963127304554 43.51227830832197 20.589963127304554 43.51227830832197 C18.903818511343044 43.51227830832197 17.217673895381537 43.19713506139155 15.674020373726654 42.5668485675307 C12.634210361852388 41.35129604365622 10.21186175864009 39.055252387448846 8.929441909880634 36.17394270122783 C8.240734954065372 34.710777626193725 7.908255734016627 33.112551159618015 7.932004249734396 31.51432469304229 C7.932004249734396 31.51432469304229 7.932004249734396 15.014324693042305 7.932004249734396 15.014324693042305 C7.932004249734396 12.538199181446124 10.069370664333483 10.512278308321974 12.681707393287919 10.512278308321974 C12.681707393287919 10.512278308321974 12.681707393287919 10.512278308321974 12.681707393287919 10.512278308321974 C12.681707393287919 10.512278308321974 22.181113680394976 10.512278308321974 22.181113680394976 10.512278308321974 C24.793450409349422 10.512278308321974 26.930816823948504 12.538199181446124 26.930816823948504 15.014324693042305 C26.930816823948504 15.014324693042305 26.930816823948504 24.01841746248295 26.930816823948504 24.01841746248295 C26.930816823948504 24.01841746248295 26.930816823948504 24.01841746248295 26.930816823948504 24.01841746248295 C26.930816823948504 24.01841746248295 26.90706830823074 24.018417462482944 26.90706830823074 24.018417462482944 Z" vector-effect="non-scaling-stroke"/></defs><g transform="translate(-7.930816823948508, -10.512278308321966)"><path style="stroke: rgb(181, 245, 140); stroke-width: 1; stroke-linecap: butt; stroke-linejoin: miter; fill: rgba(181, 245, 140, 0);" d="M26.90706830823074 24.018417462482944 C26.90706830823074 26.494542974079124 24.76970189363166 28.520463847203274 22.157365164677213 28.520463847203274 C22.157365164677213 28.520463847203274 16.623961002437355 28.520463847203274 16.623961002437355 28.520463847203274 C15.317792637960133 28.520463847203274 14.249109430660583 29.533424283765342 14.249109430660583 30.77148703956344 C14.249109430660583 30.77148703956344 14.249109430660583 31.51432469304229 14.249109430660583 31.51432469304229 C14.249109430660583 34.82332878581173 17.07518280107494 37.50204638472033 20.589963127304554 37.50204638472033 C20.589963127304554 37.50204638472033 22.157365164677213 37.50204638472033 22.157365164677213 37.50204638472033 C23.012311730516867 37.52455661664393 23.724767202049875 38.177353342428376 23.748515717767656 39.01023192360164 C23.748515717767656 39.01023192360164 23.748515717767656 42.00409276944065 23.748515717767656 42.00409276944065 C23.724767202049875 42.83697135061392 23.03606024623463 43.48976807639836 22.157365164677213 43.51227830832197 C22.157365164677213 43.51227830832197 20.589963127304554 43.51227830832197 20.589963127304554 43.51227830832197 C18.903818511343044 43.51227830832197 17.217673895381537 43.19713506139155 15.674020373726654 42.5668485675307 C12.634210361852388 41.35129604365622 10.21186175864009 39.055252387448846 8.929441909880634 36.17394270122783 C8.240734954065372 34.710777626193725 7.908255734016627 33.112551159618015 7.932004249734396 31.51432469304229 C7.932004249734396 31.51432469304229 7.932004249734396 15.014324693042305 7.932004249734396 15.014324693042305 C7.932004249734396 12.538199181446124 10.069370664333483 10.512278308321974 12.681707393287919 10.512278308321974 C12.681707393287919 10.512278308321974 12.681707393287919 10.512278308321974 12.681707393287919 10.512278308321974 C12.681707393287919 10.512278308321974 22.181113680394976 10.512278308321974 22.181113680394976 10.512278308321974 C24.793450409349422 10.512278308321974 26.930816823948504 12.538199181446124 26.930816823948504 15.014324693042305 C26.930816823948504 15.014324693042305 26.930816823948504 24.01841746248295 26.930816823948504 24.01841746248295 C26.930816823948504 24.01841746248295 26.930816823948504 24.01841746248295 26.930816823948504 24.01841746248295 C26.930816823948504 24.01841746248295 26.90706830823074 24.018417462482944 26.90706830823074 24.018417462482944 Z" vector-effect="non-scaling-stroke"/></g></g></svg>