<svg version="1.2" xmlns="http://www.w3.org/2000/svg" xmlns:xlink="http://www.w3.org/1999/xlink" overflow="visible" preserveAspectRatio="none" viewBox="0 0 121.00001017173233 40.00001296355021" width="121.00001017173233" height="40.00001296355021"><g transform="translate(0, 0)"><g transform="translate(0.000017523562433993667, -0.0000027329096113914986) rotate(0)"><path style="stroke-width: 0; stroke-linecap: butt; stroke-linejoin: miter; fill: rgb(242, 242, 243);" d="M104.55523,23.32502c-0.09567,1.02646 -0.55629,1.75309 -1.23306,2.23986c11.62545,-5.224 18.47813,-11.04412 17.60294,-16.04237c-1.64408,-9.40743 -30.02918,-12.34218 -63.4032,-6.55381c-14.56991,2.52558 -27.67999,6.29631 -37.69326,10.5256c0.53503,-0.12698 1.11967,-0.18695 1.73974,-0.18695c1.77163,0 4.21649,0.42328 4.21649,3.13581v0.87478h-3.12162v-0.76896c0,-0.68078 -0.43228,-1.12875 -1.16219,-1.12875c-0.78306,0 -1.05589,0.43739 -1.14447,0.83598c-0.02835,0.14109 -0.04606,0.40564 0.01417,0.65609c0.35433,1.45679 5.1023,2.23634 5.63025,4.84305c0.05315,0.26455 0.16653,0.97002 0.01417,2.04586c-0.29763,2.07408 -2.16139,2.84657 -4.422,2.84657c-2.2606,0 -4.54955,-0.83598 -4.54955,-3.61553v-0.96297h3.35902v1.20635c0,0.68431 0.4748,1.13228 1.2614,1.13228c0.83267,0 1.11259,-0.42328 1.21888,-0.83598c0.05669,-0.2328 0.09567,-0.62081 -0.02835,-0.92416c-0.64487,-1.612 -5.08813,-2.34921 -5.63379,-4.89243c-0.1311,-0.62434 -0.11693,-1.12522 -0.02835,-1.68254c0.14173,-0.87125 0.56338,-1.50265 1.16928,-1.94004c-12.03647,5.3016 -19.1797,11.24871 -18.28679,16.3422c1.64408,9.40743 30.03626,12.34571 63.40674,6.55734c14.90652,-2.58554 28.2788,-6.46915 38.37357,-10.81837c-0.53149,0.12698 -1.1055,0.19048 -1.70077,0.19048c-2.22163,0 -4.19168,-0.80776 -4.40428,-3.07585c-0.03543,-0.41623 -0.04252,-0.58907 -0.04606,-0.82187v-5.24516c0,-0.22222 0.03189,-0.61376 0.05315,-0.82187c0.27637,-2.32805 2.17202,-3.07585 4.39365,-3.07585c2.22163,0 4.15979,0.74427 4.39011,3.07585c0.04252,0.39859 0.02835,0.82187 0.02835,0.82187v0.41623h-3.15351v-0.69841c0,0 -0.00354,-0.2963 -0.04252,-0.47266c-0.05315,-0.27513 -0.29409,-0.90653 -1.24723,-0.90653c-0.95314,0 -1.17991,0.59965 -1.24723,0.90653c-0.03898,0.16579 -0.05315,0.38801 -0.05315,0.58907v5.69666c0,0.15873 0.00709,0.33157 0.03189,0.47266c0.05315,0.3351 0.3685,0.903 1.27558,0.903c0.90708,0 1.22243,-0.57143 1.28266,-0.903c0.02126,-0.14462 0.02835,-0.31746 0.02835,-0.47266v-1.806h-1.28266v-1.81658h4.43617v3.34392c0,0.2328 -0.00709,0.40564 -0.04606,0.82187zM34.95132,26.161l-1.66533,-11.30162h-0.07087l-1.71494,11.30162h-3.37673l2.32084,-12.45506h5.56293l2.31021,12.45506zM51.59758,26.161l-0.0815,-11.1958h-0.06378l-2.09053,11.1958h-3.17477l-2.09407,-11.1958h-0.06732l-0.07795,11.1958h-3.13225l0.27637,-12.45506h5.10585l1.54486,9.52031h0.06732l1.54486,-9.52031h5.1023l0.27283,12.45506h-3.12516zM66.66355,23.76593c-0.29055,2.05644 -2.13659,2.81482 -4.37593,2.81482c-2.23934,0 -4.50349,-0.82893 -4.50349,-3.57673v-0.95238h3.32358v1.19577c0,0.66667 0.4748,1.11464 1.24723,1.11464c0.82558,0 1.1055,-0.41623 1.20825,-0.82893c0.05669,-0.2328 0.09567,-0.61023 -0.02835,-0.91006v0c-0.63779,-1.59436 -5.03852,-2.32805 -5.57356,-4.84657c-0.12756,-0.62081 -0.12047,-1.11111 -0.02835,-1.66491c0.32598,-2.01411 2.1295,-2.73369 4.32987,-2.73369c1.75392,0 4.18105,0.41975 4.18105,3.10406v0.8642h-3.09681v-0.76191c0,-0.67372 -0.42165,-1.11464 -1.14802,-1.11464c-0.77598,0 -1.04526,0.42681 -1.13385,0.8254c-0.03189,0.13404 -0.04961,0.39506 0.01063,0.6455c0.35078,1.44268 5.04915,2.21517 5.57356,4.79719c0.05315,0.26102 0.16299,0.95591 0.01063,2.0247zM78.40947,23.452c-0.22323,2.32452 -2.06927,3.07937 -4.3653,3.07937c-2.29604,0 -4.14916,-0.75485 -4.36885,-3.07937c-0.01063,-0.1164 -0.03189,-0.58907 -0.02835,-0.81834v-8.93477h3.16059v9.21696c0,0.16226 0.00354,0.34215 0.02835,0.47619c0.06732,0.30688 0.32952,0.903 1.20471,0.903c0.87519,0 1.14093,-0.59965 1.19762,-0.903c0.0248,-0.13404 0.03189,-0.31393 0.02835,-0.47619v-9.21696h3.16414v8.93477c0.00709,0.22928 -0.01772,0.69841 -0.02835,0.81834zM92.44081,26.03049h-4.45388l-3.08973,-10.1129h-0.06732l0.17008,10.1129h-3.0791v-12.32455h4.64522l2.87359,9.7778h0.07087l-0.17008,-9.7778h3.09681v12.32455z" vector-effect="non-scaling-stroke"/></g><defs><path id="path-17453990892872222" d="M104.55523,23.32502c-0.09567,1.02646 -0.55629,1.75309 -1.23306,2.23986c11.62545,-5.224 18.47813,-11.04412 17.60294,-16.04237c-1.64408,-9.40743 -30.02918,-12.34218 -63.4032,-6.55381c-14.56991,2.52558 -27.67999,6.29631 -37.69326,10.5256c0.53503,-0.12698 1.11967,-0.18695 1.73974,-0.18695c1.77163,0 4.21649,0.42328 4.21649,3.13581v0.87478h-3.12162v-0.76896c0,-0.68078 -0.43228,-1.12875 -1.16219,-1.12875c-0.78306,0 -1.05589,0.43739 -1.14447,0.83598c-0.02835,0.14109 -0.04606,0.40564 0.01417,0.65609c0.35433,1.45679 5.1023,2.23634 5.63025,4.84305c0.05315,0.26455 0.16653,0.97002 0.01417,2.04586c-0.29763,2.07408 -2.16139,2.84657 -4.422,2.84657c-2.2606,0 -4.54955,-0.83598 -4.54955,-3.61553v-0.96297h3.35902v1.20635c0,0.68431 0.4748,1.13228 1.2614,1.13228c0.83267,0 1.11259,-0.42328 1.21888,-0.83598c0.05669,-0.2328 0.09567,-0.62081 -0.02835,-0.92416c-0.64487,-1.612 -5.08813,-2.34921 -5.63379,-4.89243c-0.1311,-0.62434 -0.11693,-1.12522 -0.02835,-1.68254c0.14173,-0.87125 0.56338,-1.50265 1.16928,-1.94004c-12.03647,5.3016 -19.1797,11.24871 -18.28679,16.3422c1.64408,9.40743 30.03626,12.34571 63.40674,6.55734c14.90652,-2.58554 28.2788,-6.46915 38.37357,-10.81837c-0.53149,0.12698 -1.1055,0.19048 -1.70077,0.19048c-2.22163,0 -4.19168,-0.80776 -4.40428,-3.07585c-0.03543,-0.41623 -0.04252,-0.58907 -0.04606,-0.82187v-5.24516c0,-0.22222 0.03189,-0.61376 0.05315,-0.82187c0.27637,-2.32805 2.17202,-3.07585 4.39365,-3.07585c2.22163,0 4.15979,0.74427 4.39011,3.07585c0.04252,0.39859 0.02835,0.82187 0.02835,0.82187v0.41623h-3.15351v-0.69841c0,0 -0.00354,-0.2963 -0.04252,-0.47266c-0.05315,-0.27513 -0.29409,-0.90653 -1.24723,-0.90653c-0.95314,0 -1.17991,0.59965 -1.24723,0.90653c-0.03898,0.16579 -0.05315,0.38801 -0.05315,0.58907v5.69666c0,0.15873 0.00709,0.33157 0.03189,0.47266c0.05315,0.3351 0.3685,0.903 1.27558,0.903c0.90708,0 1.22243,-0.57143 1.28266,-0.903c0.02126,-0.14462 0.02835,-0.31746 0.02835,-0.47266v-1.806h-1.28266v-1.81658h4.43617v3.34392c0,0.2328 -0.00709,0.40564 -0.04606,0.82187zM34.95132,26.161l-1.66533,-11.30162h-0.07087l-1.71494,11.30162h-3.37673l2.32084,-12.45506h5.56293l2.31021,12.45506zM51.59758,26.161l-0.0815,-11.1958h-0.06378l-2.09053,11.1958h-3.17477l-2.09407,-11.1958h-0.06732l-0.07795,11.1958h-3.13225l0.27637,-12.45506h5.10585l1.54486,9.52031h0.06732l1.54486,-9.52031h5.1023l0.27283,12.45506h-3.12516zM66.66355,23.76593c-0.29055,2.05644 -2.13659,2.81482 -4.37593,2.81482c-2.23934,0 -4.50349,-0.82893 -4.50349,-3.57673v-0.95238h3.32358v1.19577c0,0.66667 0.4748,1.11464 1.24723,1.11464c0.82558,0 1.1055,-0.41623 1.20825,-0.82893c0.05669,-0.2328 0.09567,-0.61023 -0.02835,-0.91006v0c-0.63779,-1.59436 -5.03852,-2.32805 -5.57356,-4.84657c-0.12756,-0.62081 -0.12047,-1.11111 -0.02835,-1.66491c0.32598,-2.01411 2.1295,-2.73369 4.32987,-2.73369c1.75392,0 4.18105,0.41975 4.18105,3.10406v0.8642h-3.09681v-0.76191c0,-0.67372 -0.42165,-1.11464 -1.14802,-1.11464c-0.77598,0 -1.04526,0.42681 -1.13385,0.8254c-0.03189,0.13404 -0.04961,0.39506 0.01063,0.6455c0.35078,1.44268 5.04915,2.21517 5.57356,4.79719c0.05315,0.26102 0.16299,0.95591 0.01063,2.0247zM78.40947,23.452c-0.22323,2.32452 -2.06927,3.07937 -4.3653,3.07937c-2.29604,0 -4.14916,-0.75485 -4.36885,-3.07937c-0.01063,-0.1164 -0.03189,-0.58907 -0.02835,-0.81834v-8.93477h3.16059v9.21696c0,0.16226 0.00354,0.34215 0.02835,0.47619c0.06732,0.30688 0.32952,0.903 1.20471,0.903c0.87519,0 1.14093,-0.59965 1.19762,-0.903c0.0248,-0.13404 0.03189,-0.31393 0.02835,-0.47619v-9.21696h3.16414v8.93477c0.00709,0.22928 -0.01772,0.69841 -0.02835,0.81834zM92.44081,26.03049h-4.45388l-3.08973,-10.1129h-0.06732l0.17008,10.1129h-3.0791v-12.32455h4.64522l2.87359,9.7778h0.07087l-0.17008,-9.7778h3.09681v12.32455z" vector-effect="non-scaling-stroke"/></defs></g></svg>