<svg version="1.2" xmlns="http://www.w3.org/2000/svg" xmlns:xlink="http://www.w3.org/1999/xlink" overflow="visible" preserveAspectRatio="none" viewBox="0 0 380 379" width="380" height="379"><g transform="translate(0, 0)"><g transform="rotate(0) translate(-121,-2786) translate(121, 2859) rotate(0)"><g transform="translate(0, 0)"><path style="stroke: rgb(140, 140, 140); stroke-width: 0; stroke-linecap: butt; stroke-linejoin: miter; fill: url(&quot;#gradient-17454030682909629&quot;);" d="M0 20.000000000000004 C0 8.954305004000002 8.954305004000002 0 20.000000000000004 0 C20.000000000000004 0 359.99999999999966 0 359.99999999999966 0 C371.04569499599967 0 379.99999999999966 8.954305004000002 379.99999999999966 20.000000000000004 C379.99999999999966 20.000000000000004 379.99999999999966 359.00000000000057 379.99999999999966 359.00000000000057 C379.99999999999966 370.0456949960006 371.04569499599967 379.00000000000057 359.99999999999966 379.00000000000057 C359.99999999999966 379.00000000000057 20.000000000000004 379.00000000000057 20.000000000000004 379.00000000000057 C8.954305004000002 379.00000000000057 0 370.0456949960006 0 359.00000000000057 C0 359.00000000000057 0 20.000000000000004 0 20.000000000000004 Z" vector-effect="non-scaling-stroke"/></g></g><defs><path id="path-17454030673193077" d="M0 20.000000000000004 C0 8.954305004000002 8.954305004000002 0 20.000000000000004 0 C20.000000000000004 0 359.99999999999966 0 359.99999999999966 0 C371.04569499599967 0 379.99999999999966 8.954305004000002 379.99999999999966 20.000000000000004 C379.99999999999966 20.000000000000004 379.99999999999966 359.00000000000057 379.99999999999966 359.00000000000057 C379.99999999999966 370.0456949960006 371.04569499599967 379.00000000000057 359.99999999999966 379.00000000000057 C359.99999999999966 379.00000000000057 20.000000000000004 379.00000000000057 20.000000000000004 379.00000000000057 C8.954305004000002 379.00000000000057 0 370.0456949960006 0 359.00000000000057 C0 359.00000000000057 0 20.000000000000004 0 20.000000000000004 Z" vector-effect="non-scaling-stroke"/><linearGradient id="gradient-17454030682909629" x1="50%" y1="100%" x2="50%" y2="0%" vector-effect="non-scaling-stroke"><stop offset="33%" stop-color="rgb(0,34,69)" stop-opacity="1" vector-effect="non-scaling-stroke"/><stop offset="90%" stop-color="rgba(0,89,178,0)" stop-opacity="0" vector-effect="non-scaling-stroke"/></linearGradient></defs></g></svg>