<svg version="1.2" xmlns="http://www.w3.org/2000/svg" xmlns:xlink="http://www.w3.org/1999/xlink" overflow="visible" preserveAspectRatio="none" viewBox="0 0 64.99999 49.99998691227045" width="64.99999" height="49.99998691227045"><g transform="translate(0, 0)"><g transform="translate(0, -0.000009249819200751741) rotate(0)"><path style="stroke-width: 0; stroke-linecap: butt; stroke-linejoin: miter; fill: rgb(242, 242, 243);" d="M47.23541,28.57942c1.1961,-1.67219 2.09495,-3.53488 2.66469,-5.50693c0.47066,-1.62985 0.70775,-3.31968 0.71129,-5.01656c0,-3.02687 -0.78914,-6.04669 -2.27896,-8.73489c-2.35328,-4.22633 -6.21053,-7.28495 -10.86046,-8.61847c-9.61128,-2.74817 -19.67906,2.81167 -22.43576,12.38971c-1.53582,5.33054 -0.55912,10.96095 2.67884,15.48714h-17.71505v19.88634h14.32491c0.00354,0.14464 0.03185,0.29281 0.09201,0.43039c0.67944,1.54871 2.77439,1.07246 3.56353,0.88901l0.06724,-0.01411l2.53375,-0.59973l1.92155,-0.45862l1.0227,-0.24342h41.4743v-19.88634h-17.77167zM49.76563,33.43018c0.07785,-0.15875 0.16632,-0.27517 0.23356,-0.36689c0.22294,-0.30692 0.5025,-0.57856 0.5025,-0.57856c0.2194,-0.24342 0.76437,-0.43745 1.11825,-0.02117c0.36095,0.42334 0.01062,0.80082 -0.27602,0.93487c-0.06724,0.02822 -0.1274,0.04233 -0.19109,0.05292c-0.04954,0.01411 -0.13093,0.04586 -0.23356,0.11642c-0.16986,0.10583 -0.32557,0.22931 -0.46712,0.37042c-0.2831,0.26459 -0.5202,0.59973 -0.81392,0.86432c-0.02123,0.02469 -0.12032,0.05292 -0.14155,-0.01411c-0.14509,-0.41628 0.08493,-0.99132 0.27248,-1.35821zM48.82078,34.37916c0.08493,1.25238 -1.42966,2.23664 -2.30727,2.68115c-1.02624,0.52212 -2.14095,0.8749 -3.30874,1.11479c0.77499,0.31398 1.55352,0.69851 2.28604,1.1536c0.85638,0.54328 2.08079,1.1536 2.69654,2.03203c0.43881,0.61737 -0.25125,1.18535 -0.82807,0.9384c-0.83161,-0.35984 -1.56059,-1.03718 -2.33558,-1.56635c-0.77145,-0.52212 -1.56767,-0.99485 -2.39574,-1.33704c-0.867,-0.36337 -1.74107,-0.64206 -2.62576,-0.80082c-0.17694,0.00706 -0.36095,0.01411 -0.54143,0.02117c-0.44588,1.29824 -0.84223,2.6247 -1.45443,3.82769c-0.19109,0.38806 -1.15718,0.43039 -1.10056,-0.26106c0.08493,-1.13949 0.33264,-2.25428 0.67944,-3.31263c-0.38926,0 -0.77499,-0.07408 -1.05101,-0.29986c-0.4105,-0.33514 -0.38219,-0.82904 -0.02123,-1.04776c0.49897,-0.29281 1.11117,-0.41981 1.77292,-0.44098c0.13093,-0.28575 0.26895,-0.56798 0.41404,-0.84668c0.48481,-0.92429 1.0404,-1.78508 1.64552,-2.61059c0.09555,-0.13053 0.19109,-0.2787 0.29018,-0.42334c-0.16278,0.03175 -0.3291,0.0635 -0.48481,0.10583c-0.47773,0.13053 -0.9767,0.25753 -1.40135,0.49742c-0.08139,0.05292 -0.7573,0.32456 -0.78914,0.43392v0c-0.05308,0.37395 -0.75376,0.47273 -0.84576,-0.00706c-0.20171,-0.98779 1.37304,-1.67572 2.01356,-1.93677c1.23503,-0.50095 2.66823,-0.68087 4.08373,-0.66323v0c1.45089,0.01764 5.45677,0.3422 5.61248,2.74817zM16.10137,18.18645c0,-1.49932 0.20879,-3.01276 0.63344,-4.49445c2.49129,-8.63964 11.57176,-13.65268 20.24526,-11.17262c4.20051,1.20652 7.67912,3.96527 9.7953,7.77532c1.36596,2.45536 2.05956,5.15415 2.05956,7.88468c0,1.50991 -0.21233,3.02687 -0.64052,4.51914c-0.61928,2.15903 -1.68445,4.16636 -3.12827,5.89146h-25.19599c-2.45944,-2.97395 -3.76878,-6.65347 -3.76878,-10.40002zM18.23878,35.38459c0.6299,-1.03718 1.32704,-2.07083 2.20465,-2.88576c0.53435,-0.4939 1.52521,-1.46052 2.44175,-1.13596c1.18549,0.42687 0.59451,1.98264 0.25833,2.52945c-0.55912,0.90665 -1.29873,1.66866 -2.09849,2.33189c-0.81745,0.68087 -1.69507,1.33704 -2.6753,1.80272c-0.20171,0.55034 -0.38926,1.10774 -0.55559,1.66866c-0.04247,0.14111 -0.08847,0.28223 -0.13093,0.42687c0.18755,-0.16934 0.37865,-0.33867 0.58743,-0.49037c0.49189,-0.381 0.82099,-0.65618 1.38012,-0.94546c0.49897,-0.254 1.35889,-0.69851 1.85077,-0.80082c0.29372,-0.0635 0.68652,-0.18697 1.07578,-0.04586c0.40696,0.14817 0.68298,0.56798 0.62636,0.96662c-0.08139,0.55387 -0.98378,3.17504 -0.00708,3.29851c0.58743,0.07761 0.75376,0.55387 0,0.75848c-1.28811,0.34925 -1.9994,-0.85021 -1.92509,-2.09905c0.02477,-0.48684 0.11324,-0.97721 0.2371,-1.43935c-0.00708,0.00706 -0.01416,0.01411 -0.02477,0.01411c-0.69006,0.11642 -2.29312,1.20299 -3.15304,2.16961c-0.47066,0.5327 -0.90592,1.67572 -1.86139,1.48169c-0.28664,-0.05645 -0.61221,-0.22225 -0.66175,-0.57504c-0.09201,-0.60326 0.12386,-1.25238 0.24771,-1.79919c0.1274,-0.57151 0.35034,-1.10421 0.54497,-1.64044c0.05308,-0.15522 0.11324,-0.30692 0.16986,-0.45862c-0.21586,0.01764 -0.43527,0.00706 -0.64759,-0.03528c-0.33618,-0.06703 -0.25125,-0.42687 -0.00354,-0.45509c0.30433,-0.03175 0.66529,-0.1905 0.99085,-0.36337c0.32557,-0.79023 0.6936,-1.55577 1.1324,-2.2825zM14.28245,42.96588c-1.47213,1.56988 -3.62723,2.59295 -5.72926,3.18915c-1.07225,0.30339 -3.21674,0.8749 -4.52608,-0.10583c-0.62636,-0.27517 -0.90238,-1.33352 -0.15217,-1.31235c0.09909,0 0.18402,0.0882 0.2371,0.17639c0.25125,0.45156 0.92008,0.58209 1.30934,0.61384c0.6759,0.05292 1.06871,-0.02822 1.81892,-0.17286c0.5839,-0.15875 1.14656,-0.3422 1.69507,-0.57856c1.02978,-0.44451 1.99586,-0.99485 2.8487,-1.69336c0.54497,-0.43745 1.27395,-1.13949 1.3872,-1.68983c0.04954,-0.23989 0.06724,-0.10936 0.01062,-0.35631c0.00708,0.03881 -0.08493,-0.11642 -0.06724,-0.11642c-0.48127,-0.55034 -1.40135,-0.51153 -1.96047,-0.52212c-0.96254,-0.01764 -1.91093,0 -2.8664,-0.01058c-0.79268,-0.01411 -1.88616,-0.11289 -2.61868,-0.7232c-1.9357,-1.60163 0.00708,-3.64071 1.09348,-4.49092c1.49336,-1.17829 3.37598,-2.09553 5.18075,-2.46595c1.23857,-0.254 3.56707,-0.60679 4.83395,0.55034c1.3058,1.1924 0.25125,3.06215 -0.74314,3.50666c-0.38926,0.17286 -0.64759,-0.28928 -0.47773,-0.52917h-0.00708c0.30433,-0.32103 0.64052,-1.06893 0.48481,-1.61222c-0.19463,-0.64559 -0.95193,-0.64559 -1.41551,-0.67029c-1.22087,-0.06703 -2.5656,0.30339 -3.62015,0.72673c-0.98378,0.40217 -1.6703,0.81493 -2.51252,1.43582c-0.65113,0.47978 -1.44028,1.12185 -1.70215,1.965c-0.19817,0.62442 2.17634,0.58209 2.43467,0.58209c0.87407,-0.00706 1.76584,-0.04586 2.65407,0.03175c1.10409,0.09172 3.01149,0.54328 3.25566,2.07083v0c0.14509,0.90312 -0.33972,1.66866 -0.84576,2.20489zM50.00626,45.31541c-0.38573,-0.39512 -1.10409,-0.46567 -1.57475,-0.57504c-0.78561,-0.17992 -1.57829,-0.31398 -2.38159,-0.39864c-1.67383,-0.16581 -3.33705,-0.17639 -4.95427,-0.06703c-3.23443,0.2152 -6.40516,0.6597 -9.47681,1.3441c-0.87054,0.1905 -1.73399,0.40217 -2.60099,0.61031c-0.06016,0.1905 -0.24064,0.67029 -0.27956,0.7232c-0.1274,0.27517 -0.25125,0.56092 -0.50958,0.71262c-0.55912,0.32103 -1.6703,0.00706 -1.36242,-0.88901c0.00354,-0.01764 0.01062,-0.03175 0.01416,-0.04586c-1.40843,0.33867 -2.81332,0.68087 -4.22528,1.00543c-1.48628,0.34573 -2.96194,0.7232 -4.45176,1.06187c-0.70775,0.16228 -2.48067,0.60679 -2.98318,-0.54328c-0.08847,-0.20814 -0.03893,-0.47978 0.046,-0.65618c0.10262,-0.21167 0.31495,-0.41628 0.76437,-0.40923c0.21586,0 0.27248,0.10936 0.18402,0.23284c0,0.05997 0.09909,0.127 0.2371,0.13406c0.22648,0.01411 0.73606,-0.06703 0.73606,-0.06703c0.76083,-0.1517 1.49336,-0.37395 2.24004,-0.57151c1.49336,-0.39864 3.00441,-0.75848 4.519,-1.10421c1.14302,-0.26459 2.29312,-0.52212 3.44676,-0.77259c0.47066,-1.64397 0.92362,-3.39729 1.64199,-4.79078c0.21233,-0.51859 0.45296,-1.02307 0.71129,-1.52049c0.06016,-0.11995 0.12032,-0.24695 0.19109,-0.37748c-0.42111,0.13406 -0.83161,0.27517 -1.27042,0.35631c0.02831,0.70909 -0.11324,1.41818 -0.41404,2.06025c-0.57328,1.23474 -1.39781,2.16256 -2.86994,2.14844c-1.17487,-0.01058 -1.86847,-0.99837 -1.72692,-2.13786c0.16278,-1.27354 0.79622,-2.46595 1.72338,-3.16799c0.15924,-0.127 0.75376,-0.44098 1.22441,-0.45862c0.046,-0.09525 0.1097,-0.17992 0.18755,-0.24695c0.61574,-0.52565 1.56413,0.09172 1.76584,0.95604c0.01769,0.05997 0.03185,0.11642 0.03893,0.17992c0.86346,-0.16934 1.87554,-0.66323 2.13387,-0.74084c0.15217,-0.04233 0.42819,-0.05645 0.56974,0.13053v0.00706c0.48481,-0.34925 1.03332,-0.6209 1.64552,-0.76907c0.75022,-0.17992 1.79769,-0.04586 2.26127,0.92429c0.40696,0.83962 0.33618,1.65102 0.03539,2.36011c-0.73606,1.73216 -2.16572,2.74112 -4.1085,2.8787c-0.82099,0.05997 -0.88115,-0.65265 -0.37865,-0.81845c1.3235,-0.43392 2.53375,-1.30529 3.01503,-2.58237c0.20171,-0.53623 0.37157,-1.97911 -0.76083,-1.56988c-0.60867,0.22225 -1.11471,0.62795 -1.54644,1.08657c-0.20171,0.2152 -0.38219,0.45156 -0.55559,0.70204c-0.19109,0.53623 -0.38926,1.07246 -0.56974,1.61222c-0.3291,0.99132 -0.59805,2.19078 -0.88115,3.34085c1.27749,-0.25753 2.56206,-0.4939 3.86079,-0.69145c3.18135,-0.47626 6.45117,-0.84668 9.78468,-0.77612c1.56059,0.03175 3.14242,0.08467 4.7384,0.37395c0.99439,0.18345 2.33558,0.28575 3.23443,1.02307c0.64405,0.52917 -0.47419,1.38291 -1.06871,0.77612zM55.75321,42.1439c-0.64759,0.30692 -2.35328,0.35631 -3.01149,-1.00896c-0.42819,-0.88196 -0.42465,-1.73216 -0.26187,-2.54709c-0.39988,0.46214 -0.82453,0.89959 -1.27749,1.30882c-0.54497,0.48331 -1.15364,1.04071 -1.97817,1.03365c-0.67944,-0.00353 -1.41197,-0.49037 -1.51813,-1.28413c-0.17694,-1.37585 0.44942,-2.91751 1.52875,-3.43963c0.20879,-0.10231 0.37865,-0.04233 0.48127,0.08467c0.14155,0.10583 0.22294,0.26106 0.12386,0.42687c-0.01416,0.01764 -0.02831,0.03881 -0.03539,0.05997c-0.01416,0.02469 -0.02477,0.04939 -0.03893,0.07056c-0.30787,0.56445 -0.7573,1.76744 -0.44235,2.48712c0.02831,-0.02117 0.05662,-0.03881 0.08493,-0.05645c0.20171,-0.12347 0.38926,-0.25753 0.56974,-0.40923c0.36803,-0.29281 0.73252,-0.58562 1.07932,-0.90312c0.87054,-0.80082 1.66322,-1.68983 2.38159,-2.6494c0.00708,-0.02469 0.01769,-0.04586 0.02831,-0.06703c-0.64405,0.20461 -1.36596,0.36689 -1.95694,0.16228c-0.65821,-0.23284 -1.08286,-0.89254 -0.53789,-1.29824c0.1097,-0.0882 0.41757,-0.06703 0.4565,0.16228c0.046,0.30339 2.43467,-0.51506 2.65407,-0.57151c0.03185,-0.01058 0.0637,-0.01764 0.09555,-0.02469c0.43173,-0.88196 0.89885,-1.77097 1.52875,-2.45889c0.16632,-0.18345 0.70421,-0.23636 0.78207,0.17992c0.1097,0.62795 -0.26541,1.17829 -0.51666,1.64397c-0.03185,0.05645 -0.06016,0.11642 -0.09201,0.17286c0.21586,-0.05292 0.43173,-0.10936 0.65113,-0.16228c0.85992,-0.18345 1.72692,-0.30339 2.63992,-0.29986c0.46712,0 1.17133,0.09172 1.48274,0.60326c0.1734,0.28223 -0.02123,0.62795 -0.2194,0.74437c-0.34326,0.1905 -0.63698,0.16934 -1.06871,0.06703c-0.52374,-0.11995 -1.10056,-0.03881 -1.59244,0.02469c-0.86346,0.11289 -1.73753,0.27517 -2.57268,0.4939c-0.27248,0.72673 -0.53789,1.45346 -0.70775,2.23311c-0.2371,1.08657 -1.04747,4.48739 1.1324,4.42036v0c0.51666,-0.01411 0.48127,0.63501 0.12386,0.79729zM55.85584,40.7751c-0.87054,-0.92076 -0.51312,-2.26486 -0.02477,-2.99159c0.50958,-0.75143 1.22087,-1.28413 2.0631,-1.61927c0.65821,-0.26811 1.67737,-0.43745 2.45944,-0.02117c0.83161,0.44803 0.87407,1.37585 0.48127,1.95794c-0.53435,0.78318 -1.50044,1.26649 -2.42051,1.52049c-0.41757,0.11289 -0.94131,0.23284 -1.54998,0.23636c0.09201,0.16581 0.14863,0.254 0.41404,0.41276c0.77499,0.46214 2.27189,0.35984 3.04688,-0.22225c0.30433,-0.22578 0.913,0.09525 0.61574,0.4692c-0.93069,1.17829 -3.63785,1.79919 -5.0852,0.25753zM61.70541,44.78977c-0.86346,0 -1.5889,-0.6597 -1.5889,-1.56635c0,-0.90665 0.72899,-1.55577 1.5889,-1.55577c0.85992,0 1.58183,0.6597 1.58183,1.55577c0,0.89607 -0.72899,1.56635 -1.58183,1.56635z" vector-effect="non-scaling-stroke"/></g><defs><path id="path-1745399088908245" d="M47.23541,28.57942c1.1961,-1.67219 2.09495,-3.53488 2.66469,-5.50693c0.47066,-1.62985 0.70775,-3.31968 0.71129,-5.01656c0,-3.02687 -0.78914,-6.04669 -2.27896,-8.73489c-2.35328,-4.22633 -6.21053,-7.28495 -10.86046,-8.61847c-9.61128,-2.74817 -19.67906,2.81167 -22.43576,12.38971c-1.53582,5.33054 -0.55912,10.96095 2.67884,15.48714h-17.71505v19.88634h14.32491c0.00354,0.14464 0.03185,0.29281 0.09201,0.43039c0.67944,1.54871 2.77439,1.07246 3.56353,0.88901l0.06724,-0.01411l2.53375,-0.59973l1.92155,-0.45862l1.0227,-0.24342h41.4743v-19.88634h-17.77167zM49.76563,33.43018c0.07785,-0.15875 0.16632,-0.27517 0.23356,-0.36689c0.22294,-0.30692 0.5025,-0.57856 0.5025,-0.57856c0.2194,-0.24342 0.76437,-0.43745 1.11825,-0.02117c0.36095,0.42334 0.01062,0.80082 -0.27602,0.93487c-0.06724,0.02822 -0.1274,0.04233 -0.19109,0.05292c-0.04954,0.01411 -0.13093,0.04586 -0.23356,0.11642c-0.16986,0.10583 -0.32557,0.22931 -0.46712,0.37042c-0.2831,0.26459 -0.5202,0.59973 -0.81392,0.86432c-0.02123,0.02469 -0.12032,0.05292 -0.14155,-0.01411c-0.14509,-0.41628 0.08493,-0.99132 0.27248,-1.35821zM48.82078,34.37916c0.08493,1.25238 -1.42966,2.23664 -2.30727,2.68115c-1.02624,0.52212 -2.14095,0.8749 -3.30874,1.11479c0.77499,0.31398 1.55352,0.69851 2.28604,1.1536c0.85638,0.54328 2.08079,1.1536 2.69654,2.03203c0.43881,0.61737 -0.25125,1.18535 -0.82807,0.9384c-0.83161,-0.35984 -1.56059,-1.03718 -2.33558,-1.56635c-0.77145,-0.52212 -1.56767,-0.99485 -2.39574,-1.33704c-0.867,-0.36337 -1.74107,-0.64206 -2.62576,-0.80082c-0.17694,0.00706 -0.36095,0.01411 -0.54143,0.02117c-0.44588,1.29824 -0.84223,2.6247 -1.45443,3.82769c-0.19109,0.38806 -1.15718,0.43039 -1.10056,-0.26106c0.08493,-1.13949 0.33264,-2.25428 0.67944,-3.31263c-0.38926,0 -0.77499,-0.07408 -1.05101,-0.29986c-0.4105,-0.33514 -0.38219,-0.82904 -0.02123,-1.04776c0.49897,-0.29281 1.11117,-0.41981 1.77292,-0.44098c0.13093,-0.28575 0.26895,-0.56798 0.41404,-0.84668c0.48481,-0.92429 1.0404,-1.78508 1.64552,-2.61059c0.09555,-0.13053 0.19109,-0.2787 0.29018,-0.42334c-0.16278,0.03175 -0.3291,0.0635 -0.48481,0.10583c-0.47773,0.13053 -0.9767,0.25753 -1.40135,0.49742c-0.08139,0.05292 -0.7573,0.32456 -0.78914,0.43392v0c-0.05308,0.37395 -0.75376,0.47273 -0.84576,-0.00706c-0.20171,-0.98779 1.37304,-1.67572 2.01356,-1.93677c1.23503,-0.50095 2.66823,-0.68087 4.08373,-0.66323v0c1.45089,0.01764 5.45677,0.3422 5.61248,2.74817zM16.10137,18.18645c0,-1.49932 0.20879,-3.01276 0.63344,-4.49445c2.49129,-8.63964 11.57176,-13.65268 20.24526,-11.17262c4.20051,1.20652 7.67912,3.96527 9.7953,7.77532c1.36596,2.45536 2.05956,5.15415 2.05956,7.88468c0,1.50991 -0.21233,3.02687 -0.64052,4.51914c-0.61928,2.15903 -1.68445,4.16636 -3.12827,5.89146h-25.19599c-2.45944,-2.97395 -3.76878,-6.65347 -3.76878,-10.40002zM18.23878,35.38459c0.6299,-1.03718 1.32704,-2.07083 2.20465,-2.88576c0.53435,-0.4939 1.52521,-1.46052 2.44175,-1.13596c1.18549,0.42687 0.59451,1.98264 0.25833,2.52945c-0.55912,0.90665 -1.29873,1.66866 -2.09849,2.33189c-0.81745,0.68087 -1.69507,1.33704 -2.6753,1.80272c-0.20171,0.55034 -0.38926,1.10774 -0.55559,1.66866c-0.04247,0.14111 -0.08847,0.28223 -0.13093,0.42687c0.18755,-0.16934 0.37865,-0.33867 0.58743,-0.49037c0.49189,-0.381 0.82099,-0.65618 1.38012,-0.94546c0.49897,-0.254 1.35889,-0.69851 1.85077,-0.80082c0.29372,-0.0635 0.68652,-0.18697 1.07578,-0.04586c0.40696,0.14817 0.68298,0.56798 0.62636,0.96662c-0.08139,0.55387 -0.98378,3.17504 -0.00708,3.29851c0.58743,0.07761 0.75376,0.55387 0,0.75848c-1.28811,0.34925 -1.9994,-0.85021 -1.92509,-2.09905c0.02477,-0.48684 0.11324,-0.97721 0.2371,-1.43935c-0.00708,0.00706 -0.01416,0.01411 -0.02477,0.01411c-0.69006,0.11642 -2.29312,1.20299 -3.15304,2.16961c-0.47066,0.5327 -0.90592,1.67572 -1.86139,1.48169c-0.28664,-0.05645 -0.61221,-0.22225 -0.66175,-0.57504c-0.09201,-0.60326 0.12386,-1.25238 0.24771,-1.79919c0.1274,-0.57151 0.35034,-1.10421 0.54497,-1.64044c0.05308,-0.15522 0.11324,-0.30692 0.16986,-0.45862c-0.21586,0.01764 -0.43527,0.00706 -0.64759,-0.03528c-0.33618,-0.06703 -0.25125,-0.42687 -0.00354,-0.45509c0.30433,-0.03175 0.66529,-0.1905 0.99085,-0.36337c0.32557,-0.79023 0.6936,-1.55577 1.1324,-2.2825zM14.28245,42.96588c-1.47213,1.56988 -3.62723,2.59295 -5.72926,3.18915c-1.07225,0.30339 -3.21674,0.8749 -4.52608,-0.10583c-0.62636,-0.27517 -0.90238,-1.33352 -0.15217,-1.31235c0.09909,0 0.18402,0.0882 0.2371,0.17639c0.25125,0.45156 0.92008,0.58209 1.30934,0.61384c0.6759,0.05292 1.06871,-0.02822 1.81892,-0.17286c0.5839,-0.15875 1.14656,-0.3422 1.69507,-0.57856c1.02978,-0.44451 1.99586,-0.99485 2.8487,-1.69336c0.54497,-0.43745 1.27395,-1.13949 1.3872,-1.68983c0.04954,-0.23989 0.06724,-0.10936 0.01062,-0.35631c0.00708,0.03881 -0.08493,-0.11642 -0.06724,-0.11642c-0.48127,-0.55034 -1.40135,-0.51153 -1.96047,-0.52212c-0.96254,-0.01764 -1.91093,0 -2.8664,-0.01058c-0.79268,-0.01411 -1.88616,-0.11289 -2.61868,-0.7232c-1.9357,-1.60163 0.00708,-3.64071 1.09348,-4.49092c1.49336,-1.17829 3.37598,-2.09553 5.18075,-2.46595c1.23857,-0.254 3.56707,-0.60679 4.83395,0.55034c1.3058,1.1924 0.25125,3.06215 -0.74314,3.50666c-0.38926,0.17286 -0.64759,-0.28928 -0.47773,-0.52917h-0.00708c0.30433,-0.32103 0.64052,-1.06893 0.48481,-1.61222c-0.19463,-0.64559 -0.95193,-0.64559 -1.41551,-0.67029c-1.22087,-0.06703 -2.5656,0.30339 -3.62015,0.72673c-0.98378,0.40217 -1.6703,0.81493 -2.51252,1.43582c-0.65113,0.47978 -1.44028,1.12185 -1.70215,1.965c-0.19817,0.62442 2.17634,0.58209 2.43467,0.58209c0.87407,-0.00706 1.76584,-0.04586 2.65407,0.03175c1.10409,0.09172 3.01149,0.54328 3.25566,2.07083v0c0.14509,0.90312 -0.33972,1.66866 -0.84576,2.20489zM50.00626,45.31541c-0.38573,-0.39512 -1.10409,-0.46567 -1.57475,-0.57504c-0.78561,-0.17992 -1.57829,-0.31398 -2.38159,-0.39864c-1.67383,-0.16581 -3.33705,-0.17639 -4.95427,-0.06703c-3.23443,0.2152 -6.40516,0.6597 -9.47681,1.3441c-0.87054,0.1905 -1.73399,0.40217 -2.60099,0.61031c-0.06016,0.1905 -0.24064,0.67029 -0.27956,0.7232c-0.1274,0.27517 -0.25125,0.56092 -0.50958,0.71262c-0.55912,0.32103 -1.6703,0.00706 -1.36242,-0.88901c0.00354,-0.01764 0.01062,-0.03175 0.01416,-0.04586c-1.40843,0.33867 -2.81332,0.68087 -4.22528,1.00543c-1.48628,0.34573 -2.96194,0.7232 -4.45176,1.06187c-0.70775,0.16228 -2.48067,0.60679 -2.98318,-0.54328c-0.08847,-0.20814 -0.03893,-0.47978 0.046,-0.65618c0.10262,-0.21167 0.31495,-0.41628 0.76437,-0.40923c0.21586,0 0.27248,0.10936 0.18402,0.23284c0,0.05997 0.09909,0.127 0.2371,0.13406c0.22648,0.01411 0.73606,-0.06703 0.73606,-0.06703c0.76083,-0.1517 1.49336,-0.37395 2.24004,-0.57151c1.49336,-0.39864 3.00441,-0.75848 4.519,-1.10421c1.14302,-0.26459 2.29312,-0.52212 3.44676,-0.77259c0.47066,-1.64397 0.92362,-3.39729 1.64199,-4.79078c0.21233,-0.51859 0.45296,-1.02307 0.71129,-1.52049c0.06016,-0.11995 0.12032,-0.24695 0.19109,-0.37748c-0.42111,0.13406 -0.83161,0.27517 -1.27042,0.35631c0.02831,0.70909 -0.11324,1.41818 -0.41404,2.06025c-0.57328,1.23474 -1.39781,2.16256 -2.86994,2.14844c-1.17487,-0.01058 -1.86847,-0.99837 -1.72692,-2.13786c0.16278,-1.27354 0.79622,-2.46595 1.72338,-3.16799c0.15924,-0.127 0.75376,-0.44098 1.22441,-0.45862c0.046,-0.09525 0.1097,-0.17992 0.18755,-0.24695c0.61574,-0.52565 1.56413,0.09172 1.76584,0.95604c0.01769,0.05997 0.03185,0.11642 0.03893,0.17992c0.86346,-0.16934 1.87554,-0.66323 2.13387,-0.74084c0.15217,-0.04233 0.42819,-0.05645 0.56974,0.13053v0.00706c0.48481,-0.34925 1.03332,-0.6209 1.64552,-0.76907c0.75022,-0.17992 1.79769,-0.04586 2.26127,0.92429c0.40696,0.83962 0.33618,1.65102 0.03539,2.36011c-0.73606,1.73216 -2.16572,2.74112 -4.1085,2.8787c-0.82099,0.05997 -0.88115,-0.65265 -0.37865,-0.81845c1.3235,-0.43392 2.53375,-1.30529 3.01503,-2.58237c0.20171,-0.53623 0.37157,-1.97911 -0.76083,-1.56988c-0.60867,0.22225 -1.11471,0.62795 -1.54644,1.08657c-0.20171,0.2152 -0.38219,0.45156 -0.55559,0.70204c-0.19109,0.53623 -0.38926,1.07246 -0.56974,1.61222c-0.3291,0.99132 -0.59805,2.19078 -0.88115,3.34085c1.27749,-0.25753 2.56206,-0.4939 3.86079,-0.69145c3.18135,-0.47626 6.45117,-0.84668 9.78468,-0.77612c1.56059,0.03175 3.14242,0.08467 4.7384,0.37395c0.99439,0.18345 2.33558,0.28575 3.23443,1.02307c0.64405,0.52917 -0.47419,1.38291 -1.06871,0.77612zM55.75321,42.1439c-0.64759,0.30692 -2.35328,0.35631 -3.01149,-1.00896c-0.42819,-0.88196 -0.42465,-1.73216 -0.26187,-2.54709c-0.39988,0.46214 -0.82453,0.89959 -1.27749,1.30882c-0.54497,0.48331 -1.15364,1.04071 -1.97817,1.03365c-0.67944,-0.00353 -1.41197,-0.49037 -1.51813,-1.28413c-0.17694,-1.37585 0.44942,-2.91751 1.52875,-3.43963c0.20879,-0.10231 0.37865,-0.04233 0.48127,0.08467c0.14155,0.10583 0.22294,0.26106 0.12386,0.42687c-0.01416,0.01764 -0.02831,0.03881 -0.03539,0.05997c-0.01416,0.02469 -0.02477,0.04939 -0.03893,0.07056c-0.30787,0.56445 -0.7573,1.76744 -0.44235,2.48712c0.02831,-0.02117 0.05662,-0.03881 0.08493,-0.05645c0.20171,-0.12347 0.38926,-0.25753 0.56974,-0.40923c0.36803,-0.29281 0.73252,-0.58562 1.07932,-0.90312c0.87054,-0.80082 1.66322,-1.68983 2.38159,-2.6494c0.00708,-0.02469 0.01769,-0.04586 0.02831,-0.06703c-0.64405,0.20461 -1.36596,0.36689 -1.95694,0.16228c-0.65821,-0.23284 -1.08286,-0.89254 -0.53789,-1.29824c0.1097,-0.0882 0.41757,-0.06703 0.4565,0.16228c0.046,0.30339 2.43467,-0.51506 2.65407,-0.57151c0.03185,-0.01058 0.0637,-0.01764 0.09555,-0.02469c0.43173,-0.88196 0.89885,-1.77097 1.52875,-2.45889c0.16632,-0.18345 0.70421,-0.23636 0.78207,0.17992c0.1097,0.62795 -0.26541,1.17829 -0.51666,1.64397c-0.03185,0.05645 -0.06016,0.11642 -0.09201,0.17286c0.21586,-0.05292 0.43173,-0.10936 0.65113,-0.16228c0.85992,-0.18345 1.72692,-0.30339 2.63992,-0.29986c0.46712,0 1.17133,0.09172 1.48274,0.60326c0.1734,0.28223 -0.02123,0.62795 -0.2194,0.74437c-0.34326,0.1905 -0.63698,0.16934 -1.06871,0.06703c-0.52374,-0.11995 -1.10056,-0.03881 -1.59244,0.02469c-0.86346,0.11289 -1.73753,0.27517 -2.57268,0.4939c-0.27248,0.72673 -0.53789,1.45346 -0.70775,2.23311c-0.2371,1.08657 -1.04747,4.48739 1.1324,4.42036v0c0.51666,-0.01411 0.48127,0.63501 0.12386,0.79729zM55.85584,40.7751c-0.87054,-0.92076 -0.51312,-2.26486 -0.02477,-2.99159c0.50958,-0.75143 1.22087,-1.28413 2.0631,-1.61927c0.65821,-0.26811 1.67737,-0.43745 2.45944,-0.02117c0.83161,0.44803 0.87407,1.37585 0.48127,1.95794c-0.53435,0.78318 -1.50044,1.26649 -2.42051,1.52049c-0.41757,0.11289 -0.94131,0.23284 -1.54998,0.23636c0.09201,0.16581 0.14863,0.254 0.41404,0.41276c0.77499,0.46214 2.27189,0.35984 3.04688,-0.22225c0.30433,-0.22578 0.913,0.09525 0.61574,0.4692c-0.93069,1.17829 -3.63785,1.79919 -5.0852,0.25753zM61.70541,44.78977c-0.86346,0 -1.5889,-0.6597 -1.5889,-1.56635c0,-0.90665 0.72899,-1.55577 1.5889,-1.55577c0.85992,0 1.58183,0.6597 1.58183,1.55577c0,0.89607 -0.72899,1.56635 -1.58183,1.56635z" vector-effect="non-scaling-stroke"/></defs></g></svg>