<svg height="27.000005780161864" overflow="visible" viewBox="0 0 180 27.000005780161864" width="180" xmlns="http://www.w3.org/2000/svg"><g><defs><path id="path-17453127929693899" d="M44.055801125057634 8.784616148642154 C42.12182330378897 8.784616148642154 40.46406794870771 9.483355690811516 39.082619171405206 10.601407028379153 C39.082619171405206 10.601407028379153 39.082619171405206 9.064128983034061 39.082619171405206 9.064128983034061 C39.082619171405206 9.064128983034061 34.38565968394017 9.064128983034061 34.38565968394017 9.064128983034061 C34.38565968394017 9.064128983034061 34.38565968394017 27.09172829367277 34.38565968394017 27.09172829367277 C34.38565968394017 27.09172829367277 39.22073040449889 27.09172829367277 39.22073040449889 27.09172829367277 C39.22073040449889 27.09172829367277 39.22073040449889 15.632297696950243 39.22073040449889 15.632297696950243 C39.911454793150135 14.654045320388967 41.56921014823141 13.396365197056605 43.64138331418516 13.396365197056605 C44.3321077028364 13.396365197056605 45.02283209148766 13.53607907044215 45.57544524704522 13.675878031448518 C45.57544524704522 13.675878031448518 45.57544524704522 9.064128983034061 45.57544524704522 9.064128983034061 C45.02283209148766 8.92441510964852 44.470303047521504 8.784616148642154 44.055801125057634 8.784616148642154 Z" vector-effect="non-scaling-stroke"/></defs> <path style="stroke-width: 0; stroke-linecap: butt; stroke-linejoin: miter; fill: rgb(255, 255, 255);" d="M43.78699730123287 8.246171473582152 C41.85301947996419 8.246171473582152 40.1952641248829 8.944911015751508 38.81381534758043 10.06296235331915 C38.81381534758043 10.06296235331915 38.81381534758043 8.525684307974053 38.81381534758043 8.525684307974053 C38.81381534758043 8.525684307974053 34.11685586011538 8.525684307974053 34.11685586011538 8.525684307974053 C34.11685586011538 8.525684307974053 34.11685586011538 26.553283618612767 34.11685586011538 26.553283618612767 C34.11685586011538 26.553283618612767 38.951926580674126 26.553283618612767 38.951926580674126 26.553283618612767 C38.951926580674126 26.553283618612767 38.951926580674126 15.09385302189024 38.951926580674126 15.09385302189024 C39.64265096932536 14.11560064532896 41.30040632440665 12.857920521996597 43.37257949036041 12.857920521996597 C44.06330387901164 12.857920521996597 44.754028267662875 12.997634395382143 45.30664142322041 13.137433356388513 C45.30664142322041 13.137433356388513 45.30664142322041 8.525684307974053 45.30664142322041 8.525684307974053 C44.754028267662875 8.385970434588515 44.201499223696715 8.246171473582152 43.78699730123287 8.246171473582152 Z" vector-effect="non-scaling-stroke"/></g><g><defs><path id="path-17453127929683897" d="M2.47913868982739 21.501046167730482 C3.7224425893996482 22.619097505298118 5.656487699941441 23.317837047467478 7.314234643863594 23.317837047467478 C8.557513309958427 23.317837047467478 9.662739621073563 22.619097505298118 9.662739621073563 21.78055900212239 C9.662739621073563 18.985600833444945 0.9595282124763489 19.963853210006217 0.9595282124763489 14.234137911644947 C0.9595282124763489 10.740440200798137 4.275030511479792 8.644221574290052 7.728669277054347 8.644221574290052 C10.077157431946034 8.644221574290052 12.56374840877226 9.482674989844957 13.807085952981087 10.460927366406226 C13.807085952981087 10.460927366406226 11.596717442342229 13.95462507725304 11.596717442342229 13.95462507725304 C10.629770587503604 13.395684496090043 9.524544276388466 12.69694495392068 8.143103910245095 12.69694495392068 C6.76164672178345 12.69694495392068 5.794632577671691 13.25588553508368 5.794632577671691 14.234137911644947 C5.794632577671691 16.60986937254495 14.49781034163234 15.631616995983672 14.49781034163234 21.920357963128755 C14.49781034163234 25.41405567397557 11.18229963146976 27.51027430048365 7.452379521593845 27.51027430048365 C4.965754900131048 27.51027430048365 2.3409854009379996 26.671820884928756 0.26880382382509477 25.134542839583663 C0.26880382382509477 25.134542839583663 2.47913868982739 21.501046167730482 2.47913868982739 21.501046167730482 Z" vector-effect="non-scaling-stroke"/></defs> <path style="stroke-width: 0; stroke-linecap: butt; stroke-linejoin: miter; fill: rgb(255, 255, 255);" d="M2.210334866002313 20.962601492670473 C3.453638765574567 22.080652830238108 5.387683876116398 22.77939237240747 7.0454308200385185 22.77939237240747 C8.28870948613337 22.77939237240747 9.393935797248503 22.080652830238108 9.393935797248503 21.24211432706238 C9.393935797248503 18.447156158384942 0.6907243886512902 19.425408534946214 0.6907243886512902 13.695693236584944 C0.6907243886512902 10.201995525738127 4.006226687654703 8.105776899230044 7.45986545322927 8.105776899230044 C9.808353608120967 8.105776899230044 12.294944584947189 8.944230314784953 13.538282129156016 9.922482691346218 C13.538282129156016 9.922482691346218 11.327913618517186 13.416180402193035 11.327913618517186 13.416180402193035 C10.360966763678562 12.857239821030035 9.255740452563373 12.158500278860672 7.874300086420021 12.158500278860672 C6.492842897958383 12.158500278860672 5.525828753846611 12.717440860023672 5.525828753846611 13.695693236584944 C5.525828753846611 16.071424697484943 14.22900651780725 15.093172320923664 14.22900651780725 21.381913288068745 C14.22900651780725 24.875610998915562 10.913495807644722 26.971829625423645 7.183575697768788 26.971829625423645 C4.696951076305993 26.971829625423645 2.0721815771129286 26.13337620986875 0 24.596098164523653 C0 24.596098164523653 2.210334866002313 20.962601492670473 2.210334866002313 20.962601492670473 Z" vector-effect="non-scaling-stroke"/></g><g><defs><path id="path-17453127929683895" d="M17.13008,9.22341c0,-5.03098 -3.45362,-9.22341 -8.42689,-9.22341c-5.24949,0 -8.70319,4.47195 -8.70319,9.36313c0,5.72972 4.00624,9.36321 9.25581,9.36321c2.7629,0 5.5258,-1.11805 7.32166,-3.21427l-2.7629,-2.79496c-0.82884,0.97825 -2.48659,2.09622 -4.42065,2.09622c-2.48659,0 -4.55876,-1.81671 -4.83507,-4.33215h12.29493c0.27631,-0.27951 0.27631,-0.69882 0.27631,-1.25777zM4.97327,7.12719c0.27631,-1.67699 1.93406,-3.21427 3.86812,-3.21427c1.93398,0 3.31543,1.53728 3.59173,3.21427z" vector-effect="non-scaling-stroke"/></defs><path style="stroke-width: 0; stroke-linecap: butt; stroke-linejoin: miter; fill: rgb(255, 255, 255);" d="M17.13008,9.22341c0,-5.03098 -3.45362,-9.22341 -8.42689,-9.22341c-5.24949,0 -8.70319,4.47195 -8.70319,9.36313c0,5.72972 4.00624,9.36321 9.25581,9.36321c2.7629,0 5.5258,-1.11805 7.32166,-3.21427l-2.7629,-2.79496c-0.82884,0.97825 -2.48659,2.09622 -4.42065,2.09622c-2.48659,0 -4.55876,-1.81671 -4.83507,-4.33215h12.29493c0.27631,-0.27951 0.27631,-0.69882 0.27631,-1.25777zM4.97327,7.12719c0.27631,-1.67699 1.93406,-3.21427 3.86812,-3.21427c1.93398,0 3.31543,1.53728 3.59173,3.21427z" transform="translate(14.918637455770238, 8.105776899230044) rotate(0)" vector-effect="non-scaling-stroke"/></g><g><defs><path id="path-17453127929673893" d="M66.58265164782532 9.066341261175381 C66.58265164782532 9.066341261175381 58.43207021710401 27.093940571814116 58.43207021710401 27.093940571814116 C58.43207021710401 27.093940571814116 55.11655950694146 27.093940571814116 55.11655950694146 27.093940571814116 C55.11655950694146 27.093940571814116 46.965978076220125 9.066341261175381 46.965978076220125 9.066341261175381 C46.965978076220125 9.066341261175381 51.80104879677887 9.066341261175381 51.80104879677887 9.066341261175381 C51.80104879677887 9.066341261175381 56.77431486202272 20.106460062499657 56.77431486202272 20.106460062499657 C56.77431486202272 20.106460062499657 61.609469694172894 9.066341261175381 61.609469694172894 9.066341261175381 C61.609469694172894 9.066341261175381 66.58265164782532 9.066341261175381 66.58265164782532 9.066341261175381 Z" vector-effect="non-scaling-stroke"/></defs> <path style="stroke-width: 0; stroke-linecap: butt; stroke-linejoin: miter; fill: rgb(255, 255, 255);" d="M66.31384782400028 8.527896586115354 C66.31384782400028 8.527896586115354 58.163266393279 26.55549589675409 58.163266393279 26.55549589675409 C58.163266393279 26.55549589675409 54.847755683116475 26.55549589675409 54.847755683116475 26.55549589675409 C54.847755683116475 26.55549589675409 46.69717425239514 8.527896586115354 46.69717425239514 8.527896586115354 C46.69717425239514 8.527896586115354 51.53224497295389 8.527896586115354 51.53224497295389 8.527896586115354 C51.53224497295389 8.527896586115354 56.50551103819771 19.56801538743963 56.50551103819771 19.56801538743963 C56.50551103819771 19.56801538743963 61.34066587034789 8.527896586115354 61.34066587034789 8.527896586115354 C61.34066587034789 8.527896586115354 66.31384782400028 8.527896586115354 66.31384782400028 8.527896586115354 Z" vector-effect="non-scaling-stroke"/></g><g><defs><path id="path-17453127929673891" d="M70.58846618868279 0.5384446750600091 C72.38433277685785 0.5384446750600091 73.76586566575173 1.9359305664084023 73.76586566575173 3.612913976376957 C73.76586566575173 5.429653803541467 72.38433277685785 6.687393488208403 70.58846618868279 6.687393488208403 C68.79259960050783 6.687393488208403 67.549262056299 5.289905895107595 67.549262056299 3.612913976376957 C67.549262056299 1.7961826579745293 68.79259960050783 0.5384446750600091 70.58846618868279 0.5384446750600091 Z" vector-effect="non-scaling-stroke"/></defs> <path style="stroke-width: 0; stroke-linecap: butt; stroke-linejoin: miter; fill: rgb(255, 255, 255);" d="M70.31966236485721 0 C72.11552895303225 0 73.49706184192615 1.3974858913483956 73.49706184192615 3.0744693013169524 C73.49706184192615 4.891209128481464 72.11552895303225 6.148948813148394 70.31966236485721 6.148948813148394 C68.52379577668228 6.148948813148394 67.28045823247339 4.751461220047588 67.28045823247339 3.0744693013169524 C67.28045823247339 1.25773798291452 68.52379577668228 0 70.31966236485721 0 Z" vector-effect="non-scaling-stroke"/></g><g><defs><path id="path-17453127929673889" d="M73.06454321658317 9.066341261175381 C73.06454321658317 9.066341261175381 68.22938838443294 9.066341261175381 68.22938838443294 9.066341261175381 C68.22938838443294 9.066341261175381 68.22938838443294 27.093940571814116 68.22938838443294 27.093940571814116 C68.22938838443294 27.093940571814116 73.06454321658317 27.093940571814116 73.06454321658317 27.093940571814116 C73.06454321658317 27.093940571814116 73.06454321658317 9.066341261175381 73.06454321658317 9.066341261175381 Z" vector-effect="non-scaling-stroke"/></defs> <path style="stroke-width: 0; stroke-linecap: butt; stroke-linejoin: miter; fill: rgb(255, 255, 255);" d="M72.79573939275735 8.527896586115354 C72.79573939275735 8.527896586115354 67.96058456060712 8.527896586115354 67.96058456060712 8.527896586115354 C67.96058456060712 8.527896586115354 67.96058456060712 26.55549589675409 67.96058456060712 26.55549589675409 C67.96058456060712 26.55549589675409 72.79573939275735 26.55549589675409 72.79573939275735 26.55549589675409 C72.79573939275735 26.55549589675409 72.79573939275735 8.527896586115354 72.79573939275735 8.527896586115354 Z" vector-effect="non-scaling-stroke"/></g><g><defs><path id="path-17453127929663887" d="M92.68929150096302 23.317837047467503 C90.61762300455774 26.112795216144953 87.99250023668081 27.370560427098145 84.67682130333537 27.370560427098145 C79.15136264049099 27.370560427098145 75.14512754167713 23.17803808646114 75.14512754167713 18.007348456883687 C75.14512754167713 12.69694495392069 79.28947387358467 8.644221574290057 84.67682130333537 8.644221574290057 C87.85455722676993 8.644221574290057 90.47967999464686 10.181414532014328 92.13667834540549 12.27763315852242 C92.13667834540549 12.27763315852242 88.95978353788503 15.212390288206231 88.95978353788503 15.212390288206231 C87.99250023668081 13.954625077253056 86.61138790574391 13.116171661698145 84.95354843907123 13.116171661698145 C82.19056677287479 13.116171661698145 80.11839360692102 15.352104161591779 80.11839360692102 18.007348456883687 C80.11839360692102 20.80230662556114 82.05245553978112 22.89861033969004 84.95354843907123 22.89861033969004 C86.88727392556567 22.89861033969004 88.40717038232748 21.780559002122416 89.23566955770679 20.522878878790053 C89.23566955770679 20.522878878790053 92.68929150096302 23.317837047467503 92.68929150096302 23.317837047467503 Z" vector-effect="non-scaling-stroke"/></defs> <path style="stroke-width: 0; stroke-linecap: butt; stroke-linejoin: miter; fill: rgb(255, 255, 255);" d="M92.42048767713783 22.779392372407486 C90.34881918073256 25.57435054108494 87.72369641285565 26.832115752038135 84.40801747951019 26.832115752038135 C78.88255881666578 26.832115752038135 74.87632371785196 22.639593411401123 74.87632371785196 17.46890378182367 C74.87632371785196 12.158500278860679 79.02067004975947 8.105776899230044 84.40801747951019 8.105776899230044 C87.58575340294476 8.105776899230044 90.21087617082168 9.642969856954316 91.86787452158029 11.739188483462407 C91.86787452158029 11.739188483462407 88.69097971405984 14.673945613146216 88.69097971405984 14.673945613146216 C87.72369641285565 13.416180402193042 86.34258408191874 12.577726986638133 84.68474461524602 12.577726986638133 C81.9217629490496 12.577726986638133 79.84958978309584 14.813659486531762 79.84958978309584 17.46890378182367 C79.84958978309584 20.263861950501123 81.78365171595595 22.36016566463003 84.68474461524602 22.36016566463003 C86.61847010174051 22.36016566463003 88.1383665585023 21.242114327062403 88.9668657338816 19.98443420373004 C88.9668657338816 19.98443420373004 92.42048767713783 22.779392372407486 92.42048767713783 22.779392372407486 Z" vector-effect="non-scaling-stroke"/></g><g><defs><path id="path-17453127929663885" d="M16.57755,15.51207c-1.79578,2.09622 -4.55885,3.21427 -7.32107,3.21427c-5.25025,0 -9.25648,-3.6335 -9.25648,-9.36321c0,-5.03098 3.31568,-9.36313 8.70387,-9.36313c4.83473,0 8.4263,4.19244 8.4263,9.22341c0,0.55894 0,0.97825 -0.13794,1.39748h-12.43338c0.27673,2.51545 2.3484,4.33224 4.83558,4.33224c1.93373,0 3.59156,-1.11805 4.42006,-2.0963zM12.15749,7.12719c-0.13878,-1.53728 -1.5199,-3.21427 -3.59241,-3.21427c-1.93373,0 -3.59156,1.53728 -3.86745,3.21427z" vector-effect="non-scaling-stroke"/></defs><path style="stroke-width: 0; stroke-linecap: butt; stroke-linejoin: miter; fill: rgb(255, 255, 255);" d="M16.57755,15.51207c-1.79578,2.09622 -4.55885,3.21427 -7.32107,3.21427c-5.25025,0 -9.25648,-3.6335 -9.25648,-9.36321c0,-5.03098 3.31568,-9.36313 8.70387,-9.36313c4.83473,0 8.4263,4.19244 8.4263,9.22341c0,0.55894 0,0.97825 -0.13794,1.39748h-12.43338c0.27673,2.51545 2.3484,4.33224 4.83558,4.33224c1.93373,0 3.59156,-1.11805 4.42006,-2.0963zM12.15749,7.12719c-0.13878,-1.53728 -1.5199,-3.21427 -3.59241,-3.21427c-1.93373,0 -3.59156,1.53728 -3.86745,3.21427z" transform="translate(93.1110341128765, 8.105776899230044) rotate(0)" vector-effect="non-scaling-stroke"/></g><g><defs><path id="path-17453127929653883" d="M112.30495573347122 27.086708124044428 C112.30495573347122 27.086708124044428 112.30495573347122 9.059108813405714 112.30495573347122 9.059108813405714 C112.30495573347122 9.059108813405714 116.86380398784257 9.059108813405714 116.86380398784257 9.059108813405714 C116.86380398784257 9.059108813405714 116.86380398784257 10.596386858750803 116.86380398784257 10.596386858750803 C118.24575743469357 9.478420608803988 119.90359690136624 8.779681066634625 121.8373223878607 8.779681066634625 C124.3236610299127 8.779681066634625 126.53411365214293 9.897647316581443 128.0540101089048 11.714353108697622 C129.15923642001997 13.111832193036348 129.98773559539924 14.928623072773348 129.98773559539924 18.003094075842707 C129.98773559539924 18.003094075842707 129.98773559539924 27.226507085050798 129.98773559539924 27.226507085050798 C129.98773559539924 27.226507085050798 125.1530013212061 27.226507085050798 125.1530013212061 27.226507085050798 C125.1530013212061 27.226507085050798 125.1530013212061 17.58378228044444 125.1530013212061 17.58378228044444 C125.1530013212061 15.767076488328255 124.73833117555938 14.788824111766985 124.04777501009093 14.229883530603988 C123.35721884462254 13.531143988434625 122.52787855332912 13.111832193036348 121.28470923230313 13.111832193036348 C119.35098374580866 13.111832193036348 117.693144279136 14.369597403989525 116.86380398784257 15.347849780550805 C116.86380398784257 15.347849780550805 116.86380398784257 27.086708124044428 116.86380398784257 27.086708124044428 C116.86380398784257 27.086708124044428 112.30495573347122 27.086708124044428 112.30495573347122 27.086708124044428 Z" vector-effect="non-scaling-stroke"/></defs> <path style="stroke-width: 0; stroke-linecap: butt; stroke-linejoin: miter; fill: rgb(255, 255, 255);" d="M112.03615190964621 26.54826344898442 C112.03615190964621 26.54826344898442 112.03615190964621 8.520664138345708 112.03615190964621 8.520664138345708 C112.03615190964621 8.520664138345708 116.59500016401756 8.520664138345708 116.59500016401756 8.520664138345708 C116.59500016401756 8.520664138345708 116.59500016401756 10.057942183690798 116.59500016401756 10.057942183690798 C117.97695361086858 8.93997593374398 119.63479307754125 8.241236391574617 121.56851856403568 8.241236391574617 C124.05485720608772 8.241236391574617 126.26530982831792 9.359202641521435 127.78520628507977 11.175908433637616 C128.89043259619496 12.573387517976343 129.71893177157426 14.390178397713342 129.71893177157426 17.464649400782704 C129.71893177157426 17.464649400782704 129.71893177157426 26.688062409990792 129.71893177157426 26.688062409990792 C129.71893177157426 26.688062409990792 124.88419749738108 26.688062409990792 124.88419749738108 26.688062409990792 C124.88419749738108 26.688062409990792 124.88419749738108 17.045337605384432 124.88419749738108 17.045337605384432 C124.88419749738108 15.228631813268251 124.46952735173437 14.250379436706979 123.77897118626595 13.691438855543979 C123.08841502079753 12.992699313374615 122.2590747295041 12.573387517976343 121.01590540847815 12.573387517976343 C119.08217992198365 12.573387517976343 117.42434045531098 13.831152728929517 116.59500016401756 14.809405105490796 C116.59500016401756 14.809405105490796 116.59500016401756 26.54826344898442 116.59500016401756 26.54826344898442 C116.59500016401756 26.54826344898442 112.03615190964621 26.54826344898442 112.03615190964621 26.54826344898442 Z" vector-effect="non-scaling-stroke"/></g><g><defs><path id="path-17453127929653881" d="M10.36087,0c-5.80202,0 -10.36087,4.61166 -10.36087,10.48118c0,3.07447 1.24317,5.86943 3.17689,7.82585c0.69056,0.69882 1.93457,0.69882 2.76307,0.1398c1.10523,-0.97825 2.76307,-1.53728 4.42091,-1.53728c1.79578,0 3.17689,0.55903 4.42091,1.53728c0.8285,0.69874 1.93373,0.55903 2.76222,-0.27951c1.93457,-1.9565 3.17774,-4.61166 3.17774,-7.68613c-0.13794,-5.72972 -4.69679,-10.48118 -10.36087,-10.48118zM10.22292,15.93138c-3.17774,0 -5.25025,-2.37573 -5.25025,-5.31049c0,-2.93476 2.07251,-5.31049 5.25025,-5.31049c3.17689,0 5.2494,2.37573 5.2494,5.31049c0,2.93476 -2.07251,5.31049 -5.2494,5.31049z" vector-effect="non-scaling-stroke"/></defs><path style="stroke-width: 0; stroke-linecap: butt; stroke-linejoin: miter; fill: rgb(98, 216, 78);" d="M10.36087,0c-5.80202,0 -10.36087,4.61166 -10.36087,10.48118c0,3.07447 1.24317,5.86943 3.17689,7.82585c0.69056,0.69882 1.93457,0.69882 2.76307,0.1398c1.10523,-0.97825 2.76307,-1.53728 4.42091,-1.53728c1.79578,0 3.17689,0.55903 4.42091,1.53728c0.8285,0.69874 1.93373,0.55903 2.76222,-0.27951c1.93457,-1.9565 3.17774,-4.61166 3.17774,-7.68613c-0.13794,-5.72972 -4.69679,-10.48118 -10.36087,-10.48118zM10.22292,15.93138c-3.17774,0 -5.25025,-2.37573 -5.25025,-5.31049c0,-2.93476 2.07251,-5.31049 5.25025,-5.31049c3.17689,0 5.2494,2.37573 5.2494,5.31049c0,2.93476 -2.07251,5.31049 -5.2494,5.31049z" transform="translate(131.6568628376391, 8.105776899230044) rotate(0)" vector-effect="non-scaling-stroke"/></g><g><defs><path id="path-17453127929643879" d="M151.39665895674912 9.066341261175381 C151.39665895674912 9.066341261175381 156.09345022103133 9.066341261175381 156.09345022103133 9.066341261175381 C156.09345022103133 9.066341261175381 159.96174230993438 19.407720520330294 159.96174230993438 19.407720520330294 C159.96174230993438 19.407720520330294 163.83003439883726 9.066341261175381 163.83003439883726 9.066341261175381 C163.83003439883726 9.066341261175381 167.83626949765113 9.066341261175381 167.83626949765113 9.066341261175381 C167.83626949765113 9.066341261175381 171.56577746072915 19.407720520330294 171.56577746072915 19.407720520330294 C171.56577746072915 19.407720520330294 175.4340695496321 9.066341261175381 175.4340695496321 9.066341261175381 C175.4340695496321 9.066341261175381 180.26880382382527 9.066341261175381 180.26880382382527 9.066341261175381 C180.26880382382527 9.066341261175381 173.22361692740182 27.093940571814116 173.22361692740182 27.093940571814116 C173.22361692740182 27.093940571814116 169.63205197423474 27.093940571814116 169.63205197423474 27.093940571814116 C169.63205197423474 27.093940571814116 165.76375988533175 16.892275186044746 165.76375988533175 16.892275186044746 C165.76375988533175 16.892275186044746 162.03425192225373 27.093940571814116 162.03425192225373 27.093940571814116 C162.03425192225373 27.093940571814116 158.44184585317254 27.093940571814116 158.44184585317254 27.093940571814116 C158.44184585317254 27.093940571814116 151.39665895674912 9.066341261175381 151.39665895674912 9.066341261175381 Z" vector-effect="non-scaling-stroke"/></defs> <path style="stroke-width: 0; stroke-linecap: butt; stroke-linejoin: miter; fill: rgb(255, 255, 255);" d="M151.12785513292386 8.527896586115354 C151.12785513292386 8.527896586115354 155.8246463972061 8.527896586115354 155.8246463972061 8.527896586115354 C155.8246463972061 8.527896586115354 159.69293848610914 18.869275845270266 159.69293848610914 18.869275845270266 C159.69293848610914 18.869275845270266 163.56123057501202 8.527896586115354 163.56123057501202 8.527896586115354 C163.56123057501202 8.527896586115354 167.56746567382584 8.527896586115354 167.56746567382584 8.527896586115354 C167.56746567382584 8.527896586115354 171.29697363690389 18.869275845270266 171.29697363690389 18.869275845270266 C171.29697363690389 18.869275845270266 175.16526572580688 8.527896586115354 175.16526572580688 8.527896586115354 C175.16526572580688 8.527896586115354 180 8.527896586115354 180 8.527896586115354 C180 8.527896586115354 172.9548131035766 26.55549589675409 172.9548131035766 26.55549589675409 C172.9548131035766 26.55549589675409 169.3632481504095 26.55549589675409 169.3632481504095 26.55549589675409 C169.3632481504095 26.55549589675409 165.4949560615065 16.35383051098472 165.4949560615065 16.35383051098472 C165.4949560615065 16.35383051098472 161.76544809842846 26.55549589675409 161.76544809842846 26.55549589675409 C161.76544809842846 26.55549589675409 158.1730420293473 26.55549589675409 158.1730420293473 26.55549589675409 C158.1730420293473 26.55549589675409 151.12785513292386 8.527896586115354 151.12785513292386 8.527896586115354 Z" vector-effect="non-scaling-stroke"/></g></svg>