<svg version="1.2" xmlns="http://www.w3.org/2000/svg" xmlns:xlink="http://www.w3.org/1999/xlink" overflow="visible" preserveAspectRatio="none" viewBox="0 0 60.00000144813958 59.99999999999999" width="60.00000144813958" height="59.99999999999999"><g transform="translate(0, 0)"><g transform="translate(7.24069790021542e-7, -5.329070518200751e-15) rotate(0)"><path style="stroke-width: 0; stroke-linecap: butt; stroke-linejoin: miter; fill: url(&quot;#gradient-174558453395518981&quot;);" d="M1.5329,36.83191c-0.44126,0 -0.82446,-0.31371 -0.91736,-0.74361c-2.83336,-13.65221 4.33132,-27.73431 17.03497,-33.47405c3.84361,-1.74284 7.96591,-2.61425 12.21595,-2.61425c8.58135,0 16.75628,3.61348 22.44622,9.92254l1.06831,1.18513l-0.98703,-7.38962c-0.03484,-0.244 0.03484,-0.48799 0.18579,-0.68552c0.15096,-0.19752 0.37159,-0.32533 0.61544,-0.36019c0.04645,0 0.08128,0 0.12773,0c0.46448,0 0.87091,0.34857 0.92897,0.81332l1.41668,10.59644c0.04645,0.30209 -0.06967,0.60418 -0.2903,0.81332c-0.17418,0.16266 -0.39481,0.244 -0.63867,0.244c-0.06967,0 -0.13935,0 -0.19741,-0.02324l-10.59025,-2.25407c-0.49932,-0.10457 -0.82446,-0.60418 -0.71995,-1.1038c0.0929,-0.4299 0.4761,-0.74361 0.91736,-0.74361c0.06967,0 0.12773,0 0.19741,0.02324l7.89624,1.68474l-0.96381,-1.11541c-5.34157,-6.16964 -13.14492,-9.7134 -21.40113,-9.7134c-3.99457,0 -7.84979,0.82494 -11.46116,2.45159c-11.91403,5.35631 -18.62583,18.55538 -15.96666,31.35941c0.04645,0.244 0,0.49961 -0.13935,0.70875c-0.13935,0.20914 -0.34836,0.34857 -0.59222,0.39504c-0.06967,0.01162 -0.12773,0.02324 -0.19741,0.02324zM30.12193,60c-8.27944,0 -15.50218,-2.91634 -20.87859,-8.43532l-1.0567,-1.08056l0.8593,6.06507c0.03484,0.244 -0.02322,0.48799 -0.17418,0.69713c-0.15096,0.19752 -0.37159,0.32533 -0.61544,0.36019c-0.04645,0 -0.0929,0 -0.13935,0c-0.46448,0 -0.8593,-0.34857 -0.92897,-0.81332l-1.49796,-10.59644c-0.04645,-0.30209 0.06967,-0.60418 0.2903,-0.81332c0.17418,-0.16266 0.40642,-0.25562 0.63867,-0.25562c0.05806,0 0.12773,0 0.18579,0.02324l10.59025,2.17273c0.49932,0.10457 0.83607,0.60418 0.73156,1.1038c-0.0929,0.4299 -0.4761,0.74361 -0.91736,0.74361c-0.05806,0 -0.12773,0 -0.18579,-0.02324l-9.31292,-1.9055l0.94058,1.09218c5.34157,6.21611 13.16814,9.78311 21.45919,9.78311v0c3.99457,0 7.84979,-0.82494 11.46116,-2.46321c11.91403,-5.37955 18.62583,-18.57862 15.96666,-31.38265c-0.10451,-0.51123 0.22063,-0.99923 0.73156,-1.1038c0.05806,-0.01162 0.12773,-0.02324 0.19741,-0.02324c0.44126,0 0.82446,0.31371 0.91736,0.74361c2.83336,13.65221 -4.33132,27.7227 -17.03497,33.46243c-3.85522,1.74284 -7.96591,2.62587 -12.21595,2.62587v0zM30.02903,48.45081c-1.6257,0 -3.25139,-0.22076 -4.83064,-0.65066c-4.74936,-1.27808 -8.70909,-4.34547 -11.17086,-8.62122c-2.46177,-4.27576 -3.10044,-9.24864 -1.8231,-13.98916c1.28894,-4.76375 4.34293,-8.73741 8.60458,-11.189c2.79852,-1.61503 5.96863,-2.46321 9.15035,-2.46321c1.6257,0 3.25139,0.22076 4.84225,0.65066c0.24385,0.06971 0.44126,0.22076 0.56899,0.44152c0.12773,0.22076 0.15096,0.46476 0.0929,0.70875c-0.10451,0.40666 -0.48771,0.69713 -0.90575,0.69713v0c-0.08128,0 -0.16257,0 -0.24385,-0.03486c-1.41668,-0.38342 -2.8798,-0.58095 -4.34293,-0.58095c-2.86819,0 -5.71316,0.76685 -8.22138,2.20759c-3.832,2.20759 -6.58407,5.77459 -7.73367,10.05035c-1.1496,4.26414 -0.56899,8.72579 1.63731,12.57165c2.2063,3.84586 5.77122,6.58792 10.03287,7.73819c1.42829,0.38342 2.89142,0.58095 4.34293,0.58095c2.86819,0 5.71316,-0.76685 8.22138,-2.20759c3.832,-2.20759 6.58407,-5.77459 7.73367,-10.05035c1.49796,-5.56545 0.04645,-11.39814 -3.87845,-15.6158c-0.34836,-0.3718 -0.33675,-0.96437 0.04645,-1.32455c0.17418,-0.16266 0.39481,-0.25562 0.63867,-0.25562c0.26708,0 0.51093,0.10457 0.68511,0.30209c4.37777,4.69404 5.99185,11.20062 4.31971,17.38187c-1.27733,4.75213 -4.34293,8.72579 -8.60458,11.189c-2.79852,1.61503 -5.96863,2.46321 -9.15035,2.46321zM30.24966,39.4694c-0.51093,0 -0.91736,-0.41828 -0.91736,-0.91789v-2.01007l-0.32514,-0.11619c-1.49796,-0.54609 -2.49661,-1.95198 -2.49661,-3.52053c0,-0.51123 0.41804,-0.91789 0.91736,-0.91789c0.49932,0 0.91736,0.41828 0.91736,0.91789c0,1.05732 0.8593,1.9055 1.90439,1.9055c1.04509,0 1.90439,-0.8598 1.90439,-1.9055c0,-1.0457 -0.8593,-1.9055 -1.90439,-1.9055c-2.06696,0 -3.7391,-1.68474 -3.7391,-3.74129c0,-1.58017 0.99864,-2.99768 2.49661,-3.52053l0.32514,-0.11619v-2.02169c0,-0.51123 0.41804,-0.91789 0.91736,-0.91789c0.49932,0 0.91736,0.40666 0.91736,0.91789v2.01007l0.32514,0.11619c1.49796,0.54609 2.49661,1.95198 2.49661,3.52053c0,0.51123 -0.41804,0.91789 -0.91736,0.91789c-0.49932,0 -0.91736,-0.40666 -0.91736,-0.91789c0,-1.05732 -0.8593,-1.9055 -1.90439,-1.9055c-1.04509,0 -1.90439,0.8598 -1.90439,1.9055c0,1.0457 0.8593,1.9055 1.90439,1.9055c2.06696,0 3.75071,1.68474 3.75071,3.74129c0,1.58017 -0.99864,2.99768 -2.49661,3.52053l-0.32514,0.11619v2.02169c0,0.51123 -0.41804,0.91789 -0.91736,0.91789z" vector-effect="non-scaling-stroke"/></g><defs><path id="path-17455845325192930" d="M1.5329,36.83191c-0.44126,0 -0.82446,-0.31371 -0.91736,-0.74361c-2.83336,-13.65221 4.33132,-27.73431 17.03497,-33.47405c3.84361,-1.74284 7.96591,-2.61425 12.21595,-2.61425c8.58135,0 16.75628,3.61348 22.44622,9.92254l1.06831,1.18513l-0.98703,-7.38962c-0.03484,-0.244 0.03484,-0.48799 0.18579,-0.68552c0.15096,-0.19752 0.37159,-0.32533 0.61544,-0.36019c0.04645,0 0.08128,0 0.12773,0c0.46448,0 0.87091,0.34857 0.92897,0.81332l1.41668,10.59644c0.04645,0.30209 -0.06967,0.60418 -0.2903,0.81332c-0.17418,0.16266 -0.39481,0.244 -0.63867,0.244c-0.06967,0 -0.13935,0 -0.19741,-0.02324l-10.59025,-2.25407c-0.49932,-0.10457 -0.82446,-0.60418 -0.71995,-1.1038c0.0929,-0.4299 0.4761,-0.74361 0.91736,-0.74361c0.06967,0 0.12773,0 0.19741,0.02324l7.89624,1.68474l-0.96381,-1.11541c-5.34157,-6.16964 -13.14492,-9.7134 -21.40113,-9.7134c-3.99457,0 -7.84979,0.82494 -11.46116,2.45159c-11.91403,5.35631 -18.62583,18.55538 -15.96666,31.35941c0.04645,0.244 0,0.49961 -0.13935,0.70875c-0.13935,0.20914 -0.34836,0.34857 -0.59222,0.39504c-0.06967,0.01162 -0.12773,0.02324 -0.19741,0.02324zM30.12193,60c-8.27944,0 -15.50218,-2.91634 -20.87859,-8.43532l-1.0567,-1.08056l0.8593,6.06507c0.03484,0.244 -0.02322,0.48799 -0.17418,0.69713c-0.15096,0.19752 -0.37159,0.32533 -0.61544,0.36019c-0.04645,0 -0.0929,0 -0.13935,0c-0.46448,0 -0.8593,-0.34857 -0.92897,-0.81332l-1.49796,-10.59644c-0.04645,-0.30209 0.06967,-0.60418 0.2903,-0.81332c0.17418,-0.16266 0.40642,-0.25562 0.63867,-0.25562c0.05806,0 0.12773,0 0.18579,0.02324l10.59025,2.17273c0.49932,0.10457 0.83607,0.60418 0.73156,1.1038c-0.0929,0.4299 -0.4761,0.74361 -0.91736,0.74361c-0.05806,0 -0.12773,0 -0.18579,-0.02324l-9.31292,-1.9055l0.94058,1.09218c5.34157,6.21611 13.16814,9.78311 21.45919,9.78311v0c3.99457,0 7.84979,-0.82494 11.46116,-2.46321c11.91403,-5.37955 18.62583,-18.57862 15.96666,-31.38265c-0.10451,-0.51123 0.22063,-0.99923 0.73156,-1.1038c0.05806,-0.01162 0.12773,-0.02324 0.19741,-0.02324c0.44126,0 0.82446,0.31371 0.91736,0.74361c2.83336,13.65221 -4.33132,27.7227 -17.03497,33.46243c-3.85522,1.74284 -7.96591,2.62587 -12.21595,2.62587v0zM30.02903,48.45081c-1.6257,0 -3.25139,-0.22076 -4.83064,-0.65066c-4.74936,-1.27808 -8.70909,-4.34547 -11.17086,-8.62122c-2.46177,-4.27576 -3.10044,-9.24864 -1.8231,-13.98916c1.28894,-4.76375 4.34293,-8.73741 8.60458,-11.189c2.79852,-1.61503 5.96863,-2.46321 9.15035,-2.46321c1.6257,0 3.25139,0.22076 4.84225,0.65066c0.24385,0.06971 0.44126,0.22076 0.56899,0.44152c0.12773,0.22076 0.15096,0.46476 0.0929,0.70875c-0.10451,0.40666 -0.48771,0.69713 -0.90575,0.69713v0c-0.08128,0 -0.16257,0 -0.24385,-0.03486c-1.41668,-0.38342 -2.8798,-0.58095 -4.34293,-0.58095c-2.86819,0 -5.71316,0.76685 -8.22138,2.20759c-3.832,2.20759 -6.58407,5.77459 -7.73367,10.05035c-1.1496,4.26414 -0.56899,8.72579 1.63731,12.57165c2.2063,3.84586 5.77122,6.58792 10.03287,7.73819c1.42829,0.38342 2.89142,0.58095 4.34293,0.58095c2.86819,0 5.71316,-0.76685 8.22138,-2.20759c3.832,-2.20759 6.58407,-5.77459 7.73367,-10.05035c1.49796,-5.56545 0.04645,-11.39814 -3.87845,-15.6158c-0.34836,-0.3718 -0.33675,-0.96437 0.04645,-1.32455c0.17418,-0.16266 0.39481,-0.25562 0.63867,-0.25562c0.26708,0 0.51093,0.10457 0.68511,0.30209c4.37777,4.69404 5.99185,11.20062 4.31971,17.38187c-1.27733,4.75213 -4.34293,8.72579 -8.60458,11.189c-2.79852,1.61503 -5.96863,2.46321 -9.15035,2.46321zM30.24966,39.4694c-0.51093,0 -0.91736,-0.41828 -0.91736,-0.91789v-2.01007l-0.32514,-0.11619c-1.49796,-0.54609 -2.49661,-1.95198 -2.49661,-3.52053c0,-0.51123 0.41804,-0.91789 0.91736,-0.91789c0.49932,0 0.91736,0.41828 0.91736,0.91789c0,1.05732 0.8593,1.9055 1.90439,1.9055c1.04509,0 1.90439,-0.8598 1.90439,-1.9055c0,-1.0457 -0.8593,-1.9055 -1.90439,-1.9055c-2.06696,0 -3.7391,-1.68474 -3.7391,-3.74129c0,-1.58017 0.99864,-2.99768 2.49661,-3.52053l0.32514,-0.11619v-2.02169c0,-0.51123 0.41804,-0.91789 0.91736,-0.91789c0.49932,0 0.91736,0.40666 0.91736,0.91789v2.01007l0.32514,0.11619c1.49796,0.54609 2.49661,1.95198 2.49661,3.52053c0,0.51123 -0.41804,0.91789 -0.91736,0.91789c-0.49932,0 -0.91736,-0.40666 -0.91736,-0.91789c0,-1.05732 -0.8593,-1.9055 -1.90439,-1.9055c-1.04509,0 -1.90439,0.8598 -1.90439,1.9055c0,1.0457 0.8593,1.9055 1.90439,1.9055c2.06696,0 3.75071,1.68474 3.75071,3.74129c0,1.58017 -0.99864,2.99768 -2.49661,3.52053l-0.32514,0.11619v2.02169c0,0.51123 -0.41804,0.91789 -0.91736,0.91789z" vector-effect="non-scaling-stroke"/><linearGradient id="gradient-174558453395518981" x1="15%" y1="15%" x2="85%" y2="85%" vector-effect="non-scaling-stroke"><stop offset="0%" stop-color="rgb(0,89,178)" stop-opacity="1" vector-effect="non-scaling-stroke"/><stop offset="100%" stop-color="rgb(181,245,140)" stop-opacity="1" vector-effect="non-scaling-stroke"/></linearGradient></defs></g></svg>