<svg version="1.2" xmlns="http://www.w3.org/2000/svg" xmlns:xlink="http://www.w3.org/1999/xlink" overflow="visible" preserveAspectRatio="none" viewBox="0 0 123.00000000000001 23.407414255092277" width="123.00000000000001" height="23.407414255092277"><g transform="translate(0, 0)"><g transform="translate(0, 1.7763568394002505e-15) rotate(0)"><path style="stroke-width: 0; stroke-linecap: butt; stroke-linejoin: miter; fill: rgb(242, 242, 243);" d="M11.31913,22.96531h-4.55017v-18.85949h-6.76896v-4.10582h18.02242v4.10582h-6.70329zM39.64746,0h-4.34377v22.96531h4.34377zM109.79044,19.24044c-2.50025,0 -4.52672,-2.02704 -4.52672,-4.5338c0,-2.50676 2.02178,-4.53851 4.52202,-4.53851c1.40727,0 2.73948,0.65373 3.59323,1.77778l3.28363,-2.53028c-2.91305,-3.80482 -8.3498,-4.5291 -12.14473,-1.60847c-3.79494,2.92063 -4.51733,8.37154 -1.60429,12.17636c2.91305,3.80482 8.3498,4.5291 12.14473,1.60847c0.60043,-0.46091 1.13989,-1.00176 1.60429,-1.60847l-3.28363,-2.52087c-0.85374,1.11934 -2.18127,1.77778 -3.58854,1.77778zM79.13543,0v14.70194c0.00469,4.80188 -3.87468,8.70076 -8.66409,8.70547c-4.78941,0.0047 -8.67816,-3.88477 -8.68285,-8.68665c-0.00469,-4.80188 3.87468,-8.70076 8.66409,-8.70547c1.60429,0 3.17574,0.44209 4.54548,1.28395v-7.29923zM74.99805,14.70664c0,-2.50676 -2.02647,-4.53851 -4.52672,-4.53851c-2.50025,0 -4.52672,2.03175 -4.52672,4.53851c0,2.50676 2.02647,4.53851 4.52672,4.53851c0,0 0,0 0.00469,0c2.49556,0 4.51733,-2.02704 4.51733,-4.5291v0zM90.13089,23.38389c-1.13989,-0.65844 -1.53392,-2.1164 -0.88189,-3.25926c0.21109,-0.36684 0.516,-0.67255 0.88189,-0.88419c-2.50025,0 -4.52672,-2.03175 -4.52672,-4.53851c0,-2.50676 2.02647,-4.53851 4.52672,-4.53851c1.14458,-0.65844 1.53392,-2.12581 0.8772,-3.26866c-0.21109,-0.36684 -0.51131,-0.66784 -0.8772,-0.87948c-4.78471,-0.11758 -8.7579,3.67313 -8.87518,8.46561c-0.11727,4.79247 3.66359,8.78072 8.44361,8.89829c0.14542,0 0.28614,0 0.43156,0zM50.81648,6.01999c-4.78471,0.11758 -8.56558,4.10582 -8.44361,8.89829c0.11258,4.62787 3.82777,8.35273 8.44361,8.46561c1.63243,-0.00941 3.21326,-0.55026 4.51264,-1.53322v1.32628h4.13737v-8.47031c0,-4.79247 -3.86999,-8.68195 -8.6547,-8.68665h-0.00938zM50.80241,19.24044c-2.50025,0 -4.52672,-2.03175 -4.52672,-4.53851c0,-2.50676 2.02647,-4.53851 4.52672,-4.53851c2.50025,0 4.52672,2.03175 4.52672,4.53851c0,2.50206 -2.01709,4.5291 -4.51264,4.53851zM118.90485,22.96531h0.34713v-2.21517h0.8256v-0.31041h-1.99363v0.31041h0.82091zM121.79913,22.65961l0.87251,-1.52381v1.82951h0.32836v-2.53028h-0.27676l-0.99447,1.77778l-1.00854,-1.77778h-0.28145v2.53028h0.33305v-1.82951l0.87251,1.52381h0.15949zM19.683,16.36214c0.90534,2.45973 3.63075,3.72016 6.08878,2.81246c0.84436,-0.31041 1.58083,-0.86067 2.12498,-1.57554l3.10537,2.38918c-2.91305,3.80012 -8.3498,4.51499 -12.14004,1.58965c-3.79024,-2.92063 -4.50326,-8.37154 -1.58552,-12.17166c2.91305,-3.80012 8.3498,-4.51499 12.14004,-1.58965c2.13436,1.64609 3.38214,4.19048 3.38214,6.89006c0,0.55497 -0.05629,1.10994 -0.15949,1.6602h-12.95157zM19.683,13.04644h8.87049c-0.91472,-2.46443 -3.64483,-3.71546 -6.09817,-2.80306c-1.29469,0.47972 -2.31261,1.505 -2.79577,2.80306z" vector-effect="non-scaling-stroke"/></g><defs><path id="path-17453992527531388" d="M11.31913,22.96531h-4.55017v-18.85949h-6.76896v-4.10582h18.02242v4.10582h-6.70329zM39.64746,0h-4.34377v22.96531h4.34377zM109.79044,19.24044c-2.50025,0 -4.52672,-2.02704 -4.52672,-4.5338c0,-2.50676 2.02178,-4.53851 4.52202,-4.53851c1.40727,0 2.73948,0.65373 3.59323,1.77778l3.28363,-2.53028c-2.91305,-3.80482 -8.3498,-4.5291 -12.14473,-1.60847c-3.79494,2.92063 -4.51733,8.37154 -1.60429,12.17636c2.91305,3.80482 8.3498,4.5291 12.14473,1.60847c0.60043,-0.46091 1.13989,-1.00176 1.60429,-1.60847l-3.28363,-2.52087c-0.85374,1.11934 -2.18127,1.77778 -3.58854,1.77778zM79.13543,0v14.70194c0.00469,4.80188 -3.87468,8.70076 -8.66409,8.70547c-4.78941,0.0047 -8.67816,-3.88477 -8.68285,-8.68665c-0.00469,-4.80188 3.87468,-8.70076 8.66409,-8.70547c1.60429,0 3.17574,0.44209 4.54548,1.28395v-7.29923zM74.99805,14.70664c0,-2.50676 -2.02647,-4.53851 -4.52672,-4.53851c-2.50025,0 -4.52672,2.03175 -4.52672,4.53851c0,2.50676 2.02647,4.53851 4.52672,4.53851c0,0 0,0 0.00469,0c2.49556,0 4.51733,-2.02704 4.51733,-4.5291v0zM90.13089,23.38389c-1.13989,-0.65844 -1.53392,-2.1164 -0.88189,-3.25926c0.21109,-0.36684 0.516,-0.67255 0.88189,-0.88419c-2.50025,0 -4.52672,-2.03175 -4.52672,-4.53851c0,-2.50676 2.02647,-4.53851 4.52672,-4.53851c1.14458,-0.65844 1.53392,-2.12581 0.8772,-3.26866c-0.21109,-0.36684 -0.51131,-0.66784 -0.8772,-0.87948c-4.78471,-0.11758 -8.7579,3.67313 -8.87518,8.46561c-0.11727,4.79247 3.66359,8.78072 8.44361,8.89829c0.14542,0 0.28614,0 0.43156,0zM50.81648,6.01999c-4.78471,0.11758 -8.56558,4.10582 -8.44361,8.89829c0.11258,4.62787 3.82777,8.35273 8.44361,8.46561c1.63243,-0.00941 3.21326,-0.55026 4.51264,-1.53322v1.32628h4.13737v-8.47031c0,-4.79247 -3.86999,-8.68195 -8.6547,-8.68665h-0.00938zM50.80241,19.24044c-2.50025,0 -4.52672,-2.03175 -4.52672,-4.53851c0,-2.50676 2.02647,-4.53851 4.52672,-4.53851c2.50025,0 4.52672,2.03175 4.52672,4.53851c0,2.50206 -2.01709,4.5291 -4.51264,4.53851zM118.90485,22.96531h0.34713v-2.21517h0.8256v-0.31041h-1.99363v0.31041h0.82091zM121.79913,22.65961l0.87251,-1.52381v1.82951h0.32836v-2.53028h-0.27676l-0.99447,1.77778l-1.00854,-1.77778h-0.28145v2.53028h0.33305v-1.82951l0.87251,1.52381h0.15949zM19.683,16.36214c0.90534,2.45973 3.63075,3.72016 6.08878,2.81246c0.84436,-0.31041 1.58083,-0.86067 2.12498,-1.57554l3.10537,2.38918c-2.91305,3.80012 -8.3498,4.51499 -12.14004,1.58965c-3.79024,-2.92063 -4.50326,-8.37154 -1.58552,-12.17166c2.91305,-3.80012 8.3498,-4.51499 12.14004,-1.58965c2.13436,1.64609 3.38214,4.19048 3.38214,6.89006c0,0.55497 -0.05629,1.10994 -0.15949,1.6602h-12.95157zM19.683,13.04644h8.87049c-0.91472,-2.46443 -3.64483,-3.71546 -6.09817,-2.80306c-1.29469,0.47972 -2.31261,1.505 -2.79577,2.80306z" vector-effect="non-scaling-stroke"/></defs></g></svg>