<svg version="1.2" xmlns="http://www.w3.org/2000/svg" xmlns:xlink="http://www.w3.org/1999/xlink" overflow="visible" preserveAspectRatio="none" viewBox="0 0 60 38.21336438870318" width="60" height="38.21336438870318"><g transform="translate(0, 0)"><g transform="translate(0.000009999999992515995, 0) rotate(0)"><path style="stroke-width: 0; stroke-linecap: butt; stroke-linejoin: miter; fill: url(&quot;#gradient-17458335623427404&quot;);" d="M48.44473,0l-5.83548,3.41052c-1.43959,0.8331 -1.92802,2.68155 -1.09254,4.13948l0.37275,0.65086c-0.87404,0.28638 -1.82519,0.28638 -2.69923,-0.03905c-7.17224,-2.6425 -4.8329,-2.42121 -13.3419,-1.11948c-1.58098,0.24733 -2.94344,1.18457 -3.74036,2.57741c-0.17995,0.24733 0.07712,0.18224 -1.38817,0.18224c-0.79692,0 -1.04113,-0.26034 -2.72494,-1.40586c0.53985,-0.95026 1.14396,-1.77034 0.78406,-3.13715c-0.21851,-0.80707 -0.71979,-1.44491 -1.40103,-1.83543l-5.83548,-3.41052l-11.54242,20.17671l5.84833,3.3975v0c1.36247,0.79405 3.08483,0.39052 3.95887,-0.91121l1.92802,1.27569c-1.76093,2.48629 -0.14139,5.07672 2.14653,5.24595c-0.83548,2.265 1.04113,4.62112 3.43188,4.2306c0.12853,2.33009 2.5964,3.73595 4.6401,2.62948c0.82262,2.44724 4.03599,2.92888 5.53985,0.8331l0.48843,-0.68991c2.30077,0.92422 6.73522,2.40819 8.21337,0.18224c0.42416,-0.62483 0.57841,-1.48396 0.52699,-2.05672c1.76093,0.06509 3.21337,-1.30172 3.27763,-3.08508c1.88946,0.50767 3.85604,-0.85914 3.95887,-2.91586c2.41645,0.80707 4.8072,-1.53603 3.95887,-4.04836l2.01799,-2.04371c1.05398,1.83543 2.86632,2.14784 4.22879,1.35379l5.83548,-3.3975l-11.54242,-20.17671zM8.509,21.64766c-0.37275,0.65086 -1.20823,0.87215 -1.8509,0.49465l-4.42159,-2.57741l9.91003,-17.29991c4.65296,2.7206 4.85861,2.66853 5.05141,3.41052v0c0.17995,0.66388 -0.14139,1.04138 -0.56555,1.78336c-0.05141,-0.03905 0.28278,-0.50767 -8.11054,14.18879zM12.60925,26.02145c0,-0.31241 0.10283,-0.62483 0.28278,-0.88517v0c1.24679,-1.75733 1.54242,-2.48629 2.51928,-2.53836c0.89974,-0.03905 1.58098,0.66388 1.58098,1.52302c0,0.63784 -0.32134,0.93724 -1.64524,2.79871c-0.86118,1.19759 -2.73779,0.58578 -2.73779,-0.88517zM18.04627,31.1893c-0.48843,0.6769 -1.42674,0.82009 -2.09512,0.33845c-0.69409,-0.50767 -0.82262,-1.45793 -0.34704,-2.12181c3.81748,-5.37612 3.8946,-5.8187 4.92288,-5.80569c0.79692,0 1.47815,0.65086 1.47815,1.52302c0,0.6769 0.03856,0.44259 -3.95887,6.07905zM21.6838,34.14421c-0.48843,0.68991 -1.43959,0.8331 -2.12082,0.35147v0c-0.65553,-0.46862 -0.84833,-1.41888 -0.34704,-2.12181c3.41902,-4.81638 3.509,-5.31103 4.56298,-5.29801c0.80977,0.01302 1.491,0.66388 1.491,1.52302c0,0.61181 0.10283,0.36448 -3.58612,5.54534zM27.72494,33.71464l-1.2982,1.82241l-0.26992,0.3775c-0.86118,1.19759 -2.75064,0.58578 -2.75064,-0.88517c0,-0.58578 0.21851,-0.79405 1.86375,-3.0981c0.48843,-0.66388 1.42674,-0.82009 2.09512,-0.32543c0.65553,0.46862 0.84833,1.41888 0.34704,2.12181zM46.16967,26.16464c-0.46272,0.68991 -1.40103,0.88517 -2.09512,0.40353l-8.86889,-4.6081c-0.96401,-0.50767 -1.70951,0.97629 -0.7455,1.47095l7.63496,3.95724c0.82262,1.40586 -0.82262,2.9419 -2.13368,2.04371c-0.10283,-0.06509 0,-0.01302 -7.31362,-3.25431c-0.98972,-0.44259 -1.64524,1.08043 -0.65553,1.52302l6.19537,2.74664c0.73265,1.40586 -0.89974,2.85077 -2.18509,1.9656c-0.12853,-0.0781 0,-0.02603 -5.69409,-2.25198c-1.00257,-0.39052 -1.59383,1.14552 -0.59126,1.54905l5.07712,1.97862c0.3856,0.50767 0.41131,1.22362 0.05141,1.77034c-0.60411,0.89819 -3.56041,0.18224 -4.6401,-0.18224c-0.39846,-0.14319 -0.84833,-0.31241 -1.23393,-0.4556c1.47815,-2.08276 0.33419,-4.56905 -1.76093,-5.0637c-0.57841,-0.14319 -0.48843,0.0781 -0.37275,-0.44259c0.42416,-1.90052 -0.88689,-3.59276 -2.62211,-3.84008c-0.70694,-0.10414 -0.56555,0.13017 -0.56555,-0.33845c0,-2.79871 -3.3162,-4.19155 -5.29563,-2.31707c-1.00257,-2.23896 -4.03599,-2.51233 -5.42416,-0.54672c-0.28278,0.39052 -0.20566,0.35147 -0.33419,0.26034l-1.94087,-1.28871l6.51671,-11.4031c1.32391,0.89819 2.10797,1.62715 3.54756,1.62715c0.05141,0 0.3599,-0.44259 -2.87918,3.97026v0c-0.65553,0.88517 -0.33419,2.16086 0.68123,2.62948c1.22108,0.54672 1.87661,0.84612 1.91517,0.87215c1.97943,0.71595 4.22879,0.10414 5.59126,-1.52302c2.4036,-2.86379 1.79949,-2.43422 3.36761,-2.90284c0.66838,-0.19526 1.38817,-0.09112 1.97943,0.28638l14.39589,9.25525c0.66838,0.4556 0.87404,1.40586 0.39846,2.12181zM46.96658,22.8843c-0.21851,-0.18224 -14.67866,-9.50258 -15.1671,-9.73689c-1.36247,-0.63784 -2.37789,-0.36448 -3.7018,0.02603c-1.15681,0.33845 -1.47815,0.97629 -3.3162,3.17621c-0.92545,1.09345 -2.42931,1.51 -3.76607,1.04138c-1.86375,-0.84612 -1.95373,-0.8331 -1.86375,-0.96328c5,-6.78198 4.91003,-6.61276 4.85861,-6.61276c1.14396,-1.23664 1.90231,-1.09345 7.93059,-2.00465c0.68123,-0.10414 1.36247,-0.03905 1.99229,0.20828v0c4.89717,1.79638 5.39846,2.10879 6.77378,2.08276c0.65553,0 1.37532,-0.14319 2.03085,-0.41655l6.33676,11.07767l-2.09512,2.13483zM53.32905,22.14232c-0.64267,0.3775 -1.47815,0.15621 -1.86375,-0.50767v0c-8.52185,-14.90473 -8.49614,-14.85267 -8.5347,-14.91775c-0.37275,-0.65086 -0.15424,-1.49698 0.50129,-1.87448l4.42159,-2.57741l9.89717,17.29991z" vector-effect="non-scaling-stroke"/></g><defs><path id="path-17458335601314143" d="M48.44473,0l-5.83548,3.41052c-1.43959,0.8331 -1.92802,2.68155 -1.09254,4.13948l0.37275,0.65086c-0.87404,0.28638 -1.82519,0.28638 -2.69923,-0.03905c-7.17224,-2.6425 -4.8329,-2.42121 -13.3419,-1.11948c-1.58098,0.24733 -2.94344,1.18457 -3.74036,2.57741c-0.17995,0.24733 0.07712,0.18224 -1.38817,0.18224c-0.79692,0 -1.04113,-0.26034 -2.72494,-1.40586c0.53985,-0.95026 1.14396,-1.77034 0.78406,-3.13715c-0.21851,-0.80707 -0.71979,-1.44491 -1.40103,-1.83543l-5.83548,-3.41052l-11.54242,20.17671l5.84833,3.3975v0c1.36247,0.79405 3.08483,0.39052 3.95887,-0.91121l1.92802,1.27569c-1.76093,2.48629 -0.14139,5.07672 2.14653,5.24595c-0.83548,2.265 1.04113,4.62112 3.43188,4.2306c0.12853,2.33009 2.5964,3.73595 4.6401,2.62948c0.82262,2.44724 4.03599,2.92888 5.53985,0.8331l0.48843,-0.68991c2.30077,0.92422 6.73522,2.40819 8.21337,0.18224c0.42416,-0.62483 0.57841,-1.48396 0.52699,-2.05672c1.76093,0.06509 3.21337,-1.30172 3.27763,-3.08508c1.88946,0.50767 3.85604,-0.85914 3.95887,-2.91586c2.41645,0.80707 4.8072,-1.53603 3.95887,-4.04836l2.01799,-2.04371c1.05398,1.83543 2.86632,2.14784 4.22879,1.35379l5.83548,-3.3975l-11.54242,-20.17671zM8.509,21.64766c-0.37275,0.65086 -1.20823,0.87215 -1.8509,0.49465l-4.42159,-2.57741l9.91003,-17.29991c4.65296,2.7206 4.85861,2.66853 5.05141,3.41052v0c0.17995,0.66388 -0.14139,1.04138 -0.56555,1.78336c-0.05141,-0.03905 0.28278,-0.50767 -8.11054,14.18879zM12.60925,26.02145c0,-0.31241 0.10283,-0.62483 0.28278,-0.88517v0c1.24679,-1.75733 1.54242,-2.48629 2.51928,-2.53836c0.89974,-0.03905 1.58098,0.66388 1.58098,1.52302c0,0.63784 -0.32134,0.93724 -1.64524,2.79871c-0.86118,1.19759 -2.73779,0.58578 -2.73779,-0.88517zM18.04627,31.1893c-0.48843,0.6769 -1.42674,0.82009 -2.09512,0.33845c-0.69409,-0.50767 -0.82262,-1.45793 -0.34704,-2.12181c3.81748,-5.37612 3.8946,-5.8187 4.92288,-5.80569c0.79692,0 1.47815,0.65086 1.47815,1.52302c0,0.6769 0.03856,0.44259 -3.95887,6.07905zM21.6838,34.14421c-0.48843,0.68991 -1.43959,0.8331 -2.12082,0.35147v0c-0.65553,-0.46862 -0.84833,-1.41888 -0.34704,-2.12181c3.41902,-4.81638 3.509,-5.31103 4.56298,-5.29801c0.80977,0.01302 1.491,0.66388 1.491,1.52302c0,0.61181 0.10283,0.36448 -3.58612,5.54534zM27.72494,33.71464l-1.2982,1.82241l-0.26992,0.3775c-0.86118,1.19759 -2.75064,0.58578 -2.75064,-0.88517c0,-0.58578 0.21851,-0.79405 1.86375,-3.0981c0.48843,-0.66388 1.42674,-0.82009 2.09512,-0.32543c0.65553,0.46862 0.84833,1.41888 0.34704,2.12181zM46.16967,26.16464c-0.46272,0.68991 -1.40103,0.88517 -2.09512,0.40353l-8.86889,-4.6081c-0.96401,-0.50767 -1.70951,0.97629 -0.7455,1.47095l7.63496,3.95724c0.82262,1.40586 -0.82262,2.9419 -2.13368,2.04371c-0.10283,-0.06509 0,-0.01302 -7.31362,-3.25431c-0.98972,-0.44259 -1.64524,1.08043 -0.65553,1.52302l6.19537,2.74664c0.73265,1.40586 -0.89974,2.85077 -2.18509,1.9656c-0.12853,-0.0781 0,-0.02603 -5.69409,-2.25198c-1.00257,-0.39052 -1.59383,1.14552 -0.59126,1.54905l5.07712,1.97862c0.3856,0.50767 0.41131,1.22362 0.05141,1.77034c-0.60411,0.89819 -3.56041,0.18224 -4.6401,-0.18224c-0.39846,-0.14319 -0.84833,-0.31241 -1.23393,-0.4556c1.47815,-2.08276 0.33419,-4.56905 -1.76093,-5.0637c-0.57841,-0.14319 -0.48843,0.0781 -0.37275,-0.44259c0.42416,-1.90052 -0.88689,-3.59276 -2.62211,-3.84008c-0.70694,-0.10414 -0.56555,0.13017 -0.56555,-0.33845c0,-2.79871 -3.3162,-4.19155 -5.29563,-2.31707c-1.00257,-2.23896 -4.03599,-2.51233 -5.42416,-0.54672c-0.28278,0.39052 -0.20566,0.35147 -0.33419,0.26034l-1.94087,-1.28871l6.51671,-11.4031c1.32391,0.89819 2.10797,1.62715 3.54756,1.62715c0.05141,0 0.3599,-0.44259 -2.87918,3.97026v0c-0.65553,0.88517 -0.33419,2.16086 0.68123,2.62948c1.22108,0.54672 1.87661,0.84612 1.91517,0.87215c1.97943,0.71595 4.22879,0.10414 5.59126,-1.52302c2.4036,-2.86379 1.79949,-2.43422 3.36761,-2.90284c0.66838,-0.19526 1.38817,-0.09112 1.97943,0.28638l14.39589,9.25525c0.66838,0.4556 0.87404,1.40586 0.39846,2.12181zM46.96658,22.8843c-0.21851,-0.18224 -14.67866,-9.50258 -15.1671,-9.73689c-1.36247,-0.63784 -2.37789,-0.36448 -3.7018,0.02603c-1.15681,0.33845 -1.47815,0.97629 -3.3162,3.17621c-0.92545,1.09345 -2.42931,1.51 -3.76607,1.04138c-1.86375,-0.84612 -1.95373,-0.8331 -1.86375,-0.96328c5,-6.78198 4.91003,-6.61276 4.85861,-6.61276c1.14396,-1.23664 1.90231,-1.09345 7.93059,-2.00465c0.68123,-0.10414 1.36247,-0.03905 1.99229,0.20828v0c4.89717,1.79638 5.39846,2.10879 6.77378,2.08276c0.65553,0 1.37532,-0.14319 2.03085,-0.41655l6.33676,11.07767l-2.09512,2.13483zM53.32905,22.14232c-0.64267,0.3775 -1.47815,0.15621 -1.86375,-0.50767v0c-8.52185,-14.90473 -8.49614,-14.85267 -8.5347,-14.91775c-0.37275,-0.65086 -0.15424,-1.49698 0.50129,-1.87448l4.42159,-2.57741l9.89717,17.29991z" vector-effect="non-scaling-stroke"/><linearGradient id="gradient-17458335623427404" x1="87%" y1="84%" x2="13%" y2="16%" vector-effect="non-scaling-stroke"><stop offset="0%" stop-color="rgb(181,245,140)" stop-opacity="1" vector-effect="non-scaling-stroke"/><stop offset="100%" stop-color="rgb(0,89,178)" stop-opacity="1" vector-effect="non-scaling-stroke"/></linearGradient></defs></g></svg>